<svg width="158" height="141" viewBox="0 0 158 141" fill="none" xmlns="http://www.w3.org/2000/svg">
<path d="M105.743 0.104927C105.848 0.932718 104.307 0.827794 104.12 0.932726C103.243 1.5383 102.412 2.20862 101.634 2.93808C101.331 3.82417 102.089 3.84749 101.821 4.58201L102.101 4.44209L101.961 5.42146L102.241 5.28154C102.271 5.61021 102.318 5.93713 102.381 6.26091V6.40081C102.463 6.83219 102.463 7.34519 102.521 7.79989L102.801 7.34519V8.51109L103.082 8.23127C102.626 9.82856 103.875 11.5774 103.385 13.198C103.163 13.9442 101.669 13.9559 101.191 14.3639C101.061 14.4557 100.969 14.5908 100.93 14.7448C100.892 14.8988 100.91 15.0614 100.981 15.2034C100.794 15.4016 100.035 15.2034 100 15.2034C99.9653 15.2034 100.129 15.9029 99.7903 16.0428C99.7903 16.0428 99.4985 15.6931 99.4402 15.763C99.2184 16.0428 100.759 19.6105 100.701 20.2401L100.981 19.9603C100.981 20.1351 100.981 20.3333 100.981 20.5199V20.7997C101.249 21.7791 102.008 22.5369 102.148 23.5862L102.428 23.4463L103.128 26.1046L103.408 25.8248C103.023 26.6759 103.618 26.2445 103.7 26.466C103.782 26.6875 103.595 27.1655 103.7 27.4104C103.805 27.6552 103.969 27.492 103.98 27.5036L104.05 27.2238C104.19 27.2238 104.05 27.4104 104.12 27.5036C104.295 28.2032 104.295 28.9843 104.54 29.7422L104.961 29.4624L105.801 33.3681L106.081 32.4004L106.221 34.2076L106.501 33.6596L106.641 35.3269L106.921 35.0587C106.63 36.3878 108.019 37.2623 107.622 38.6847L107.89 38.4048L108.882 43.0684L109.151 42.9285L109.022 43.768L109.431 43.4882C109.361 44.5142 109.991 45.4352 109.863 46.2863L110.131 46.1348V47.5339L110.399 46.8343V48.0935L110.68 47.9536C110.446 48.5598 111.216 49.6791 111.24 49.7724C111.263 49.8657 110.936 50.0406 110.995 50.2388C111.158 50.8683 112.068 51.4979 111.38 52.1508L111.8 51.871C111.45 52.862 112.208 53.2001 112.36 53.7598C112.512 54.3194 111.94 53.5383 112.115 54.1445C112.372 55.0656 112.979 55.0539 112.64 56.0683L112.92 55.5086L113.2 57.7355L113.481 57.3274L113.341 58.1552L113.621 57.8871C113.983 58.3651 113.562 59.053 113.621 59.1346C113.679 59.2162 113.936 58.9131 114.076 59.3095C114.279 59.881 114.363 60.4882 114.321 61.0933L114.601 60.8135V62.1426L114.881 61.7229L115.021 63.2619L115.441 62.9821V64.3812L115.722 64.1013C115.862 64.6609 115.721 66.4331 116.002 64.8009C116.296 65.7648 116.53 66.746 116.702 67.7389C116.702 67.4591 116.784 67.669 116.842 67.7389C116.9 67.8089 117.192 67.4591 116.982 68.4385L117.262 68.2869C117.005 68.7299 117.811 69.756 117.962 70.4672C118.032 70.8519 117.682 70.4672 117.682 70.4672C117.764 70.9685 117.787 71.2483 118.102 70.747C118.331 71.8378 118.833 72.8528 119.561 73.6967C119.974 73.995 120.407 74.2638 120.857 74.5012C121.861 74.6177 122.875 74.6177 123.88 74.5012C125.28 74.2913 125.677 73.5918 126.996 73.4169C127.218 73.0438 128.07 71.4348 128.315 72.146C129.05 70.9801 130.264 70.3389 131.046 69.208C131.314 68.8349 130.894 67.7506 131.956 68.5084C131.956 68.1353 131.746 67.4708 132.236 67.8205C131.641 66.9345 132.306 66.3282 132.236 65.3955C131.979 62.7256 130.556 60.0906 129.902 57.5489C126.085 42.9752 122.771 27.422 118.161 13.0581C117.682 11.5657 114.835 3.05468 114.064 2.47173C113.901 2.35514 112.57 2.82148 112.244 2.59996C111.917 2.37844 111.613 1.20088 111.076 1.00268C111.286 1.6789 112.01 2.41343 111.216 2.9614C111.216 2.09863 110.049 1.60896 110.516 0.629597C110.516 0.629597 111.835 0.396413 110.516 0.151573C109.851 0.0233237 110.691 1.04932 110.108 1.11927C110.108 1.11927 109.851 0.571287 109.816 0.559628C109.571 0.478015 109.816 0.909405 109.547 0.839451C109.547 0.839451 109.547 0.582959 109.349 0.536323C108.841 0.429884 108.326 0.355891 107.808 0.314799C107.412 0.478025 107.913 0.909405 107.587 0.839451C107.587 0.839451 107.587 0.594612 107.493 0.547976C107.4 0.501339 105.661 0.47802 105.906 0L105.743 0.104927ZM102.171 5.00173V5.14163L102.101 5.07168L102.171 5.00173ZM103.152 8.91916V9.05907L103.082 8.98912L103.152 8.91916ZM103.292 9.47879V9.67699L103.222 9.60704L103.292 9.47879ZM103.712 11.7057V11.8456L103.642 11.7756L103.712 11.7057ZM105.136 30.5816V30.3018H105.276V30.5816H105.136ZM105.556 31.9807V31.7009H105.696V31.9807H105.556ZM124.977 39.664V39.8039L124.907 39.734L124.977 39.664ZM109.804 45.1204V45.2603L109.734 45.1904L109.804 45.1204ZM111.893 52.8154C111.893 52.5822 111.765 52.0809 112.033 52.1158C111.987 52.2907 112.138 52.8154 111.893 52.8154ZM128.758 56.453V56.5929L128.688 56.5229L128.758 56.453ZM128.828 57.1409V56.8727H128.968V57.1409H128.828Z" fill="#00A16B"/>
<path d="M59.419 19.0042C61.3564 20.4033 63.002 22.362 64.8811 23.4696C64.701 23.0261 64.4657 22.6069 64.1808 22.2221C64.1808 22.2221 63.8423 22.362 63.7606 22.2221C63.2588 21.7324 62.5935 20.7298 62.115 20.3334C61.9049 20.1468 61.0646 19.7854 60.7494 19.5056C57.6464 16.8658 54.6819 14.0678 51.8677 11.1227C51.7626 11.0644 50.257 12.2886 49.9536 12.3819C49.6501 12.4752 49.4985 12.1954 49.4284 12.2303C49.3584 12.2653 49.4284 12.4635 49.2767 12.5102C49.125 12.5568 49.055 12.2304 48.9966 12.2537C48.3703 12.6113 47.7626 13.0004 47.1759 13.4196C46.8258 13.4196 46.8374 13.0465 46.7557 13.0581C46.4289 13.1397 45.5886 14.4922 45.4135 14.7137C45.2385 14.9352 44.97 14.7137 44.8883 14.7137C44.8066 14.7137 44.8883 15.0285 44.8883 15.0868C44.8883 15.1451 44.4682 15.0868 44.3865 15.1451C44.1714 15.3423 43.9974 15.58 43.8745 15.8445C43.7516 16.109 43.6822 16.3952 43.6703 16.6866C43.6583 16.978 43.7041 17.2689 43.805 17.5425C43.9058 17.8162 44.0599 18.0673 44.2581 18.2814C44.8183 19.1092 49.02 22.6768 50.0937 23.7145C50.2571 23.8777 50.6889 23.9243 50.8523 24.0876C51.0157 24.2508 50.6772 24.3557 50.8523 24.4723C50.9684 24.444 51.0895 24.4418 51.2065 24.466C51.3236 24.4902 51.4339 24.5402 51.5292 24.6122C52.4746 25.5216 56.1977 29.0893 52.6964 28.8095C53.0348 29.4041 51.7393 29.1359 51.5292 29.2292C51.3192 29.3225 51.5292 29.5673 51.4358 29.6606C50.5722 30.2086 47.9345 32.1206 47.9345 33.1C47.7828 34.9071 52.2179 37.5771 53.525 38.6963C53.7781 38.9953 53.9721 39.3395 54.0969 39.7107C54.0969 39.7107 54.5287 39.5358 54.6221 39.6174C56.0343 40.7833 57.4115 42.2523 58.8121 43.4882C59.629 44.1994 60.6561 44.8756 61.6132 45.75C61.7299 45.8666 61.7415 46.368 61.7882 46.4146C61.8349 46.4612 62.01 46.2747 62.045 46.298C62.4185 46.6595 63.5622 48.1984 63.889 47.5339C63.7606 48.2101 64.2625 48.6298 64.6593 49.0845C67.7289 52.5822 71.9889 56.1965 75.1634 59.7409C76.564 61.2682 78.1979 62.8189 79.5168 64.4045C79.6568 64.5794 79.5868 65.0807 79.6568 65.1506C79.7268 65.2206 79.8786 65.0224 79.9836 65.1506C84.0335 70.0941 87.6282 75.294 91.3864 80.5872C91.6372 80.7387 91.8753 80.9103 92.0984 81.1002C92.0984 81.1818 91.8066 81.4267 91.8183 81.45C91.8299 81.4733 92.11 81.3567 92.2384 81.5666C92.3668 81.7764 92.3318 82.1145 92.3901 82.2078C92.4485 82.3011 93.3238 82.0912 93.0787 83.3737C93.4755 82.6858 93.5572 83.8517 93.6623 84.1199C93.6623 84.1782 94.6776 85.2159 93.3588 84.6329C93.3588 84.6329 93.3588 84.2248 93.3588 84.2132C92.927 84.0849 93.1604 84.5979 92.9386 84.493C92.7169 84.3881 92.2384 83.4787 92.0984 83.3271C91.9583 83.1755 91.9933 83.7468 91.8183 83.6069C91.6432 83.467 91.8182 83.1988 91.6315 83.0939C90.6628 82.371 89.4257 81.7881 88.4569 81.0885C88.4569 81.0885 88.6087 80.832 88.5853 80.8204C85.9359 79.2697 83.5084 77.3227 80.9407 75.6671C78.6064 74.1514 75.7003 72.0411 73.3661 70.7703C72.6209 70.2398 71.7361 69.9398 70.8217 69.9075L71.6621 69.7793L68.2307 67.8206C68.4058 67.9721 68.5458 68.7649 68.5925 68.7999C68.6392 68.8349 68.7676 68.5318 69.141 68.7999C68.6158 68.4268 69.1411 69.3479 69.2812 69.208C69.4212 69.0681 69.1994 68.8349 69.141 68.7999C69.0827 68.7649 69.3745 68.7067 69.4328 68.8815C69.8763 70.3622 68.5108 69.0215 68.1257 68.8233C67.7405 68.6251 67.1453 69.278 67.8223 68.2403C66.5268 69.3129 67.8222 67.9955 67.192 67.8905L68.0207 67.6807C67.5305 67.2843 66.8535 67.6807 66.3517 67.9488C66.2116 67.0511 67.1337 67.1094 66.2116 66.8412C66.3867 67.5408 66.2116 67.8322 65.5113 67.669C66.5734 67.3542 65.9432 67.2726 65.5113 66.7013C64.3442 66.3632 65.2896 66.4565 64.9278 65.8735C64.12 65.5473 63.3394 65.1575 62.5935 64.7076L62.8736 65.5471C61.8115 64.8942 60.9012 65.1273 59.6991 64.5561C59.1622 64.2996 57.9717 62.7372 57.6916 62.7489C56.8279 62.7489 58.2519 63.4251 58.3336 63.5184C58.9405 64.1946 57.2832 63.2036 57.1665 63.157C57.0497 63.1103 57.3065 62.5624 57.1665 62.4691C56.4078 62.026 57.2948 63.3085 56.7579 63.157C55.7542 62.8655 56.7579 62.6556 56.7579 62.609C56.863 62.3641 54.9255 61.3615 54.7271 61.3615C54.5287 61.3615 54.1086 62.4691 54.2486 60.9301C53.7351 60.7785 54.0852 61.5247 53.8985 61.4897C53.7117 61.4548 53.7001 60.3238 53.2682 60.7902C53.2682 60.8485 53.7584 61.6996 52.2995 60.8485C51.3308 60.3005 52.2995 60.5803 52.2995 60.0906C51.8443 60.3938 50.3738 58.9247 51.1324 59.9507C49.9653 60.114 50.4321 59.3095 50.2687 59.1346C50.1053 58.9597 48.0279 58.3651 49.1016 58.2718C49.3584 58.2718 51.5643 59.7875 52.1128 59.4377C50.864 59.1579 48.8799 57.6073 47.7828 57.3974C47.4793 57.3391 47.4676 57.2225 47.491 57.6073C47.7244 57.4673 49.3467 58.1785 48.8915 58.4467C48.7865 58.505 47.1175 57.5956 48.0512 58.7265C47.6408 58.6553 47.2459 58.5132 46.8841 58.3068C46.8141 58.3068 47.0825 58.0037 46.9541 57.8987C46.8258 57.7938 46.5689 58.1319 46.4639 58.0387C46.4866 57.8961 46.4717 57.7501 46.4205 57.6151C46.3693 57.4801 46.2837 57.3609 46.1721 57.2692C45.1217 56.3714 46.3939 58.3068 45.0634 57.4674C44.97 56.9194 45.4252 57.4091 45.4836 57.3274C45.9621 56.8144 42.4607 55.6486 43.6978 56.5463C44.0363 56.7795 45.3668 56.9077 44.865 57.3274C43.8132 56.9309 42.7913 56.4594 41.8071 55.9167C41.6087 55.8234 41.597 55.532 41.5737 55.5203C41.3519 55.4154 41.5737 55.905 41.3053 55.7884C41.3053 55.7884 41.3052 55.5786 41.1302 55.4737C40.6867 55.2638 38.796 54.6109 40.465 54.9607C40.5233 54.3427 39.9164 54.5643 39.9047 54.541C39.4028 53.3751 43.231 55.9051 42.414 54.8208C41.2675 54.22 40.0776 53.7055 38.8543 53.2818C38.1657 53.2818 39.6829 54.2611 39.9047 54.1212L39.3445 54.2611C40.8734 55.2755 38.9127 54.6925 38.6443 54.3894C38.5742 54.2961 38.5391 53.2235 38.5041 53.1419C38.4691 53.0602 38.1307 53.1419 38.084 53.1419C39.1928 53.8531 35.8431 52.7688 35.7497 52.6988C35.6564 52.6289 35.7497 52.454 35.7497 52.4423C35.2493 52.3541 34.7725 52.1636 34.3492 51.8827C34.7227 52.0343 35.4346 52.0226 35.7381 52.1858C35.7964 52.1858 35.7381 52.4307 35.7381 52.4423C36.0765 52.5589 38.014 53.0719 38.0723 53.1419C35.8431 51.428 30.451 50.2038 27.6499 49.5042C27.4865 50.5885 26.3544 50.3204 25.4557 50.915C24.5571 51.5096 24.8255 51.9643 24.7789 52.0226C24.7322 52.0809 24.347 51.941 24.2303 52.0226C24.1136 52.1042 24.2303 52.3374 24.2303 52.3957C24.2303 52.454 23.8335 52.3957 23.7401 52.4657C22.8161 53.2301 22.0845 54.2005 21.6043 55.2988C21.1024 58.3301 23.1565 57.7122 25.0473 58.6682C26.3391 59.4558 27.5717 60.3365 28.7353 61.3032C28.8987 61.9328 28.4086 61.3965 28.1985 61.5364C27.5885 62.1138 27.0154 62.7291 26.4828 63.3785C26.1677 63.67 25.5491 63.7632 25.374 63.9498C24.6999 64.9034 24.1398 65.9325 23.7051 67.0161C23.8602 67.5591 24.0473 68.0924 24.2653 68.6134C24.3587 68.73 25.4324 68.695 25.5374 68.7766C29.4356 70.8403 33.6489 72.1461 37.7222 73.9765C38.0607 74.1281 37.8039 74.5012 38.6675 74.2214L38.5275 74.5012L46.9191 78.8384C47.2576 78.1855 47.6311 79.0132 47.8295 79.1182C48.0279 79.2231 47.8295 78.7218 48.0396 78.8384C48.2496 78.9549 49.0666 79.6778 49.4517 79.876C58.3102 84.3414 67.0753 88.7602 75.747 93.3655C75.817 93.074 75.8754 93.3655 75.887 93.3655C76.9958 93.9601 78.0345 94.7413 79.3884 95.3592C79.4934 95.3592 79.4817 95.8139 79.5868 95.8605C80.561 96.1158 81.5577 96.2759 82.5629 96.3385C82.7613 96.3385 82.7613 96.7233 82.7847 96.7233C83.2282 96.8399 82.7847 96.2569 83.7184 96.7233C85.5742 97.5511 88.1651 100.069 90.5344 100.116C91.9349 100.116 91.3397 99.743 91.4565 99.6963C91.5732 99.6497 91.7949 99.8946 91.9233 99.8246C92.3308 99.5069 92.6922 99.1341 92.997 98.717C93.1721 98.5771 93.0904 99.125 93.2655 98.9968C93.4405 98.8685 93.6506 98.1807 93.6973 98.1574C93.9307 98.0524 94.1174 98.6237 94.3975 98.3672C94.6777 98.1107 94.0941 98.239 94.2458 97.9475C94.771 96.9565 95.413 96.8982 95.7514 96.2919C95.9978 95.6865 96.1816 95.0575 96.3 94.4148C96.4984 94.0767 98.1324 92.083 98.1674 91.7915C98.2608 91.1969 97.5721 91.9781 97.4788 91.8615C96.6618 90.9871 98.6459 91.127 98.4475 90.2642C98.4475 89.9611 97.8989 90.3925 98.0273 89.9144C98.7275 89.7162 99.1944 90.9521 99.5679 91.162C99.9414 91.3718 99.6612 90.8238 99.778 90.8938C100.642 91.3835 101.47 92.2462 102.567 92.1413C104.552 91.3757 106.38 90.2534 107.959 88.8302C108.158 88.562 108.17 88.1772 108.321 87.9441C108.473 87.7109 108.66 87.9441 108.66 87.9441C108.66 87.9441 108.496 87.6059 108.66 87.3961C109.127 86.3934 109.652 86.9297 109.418 85.3674C109.243 84.2948 107.084 82.6975 107.458 81.8697C107.551 81.6715 108.263 81.7997 108.298 81.7764C108.333 81.7531 109.348 79.2581 109.547 78.9316C109.745 78.6052 110.072 78.9316 110.107 78.8384C110.912 77.5442 109.979 77.5209 109.979 76.7047C109.979 76.6115 111.087 74.9326 111.146 75.772C110.924 74.3496 111.624 75.3173 111.846 75.0725L112.336 72.9739L113.107 73.1138C112.511 72.3793 113.865 72.5775 113.667 71.5748L113.247 72.1344C113.387 70.8986 113.001 71.4815 112.978 71.4349C112.78 71.1084 112.43 69.9891 112.371 69.9309C111.799 69.3479 110.679 68.695 109.698 67.7156C100.046 58.0037 91.1646 47.5106 81.3375 37.9735C78.8748 35.6417 76.2372 33.3099 73.8563 30.9081L73.6462 31.1879C73.6462 30.2785 73.2377 30.6749 72.9109 30.3485C72.0239 29.4974 65.6981 23.2948 65.1846 23.2248C64.1575 23.0732 67.0053 25.1602 66.9236 25.2418C66.1766 25.0553 64.3675 23.1432 65.8148 25.032C65.8148 25.032 66.6201 25.4517 66.375 25.7315C66.1299 26.0113 65.8615 25.0669 65.8148 25.032C65.7681 24.997 65.3713 25.2651 65.1145 25.1019C64.8578 24.9387 65.1145 24.6938 65.1145 24.6822C65.1145 24.6705 64.7994 24.8337 64.6243 24.6822C64.4492 24.5306 64.6243 23.9243 64.3559 23.8427C64.3559 23.8427 64.0875 24.1692 63.9357 24.1109C63.784 24.0526 63.9357 23.5629 63.8657 23.493C63.4806 23.2132 62.2201 23.2598 62.6052 22.1638L62.3251 22.7118C61.7882 21.5459 60.0609 20.9863 59.524 19.6455L59.2439 19.9253C59.2439 19.2724 57.6916 18.3747 57.7033 17.8966C57.7033 17.1271 58.1468 18.293 58.2168 18.3747C58.6603 18.8643 58.9054 18.7128 59.2439 18.9459C59.3489 18.6894 59.3956 19.0042 59.419 19.0042ZM55.0189 15.0868V15.2267L54.9489 15.1568L55.0189 15.0868ZM56.0694 16.346C56.0461 16.207 56.0461 16.0652 56.0694 15.9263C56.2444 15.6581 56.2327 16.5675 56.116 16.3227L56.0694 16.346ZM56.4078 16.346V16.4859L56.3378 16.4159L56.4078 16.346ZM56.5478 16.6258V16.7657L56.4778 16.6958L56.5478 16.6258ZM57.5983 17.6052C57.5983 17.6052 57.68 16.2527 57.8784 17.5352C57.8784 17.6868 57.645 17.5352 57.5983 17.6052C57.5516 17.6751 57.5983 17.8034 57.5983 17.885L56.7696 16.7191C57.038 16.6724 57.2832 17.8383 57.5983 17.5818V17.6052ZM67.262 26.1279C67.262 25.9297 66.8068 25.4167 67.192 25.4284C67.262 25.4167 67.5654 26.0929 67.262 26.1046V26.1279ZM67.5888 26.3728C67.1803 25.2068 69.1995 27.7019 69.6313 27.5387C68.9544 27.8768 70.3316 28.7862 69.6313 28.9377C69.0484 28.505 68.5019 28.0254 67.9973 27.5037C67.9973 27.5037 67.6472 26.5243 67.5888 26.3494V26.3728ZM66.9119 26.2678V26.4077L66.8419 26.3378L66.9119 26.2678ZM67.192 26.4077V26.5476L67.1219 26.4777L67.192 26.4077ZM67.262 26.9674V26.6875H67.3904V26.9674H67.262ZM70.0514 28.6463H70.3315V28.7862H70.0514V28.6463ZM70.5883 29.6023C70.5883 29.474 70.4016 28.8911 70.5883 28.9261C72.0356 30.092 72.5957 31.2579 70.3198 29.7655C70.2615 29.4974 70.6 29.6256 70.5883 29.579V29.6023ZM69.783 29.2059V28.9261H69.9114V29.2059H69.783ZM70.2615 29.3458V29.4974L70.1915 29.4274L70.2615 29.3458ZM72.1522 30.605V30.3252H72.2923V30.605H72.1522ZM76.0737 34.7906C75.105 33.9161 74.2297 32.9718 73.2027 32.144L73.2727 31.7242L72.9926 32.004C73.1443 31.2695 72.6424 31.0713 72.1522 30.7449C72.5572 30.8487 72.9268 31.0593 73.2225 31.3546C73.5181 31.65 73.729 32.0192 73.8329 32.4238L74.043 32.144C74.3814 32.2372 74.6966 33.2049 74.7433 33.2516C74.79 33.2982 75.0817 33.0184 75.2101 33.135C75.5836 33.4964 75.852 34.0094 76.2138 34.3708C76.5756 34.7323 77.2175 35.1403 77.3109 35.2453C77.4043 35.3502 77.3109 35.7233 77.3109 35.7699C77.3109 35.8166 77.8595 35.63 77.8712 35.9798C77.8712 36.7842 77.556 35.7932 77.521 35.7699C77.486 35.7466 77.2642 36.0614 77.2409 36.0497C77.2175 36.0381 76.3772 35.0471 76.0737 34.7672V34.7906ZM71.7321 31.0247V30.7449H71.8721V31.0247H71.7321ZM74.0663 32.9834V33.1233L73.9963 33.0534L74.0663 32.9834ZM78.2913 36.0264V35.7466H78.4314V36.0264H78.2913ZM78.0112 36.3062V36.0264H78.1513V36.3062H78.0112ZM78.5014 36.4461V36.5861L78.4314 36.5161L78.5014 36.4461ZM79.2717 37.8452C79.2717 37.4721 79.4818 37.3089 79.6802 37.6354L79.2717 37.8452ZM78.9215 37.4255L79.12 37.6354L79.0616 37.7053L78.9215 37.5654V37.4255ZM79.9019 38.125V38.265L79.8319 38.195L79.9019 38.125ZM80.1354 38.6147C80.1354 38.5653 80.1551 38.5178 80.1901 38.4828C80.2251 38.4478 80.2726 38.4282 80.3221 38.4282C80.3696 38.4311 80.4141 38.4521 80.4467 38.4868C80.4792 38.5214 80.4973 38.5672 80.4972 38.6147C80.4972 38.6611 80.4787 38.7056 80.4459 38.7384C80.4131 38.7712 80.3685 38.7896 80.3221 38.7896C80.2786 38.7842 80.2385 38.7637 80.2086 38.7318C80.1787 38.6998 80.1611 38.6584 80.1587 38.6147H80.1354ZM80.6722 39.3842C80.6547 39.2448 80.6547 39.1038 80.6722 38.9645C80.8706 38.7196 80.859 39.629 80.6956 39.3842H80.6722ZM81.1624 39.664V39.8039L81.0924 39.734L81.1624 39.664ZM81.6526 40.2237C81.6293 40.0847 81.6293 39.9429 81.6526 39.8039C81.7927 39.5591 81.7927 40.4685 81.676 40.2237H81.6526ZM81.4425 39.8039V39.9905L81.3725 39.9205L81.4425 39.8039ZM82.3529 40.3636V40.0838H82.4813V40.3636H82.3529ZM82.9598 41.6227C83.1115 40.8532 82.6096 41.0864 82.598 41.0515C82.3762 40.4219 83.6834 41.1564 82.9598 41.6227ZM83.3682 41.3429C83.3682 41.3429 83.6718 41.3429 83.6484 41.4129C83.6251 41.4828 83.6484 41.681 83.4383 41.4828C83.2282 41.2846 83.3216 41.3896 83.345 41.3429H83.3682ZM83.9285 42.0425C83.6951 41.716 84.1969 41.7277 84.2086 41.9725C84.2203 42.2174 83.9168 42.0541 83.9051 42.0425H83.9285ZM83.2399 41.9026H83.5083V42.0425H83.2399V41.9026ZM84.0802 42.6021C84.057 42.4632 84.057 42.3213 84.0802 42.1824C84.232 41.9375 84.2203 42.847 84.0569 42.6021H84.0802ZM84.3487 42.4622C84.5004 42.3223 84.9089 42.7304 84.7688 42.8819C84.6288 43.0335 84.1269 42.6021 84.3253 42.4622H84.3487ZM85.259 43.0218V43.1617L85.189 43.0918L85.259 43.0218ZM84.6288 43.0218H84.9089V43.1617H84.6288V43.0218ZM85.0489 43.3016C85.0489 43.3016 85.3524 43.2433 85.3291 43.3716C85.3057 43.4998 85.329 43.6398 85.1189 43.4416C84.9088 43.2434 85.0023 43.3483 85.0256 43.3016H85.0489ZM85.6092 44.2693C85.6092 44.2693 85.8309 43.5698 86.0293 43.5815C86.2044 44.0362 85.7725 44.8057 85.5858 44.2693H85.6092ZM86.3094 44.829C86.3094 44.6075 86.181 44.1061 86.4495 44.1411C86.3794 44.3276 86.5778 44.8523 86.286 44.829H86.3094ZM87.0097 45.6684C87.0097 45.6684 87.0097 44.7007 86.7996 44.5025C87.3365 44.6541 87.4766 45.8899 86.9864 45.6684H87.0097ZM86.6595 44.9805V45.1204L86.5895 45.0505L86.6595 44.9805ZM87.6399 45.4003V45.5402L87.5699 45.4702L87.6399 45.4003ZM87.4999 45.6684V45.82L87.4299 45.75L87.4999 45.6684ZM88.2001 46.0882V46.2281L88.1301 46.1581L88.2001 46.0882ZM89.6707 47.3473C89.6707 47.3473 89.7874 47.7671 89.7407 47.7671C89.6941 47.7671 89.4139 47.1724 89.6474 47.3473H89.6707ZM90.0208 47.9186L90.2309 48.1168L90.1609 48.1868L90.0208 48.0469V47.9186ZM90.441 48.3267V48.4666L90.371 48.3966L90.441 48.3267ZM90.7212 48.6182L90.9312 48.8164L90.8612 48.8863L90.7212 48.7464V48.6182ZM90.3009 48.7464V48.8863L90.2309 48.8164L90.3009 48.7464ZM91.7715 50.0056V49.7258H91.9116V50.0056H91.7715ZM91.9816 50.5652V50.7051L91.9116 50.6352L91.9816 50.5652ZM30.346 51.1248V50.845H30.4394V51.1248H30.346ZM92.962 50.9849V51.1248L92.892 51.0549L92.962 50.9849ZM92.4018 50.9849V51.1248L92.3318 51.0549L92.4018 50.9849ZM31.0463 51.5446V51.2648H31.1747V51.5446H31.0463ZM33.6256 51.4047V51.5446L33.5556 51.4746L33.6256 51.4047ZM93.5222 52.1042V52.2441L93.4522 52.1742L93.5222 52.1042ZM33.4855 52.1042V52.2441L33.4155 52.1742L33.4855 52.1042ZM34.536 52.5239C34.7461 52.5239 34.8394 52.5822 34.9561 52.7338C34.8044 52.8154 34.4542 52.6755 34.5126 52.5239H34.536ZM36.0066 53.0836V53.2235L35.9365 53.1535L36.0066 53.0836ZM35.5163 53.0836H35.7965V53.2235H35.5163V53.0836ZM37.6172 53.7831C37.6172 53.7831 37.909 53.7248 37.8973 53.8531C37.8856 53.9813 37.8973 54.1212 37.6872 53.923C37.4771 53.7248 37.5588 53.8297 37.5938 53.7831H37.6172ZM38.1074 53.923V54.0629L38.0373 53.993L38.1074 53.923ZM38.3174 54.3427C38.0723 54.0163 38.5859 54.0279 38.5975 54.2728C38.6092 54.5176 38.3057 54.3544 38.2941 54.3427H38.3174ZM98.5525 57.549V57.6889L98.4825 57.6189L98.5525 57.549ZM46.1488 57.7005H46.4289V57.8288H46.1488V57.7005ZM48.3897 58.8082C47.9929 58.2602 49.4867 58.9481 49.37 59.3678C49.0189 59.2125 48.6829 59.0252 48.3663 58.8082H48.3897ZM49.7902 59.5077H50.0703V59.6476H49.7902V59.5077ZM51.3308 60.2072C51.5059 60.2072 51.9144 60.2655 51.891 60.487C51.6926 60.4521 51.2841 60.4404 51.3075 60.2072H51.3308ZM55.6608 62.3059C55.3574 62.2476 54.7855 62.1893 54.8322 61.7462C55.0189 62.1426 55.4274 62.0027 55.6375 62.3059H55.6608ZM56.1511 62.5857V62.7256L56.081 62.6556L56.1511 62.5857ZM62.1734 65.5237V65.6403L62.1033 65.5704L62.1734 65.5237ZM63.3405 65.6636C63.4805 65.5121 63.9007 65.9435 63.7606 66.0834C63.6206 66.2233 63.2821 65.722 63.3405 65.6403V65.6636ZM63.0604 66.2233C62.6986 66.2233 62.5819 65.9435 62.6402 65.6636C62.8737 65.7569 62.7569 66.0367 63.0604 66.2233ZM63.9007 65.9435C64.0291 65.8619 64.566 66.1533 64.601 66.3632C64.3676 66.3865 63.5972 66.1417 63.9007 65.9435ZM64.8111 66.5031V66.643L64.7411 66.573L64.8111 66.5031ZM63.4805 66.5031C63.6201 66.4857 63.7612 66.4857 63.9007 66.5031C64.1458 66.678 63.2354 66.6663 63.4805 66.5031ZM64.3559 67.0161C64.3559 67.0161 64.0874 66.5498 64.3559 66.713L65.0561 67.2726C64.8111 67.2229 64.575 67.1364 64.3559 67.0161ZM66.9819 68.4502C66.9819 68.4502 66.8652 68.0421 66.9119 68.0421C66.9586 68.0421 67.2153 68.6367 66.9819 68.4502ZM70.3315 69.6161C69.9581 69.6161 69.6196 69.2663 69.9931 69.0681L70.3315 69.6161ZM70.4833 69.8959V69.6277H70.6116V69.8959H70.4833ZM70.1915 70.3156L70.2498 69.9192C70.3549 70.0008 71.0901 70.3972 70.8917 70.5954C70.5182 70.9569 70.1215 69.4645 70.1915 70.3039V70.3156ZM69.5028 69.9075H69.7713V70.0358H69.5028V69.9075ZM71.6621 70.7353V70.8752L71.592 70.8053L71.6621 70.7353ZM72.8292 70.8752V71.0151L72.7592 70.9452L72.8292 70.8752ZM72.1289 71.1551V71.295L72.0588 71.225L72.1289 71.1551ZM74.0897 72.5541V72.6357L74.0197 72.5658L74.0897 72.5541ZM79.4584 75.4456V75.5855L79.3884 75.5155L79.4584 75.4456ZM109.804 76.7047V76.4249H109.932V76.7047H109.804ZM109.804 77.6841V77.824L109.734 77.7541L109.804 77.6841ZM110.224 77.824V77.9639L110.154 77.894L110.224 77.824ZM107.434 83.4087V83.5486L107.364 83.4786L107.434 83.4087ZM93.9307 85.0876C93.9133 84.9482 93.9133 84.8072 93.9307 84.6679C94.1642 84.423 94.1525 85.3324 93.9891 85.0876H93.9307ZM94.2692 85.0876L94.4793 85.2974V85.3674L94.3275 85.2275L94.2692 85.0876ZM94.631 85.6472C94.7669 85.6353 94.9035 85.6353 95.0395 85.6472C95.3546 85.8338 94.4326 85.8105 94.631 85.6472ZM98.4708 89.4247V89.5646L98.4008 89.4947L98.4708 89.4247ZM97.3037 92.7709V92.9108L97.2336 92.8408L97.3037 92.7709Z" fill="#00A16B"/>
<path d="M81.796 101.165C81.9244 101.165 82.0761 101.165 82.2045 101.165L81.9361 101.305C82.1812 102.052 82.4612 100.932 82.3445 100.757C81.8077 99.9646 68.2691 95.9072 66.2617 95.1494L66.6818 95.5691C65.6781 96.3736 67.032 95.3126 67.3704 95.779C67.7089 96.2453 66.8919 95.6391 66.8218 95.709C66.7518 95.779 67.0903 96.2919 67.0903 96.3386C67.1954 96.9449 65.363 95.8139 65.2579 95.7906C64.616 95.6507 63.6589 95.709 62.7953 95.4758C59.4456 94.5548 56.131 93.4239 52.7581 92.5028C44.0513 90.1127 34.2125 87.4078 24.8872 85.8455C24.7939 85.8455 23.1132 85.9271 23.44 85.6473C23.9928 85.5185 24.5679 85.5185 25.1207 85.6473C24.8289 85.1576 21.0707 85.041 20.8723 85.1226C20.4638 85.3208 20.5455 85.7172 20.3588 85.8455C20.1721 85.9737 19.6935 86.0903 19.4134 86.2419C19.1333 86.3935 19.2617 86.7549 19.2384 86.7665C18.9583 86.8715 14.3014 85.0294 13.5778 85.3675C13.0876 86.0903 11.3136 87.2446 10.9168 87.6993C10.9168 87.7692 10.2983 88.9468 10.1932 89.2033C10.1627 89.4939 10.1627 89.787 10.1932 90.0777C10.1932 90.0777 9.53959 90.0194 9.4929 90.0777C9.44622 90.136 9.59795 91.0804 9.4929 91.3369C9.38786 91.5934 9.0261 91.7916 9.0261 91.8265C9.17828 92.3492 9.2062 92.9001 9.10773 93.4355C8.88598 94.2167 8.18571 94.6014 7.94061 95.4875C6.84352 99.2883 8.94436 98.9852 11.7571 99.1718C12.0489 99.1718 12.3407 98.9036 12.4574 98.9153C12.5742 98.9269 12.7025 99.265 13.0176 99.3C16.4023 99.6847 19.7986 100.757 23.2649 101.492C32.2634 103.404 41.1686 105.153 49.992 107.636C50.1904 107.694 50.1554 107.963 50.1671 107.963C50.4239 108.021 50.2254 107.636 50.3772 107.683C50.5289 107.729 50.3771 107.928 50.5405 107.963C50.9607 108.079 51.6143 107.799 52.1862 107.963C52.3029 107.963 52.1162 108.289 52.2562 108.336C56.2478 109.397 60.3444 110.108 64.3709 111.087C66.6351 111.635 73.7078 114.34 75.6336 113.769C76.2755 113.571 76.8008 112.183 77.5244 112.102C78.6659 112.265 79.7934 112.515 80.8973 112.848C81.5042 112.953 82.543 112.696 82.8465 112.755C83.1499 112.813 83.9318 113.512 84.387 113.582C84.8422 113.652 84.8422 113.326 84.9473 113.291C85.0523 113.256 85.309 113.466 85.4257 113.431C85.5425 113.396 85.5425 112.883 85.5658 112.871C85.5891 112.859 86.021 113.209 86.4762 112.871C87.0227 111.702 87.502 110.503 87.9117 109.28C88.3085 107.123 86.978 107.718 86.0093 106.319C85.099 105.992 81.9244 104.488 81.9361 103.439C82.0689 103.389 82.1817 103.297 82.2575 103.177C82.3333 103.057 82.3679 102.916 82.3562 102.774C82.3562 102.669 81.8427 102.413 81.8194 102.366C81.8175 101.999 81.7625 101.634 81.656 101.282C81.656 101.282 81.2241 101.387 81.3759 101.002C81.5976 100.944 81.796 101.154 81.796 101.165ZM22.9498 85.6473V85.7872L22.8798 85.7172L22.9498 85.6473ZM67.7906 95.8489V95.9539L67.7206 95.8839L67.7906 95.8489ZM68.2107 95.9888V96.1287L68.1407 96.0588L68.2107 95.9888ZM68.5608 96.9682C68.5608 96.7467 68.4208 96.2453 68.6893 96.2686C68.6076 96.4668 68.806 96.9798 68.5259 96.9682H68.5608ZM67.3004 96.6884C67.283 96.549 67.283 96.408 67.3004 96.2686C67.4405 96.0238 67.4288 96.9332 67.2654 96.6884H67.3004ZM68.841 96.4086C68.841 96.3153 69.8564 96.5485 69.3895 96.8283C69.3195 96.8516 68.7593 96.5485 68.806 96.4086H68.841ZM68.0707 96.4086V96.5485L68.0007 96.4785L68.0707 96.4086ZM68.3508 96.6884V96.8283L68.2807 96.7583L68.3508 96.6884ZM70.58 96.8283V96.9682L70.51 96.8982L70.58 96.8283ZM69.0511 96.8283V96.9682L68.9811 96.8982L69.0511 96.8283ZM69.4596 96.9682V97.1198L69.3895 97.0498L69.4596 96.9682ZM70.1015 97.3879V97.1198H70.2299V97.3996L70.1015 97.3879ZM69.6813 97.1081H69.9497V97.248H69.6813V97.1081ZM71.7704 97.8076H72.0506V97.9475H71.7704V97.8076ZM75.4819 99.0668V99.2067L75.4119 99.1368L75.4819 99.0668ZM50.7156 107.729V107.869L50.6456 107.799L50.7156 107.729Z" fill="#00A16B"/>
<path d="M47.2488 119.19C46.8753 119.283 47.6689 120.006 45.9766 119.691C45.6615 119.633 45.7315 119.342 45.7082 119.33C45.1597 119.237 45.8716 119.785 45.2296 119.622C45.1013 119.622 44.8445 118.689 44.8678 119.622L44.5994 119.202C44.7862 119.925 42.7204 119.668 42.1368 119.633C41.9384 119.633 41.6233 119.202 41.5882 119.202C41.5532 119.202 41.0747 119.575 41.028 119.575C40.5796 119.582 40.1396 119.452 39.7675 119.202C39.6508 119.202 39.6508 119.575 39.4991 119.575C38.7882 119.569 38.08 119.487 37.3866 119.33C37.1065 119.33 37.2349 119.808 36.8965 119.622C36.8965 119.622 36.9898 119.237 36.8264 119.202C36.663 119.167 35.8927 120.251 35.2858 119.202C35.0174 120.251 34.9123 119.202 34.8656 119.202C34.8189 119.202 34.8656 119.598 34.7956 119.622C34.3287 119.855 34.2471 118.817 34.2354 119.761L34.0253 119.342L29.2051 119.761C29.5552 119.155 28.178 119.703 28.038 119.761C27.9446 118.537 27.9446 119.761 27.8979 119.761C27.269 119.82 26.6361 119.82 26.0072 119.761C26.0072 119.761 26.0072 118.479 25.7971 119.062C25.7154 119.225 25.9372 119.761 25.5754 119.901C25.447 119.901 25.1202 119.68 24.9685 119.691C23.9735 119.874 22.9676 119.991 21.9573 120.041C21.6538 120.041 22.2491 119.202 21.4554 120.041C21.1053 118.211 21.2453 120.041 21.1753 120.041C20.6968 120.344 20.2533 119.761 20.1949 119.761C20.1365 119.761 20.1949 120.17 20.1949 120.181C19.623 120.368 19.588 119.575 19.7748 119.202L19.9848 119.622L28.1547 118.456C21.0469 118.397 13.589 119.82 6.52796 119.167C5.99635 118.779 5.33704 118.608 4.68389 118.689C4.6022 118.689 3.5168 119.68 3.40009 119.75C3.28338 119.82 3.55182 120.251 3.40009 120.449C1.67275 122.606 0.470604 123.749 0.027092 126.78C-0.0896149 127.561 0.167114 129.485 0.867386 129.858C1.38092 130.126 4.67224 129.019 4.91734 129.718C4.99903 129.94 3.00323 133.216 2.78148 134.009C2.26795 135.909 1.85944 136.854 3.35336 138.194C3.4584 138.276 3.35336 138.684 3.35336 138.731C3.35336 138.777 6.29451 137.856 6.93643 137.763C13.4139 136.819 22.3541 138.742 29.0417 138.999C37.515 139.325 46.1983 139.185 54.7767 139.862C56.7725 140.025 59.9821 140.899 61.8845 140.771C62.1646 140.771 62.8765 139.815 62.5381 140.771C62.9932 140.06 64.7673 140.584 65.5259 140.363C66.0278 140.211 66.693 139.197 67.1715 138.847C67.2415 138.847 67.6034 139.08 67.8601 138.906C68.1169 138.731 68.0119 138.288 68.1636 138.159C68.3153 138.031 69.3891 138.159 68.9455 137.448C68.8755 137.343 68.432 137.378 68.2103 136.935C67.6967 135.944 69.144 136.667 68.6888 136.166C68.6888 136.166 67.4516 135.886 67.8601 135.466C68.0352 135.28 69.3424 136.154 69.6692 135.816C69.5758 135.641 68.0935 134.37 68.1402 134.277C68.1869 134.184 68.8405 134.615 68.9689 134.347C69.0973 134.079 68.6421 134.032 68.7005 133.927C68.7589 133.822 69.8676 132.971 69.8676 132.901C70.5824 131.949 71.1164 130.874 71.4432 129.73L71.7233 130.01C71.5832 128.972 72.2835 129.205 72.692 128.844C72.692 128.844 72.5053 128.471 72.692 128.366C74.0459 127.596 74.4894 128.704 76.0883 126.932C76.1817 126.839 76.5902 126.932 76.6135 126.932C76.6369 126.932 76.5202 126.081 76.6135 125.917C76.7069 125.754 77.7807 124.752 77.7807 124.623C77.7807 124.134 77.2205 124.262 77.2205 124.204C77.2205 123.935 77.6639 122.816 77.6406 122.385L77.3605 122.455C77.0337 121.825 78.0024 121.032 77.7807 120.566C77.6639 120.333 77.0104 121.126 77.2205 119.936C77.7457 120.741 77.9791 119.761 77.7807 119.377C77.6873 119.213 76.135 120.274 76.03 120.298C75.7382 120.368 74.7111 120.298 74.3493 120.368C67.6034 120.601 58.173 118.852 51.0069 118.537C43.8408 118.222 36.3829 118.141 29.1 118.397C29.1 118.747 29.1001 118.642 29.2985 118.677C30.2238 118.724 31.1509 118.724 32.0762 118.677C32.193 118.677 32.1462 118.957 32.2396 118.945C32.5547 118.945 32.403 118.584 32.9632 118.584C35.5542 118.584 38.1919 118.479 40.7829 118.514C41.6466 118.514 46.8053 118.572 47.0854 118.724C47.3655 118.875 47.0854 119.027 47.0854 119.085C47.6339 118.945 47.3538 119.96 47.0854 119.645C47.2021 119.692 47.2955 119.33 47.2488 119.19ZM47.669 118.91C48.2745 118.852 48.8842 118.852 49.4897 118.91C49.4897 118.91 49.3963 119.435 49.5597 119.47C49.7231 119.505 49.5597 119.004 49.8281 118.945C50.505 118.805 51.8939 119.4 52.2907 119.05L52.991 120.03C51.6955 120.135 52.3724 119.668 52.2907 119.61C52.209 119.552 51.8473 119.61 51.6839 119.61C51.5205 119.61 51.6021 119.33 51.5905 119.33C51.3804 119.33 51.4271 120.671 51.1703 119.19C50.9719 120.624 50.2483 119.423 50.1899 119.19C49.5597 119.097 50.1899 119.82 49.9798 119.89C49.7698 119.96 49.2213 119.4 48.9295 119.47L49.0695 119.19C47.634 118.969 48.3226 119.248 48.0541 119.505C47.5289 120.053 47.6339 118.969 47.669 118.91ZM19.4713 119.19V119.33L19.4013 119.26L19.4713 119.19ZM19.1562 120.006C19.1562 119.913 19.0045 119.179 19.2612 119.19C19.7864 119.657 19.448 120.636 19.1562 120.006ZM18.1175 119.563C18.1175 119.563 19.4713 119.19 18.9811 119.89C18.7944 120.158 16.892 119.703 16.4719 119.89C16.857 119.47 17.5106 119.575 18.1175 119.563ZM15.7832 119.33V119.47L15.7132 119.4L15.7832 119.33ZM14.8728 119.423L15.7599 119.587L15.7015 119.89L14.8262 119.727L14.8728 119.423ZM15.8532 119.75H16.1217V119.89H15.8532V119.75ZM12.2819 120.17V120.309L12.2118 120.239L12.2819 120.17ZM76.7186 120.309H76.9987V120.438H76.7186V120.309ZM15.6432 120.309V120.438L15.5731 120.368L15.6432 120.309ZM14.8028 120.309V120.438L14.7328 120.368L14.8028 120.309ZM13.4023 120.309V120.438L13.3323 120.368L13.4023 120.309ZM12.9821 120.309V120.438H12.9354L12.9821 120.309ZM39.6392 132.19C39.6217 132.051 39.6217 131.91 39.6392 131.77C39.8726 131.525 39.8609 132.435 39.6975 132.19H39.6392ZM67.2065 135.408C67.3349 135.315 67.7434 135.408 67.7667 135.688C67.615 135.793 66.9498 135.594 67.2649 135.408H67.2065ZM67.9768 136.574V136.714L67.9068 136.644L67.9768 136.574Z" fill="#00A16B"/>
<path d="M145.775 4.73352C145.775 4.73352 145.775 5.14159 145.553 5.2815C145.553 5.2815 145.46 4.89675 145.075 4.93172C144.452 5.07428 143.846 5.28139 143.266 5.54967C142.93 5.6157 142.582 5.57068 142.274 5.42142C142.274 5.42142 142.274 5.74785 142.04 5.80615C141.807 5.86444 141.492 5.80615 141.235 5.80615C140.978 5.80615 141.165 6.22589 141.142 6.23755C140.388 6.22198 139.637 6.32025 138.912 6.52902C138.912 6.52902 138.912 6.90211 138.912 6.92542C135.644 8.73257 137.15 10.155 137.5 13.5827C137.469 14.6305 137.52 15.6791 137.652 16.719L137.932 16.4392L138.072 18.5378L137.804 18.4679V19.0042L138.084 18.8643L137.944 19.7037L138.224 19.4239C138.516 23.5978 139.099 27.7834 139.496 31.9457C139.496 32.3654 139.193 32.2721 139.204 32.3538C139.309 33.4264 139.951 35.4317 139.986 36.5393C139.986 36.6909 139.508 37.4138 139.624 37.5887C139.741 37.7635 140.009 37.4021 140.044 37.4488C140.079 37.4954 139.974 38.6846 140.044 38.9877L140.325 38.7079C140.303 39.5293 140.398 40.3495 140.605 41.1447C140.605 41.2146 140.325 41.2379 140.336 41.3195C140.43 42.6603 140.605 43.9895 140.733 45.3419C140.733 45.4818 141.06 45.4119 141.165 45.4235C140.605 47.6038 141.737 49.8423 141.305 52.1275L141.585 51.7077C141.713 52.314 141.585 55.94 142.285 54.6458L142.706 62.3291C143.231 62.2708 142.799 62.9004 142.846 63.3668C142.976 63.78 143.165 64.1725 143.406 64.5327C143.487 65.2089 142.904 64.591 142.986 65.1623C143.978 64.9757 143.733 65.5353 143.686 66.3282L144.106 66.0484C144.115 66.8027 144.273 67.5478 144.573 68.2403C145.051 68.8349 147.141 69.0097 147.876 68.9747C147.958 68.9747 147.724 68.625 148.016 68.5667C148.016 68.5667 148.67 69.2662 148.716 69.2546C148.763 69.2429 148.973 68.5784 149.008 68.5667C149.043 68.555 149.895 69.2546 150.117 68.2869L150.397 68.8348C150.304 68.625 151.179 67.8905 151.249 67.8672C151.587 67.7272 151.517 68.1703 151.587 68.147C152.638 67.8555 152.183 67.6456 152.358 67.3075C152.428 67.1793 152.533 67.7739 152.988 67.5874C153.198 67.5057 153.56 66.1649 153.828 67.1559C153.98 65.5703 154.645 66.4914 154.739 66.4681C154.832 66.4447 154.739 66.1999 154.879 66.1183C155.019 66.0367 155.357 66.1183 155.427 66.0367C155.497 65.9551 155.427 65.5353 155.427 65.4887C155.427 65.4421 155.987 65.7452 156.127 65.6286C156.267 65.512 156.536 63.9614 156.688 63.9497C157.131 63.9497 156.524 65.1739 157.855 63.5999C156.443 55.9283 156.197 48.1168 155.345 40.3868C154.949 36.8891 154.178 33.2981 153.805 29.7538C152.883 21.7207 152.334 13.641 150.992 5.66625L150.712 6.83215L150.572 5.66625C150.117 5.51468 150.397 6.08597 150.222 6.08597C150.047 6.08597 149.486 5.49137 149.183 5.52634C149.183 5.52634 149.253 5.94607 149.113 5.94607C148.973 5.94607 148.016 4.97837 147.841 4.97837C147.281 5.36312 145.985 4.62859 145.775 4.73352ZM151.821 15.6231C151.821 15.4015 151.692 14.9002 151.961 14.9235C151.821 15.1217 152.066 15.6347 151.821 15.6231ZM151.961 16.789C152.031 16.5441 151.797 15.8679 152.101 15.8096C151.984 15.9961 152.229 16.6724 151.914 16.7423L151.961 16.789ZM152.381 20.5665C152.195 19.4569 152.101 18.3338 152.101 17.2087C152.326 18.2972 152.404 19.4107 152.334 20.5199L152.381 20.5665ZM138.107 17.7683V17.4885H138.247V17.7683H138.107ZM138.457 18.6078V18.7477L138.387 18.6777L138.457 18.6078ZM138.387 19.4472V19.1674H138.527V19.4472H138.387ZM138.527 20.6131V20.3333H138.667V20.6131H138.527ZM138.807 20.8929V20.6131H138.947V20.8929H138.807ZM140.488 42.1357C140.488 41.9258 140.371 41.5294 140.628 41.576C140.558 41.6926 140.698 42.0774 140.441 42.0424L140.488 42.1357ZM154.902 44.654C154.89 44.5144 154.89 44.374 154.902 44.2343C155.042 43.8845 155.019 44.8056 154.855 44.5608L154.902 44.654ZM155.182 47.1607C155.182 46.9509 155.065 46.5661 155.322 46.6011C155.24 46.7177 155.392 47.1141 155.135 47.0675L155.182 47.1607ZM155.322 47.8603V47.5804H155.462V47.8603H155.322ZM155.602 50.9383C155.672 50.6934 155.439 50.0172 155.742 49.9589C155.626 50.0988 155.871 50.775 155.556 50.845L155.602 50.9383ZM155.742 51.7777C155.742 51.5562 155.602 51.0432 155.882 51.0782C155.789 51.1714 155.976 51.6494 155.696 51.6494L155.742 51.7777ZM141.819 51.0782V51.2181L141.748 51.1481L141.819 51.0782ZM156.162 55.835C156.162 54.6691 155.882 53.41 155.882 52.1974C156.192 53.3522 156.271 54.5565 156.116 55.7418L156.162 55.835ZM142.239 54.436V54.5759L142.169 54.5059L142.239 54.436ZM156.162 56.5346C156.162 56.3247 156.046 55.9283 156.303 55.9749C156.221 56.0915 156.373 56.4763 156.116 56.4413L156.162 56.5346ZM142.519 56.5346V56.6745L142.449 56.6045L142.519 56.5346ZM143.359 63.3784V63.5183L143.289 63.4484L143.359 63.3784ZM156.197 64.078V64.2179L156.127 64.1479L156.197 64.078Z" fill="#00A16B"/>
</svg>
