<svg width="247" height="220" viewBox="0 0 247 220" fill="none" xmlns="http://www.w3.org/2000/svg">
<path d="M165.079 219.62C165.243 218.328 162.838 218.492 162.547 218.328C161.177 217.382 159.88 216.336 158.666 215.197C158.192 213.814 159.376 213.777 158.957 212.631L159.395 212.849L159.176 211.32L159.613 211.539C159.659 211.026 159.732 210.515 159.832 210.01V209.791C159.96 209.118 159.96 208.317 160.051 207.607L160.488 208.317V206.497L160.925 206.934C160.215 204.44 162.164 201.71 161.399 199.18C161.053 198.015 158.72 197.997 157.973 197.36C157.771 197.216 157.627 197.005 157.567 196.765C157.507 196.525 157.535 196.271 157.646 196.049C157.354 195.74 156.17 196.049 156.115 196.049C156.06 196.049 156.315 194.957 155.787 194.739C155.787 194.739 155.332 195.285 155.24 195.176C154.894 194.739 157.299 189.169 157.208 188.186L157.646 188.623C157.646 188.35 157.646 188.041 157.646 187.749V187.313C158.065 185.784 159.249 184.601 159.468 182.962L159.905 183.181L160.998 179.031L161.435 179.468C160.834 178.139 161.763 178.812 161.891 178.467C162.018 178.121 161.727 177.375 161.891 176.992C162.055 176.61 162.31 176.865 162.328 176.847L162.437 177.284C162.656 177.284 162.437 176.992 162.547 176.847C162.82 175.755 162.82 174.535 163.203 173.352L163.859 173.789L165.171 167.691L165.608 169.202L165.826 166.381L166.264 167.236L166.482 164.634L166.92 165.052C166.464 162.977 168.632 161.612 168.013 159.392L168.432 159.828L169.981 152.548L170.4 152.766L170.199 151.456L170.837 151.893C170.728 150.291 171.712 148.853 171.511 147.524L171.93 147.761V145.577L172.349 146.669V144.703L172.787 144.921C172.422 143.975 173.625 142.228 173.661 142.082C173.698 141.936 173.188 141.663 173.279 141.354C173.534 140.371 174.955 139.388 173.88 138.369L174.536 138.806C173.989 137.259 175.174 136.731 175.41 135.857C175.647 134.983 174.754 136.203 175.028 135.256C175.429 133.819 176.376 133.837 175.848 132.253L176.285 133.127L176.722 129.65L177.16 130.288L176.941 128.995L177.378 129.414C177.943 128.668 177.287 127.594 177.378 127.466C177.469 127.339 177.87 127.812 178.089 127.193C178.406 126.301 178.537 125.353 178.471 124.408L178.909 124.845V122.77L179.346 123.426L179.565 121.023L180.221 121.46V119.276L180.658 119.713C180.877 118.839 180.658 116.072 181.095 118.62C181.555 117.116 181.92 115.584 182.188 114.034C182.188 114.47 182.316 114.143 182.407 114.034C182.498 113.924 182.954 114.47 182.626 112.942L183.063 113.178C182.662 112.487 183.919 110.885 184.156 109.774C184.266 109.174 183.719 109.774 183.719 109.774C183.846 108.992 183.883 108.555 184.375 109.338C184.731 107.635 185.515 106.05 186.652 104.733C187.296 104.267 187.972 103.847 188.675 103.477C190.243 103.295 191.826 103.295 193.394 103.477C195.58 103.804 196.2 104.897 198.259 105.17C198.605 105.752 199.935 108.264 200.318 107.154C201.466 108.974 203.361 109.975 204.581 111.74C205 112.323 204.344 114.015 206.002 112.832C206.002 113.415 205.674 114.452 206.44 113.906C205.511 115.29 206.549 116.236 206.44 117.692C206.039 121.86 203.816 125.974 202.796 129.942C196.838 152.693 191.663 176.974 184.466 199.398C183.719 201.728 179.273 215.015 178.071 215.925C177.816 216.107 175.738 215.379 175.228 215.725C174.718 216.071 174.244 217.909 173.406 218.219C173.734 217.163 174.864 216.016 173.625 215.161C173.625 216.508 171.803 217.272 172.532 218.801C172.532 218.801 174.59 219.165 172.532 219.547C171.493 219.747 172.805 218.146 171.894 218.037C171.894 218.037 171.493 218.892 171.438 218.91C171.056 219.038 171.438 218.364 171.019 218.473C171.019 218.473 171.019 218.874 170.71 218.947C169.916 219.113 169.113 219.228 168.304 219.292C167.685 219.038 168.468 218.364 167.958 218.473C167.958 218.473 167.958 218.856 167.813 218.928C167.667 219.001 164.952 219.038 165.334 219.784L165.079 219.62ZM159.504 211.975V211.757L159.395 211.866L159.504 211.975ZM161.034 205.86V205.641L160.925 205.751L161.034 205.86ZM161.253 204.986V204.677L161.144 204.786L161.253 204.986ZM161.909 201.51V201.291L161.8 201.4L161.909 201.51ZM164.132 172.042V172.478H164.351V172.042H164.132ZM164.788 169.857V170.294H165.007V169.857H164.788ZM195.107 157.863V157.644L194.997 157.753L195.107 157.863ZM171.42 149.344V149.126L171.311 149.235L171.42 149.344ZM174.682 137.331C174.682 137.695 174.481 138.478 174.9 138.424C174.827 138.151 175.064 137.331 174.682 137.331ZM201.01 131.653V131.434L200.901 131.543L201.01 131.653ZM201.119 130.579V130.997H201.338V130.579H201.119Z" fill="#00FFB1"/>
<path d="M92.7616 190.116C95.7862 187.931 98.3553 184.874 101.289 183.144C101.008 183.837 100.64 184.491 100.195 185.092C100.195 185.092 99.6671 184.874 99.5396 185.092C98.7561 185.856 97.7176 187.422 96.9705 188.041C96.6426 188.332 95.3306 188.896 94.8387 189.333C89.9944 193.454 85.3664 197.822 80.973 202.42C80.809 202.511 78.4585 200.6 77.9848 200.454C77.511 200.308 77.2743 200.745 77.1649 200.691C77.0556 200.636 77.1649 200.327 76.9281 200.254C76.6912 200.181 76.5819 200.691 76.4908 200.654C75.5131 200.096 74.5644 199.488 73.6484 198.834C73.1018 198.834 73.1199 199.416 72.9924 199.398C72.4822 199.271 71.1704 197.159 70.8971 196.814C70.6238 196.468 70.2047 196.814 70.0772 196.814C69.9496 196.814 70.0772 196.322 70.0772 196.231C70.0772 196.14 69.4212 196.231 69.2937 196.14C68.9579 195.832 68.6863 195.461 68.4944 195.048C68.3026 194.635 68.1942 194.189 68.1756 193.734C68.157 193.279 68.2284 192.825 68.3859 192.397C68.5434 191.97 68.7838 191.578 69.0933 191.244C69.9679 189.952 76.5272 184.382 78.2035 182.762C78.4586 182.507 79.1327 182.435 79.3878 182.18C79.6429 181.925 79.1145 181.761 79.3878 181.579C79.5691 181.623 79.758 181.627 79.9408 181.589C80.1236 181.551 80.2957 181.473 80.4446 181.361C81.9205 179.941 87.7328 174.371 82.2666 174.808C82.795 173.88 80.7726 174.298 80.4446 174.153C80.1166 174.007 80.4446 173.625 80.2988 173.479C78.9505 172.624 74.8327 169.639 74.8327 168.11C74.5958 165.289 81.5196 161.121 83.5603 159.373C83.9553 158.907 84.2582 158.369 84.4531 157.79C84.4531 157.79 85.1272 158.063 85.2729 157.935C87.4776 156.115 89.6277 153.822 91.8141 151.893C93.0896 150.782 94.693 149.727 96.1871 148.361C96.3693 148.179 96.3874 147.397 96.4603 147.324C96.5332 147.251 96.8066 147.542 96.8612 147.506C97.4443 146.942 99.2298 144.539 99.74 145.577C99.5395 144.521 100.323 143.866 100.943 143.156C105.735 137.695 112.385 132.053 117.341 126.52C119.527 124.135 122.078 121.715 124.137 119.239C124.356 118.966 124.246 118.184 124.356 118.074C124.465 117.965 124.702 118.275 124.866 118.074C131.189 110.357 136.8 102.239 142.667 93.9756C143.059 93.7392 143.431 93.4713 143.779 93.1748C143.779 93.0474 143.323 92.6652 143.342 92.6288C143.36 92.5924 143.797 92.7744 143.997 92.4467C144.198 92.1191 144.143 91.5913 144.234 91.4457C144.325 91.3001 145.692 91.6277 145.309 89.6255C145.929 90.6994 146.056 88.8792 146.22 88.4606C146.22 88.3696 147.805 86.7497 145.747 87.6598C145.747 87.6598 145.747 88.2968 145.747 88.315C145.072 88.5153 145.437 87.7143 145.091 87.8782C144.744 88.042 143.997 89.4617 143.779 89.6983C143.56 89.9349 143.615 89.0431 143.342 89.2615C143.068 89.4799 143.341 89.8985 143.05 90.0624C141.538 91.1908 139.606 92.1009 138.094 93.193C138.094 93.193 138.331 93.5935 138.294 93.6116C134.158 96.0324 130.369 99.072 126.36 101.657C122.716 104.023 118.179 107.317 114.535 109.301C113.372 110.129 111.99 110.598 110.563 110.648L111.875 110.848L106.518 113.906C106.791 113.67 107.01 112.432 107.083 112.377C107.156 112.323 107.356 112.796 107.939 112.377C107.119 112.96 107.939 111.522 108.158 111.74C108.377 111.959 108.03 112.323 107.939 112.377C107.848 112.432 108.304 112.523 108.395 112.25C109.087 109.938 106.955 112.031 106.354 112.341C105.753 112.65 104.824 111.631 105.88 113.251C103.858 111.576 105.88 113.633 104.896 113.797L106.19 114.125C105.425 114.743 104.368 114.125 103.585 113.706C103.366 115.107 104.805 115.016 103.366 115.435C103.639 114.343 103.366 113.888 102.273 114.143C103.931 114.634 102.947 114.762 102.273 115.654C100.451 116.181 101.926 116.036 101.362 116.946C100.101 117.455 98.882 118.064 97.7175 118.766L98.1548 117.455C96.4967 118.475 95.0756 118.111 93.1989 119.003C92.3608 119.403 90.5022 121.842 90.0649 121.824C88.7166 121.824 90.9396 120.768 91.0671 120.623C92.0146 119.567 89.4273 121.114 89.2451 121.187C89.0629 121.26 89.4637 122.115 89.2451 122.261C88.0608 122.952 89.4455 120.95 88.6073 121.187C87.0404 121.642 88.6073 121.969 88.6073 122.042C88.7713 122.424 85.7467 123.99 85.437 123.99C85.1272 123.99 84.4713 122.261 84.69 124.663C83.8883 124.9 84.4348 123.735 84.1433 123.79C83.8518 123.844 83.8336 125.61 83.1594 124.882C83.1594 124.791 83.9247 123.462 81.6471 124.791C80.1348 125.646 81.6471 125.209 81.6471 125.974C80.9365 125.501 78.6407 127.794 79.8251 126.192C78.003 125.937 78.7318 127.193 78.4768 127.466C78.2217 127.739 74.9784 128.668 76.6547 128.813C77.0556 128.813 80.4993 126.447 81.3556 126.993C79.406 127.43 76.3085 129.851 74.5958 130.178C74.1221 130.269 74.1039 130.451 74.1403 129.851C74.5047 130.069 77.0374 128.959 76.3268 128.54C76.1628 128.449 73.5573 129.869 75.0149 128.103C74.3742 128.215 73.7577 128.436 73.1929 128.759C73.0836 128.759 73.5026 129.232 73.3022 129.396C73.1018 129.559 72.7009 129.032 72.5369 129.177C72.5724 129.4 72.5491 129.628 72.4692 129.838C72.3893 130.049 72.2556 130.235 72.0814 130.378C70.4415 131.78 72.4277 128.759 70.3505 130.069C70.2048 130.925 70.9153 130.16 71.0064 130.287C71.7535 131.088 66.2873 132.908 68.2187 131.507C68.747 131.143 70.8242 130.943 70.0407 130.287C68.3987 130.907 66.8034 131.643 65.267 132.49C64.9572 132.635 64.939 133.09 64.9025 133.109C64.5563 133.272 64.9026 132.508 64.4835 132.69C64.4835 132.69 64.4834 133.018 64.2101 133.182C63.5178 133.509 60.5661 134.528 63.1717 133.982C63.2628 134.947 62.3152 134.601 62.297 134.638C61.5135 136.458 67.4899 132.508 66.2144 134.201C64.4245 135.139 62.5669 135.942 60.6572 136.603C59.5822 136.603 61.9508 135.074 62.297 135.293L61.4225 135.074C63.8093 133.491 60.7484 134.401 60.3293 134.874C60.22 135.02 60.1652 136.694 60.1105 136.822C60.0559 136.949 59.5275 136.822 59.4546 136.822C61.1856 135.712 55.9563 137.404 55.8105 137.513C55.6648 137.623 55.8105 137.896 55.8105 137.914C55.0293 138.052 54.2849 138.349 53.6241 138.788C54.2071 138.551 55.3186 138.569 55.7923 138.314C55.8834 138.314 55.7923 137.932 55.7923 137.914C56.3207 137.732 59.3453 136.931 59.4364 136.822C55.9563 139.497 47.5385 141.409 43.1656 142.501C42.9105 140.808 41.1431 141.227 39.7401 140.298C38.3371 139.37 38.7563 138.66 38.6834 138.569C38.6105 138.478 38.0092 138.697 37.827 138.569C37.6448 138.442 37.827 138.078 37.827 137.987C37.827 137.896 37.2075 137.987 37.0618 137.877C35.6192 136.684 34.4772 135.169 33.7274 133.455C32.9439 128.722 36.1507 129.687 39.1024 128.194C41.1192 126.965 43.0435 125.59 44.86 124.081C45.1151 123.098 44.3499 123.935 44.022 123.717C43.0696 122.815 42.175 121.855 41.3435 120.841C40.8516 120.386 39.8859 120.24 39.6125 119.949C38.5602 118.46 37.6857 116.854 37.007 115.162C37.2492 114.314 37.5413 113.482 37.8817 112.669C38.0275 112.487 39.7037 112.541 39.8677 112.414C45.9533 109.192 52.5309 107.153 58.8898 104.296C59.4182 104.059 59.0173 103.477 60.3657 103.914L60.147 103.477L73.2475 96.7059C73.7759 97.7251 74.359 96.4329 74.6688 96.269C74.9785 96.1052 74.6687 96.8879 74.9967 96.7059C75.3247 96.5238 76.6 95.3954 77.2013 95.086C91.0306 88.1148 104.714 81.2165 118.252 74.0269C118.361 74.4819 118.452 74.0269 118.471 74.0269C120.202 73.0986 121.823 71.8792 123.937 70.9145C124.101 70.9145 124.082 70.2046 124.246 70.1318C125.767 69.7333 127.323 69.4834 128.893 69.3856C129.202 69.3856 129.202 68.7849 129.239 68.7849C129.931 68.6029 129.239 69.5129 130.697 68.7849C133.594 67.4926 137.638 63.5611 141.337 63.4883C143.524 63.4883 142.595 64.0707 142.777 64.1436C142.959 64.2164 143.305 63.8341 143.505 63.9433C144.142 64.4393 144.706 65.0213 145.182 65.6725C145.455 65.8909 145.328 65.0354 145.601 65.2356C145.874 65.4359 146.202 66.5097 146.275 66.5461C146.639 66.7099 146.931 65.8181 147.368 66.2185C147.805 66.6189 146.894 66.4187 147.131 66.8738C147.951 68.4209 148.953 68.5119 149.482 69.4583C149.866 70.4035 150.153 71.3854 150.338 72.3888C150.648 72.9166 153.199 76.0291 153.253 76.4841C153.399 77.4124 152.324 76.1929 152.178 76.3749C150.903 77.74 154 77.5216 153.691 78.8685C153.691 79.3417 152.834 78.6683 153.035 79.4145C154.128 79.7239 154.857 77.7946 155.44 77.4669C156.023 77.1393 155.586 77.9948 155.768 77.8856C157.116 77.1211 158.41 75.7742 160.122 75.938C163.221 77.1333 166.074 78.8853 168.54 81.1072C168.85 81.5259 168.868 82.1265 169.105 82.4905C169.342 82.8546 169.634 82.4905 169.634 82.4905C169.634 82.4905 169.379 83.0184 169.634 83.346C170.362 84.9113 171.182 84.0741 170.818 86.5131C170.545 88.1876 167.174 90.6812 167.757 91.9735C167.903 92.2829 169.014 92.0827 169.069 92.1191C169.123 92.1555 170.709 96.0506 171.018 96.5603C171.328 97.0699 171.838 96.5602 171.893 96.7059C173.15 98.7262 171.693 98.7626 171.693 100.037C171.693 100.182 173.423 102.803 173.515 101.493C173.168 103.713 174.262 102.203 174.608 102.585L175.373 105.861L176.576 105.643C175.646 106.789 177.76 106.48 177.45 108.045L176.794 107.172C177.013 109.101 176.412 108.191 176.375 108.264C176.065 108.773 175.519 110.521 175.428 110.612C174.535 111.522 172.786 112.541 171.255 114.07C156.187 129.232 142.321 145.613 126.98 160.502C123.135 164.142 119.017 167.782 115.3 171.532L114.972 171.095C114.972 172.515 114.335 171.896 113.824 172.406C112.44 173.734 102.564 183.417 101.763 183.527C100.159 183.763 104.605 180.505 104.477 180.378C103.311 180.669 100.487 183.654 102.746 180.705C102.746 180.705 104.004 180.05 103.621 179.613C103.238 179.176 102.819 180.651 102.746 180.705C102.674 180.76 102.054 180.341 101.653 180.596C101.252 180.851 101.653 181.233 101.653 181.251C101.653 181.27 101.161 181.015 100.888 181.251C100.615 181.488 100.888 182.435 100.469 182.562C100.469 182.562 100.05 182.052 99.8129 182.143C99.5761 182.234 99.8129 182.999 99.7036 183.108C99.1023 183.545 97.1345 183.472 97.7358 185.183L97.2985 184.327C96.4604 186.148 93.7637 187.021 92.9255 189.114L92.4883 188.678C92.4883 189.697 90.0649 191.098 90.0832 191.845C90.0832 193.046 90.7755 191.226 90.8849 191.098C91.5772 190.334 91.9599 190.571 92.4883 190.207C92.6523 190.607 92.7252 190.116 92.7616 190.116ZM85.8925 196.231V196.013L85.7832 196.122L85.8925 196.231ZM87.5324 194.265C87.496 194.482 87.496 194.704 87.5324 194.921C87.8057 195.339 87.7874 193.92 87.6052 194.302L87.5324 194.265ZM88.0607 194.265V194.047L87.9514 194.156L88.0607 194.265ZM88.2794 193.829V193.61L88.17 193.719L88.2794 193.829ZM89.9192 192.3C89.9192 192.3 90.0468 194.411 90.3565 192.409C90.3565 192.172 89.9921 192.409 89.9192 192.3C89.8464 192.19 89.9192 191.99 89.9192 191.863L88.6255 193.683C89.0446 193.756 89.4273 191.936 89.9192 192.336V192.3ZM105.006 178.994C105.006 179.304 104.295 180.105 104.896 180.087C105.006 180.105 105.479 179.049 105.006 179.031V178.994ZM105.516 178.612C104.878 180.432 108.03 176.537 108.704 176.792C107.648 176.264 109.798 174.845 108.704 174.608C107.795 175.284 106.941 176.032 106.154 176.847C106.154 176.847 105.607 178.376 105.516 178.649V178.612ZM104.459 178.776V178.558L104.35 178.667L104.459 178.776ZM104.896 178.558V178.339L104.787 178.448L104.896 178.558ZM105.006 177.684V178.121H105.206V177.684H105.006ZM109.36 175.063H109.798V174.845H109.36V175.063ZM110.199 173.57C110.199 173.771 109.907 174.681 110.199 174.626C112.458 172.806 113.332 170.986 109.779 173.316C109.688 173.734 110.217 173.534 110.199 173.607V173.57ZM108.941 174.189V174.626H109.142V174.189H108.941ZM109.688 173.971V173.734L109.579 173.843L109.688 173.971ZM112.64 172.005V172.442H112.859V172.005H112.64ZM118.762 165.471C117.25 166.836 115.883 168.31 114.28 169.603L114.389 170.258L113.952 169.821C114.189 170.968 113.405 171.277 112.64 171.787C113.272 171.625 113.849 171.296 114.311 170.835C114.772 170.374 115.102 169.797 115.264 169.166L115.592 169.603C116.12 169.457 116.612 167.946 116.685 167.873C116.758 167.801 117.213 168.237 117.414 168.055C117.997 167.491 118.416 166.69 118.981 166.126C119.546 165.562 120.548 164.925 120.693 164.761C120.839 164.597 120.693 164.015 120.693 163.942C120.693 163.869 121.55 164.16 121.568 163.614C121.568 162.358 121.076 163.905 121.022 163.942C120.967 163.978 120.621 163.487 120.584 163.505C120.548 163.523 119.236 165.07 118.762 165.507V165.471ZM111.984 171.35V171.787H112.203V171.35H111.984ZM115.628 168.292V168.074L115.519 168.183L115.628 168.292ZM122.224 163.541V163.978H122.443V163.541H122.224ZM121.787 163.105V163.541H122.005V163.105H121.787ZM122.552 162.886V162.668L122.443 162.777L122.552 162.886ZM123.755 160.702C123.755 161.284 124.083 161.539 124.392 161.03L123.755 160.702ZM123.208 161.357L123.518 161.03L123.427 160.92L123.208 161.139V161.357ZM124.738 160.265V160.047L124.629 160.156L124.738 160.265ZM125.103 159.501C125.103 159.578 125.134 159.652 125.188 159.707C125.243 159.761 125.317 159.792 125.394 159.792C125.468 159.787 125.538 159.755 125.589 159.701C125.64 159.646 125.668 159.575 125.668 159.501C125.668 159.428 125.639 159.359 125.588 159.308C125.536 159.256 125.467 159.228 125.394 159.228C125.327 159.236 125.264 159.268 125.217 159.318C125.171 159.368 125.143 159.433 125.139 159.501H125.103ZM125.941 158.299C125.914 158.517 125.914 158.737 125.941 158.955C126.251 159.337 126.233 157.917 125.977 158.299H125.941ZM126.706 157.863V157.644L126.597 157.753L126.706 157.863ZM127.472 156.989C127.435 157.206 127.435 157.427 127.472 157.644C127.69 158.026 127.69 156.607 127.508 156.989H127.472ZM127.144 157.644V157.353L127.034 157.462L127.144 157.644ZM128.565 156.771V157.207H128.765V156.771H128.565ZM129.512 154.805C129.749 156.006 128.966 155.642 128.947 155.697C128.601 156.68 130.642 155.533 129.512 154.805ZM130.15 155.242C130.15 155.242 130.624 155.242 130.587 155.132C130.551 155.023 130.587 154.714 130.259 155.023C129.931 155.333 130.077 155.169 130.114 155.242H130.15ZM131.025 154.15C130.66 154.659 131.444 154.641 131.462 154.259C131.48 153.877 131.006 154.131 130.988 154.15H131.025ZM129.949 154.368H130.369V154.15H129.949V154.368ZM131.261 153.276C131.225 153.493 131.225 153.714 131.261 153.931C131.498 154.313 131.48 152.894 131.225 153.276H131.261ZM131.68 153.494C131.917 153.713 132.555 153.076 132.336 152.839C132.118 152.602 131.334 153.276 131.644 153.494H131.68ZM133.102 152.621V152.402L132.992 152.511L133.102 152.621ZM132.118 152.621H132.555V152.402H132.118V152.621ZM132.774 152.184C132.774 152.184 133.247 152.275 133.211 152.075C133.175 151.874 133.211 151.656 132.883 151.965C132.555 152.275 132.701 152.111 132.737 152.184H132.774ZM133.648 150.673C133.648 150.673 133.994 151.765 134.304 151.747C134.577 151.037 133.903 149.836 133.612 150.673H133.648ZM134.741 149.799C134.741 150.145 134.541 150.928 134.96 150.873C134.851 150.582 135.16 149.763 134.705 149.799H134.741ZM135.835 148.489C135.835 148.489 135.835 150 135.507 150.309C136.345 150.072 136.564 148.143 135.798 148.489H135.835ZM135.288 149.563V149.344L135.179 149.454L135.288 149.563ZM136.819 148.908V148.689L136.709 148.798L136.819 148.908ZM136.6 148.489V148.252L136.491 148.361L136.6 148.489ZM137.693 147.834V147.615L137.584 147.724L137.693 147.834ZM139.989 145.868C139.989 145.868 140.171 145.213 140.098 145.213C140.025 145.213 139.588 146.141 139.952 145.868H139.989ZM140.536 144.976L140.863 144.667L140.754 144.557L140.536 144.776V144.976ZM141.191 144.339V144.121L141.082 144.23L141.191 144.339ZM141.629 143.884L141.957 143.575L141.847 143.465L141.629 143.684V143.884ZM140.973 143.684V143.465L140.863 143.575L140.973 143.684ZM143.269 141.718V142.155H143.487V141.718H143.269ZM143.597 140.844V140.626L143.487 140.735L143.597 140.844ZM47.3745 139.971V140.407H47.5203V139.971H47.3745ZM145.127 140.189V139.971L145.018 140.08L145.127 140.189ZM144.253 140.189V139.971L144.143 140.08L144.253 140.189ZM48.4678 139.315V139.752H48.6682V139.315H48.4678ZM52.4944 139.534V139.315L52.3851 139.425L52.4944 139.534ZM146.002 138.442V138.223L145.892 138.332L146.002 138.442ZM52.2758 138.442V138.223L52.1665 138.332L52.2758 138.442ZM53.9157 137.786C54.2436 137.786 54.3894 137.695 54.5716 137.459C54.3347 137.331 53.7881 137.55 53.8792 137.786H53.9157ZM56.2114 136.913V136.694L56.1021 136.804L56.2114 136.913ZM55.4461 136.913H55.8835V136.694H55.4461V136.913ZM58.7259 135.821C58.7259 135.821 59.1814 135.912 59.1632 135.711C59.1449 135.511 59.1632 135.293 58.8352 135.602C58.5072 135.912 58.6347 135.748 58.6894 135.821H58.7259ZM59.4911 135.602V135.384L59.3818 135.493L59.4911 135.602ZM59.8191 134.947C59.4364 135.457 60.2381 135.438 60.2563 135.056C60.2746 134.674 59.8008 134.929 59.7826 134.947H59.8191ZM153.855 129.942V129.723L153.745 129.832L153.855 129.942ZM72.045 129.705H72.4823V129.505H72.045V129.705ZM75.5433 127.976C74.9238 128.831 77.256 127.757 77.0738 127.102C76.5256 127.345 76.0011 127.637 75.5068 127.976H75.5433ZM77.7298 126.884H78.167V126.665H77.7298V126.884ZM80.1349 125.792C80.4082 125.792 81.0459 125.701 81.0094 125.355C80.6997 125.41 80.062 125.428 80.0984 125.792H80.1349ZM86.8946 122.515C86.4209 122.606 85.5281 122.697 85.601 123.389C85.8925 122.77 86.5303 122.989 86.8582 122.515H86.8946ZM87.6599 122.079V121.86L87.5505 121.969L87.6599 122.079ZM97.0616 117.492V117.31L96.9523 117.419L97.0616 117.492ZM98.8837 117.273C99.1023 117.51 99.7582 116.837 99.5396 116.618C99.3209 116.4 98.7926 117.182 98.8837 117.31V117.273ZM98.4464 116.4C97.8816 116.4 97.6994 116.837 97.7905 117.273C98.1549 117.128 97.9727 116.691 98.4464 116.4ZM99.7582 116.837C99.9586 116.964 100.797 116.509 100.852 116.181C100.487 116.145 99.2845 116.527 99.7582 116.837ZM101.179 115.963V115.745L101.07 115.854L101.179 115.963ZM99.1023 115.963C99.3201 115.99 99.5404 115.99 99.7582 115.963C100.141 115.69 98.7197 115.708 99.1023 115.963ZM100.469 115.162C100.469 115.162 100.05 115.89 100.469 115.635L101.562 114.762C101.179 114.839 100.811 114.974 100.469 115.162ZM104.568 112.923C104.568 112.923 104.386 113.56 104.459 113.56C104.532 113.56 104.933 112.632 104.568 112.923ZM109.798 111.103C109.215 111.103 108.686 111.649 109.269 111.959L109.798 111.103ZM110.035 110.666V111.085H110.235V110.666H110.035ZM109.579 110.011L109.67 110.63C109.834 110.503 110.982 109.884 110.672 109.574C110.089 109.01 109.47 111.34 109.579 110.029V110.011ZM108.504 110.648H108.923V110.448H108.504V110.648ZM111.875 109.356V109.137L111.766 109.247L111.875 109.356ZM113.697 109.137V108.919L113.588 109.028L113.697 109.137ZM112.604 108.701V108.482L112.494 108.591L112.604 108.701ZM115.665 106.516V106.389L115.555 106.498L115.665 106.516ZM124.046 102.002V101.784L123.937 101.893L124.046 102.002ZM171.419 100.037V100.474H171.62V100.037H171.419ZM171.419 98.5078V98.2894L171.31 98.3986L171.419 98.5078ZM172.075 98.2894V98.071L171.966 98.1802L172.075 98.2894ZM167.72 89.5709V89.3525L167.611 89.4617L167.72 89.5709ZM146.639 86.9499C146.612 87.1675 146.612 87.3876 146.639 87.6051C147.004 87.9874 146.986 86.5677 146.731 86.9499H146.639ZM147.168 86.9499L147.496 86.6223V86.5131L147.259 86.7315L147.168 86.9499ZM147.733 86.0762C147.945 86.0949 148.158 86.0949 148.37 86.0762C148.862 85.785 147.423 85.8214 147.733 86.0762ZM153.727 80.179V79.9606L153.618 80.0698L153.727 80.179ZM151.905 74.9552V74.7367L151.796 74.846L151.905 74.9552Z" fill="#00FFB1"/>
<path d="M127.695 61.8501C127.896 61.8501 128.133 61.8501 128.333 61.8501L127.914 61.6317C128.297 60.4668 128.734 62.2141 128.552 62.4872C127.714 63.7248 106.578 70.0589 103.444 71.242L104.1 70.5868C102.533 69.3309 104.647 70.9872 105.175 70.2591C105.703 69.5311 104.428 70.4776 104.319 70.3683C104.209 70.2591 104.738 69.4583 104.738 69.3855C104.902 68.439 102.041 70.2046 101.877 70.241C100.875 70.4594 99.3808 70.3684 98.0325 70.7324C92.8032 72.1703 87.6287 73.9358 82.363 75.3737C68.7705 79.105 53.4107 83.3278 38.8526 85.7668C38.7068 85.7668 36.0831 85.6393 36.5933 86.0762C37.4563 86.2772 38.354 86.2772 39.217 86.0762C38.7615 86.8406 32.8945 87.0227 32.5847 86.8953C31.947 86.5858 32.0746 85.967 31.783 85.7668C31.4915 85.5666 30.7445 85.3845 30.3072 85.1479C29.8699 84.9113 30.0704 84.3471 30.034 84.3289C29.5967 84.165 22.3266 87.0408 21.197 86.513C20.4317 85.3845 17.6623 83.5826 17.0428 82.8727C17.0428 82.7635 16.0771 80.9252 15.9131 80.5248C15.8655 80.071 15.8655 79.6134 15.9131 79.1597C15.9131 79.1597 14.8927 79.2507 14.8198 79.1597C14.7469 79.0686 14.9838 77.5943 14.8198 77.1939C14.6558 76.7934 14.0911 76.484 14.0911 76.4294C14.3287 75.6135 14.3722 74.7534 14.2185 73.9176C13.8723 72.6981 12.7791 72.0975 12.3965 70.7142C10.6838 64.7805 13.9635 65.2537 18.3546 64.9625C18.8101 64.9625 19.2657 65.3812 19.4479 65.363C19.6301 65.3448 19.8305 64.8169 20.3224 64.7623C25.6064 64.1617 30.9084 62.4871 36.3199 61.3405C50.3679 58.3554 64.2701 55.6252 78.0447 51.7483C78.3545 51.6573 78.2999 51.2387 78.3181 51.2387C78.7189 51.1477 78.4092 51.7483 78.646 51.6755C78.8829 51.6027 78.646 51.2933 78.901 51.2387C79.557 51.0567 80.5774 51.4935 81.4702 51.2387C81.6524 51.2387 81.3609 50.729 81.5795 50.6562C87.8109 48.9999 94.2063 47.8896 100.492 46.3607C104.027 45.5052 115.069 41.2825 118.075 42.1744C119.077 42.4838 119.897 44.6497 121.027 44.7772C122.809 44.5219 124.569 44.1326 126.292 43.6123C127.24 43.4485 128.862 43.8489 129.335 43.7579C129.809 43.6669 131.03 42.5748 131.74 42.4656C132.451 42.3564 132.451 42.866 132.615 42.9206C132.779 42.9752 133.18 42.6476 133.362 42.7022C133.544 42.7568 133.544 43.5577 133.581 43.5759C133.617 43.5941 134.291 43.048 135.002 43.5759C135.855 45.4004 136.603 47.2722 137.243 49.1819C137.862 52.5492 135.785 51.6209 134.273 53.805C132.852 54.3147 127.896 56.6627 127.914 58.3008C128.121 58.3791 128.297 58.5227 128.416 58.7099C128.534 58.8971 128.588 59.1177 128.57 59.3383C128.57 59.5021 127.768 59.9025 127.732 59.9753C127.729 60.5489 127.643 61.119 127.477 61.6681C127.477 61.6681 126.803 61.5043 127.039 62.1049C127.386 62.1959 127.695 61.8683 127.695 61.8501ZM35.828 86.0762V85.8578L35.7187 85.967L35.828 86.0762ZM105.831 70.1499V69.9861L105.722 70.0953L105.831 70.1499ZM106.487 69.9315V69.7131L106.377 69.8223L106.487 69.9315ZM107.033 68.4026C107.033 68.7484 106.815 69.5311 107.234 69.4947C107.106 69.1853 107.416 68.3844 106.979 68.4026H107.033ZM105.066 68.8394C105.038 69.057 105.038 69.2771 105.066 69.4947C105.284 69.8769 105.266 68.4572 105.011 68.8394H105.066ZM107.471 69.2762C107.471 69.4219 109.056 69.0579 108.327 68.621C108.218 68.5846 107.343 69.0578 107.416 69.2762H107.471ZM106.268 69.2762V69.0578L106.159 69.167L106.268 69.2762ZM106.705 68.8394V68.621L106.596 68.7302L106.705 68.8394ZM110.186 68.621V68.4026L110.076 68.5118L110.186 68.621ZM107.799 68.621V68.4026L107.689 68.5118L107.799 68.621ZM108.436 68.4026V68.166L108.327 68.2752L108.436 68.4026ZM109.438 67.7473V68.166H109.639V67.7292L109.438 67.7473ZM108.783 68.1842H109.202V67.9658H108.783V68.1842ZM112.044 67.0921H112.481V66.8737H112.044V67.0921ZM117.838 65.1263V64.9079L117.729 65.0171L117.838 65.1263ZM79.1744 51.6027V51.3843L79.0651 51.4935L79.1744 51.6027Z" fill="#00FFB1"/>
<path d="M73.7622 33.7108C73.1792 33.5652 74.4181 32.4367 71.7762 32.9282C71.2842 33.0192 71.3936 33.4742 71.3571 33.4924C70.5008 33.638 71.6121 32.7825 70.61 33.0374C70.4096 33.0374 70.0088 34.4935 70.0452 33.0374L69.6262 33.6926C69.9177 32.5641 66.6927 32.9645 65.7817 33.0191C65.4719 33.0191 64.9799 33.6926 64.9253 33.6926C64.8706 33.6926 64.1236 33.1101 64.0507 33.1101C63.3506 33.0988 62.6638 33.3021 62.0829 33.6926C61.9007 33.6926 61.9007 33.1101 61.6638 33.1101C60.554 33.1191 59.4484 33.2473 58.3659 33.4924C57.9287 33.4924 58.1291 32.7461 57.6007 33.0374C57.6007 33.0374 57.7464 33.638 57.4913 33.6926C57.2362 33.7472 56.0338 32.0545 55.0863 33.6926C54.6672 32.0545 54.5032 33.6926 54.4303 33.6926C54.3574 33.6926 54.4303 33.0738 54.321 33.0374C53.5921 32.6733 53.4646 34.2932 53.4464 32.8189L53.1185 33.4742L45.5934 32.8189C46.14 33.7654 43.99 32.9099 43.7714 32.8189C43.6256 34.73 43.6256 32.8189 43.5527 32.8189C42.5709 32.7279 41.5828 32.7279 40.601 32.8189C40.601 32.8189 40.601 34.8211 40.2731 33.911C40.1455 33.6562 40.4917 32.8189 39.9269 32.6005C39.7265 32.6005 39.2162 32.9464 38.9794 32.9282C37.4262 32.643 35.8558 32.4605 34.2785 32.3821C33.8047 32.3821 34.734 33.6926 33.495 32.3821C32.9484 35.2397 33.1671 32.3821 33.0577 32.3821C32.3107 31.9088 31.6183 32.8189 31.5272 32.8189C31.4361 32.8189 31.5272 32.1819 31.5272 32.1637C30.6344 31.8724 30.5797 33.1101 30.8713 33.6926L31.1992 33.0374L43.9535 34.8575C32.8573 34.9485 21.2145 32.7279 10.1911 33.7472C9.36121 34.3521 8.33193 34.6189 7.31227 34.4935C7.18473 34.4935 5.49027 32.9463 5.30807 32.8371C5.12586 32.7279 5.54494 32.0544 5.30807 31.745C2.61144 28.3778 0.734718 26.594 0.0423355 21.8617C-0.139862 20.6422 0.260933 17.639 1.35416 17.0565C2.15585 16.6379 7.29408 18.367 7.6767 17.2749C7.80424 16.9291 4.68852 11.8145 4.34233 10.5768C3.54063 7.60994 2.9029 6.13563 5.23512 4.04247C5.3991 3.91506 5.23512 3.27802 5.23512 3.20522C5.23512 3.13241 9.82668 4.57035 10.8288 4.71597C20.9411 6.19028 34.898 3.18699 45.3383 2.78656C58.5663 2.27692 72.1223 2.49536 85.5143 1.43968C88.63 1.18486 93.6407 -0.180248 96.6106 0.0199699C97.0479 0.0199699 98.1593 1.51249 97.6309 0.0199699C98.3415 1.13026 101.111 0.311203 102.295 0.657028C103.079 0.893646 104.117 2.47715 104.864 3.02319C104.974 3.02319 105.539 2.65918 105.939 2.93221C106.34 3.20523 106.176 3.89685 106.413 4.09707C106.65 4.29728 108.326 4.0971 107.634 5.20738C107.525 5.37119 106.832 5.3166 106.486 6.00825C105.684 7.55537 107.944 6.42689 107.233 7.20955C107.233 7.20955 105.302 7.64634 105.939 8.30159C106.213 8.59281 108.253 7.22773 108.764 7.75557C108.618 8.02859 106.304 10.0126 106.377 10.1582C106.45 10.3038 107.47 9.63033 107.67 10.049C107.871 10.4676 107.16 10.5404 107.251 10.7042C107.342 10.868 109.073 12.1967 109.073 12.3059C110.189 13.7921 111.023 15.4701 111.533 17.2567L111.97 16.8199C111.752 18.4398 112.845 18.0758 113.483 18.64C113.483 18.64 113.191 19.2225 113.483 19.3863C115.596 20.5876 116.289 18.8584 118.785 21.625C118.931 21.7706 119.568 21.625 119.605 21.625C119.641 21.625 119.459 22.9537 119.605 23.2086C119.751 23.4634 121.427 25.0287 121.427 25.2289C121.427 25.9934 120.552 25.7932 120.552 25.8842C120.552 26.3028 121.245 28.0501 121.208 28.7236L120.771 28.6144C120.261 29.5972 121.773 30.835 121.427 31.563C121.245 31.9271 120.224 30.6893 120.552 32.5459C121.372 31.29 121.737 32.8189 121.427 33.4196C121.281 33.6744 118.858 32.018 118.694 31.9816C118.238 31.8724 116.635 31.9817 116.07 31.8724C105.539 31.5084 90.8165 34.2386 79.6292 34.7301C68.4418 35.2215 56.7989 35.3489 45.4294 34.9485C45.4294 34.4024 45.4295 34.5663 45.7392 34.5117C47.1838 34.4382 48.6311 34.4382 50.0757 34.5117C50.2579 34.5117 50.1849 34.0748 50.3307 34.093C50.8226 34.093 50.5858 34.6573 51.4603 34.6573C55.5053 34.6573 59.6231 34.8211 63.668 34.7665C65.0164 34.7665 73.0698 34.6755 73.5071 34.4388C73.9444 34.2022 73.5071 33.9656 73.5071 33.8746C74.3635 34.093 73.9262 32.5095 73.5071 33.0009C73.6893 32.9281 73.8351 33.4924 73.7622 33.7108ZM74.4181 34.1476C75.3634 34.2386 76.3153 34.2386 77.2605 34.1476C77.2605 34.1476 77.1148 33.3285 77.3698 33.2739C77.6249 33.2193 77.3698 34.002 77.7889 34.093C78.8457 34.3114 81.0139 33.3832 81.6334 33.9292L82.7267 32.4003C80.7042 32.2365 81.7609 32.9645 81.6334 33.0555C81.5058 33.1465 80.9411 33.0555 80.686 33.0555C80.4309 33.0555 80.5584 33.4924 80.5402 33.4924C80.2122 33.4924 80.2851 31.3992 79.8843 33.7108C79.5745 31.472 78.4448 33.3468 78.3537 33.7108C77.3698 33.8564 78.3537 32.7279 78.0257 32.6187C77.6978 32.5095 76.8415 33.3831 76.386 33.2739L76.6046 33.7108C74.3635 34.0566 75.4385 33.6198 75.0194 33.2193C74.1995 32.3639 74.3635 34.0566 74.4181 34.1476ZM30.3975 33.7108V33.4924L30.2882 33.6016L30.3975 33.7108ZM29.9056 32.4367C29.9056 32.5823 29.6687 33.729 30.0696 33.7108C30.8895 32.9827 30.3612 31.4538 29.9056 32.4367ZM28.284 33.1283C28.284 33.1283 30.3976 33.7108 29.6323 32.6187C29.3408 32.2001 26.3709 32.9099 25.715 32.6187C26.3162 33.274 27.3365 33.1101 28.284 33.1283ZM24.6399 33.4924V33.2739L24.5306 33.3832L24.6399 33.4924ZM23.2187 33.3468L24.6034 33.092L24.5124 32.6187L23.1458 32.8735L23.2187 33.3468ZM24.7492 32.8371H25.1683V32.6187H24.7492V32.8371ZM19.1738 32.1819V31.9634L19.0645 32.0727L19.1738 32.1819ZM119.769 31.9634H120.206V31.7632H119.769V31.9634ZM24.4213 31.9634V31.7632L24.312 31.8724L24.4213 31.9634ZM23.1094 31.9634V31.7632L23 31.8724L23.1094 31.9634ZM20.923 31.9634V31.7632L20.8137 31.8724L20.923 31.9634ZM20.267 31.9634V31.7632H20.1941L20.267 31.9634ZM61.8825 13.4162C61.8552 13.6338 61.8552 13.8539 61.8825 14.0715C62.2469 14.4537 62.2286 13.034 61.9736 13.4162H61.8825ZM104.919 8.39263C105.12 8.53824 105.757 8.39265 105.794 7.95581C105.557 7.792 104.518 8.10141 105.01 8.39263H104.919ZM106.122 6.57249V6.35408L106.012 6.46329L106.122 6.57249Z" fill="#00FFB1"/>
<path d="M227.576 212.394C227.576 212.394 227.576 211.757 227.23 211.539C227.23 211.539 227.084 212.139 226.483 212.085C225.51 211.862 224.564 211.539 223.658 211.12C223.134 211.017 222.591 211.087 222.11 211.32C222.11 211.32 222.11 210.811 221.745 210.72C221.381 210.629 220.889 210.72 220.488 210.72C220.087 210.72 220.379 210.064 220.342 210.046C219.166 210.07 217.993 209.917 216.862 209.591C216.862 209.591 216.862 209.009 216.862 208.972C211.761 206.151 214.111 203.93 214.658 198.579C214.609 196.943 214.688 195.306 214.894 193.683L215.332 194.12L215.55 190.844L215.131 190.953V190.116L215.569 190.334L215.35 189.023L215.787 189.46C216.243 182.944 217.154 176.41 217.773 169.912C217.773 169.257 217.3 169.402 217.318 169.275C217.482 167.6 218.484 164.47 218.538 162.741C218.538 162.504 217.791 161.375 217.974 161.102C218.156 160.829 218.575 161.394 218.63 161.321C218.684 161.248 218.52 159.392 218.63 158.918L219.067 159.355C219.034 158.073 219.181 156.792 219.504 155.551C219.504 155.442 219.067 155.405 219.085 155.278C219.231 153.185 219.504 151.11 219.705 148.999C219.705 148.78 220.215 148.889 220.379 148.871C219.504 145.467 221.272 141.973 220.597 138.405L221.035 139.061C221.235 138.114 221.035 132.453 222.128 134.474L222.784 122.479C223.604 122.57 222.93 121.587 223.003 120.859C223.206 120.214 223.501 119.601 223.877 119.039C224.005 117.983 223.094 118.948 223.221 118.056C224.77 118.347 224.387 117.474 224.314 116.236L224.97 116.673C224.984 115.495 225.231 114.332 225.699 113.251C226.446 112.323 229.708 112.05 230.856 112.104C230.983 112.104 230.619 112.65 231.074 112.741C231.074 112.741 232.095 111.649 232.167 111.667C232.24 111.686 232.568 112.723 232.623 112.741C232.678 112.76 234.008 111.667 234.354 113.178L234.791 112.323C234.645 112.65 236.012 113.797 236.121 113.833C236.65 114.052 236.54 113.36 236.65 113.397C238.289 113.852 237.579 114.179 237.852 114.707C237.962 114.907 238.125 113.979 238.836 114.27C239.164 114.398 239.729 116.491 240.148 114.944C240.385 117.419 241.423 115.981 241.569 116.018C241.715 116.054 241.569 116.436 241.788 116.564C242.006 116.691 242.535 116.564 242.644 116.691C242.754 116.818 242.644 117.474 242.644 117.547C242.644 117.619 243.519 117.146 243.737 117.328C243.956 117.51 244.375 119.931 244.612 119.949C245.304 119.949 244.357 118.038 246.434 120.495C244.229 132.472 243.847 144.667 242.517 156.734C241.897 162.195 240.695 167.801 240.112 173.334C238.672 185.875 237.816 198.488 235.72 210.938L235.283 209.118L235.064 210.938C234.354 211.175 234.791 210.283 234.518 210.283C234.245 210.283 233.37 211.211 232.896 211.156C232.896 211.156 233.006 210.501 232.787 210.501C232.568 210.501 231.074 212.012 230.801 212.012C229.926 211.411 227.904 212.558 227.576 212.394ZM237.014 195.394C237.014 195.74 236.814 196.522 237.233 196.486C237.014 196.177 237.397 195.376 237.014 195.394ZM237.233 193.574C237.342 193.956 236.978 195.012 237.451 195.103C237.269 194.812 237.652 193.756 237.16 193.647L237.233 193.574ZM237.889 187.677C237.598 189.409 237.451 191.162 237.451 192.919C237.802 191.219 237.925 189.481 237.816 187.749L237.889 187.677ZM215.605 192.045V192.482H215.824V192.045H215.605ZM216.152 190.734V190.516L216.042 190.625L216.152 190.734ZM216.042 189.424V189.861H216.261V189.424H216.042ZM216.261 187.604V188.041H216.48V187.604H216.261ZM216.698 187.167V187.604H216.917V187.167H216.698ZM219.322 154.004C219.322 154.332 219.14 154.95 219.541 154.878C219.431 154.696 219.65 154.095 219.249 154.15L219.322 154.004ZM241.824 150.072C241.806 150.29 241.806 150.51 241.824 150.728C242.043 151.274 242.006 149.836 241.751 150.218L241.824 150.072ZM242.262 146.159C242.262 146.487 242.079 147.087 242.48 147.033C242.353 146.851 242.59 146.232 242.189 146.305L242.262 146.159ZM242.48 145.067V145.504H242.699V145.067H242.48ZM242.917 140.262C243.027 140.644 242.662 141.7 243.136 141.791C242.954 141.572 243.337 140.517 242.845 140.407L242.917 140.262ZM243.136 138.951C243.136 139.297 242.917 140.098 243.355 140.043C243.209 139.898 243.501 139.152 243.063 139.152L243.136 138.951ZM221.399 140.043V139.825L221.29 139.934L221.399 140.043ZM243.792 132.617C243.792 134.437 243.355 136.403 243.355 138.296C243.838 136.493 243.961 134.613 243.719 132.763L243.792 132.617ZM222.055 134.801V134.583L221.946 134.692L222.055 134.801ZM243.792 131.525C243.792 131.853 243.61 132.472 244.011 132.399C243.883 132.217 244.12 131.616 243.719 131.671L243.792 131.525ZM222.492 131.525V131.307L222.383 131.416L222.492 131.525ZM223.804 120.841V120.623L223.695 120.732L223.804 120.841ZM243.847 119.749V119.53L243.737 119.64L243.847 119.749Z" fill="#00FFB1"/>
</svg>
