<svg width="55" height="55" viewBox="0 0 55 55" fill="none" xmlns="http://www.w3.org/2000/svg">
<path d="M20.7558 14.1656V17.9293H20.6069L16.2489 31.902L15.4309 34.6833L19.7258 32.349L24.6854 28.8152L28.6239 23.4779H31.9259L27.5735 31.3811L23.3433 34.3949L27.9852 41.0056L28.4335 50.2965H30.1492V23.4779H33.9179V54.0602H0V14.1656H20.7558ZM13.9264 39.7858L10.7829 50.2965H24.6606L24.2732 42.2746L20.1505 36.4032L13.9264 39.7858ZM3.76865 50.2965H6.84958L10.5378 37.9652L12.3578 31.7768L3.76865 21.3119V50.2965ZM13.6871 27.4592L16.6596 17.9293H5.86546L13.6871 27.4592Z" fill="white"/>
<path d="M43.982 5.95274L45.9336 6.47498L49.1564 7.54066L52.8319 8.93079L54.246 9.44471L53.9044 9.96319L52.9986 11.0761L52.3204 11.8433L51.2377 13.1121L50.3488 14.1618L49.0603 15.4433L48.8665 15.6625L48.7406 15.6288L48.5299 15.9112L47.4521 16.9103L46.7619 17.471L46.4083 17.783L45.4953 18.4196L44.7421 18.9634L43.4464 19.7687L42.807 20.1397L42.1847 20.4475L41.3225 20.8945L40.4773 21.2782L39.6951 21.6787L39.1866 21.8137L37.9927 22.2396L36.8957 22.5559L35.7697 22.729L34.5516 22.7419L33.5104 22.5988L32.3772 22.2955L30.7283 21.651L29.4112 21.0275L29.3991 20.821L29.9174 20.1465L30.5617 19.5057L31.8792 18.3675L32.7293 17.7141L33.8991 16.8751L35.0349 16.1626L36.7132 15.1886L37.6552 14.6953L38.7402 14.1725L39.5854 13.7888L41.1788 13.131L42.6125 12.5659L43.3608 12.2918L43.4867 12.3255L43.5206 12.1991L44.4118 11.8954L44.9833 11.7773L46.0173 11.4441L46.1432 11.4778L46.1772 11.3514L47.1942 11.0814L46.5308 11.0394L45.1359 11.2083L43.7871 11.4572L43.2955 11.529L41.4043 12.0393L40.0045 12.4779L38.7307 12.9502L38.2222 13.0852L37.0113 13.5743L36.8854 13.5407L36.8515 13.6671L35.8635 14.0803L34.8584 14.5568L34.253 14.8014L33.6306 15.1092L33.5677 15.0923L33.9118 13.5581L34.1131 12.0534L34.2104 10.1821L34.155 8.87971L34.0535 7.49731L34.0124 7.14749L34.1602 6.84822L34.8456 6.55726L35.6568 6.30001L36.7708 5.92046L38.5482 5.58293L39.8631 5.46044L41.207 5.48124L42.9577 5.74642L43.982 5.95274Z" fill="white"/>
<path d="M30.5996 0L30.7255 0.0336928L31.4757 2.26735L31.5628 2.69723L31.5289 2.82368L31.6548 2.85737L32.1 4.46731L32.5694 6.49028L32.7507 7.82631L32.7409 8.3658L32.7963 9.66814L32.7379 11.1433L32.5826 12.7281L32.4929 13.3139L31.9161 15.4636L31.359 16.5342L30.3102 17.6766L29.6999 18.1909L28.9467 18.7348L28.7409 18.7475L28.5471 18.9667L28.2614 19.0257L27.9903 18.2756L27.7411 17.1924L27.6348 16.0798L27.5455 14.9039L27.5579 13.3486L27.6842 11.6206L28.043 9.27711L28.3193 7.99578L29.0997 5.08747L28.4675 5.93475L27.7165 7.22461L27.2223 8.31211L26.9728 8.99073L26.413 11.0771L26.1778 12.7083L26.1024 14.2467L26.1288 15.4057L26.3512 17.0915L26.6464 18.2548L26.8884 18.8616L26.9005 19.0681L26.6947 19.0808L24.869 18.5923L23.9925 18.0867L22.949 17.1976L22.3801 16.3L22.0171 15.3897L21.7219 14.2265L21.5986 13.177L21.645 11.4953L21.7566 10.5765L21.9481 9.61129L22.2534 8.47325L22.7016 7.30569L23.2249 6.36148L24.0508 5.295L25.0487 4.34227L25.4023 4.03031L25.5282 4.064L25.7559 3.71835L27.6159 2.31869L28.1293 1.91398L28.5289 1.68209L29.1222 1.23099L29.4928 0.855809L30.5197 0.0463778L30.5996 0Z" fill="white"/>
</svg>
