<svg width="69" height="71" viewBox="0 0 69 71" fill="none" xmlns="http://www.w3.org/2000/svg">
<path d="M18.919 42.6021C18.7206 42.1124 18.4405 40.9115 18.3588 40.7832C18.1675 40.8092 17.9796 40.8561 17.7986 40.9232C17.0647 42.7487 16.6388 44.6831 16.5381 46.6478L16.2697 46.2397V48.8863L16.0012 48.4666C16.0012 49.784 15.511 51.9643 13.9588 52.1042L14.0405 52.384C13.4102 51.9526 11.1227 52.792 10.6908 52.6638C10.6908 52.6638 10.6908 52.314 10.6908 52.2791C9.43033 51.7311 9.1969 50.775 8.87011 50.6002C8.35115 50.4662 7.82513 50.3611 7.2945 50.2854C6.80431 50.4603 7.08442 54.401 7.08442 55.0306L6.38415 52.6988L6.10404 53.8064C6.45418 53.2351 6.54755 53.8064 6.5242 54.2261L6.24409 54.0279L6.5242 54.5876L6.24409 54.5059V55.6718L5.96398 55.5319C6.33746 56.6978 5.54382 56.7795 5.42711 56.9543C5.3104 57.1292 5.42711 57.5489 5.42711 57.6306C5.42711 57.7122 4.97194 57.3274 4.86689 57.3507C4.76185 57.3741 5.04196 58.0853 4.59845 57.8987C4.50508 57.8987 4.24832 57.0359 3.96821 57.0709C3.87484 57.0709 3.08119 58.0386 2.56766 58.0503C2.42761 58.0503 2.66103 57.8054 2.56766 57.7705C1.24882 57.3158 1.69232 57.0709 0.851997 56.4413L0.42016 43.1734H0.70027V48.8163C1.05041 48.6881 0.80531 50.0988 0.840324 50.6351C0.945365 52.4773 1.14378 54.3077 1.26049 56.1499L1.5406 53.3633L1.26049 53.4333C1.34219 49.5625 0.945367 45.6917 0.851997 41.8326C0.746957 37.2739 1.2955 31.8175 0.957038 27.4454C0.879804 27.1211 0.745437 26.8132 0.560217 26.536C-5.21744e-07 28.0283 0.326793 29.6139 0.245094 31.1179C0.245094 31.3628 0.245095 31.3161 0 31.2928V27.7252C0 25.8714 1.16712 26.3028 1.40054 26.1162C1.40054 26.1162 1.40054 25.5915 1.40054 25.5566C1.40054 25.5216 1.76235 25.7665 1.82071 25.6965C1.87906 25.6265 1.82071 25.2301 1.82071 25.1369C1.82071 25.0436 2.98783 25.7898 3.0812 24.3091C4.07325 25.7665 3.38465 23.8077 4.47007 24.4373L4.40004 24.0292C5.10032 24.1925 5.11198 24.857 5.17034 24.857C5.2287 24.857 5.62552 23.8893 6.43083 24.3674C6.54754 24.4373 8.01811 26.2328 8.13483 26.4427C8.53165 27.2122 8.56666 28.0866 8.87011 28.7745C8.96348 28.9727 9.33696 28.7162 9.37197 28.7745C9.40699 28.8328 9.09187 30.4534 9.64041 29.0543C9.27861 30.2202 9.82715 30.0919 9.8505 30.1619C10.402 31.2987 10.712 32.5372 10.7608 33.7995L11.4611 32.1323C11.6479 32.7968 11.2394 33.4381 11.181 33.9977C11.181 34.0793 11.6712 33.9977 11.4611 34.3591C11.4611 34.4291 11.1227 34.1493 11.0526 34.2892C10.9826 34.4291 12.0914 35.3852 11.8113 35.8981L16.0362 23.9243V22.0705L15.4877 22.5602C15.8495 22.0122 15.8261 21.1961 16.3864 20.8114C16.5381 20.7064 19.596 19.4589 19.7827 19.4356C20.5677 19.5229 21.3471 19.6553 22.1169 19.832C22.1169 19.832 21.9068 20.2051 21.9652 20.2517C22.9573 21.0212 22.9573 20.7764 23.4825 22.1638L23.926 27.5853V25.4983C23.926 25.3234 23.4474 24.3324 24.066 24.4606C23.7159 25.4983 24.4162 26.7924 24.4862 27.5969C24.4862 27.7135 24.1477 27.5969 24.1944 28.005C24.4144 28.9959 24.5124 30.01 24.4862 31.0246L24.7663 29.3457C24.6496 30.9314 25.665 31.8991 25.3265 33.5314L25.6066 33.3914V34.091L26.1668 33.7412L25.6066 34.7905L26.0268 34.5107L25.9568 35.2102C26.2602 34.7672 26.5753 34.8022 26.1668 34.3708C26.3886 34.3708 26.622 34.5224 26.8321 34.3708C27.9992 33.4264 30.0067 30.2552 31.1855 28.9144C38.8301 20.1118 47.6652 11.7406 55.7417 3.34613C56.9343 2.2045 58.193 1.1339 59.5115 0.139903C59.9667 0.0699485 59.6865 0.839451 59.92 0.839451C60.2928 0.537834 60.6825 0.257567 61.0871 0C61.8269 0.229964 62.5486 0.514443 63.2463 0.851104C63.2463 0.921058 63.4914 2.19189 63.9699 2.43673C62.3242 6.43578 60.5969 10.3532 59.0563 14.3872L58.7879 14.2473C58.9979 15.4132 57.7491 16.1477 57.9475 17.3253L57.6674 17.1737C57.9709 18.0831 56.1502 19.9836 56.1385 20.4732C56.1268 20.9629 56.3486 20.6015 56.4069 20.6714C56.4069 20.5665 56.2552 20.2984 56.687 20.3916V20.9513C56.547 20.9513 56.5236 20.8113 56.4069 20.6714C55.9984 21.3243 55.8817 21.1961 55.8467 21.2311C55.6833 21.4643 56.7104 21.8374 55.7067 21.7208L53.1973 28.2848C53.1273 28.4247 52.7188 27.8767 53.0456 28.7745L52.7772 28.4947C52.7772 29.4857 51.8552 29.9171 52.0769 30.8265L51.7968 30.4067C50.9448 32.9134 49.4626 35.1636 48.4355 37.6004H48.7389C47.7702 38.16 48.6689 38.125 48.3188 38.7663C51.2833 37.4138 54.3528 36.2479 57.2706 34.8022C58.0759 34.3941 59.6048 33.0883 60.1417 32.9134C60.4101 32.8085 60.3284 33.1816 60.3518 33.1816C61.7284 32.8126 63.1282 32.5361 64.5418 32.3538L64.4717 32.6336C64.7518 32.6336 65.8956 32.3188 66.0007 32.3538C66.1057 32.3888 66.0007 32.7852 66.2107 32.9834C66.4208 33.1816 66.5959 32.8668 66.6309 32.9018C66.6659 32.9367 66.6309 33.543 66.8176 33.7062C67.4012 34.3242 68.5566 33.9044 67.9848 35.8748C67.7397 36.7609 65.7672 37.3205 65.4871 37.5537C64.7052 38.1833 63.6314 39.629 62.7794 40.2703C62.6977 40.2703 61.1104 40.9931 61.0404 41.0514C57.8425 43.4415 53.4541 46.3679 50.5363 48.9679C49.0541 50.3087 47.9336 52.1391 46.5564 53.5732C48.3888 54.1212 50.2445 54.5293 52.1119 54.9373C56.2319 55.8351 60.7486 56.4297 64.4834 58.3767C64.8335 58.5516 66.4325 59.0646 66.5025 59.1929C66.876 59.8341 66.094 59.4377 66.0473 59.4494C65.7322 59.5543 67.8681 61.0583 67.9264 61.2798C67.9848 61.5014 67.623 61.7928 67.5996 62.0726C67.5763 62.3525 67.5996 63.9731 67.5179 64.0547C66.4756 64.6023 65.4042 65.0927 64.3083 65.5237C56.2085 68.1586 47.6185 68.5784 39.2386 69.5228C37.5696 69.7093 32.6327 71.3532 31.2672 70.3156C30.847 69.9891 31.1038 69.5927 31.0337 69.4994C30.9637 69.4062 30.7186 69.686 30.5786 69.616C29.8678 69.3606 29.1838 69.0366 28.5361 68.6483C28.4544 68.2519 29.1547 68.2519 28.3727 67.6223L29.213 67.6806C29.0029 67.4708 28.4777 67.0977 28.9329 66.7712C29.0146 66.7129 30.7536 66.3049 30.8587 66.3049C30.9637 66.3049 31.3839 66.1533 31.3138 66.573C30.9987 66.573 29.9366 66.573 30.1467 67.1327L56.5003 61.5363L56.7804 61.6063C56.7804 61.3964 56.6404 61.3498 56.5003 61.2565C54.6913 60.1839 49.8127 59.5193 47.5485 58.8198C46.5331 58.4933 44.7357 57.6539 43.5336 57.2341C43.4636 57.2341 42.0397 57.1059 41.958 57.0709C41.8763 57.0359 41.958 56.5813 41.6779 56.4413C41.3978 56.3014 39.5304 55.8933 39.3436 55.5436C38.7251 54.1795 39.6237 54.4826 39.7054 54.3777C39.7871 54.2727 39.1802 53.2118 39.4603 52.2558C39.6704 51.4979 41.4211 50.2387 39.8455 50.7517L40.1256 51.0315C39.7871 50.8333 39.3786 51.0315 39.1452 51.0315C38.9468 50.5185 38.6667 50.8916 38.585 50.8916C36.9627 50.8217 37.9197 50.7168 37.1845 50.3903C36.811 50.2387 36.8343 50.5419 36.2041 50.0522C36.3908 50.0522 36.3908 49.9239 36.2041 49.9123H36.064C35.8423 49.9123 35.5155 50.0056 35.2354 49.8423C34.968 49.5181 34.7187 49.1795 34.4884 48.828C34.3484 48.6648 33.7648 49.0728 33.9865 48.3266C33.9865 48.1518 34.3717 48.1284 34.395 48.0002C34.4767 47.5921 34.1033 47.359 34.1149 47.324C34.1266 47.289 34.3717 47.324 34.395 47.1841C34.4184 47.0442 34.1966 46.7993 34.2433 46.7061C34.29 46.6128 34.6868 46.706 34.7802 46.5195C37.1148 43.3146 39.0582 39.8429 40.5691 36.178C41.0126 37.0057 40.7675 35.595 40.8492 35.4784C40.9309 35.3618 41.6662 35.63 41.6779 34.639L40.9893 35.2686C41.1241 34.9042 41.3636 34.5879 41.6779 34.3591C41.6779 34.604 41.6779 34.5107 41.8179 34.3591C42.9033 32.8085 43.5336 30.4767 44.619 28.8444C43.9538 28.9377 44.3856 28.7861 44.3389 28.2148C44.8875 29.6489 45.8095 25.3817 44.7591 28.3548C44.3973 27.5619 45.3076 26.5826 45.7394 26.023C45.7394 26.1162 45.7394 26.3144 45.8095 26.3028C45.8795 26.2911 45.8095 26.0696 45.8795 26.023C46.1013 25.7665 46.4397 25.5099 46.4397 25.1252C46.2645 25.3413 46.0774 25.5475 45.8795 25.7431C46.2647 24.5772 47.2801 23.6911 47.0466 22.5369C47.4901 23.7611 47.7586 21.6625 48.2954 21.371C48.2954 20.823 48.0503 21.5459 47.9453 21.5809C47.8403 21.6158 47.3968 20.7414 47.7352 22.0006C47.5485 20.9746 46.6965 23.2248 46.1363 23.6795C45.9612 23.6795 47.3034 21.406 46.4864 22.0006C46.4864 22.0006 46.4864 22.3037 46.393 22.432C45.9612 22.7934 45.0508 22.9916 45.366 23.6795C45.1676 23.2598 44.9108 23.5512 44.5723 23.8544C40.9046 27.4944 37.426 31.3197 34.1499 35.3152C32.3292 37.3788 29.4815 39.8506 27.8942 42.0891C26.9371 43.4532 27.2406 44.5841 26.7271 46.1581C25.9217 45.9132 26.0735 46.5778 25.5599 46.7294C25.0464 46.8809 25.3032 46.3679 25.0814 46.4496C25.0814 46.4496 24.6963 46.9742 24.5912 47.0092C24.4862 47.0442 24.2061 46.7177 24.1711 46.7294C24.136 46.741 24.1711 47.1258 24.101 47.1374C23.8443 47.2074 23.8443 46.6128 23.8209 46.5895C23.4941 46.2397 23.6925 46.9742 23.3307 47.0092C23.2374 47.0092 23.0156 46.4496 22.9806 46.4496C22.7588 46.3913 22.8872 46.776 22.7705 46.7294C21.8018 46.3912 21.7435 46.0881 20.9381 45.4819C20.6347 45.2603 20.0861 45.3536 19.771 44.9922C19.3984 44.2525 19.12 43.4692 18.9424 42.6604C19.1291 43.1151 19.4209 43.6164 19.6426 44.0595C19.6715 43.4497 19.6245 42.8388 19.5026 42.2406C19.5026 42.0541 19.3742 42.0541 19.3625 42.2406C19.3055 41.8541 19.3055 41.4613 19.3625 41.0747L19.0824 41.4945C19.3742 41.168 18.779 39.6523 18.5222 39.9555C18.5797 40.8472 18.7125 41.7326 18.919 42.6021ZM59.5932 0.699531H59.3247V0.839451H59.5932V0.699531ZM62.3242 0.839451V1.01433L62.3943 0.944378L62.3242 0.839451ZM63.0945 1.53898C63.1062 1.39932 63.1062 1.25892 63.0945 1.11926C62.9078 0.874417 62.9311 1.78382 63.0945 1.53898ZM48.2721 20.9513C48.3421 20.9513 48.7623 20.6248 48.6222 20.5315C48.4822 20.4383 48.027 20.8347 48.2721 20.9513ZM47.7819 20.9513V21.0912L47.8519 21.0212L47.7819 20.9513ZM16.2697 21.7907C16.2929 21.6518 16.2929 21.5099 16.2697 21.371C16.0596 21.1261 16.0596 22.0006 16.258 21.7907H16.2697ZM47.0233 21.7907C47.2684 21.4643 46.7665 21.4759 46.7548 21.7208C46.7432 21.9656 47.0116 21.8024 47.0116 21.7907H47.0233ZM55.4849 21.6508V21.7907L55.5549 21.7208L55.4849 21.6508ZM37.733 22.0705V22.2104L37.803 22.1405L37.733 22.0705ZM55.5549 22.0705H55.2748V22.2104H55.5549V22.0705ZM47.5135 23.2364V23.3763L47.5835 23.3064L47.5135 23.2364ZM46.7432 24.9037C46.7432 24.6588 47.0116 24.4373 46.9649 24.2158C46.8365 24.2508 46.4047 24.8337 46.7315 24.857L46.7432 24.9037ZM45.9145 26.4427C45.7044 26.4427 45.6111 26.5126 45.4944 26.6525C45.6111 26.6642 45.9612 26.5592 45.9028 26.396L45.9145 26.4427ZM45.4944 27.1422V26.8624H45.3543V27.1422H45.4944ZM52.1353 28.8211V28.961L52.2053 28.8911L52.1353 28.8211ZM10.5391 33.2865V33.0067H10.4107V33.2865H10.5391ZM25.7117 35.3851V35.5251L25.7817 35.4551L25.7117 35.3851ZM40.8142 36.6443V36.7842V36.7143V36.6443ZM50.8748 37.9035V38.0434L50.9448 37.9735L50.8748 37.9035ZM47.8753 38.8829C47.9453 38.9528 48.2604 38.5797 48.1437 38.4631C48.027 38.3465 47.7469 38.7313 47.8636 38.8362L47.8753 38.8829ZM18.6973 38.8829V38.6147H18.5572V38.8829H18.6973ZM18.9774 40.0488C18.8607 39.8389 18.9774 39.2443 18.6973 39.2209C18.6506 39.3375 18.6156 39.8972 18.919 39.9438L18.9774 40.0488ZM18.137 40.6084C18.137 40.3985 18.2538 40.0138 17.997 40.0488C17.9737 40.1537 17.8219 40.5501 18.0787 40.5034L18.137 40.6084ZM46.1479 46.6128V46.7527L46.218 46.6827L46.1479 46.6128ZM46.7665 46.6128C46.5681 46.6128 46.4747 46.6711 46.358 46.8226C46.4047 46.7527 46.8015 46.6711 46.7315 46.4845L46.7665 46.6128ZM46.218 47.1607C46.5097 46.7993 44.9108 47.0325 45.3776 47.5805C45.6629 47.4374 45.9328 47.2655 46.183 47.0675L46.218 47.1607ZM43.8837 48.8396C44.6424 48.3616 44.8524 47.6737 45.4127 47.7903C45.2726 46.9159 44.0705 48.28 43.8837 48.5598C43.1951 48.3733 43.732 48.7581 43.6036 48.9796C43.6036 48.9796 43.3702 48.9796 43.3235 48.9796C43.2768 48.9796 43.2418 48.9796 43.1835 48.9796C42.6887 49.3287 42.2241 49.7187 41.7946 50.1455C41.6545 50.3087 41.6779 50.7168 41.6429 50.7634C41.6078 50.81 41.2694 50.5768 41.2344 50.6235C41.1993 50.6701 41.3978 51.1132 41.3627 51.1831C41.3277 51.2531 41.0943 51.1831 41.0826 51.1831C41.071 51.1831 41.1527 50.7401 40.9426 50.9733L39.7755 53.5499C40.3123 53.2701 40.4174 52.5239 40.6975 52.0342C40.6975 52.0342 40.9543 52.1741 40.9543 52.1625C40.9543 52.1508 40.9543 51.5679 41.0943 51.1831C41.0943 51.3463 40.9659 51.7544 41.2344 51.7428C41.2344 51.1831 41.7129 51.1015 42.0163 50.7517C42.133 50.6235 41.9346 50.3087 42.0163 50.2038C42.6872 49.991 43.259 49.544 43.627 48.9446C43.6881 48.881 43.7465 48.8149 43.802 48.7464L43.8837 48.8396ZM43.4636 47.6737C43.2885 47.6737 42.88 47.6738 42.9033 47.9536C42.9967 47.872 43.3935 47.8603 43.3819 47.6504L43.4636 47.6737ZM42.6933 48.0935V48.2334L42.7633 48.1634L42.6933 48.0935ZM43.2535 48.0935V48.2334L43.3235 48.1634L43.2535 48.0935ZM50.9448 48.2334V48.3733L51.0148 48.3033L50.9448 48.2334ZM34.3133 48.5132V48.6531L34.3834 48.5831L34.3133 48.5132ZM42.133 48.6531V48.793L42.2031 48.7231L42.133 48.6531ZM42.5532 48.793V48.9329L42.6232 48.863L42.5532 48.793ZM42.2731 48.9329V49.0728L42.3431 49.0029L42.2731 48.9329ZM41.993 49.2127V49.3526L42.063 49.2827L41.993 49.2127ZM41.7129 49.4925V49.6325L41.7829 49.5625L41.7129 49.4925ZM41.4328 49.9123V49.9822L41.5028 49.9123H41.4328ZM6.41916 50.332V49.9822H6.27911V50.262L6.41916 50.332ZM40.7442 50.332V50.4719L40.8142 50.4019L40.7442 50.332ZM39.6938 50.8916V50.6118H39.5537V50.8916H39.6938ZM46.9533 53.3983V53.1302H46.8249V53.3983H46.9533ZM39.9505 53.6898V53.8181L40.0206 53.7597L39.9505 53.6898ZM1.78569 56.7561V56.896L1.85572 56.8261L1.78569 56.7561ZM57.3523 61.7812V61.513H57.2122V61.7812H57.3523ZM67.3428 63.6V63.7399L67.4129 63.6699L67.3428 63.6ZM29.8783 67.0977V67.2376L29.9483 67.1676L29.8783 67.0977ZM29.4581 68.9048V69.0447L29.5281 68.9748L29.4581 68.9048Z" fill="#00FFB1"/>
</svg>
