<svg width="323" height="152" viewBox="0 0 323 152" fill="none" xmlns="http://www.w3.org/2000/svg">
<path d="M322.185 95.8586C321.965 92.7367 321.662 91.4439 319.307 89.3397C317.931 88.0744 316.402 86.8642 314.365 87.2905C313.704 87.4281 311.941 88.6658 311.514 88.432C311.446 88.432 310.964 87.4006 310.799 87.1943C310.55 86.9926 310.288 86.8087 310.014 86.6441C309.89 86.4929 309.917 86.039 309.711 85.7777C309.504 85.5164 309.119 85.6402 309.05 85.5439C308.409 84.5558 307.825 83.5318 307.301 82.477C307.301 81.4181 313.098 76.7971 314.186 75.7244C315.989 73.9777 320.794 69.5631 320.533 67.0738C320.368 65.5472 315.769 60.5274 314.654 59.0834C314.42 58.7808 314.447 58.2719 314.378 58.2032C314.31 58.1344 314.007 58.382 313.979 58.3407C313.594 57.8044 313.607 56.209 312.396 56.0027C312.23 54.93 308.554 50.9417 308.499 50.5016C308.306 49.0438 310.978 47.3659 311.9 46.3757C312.822 45.3855 315.067 43.3913 314.654 42.0298C314.31 40.902 310.592 36.9412 309.669 35.9098C309.036 35.2084 306.847 32.2515 305.938 32.114C304.231 31.8527 302.537 33.8606 301.353 34.7408C300.385 35.2818 299.464 35.9028 298.6 36.5974C298.214 37.1613 298.916 37.1338 298.462 37.4088C297.948 37.5273 297.417 37.5598 296.892 37.5051C296.672 37.3538 296.699 36.6524 296.493 36.3911C295.116 34.5757 292.362 32.0314 291.137 30.1885C290.063 28.5795 291.578 27.9606 291.522 26.7228C291.104 25.7717 290.562 24.8793 289.912 24.0685C288.851 22.6932 284.473 17.6734 283.027 17.0958C280.824 16.2294 281.347 17.1783 280.563 17.9072C277.809 20.479 275.372 22.4319 272.398 24.7837C272.178 24.9625 272.095 25.2788 272.04 25.32C271.985 25.3613 271.682 25.1137 271.503 25.2513C271.324 25.3888 271.42 25.8014 271.352 25.8564C269.975 26.9841 268.185 28.4969 266.643 29.5834C265.499 30.3459 264.308 31.0349 263.077 31.6464C261.631 31.3575 263.201 28.7995 263.256 28.3869C263.256 28.2081 262.966 28.0156 263.008 27.7405C263.287 27.008 263.418 26.2273 263.393 25.4438C263.118 24.0685 256.647 16.3669 255.132 15.4317C252.736 13.8914 249.625 18.3061 247.669 19.7226C246.568 20.5478 245.012 21.1942 243.966 21.9093C241.956 23.2846 240.083 26.5853 237.784 23.9723C236.297 22.2669 235.305 19.9426 233.557 18.196C233.364 18.0035 232.91 18.196 232.813 18.0448C232.07 17.3571 231.436 16.0231 230.156 15.583C229.55 15.3629 228.586 15.583 228.049 15.2117C227.512 14.8403 227.443 13.9876 227.085 13.5751C226.08 12.3786 223.643 9.72424 222.101 9.44919C220.559 9.17413 221.234 10.1368 220.821 10.4394C220.408 10.742 218.838 11.3333 218.315 11.6909C216.332 13.0662 214.528 15.1566 212.904 16.4357C211.293 17.6794 209.62 18.8407 207.892 19.9151C207.658 20.0802 207.617 20.5478 207.534 20.589L206.157 20.9879C205.18 20.9879 204.78 18.8562 204.202 18.0173C202.825 16.0506 198.887 10.2744 197.001 9.32542C196.625 9.07928 196.184 8.9482 195.734 8.9482C195.284 8.9482 194.844 9.07928 194.468 9.32542C192.471 10.3431 189.662 12.9837 187.79 14.2215C184.967 16.0781 181.374 18.4436 178.441 19.9977C178.29 20.0802 178.372 20.4103 178.358 20.424C177.897 20.4061 177.437 20.3602 176.982 20.2865C176.982 20.2865 177.05 19.6401 176.885 19.3513C175.517 16.9274 173.995 14.5938 172.328 12.3648C171.217 10.9422 169.972 9.62959 168.61 8.44524C167.812 8.03265 166.393 8.80281 165.65 9.29791C164.19 10.2606 164.975 10.2469 164.507 10.8657C163.513 11.6722 162.416 12.3428 161.244 12.8599C160.735 12.8599 160.831 12.3511 160.597 12.3373C160.363 12.3235 160.597 12.9149 160.459 12.8874C159.606 12.7086 160.459 11.5121 160.335 10.9758C159.703 9.68858 158.937 8.4716 158.05 7.345C157.802 6.93242 157.719 5.96973 157.527 5.72217C156.005 3.81747 154.319 2.05028 152.487 0.441071C152.15 0.143494 151.712 -0.0139771 151.262 0.000961304C150.121 0.467773 149.016 1.01942 147.957 1.65131C147.875 1.73383 148.04 2.02264 148.026 2.05016C147.168 3.1115 146.249 4.12177 145.272 5.07579C139.476 9.29793 133.652 12.6399 127.745 16.6145C126.986 17.1978 126.298 17.867 125.694 18.6086C125.294 18.9524 124.317 18.9112 123.959 19.1312C123.601 19.3513 122.843 20.3552 122.348 20.6716C121.519 21.1096 120.634 21.4335 119.718 21.6342C119.388 21.5242 118.644 19.255 118.341 18.7874C116.964 16.4357 114.004 11.4021 111.636 10.1368C108.799 8.62402 107.423 11.8835 106.211 11.3058C104.999 10.7282 102.769 5.80469 101.543 4.4294C101.02 3.83803 99.8636 3.13663 99.1614 2.43523C98.6657 1.94012 98.6933 1.05994 97.6469 0.949921C96.6816 1.151 95.7529 1.49887 94.8932 1.98138C92.0582 3.53651 89.4228 5.42995 87.0451 7.62007C87.0451 7.62007 85.6682 7.93639 85.4066 8.40398C85.145 8.87158 85.5856 8.98161 85.503 9.1604C84.9935 10.2194 84.429 9.95807 84.1261 10.3019C84.0435 10.3844 84.0573 10.9345 83.7819 11.1683C81.2485 13.3688 77.9027 15.0191 75.328 16.9033C74.9562 17.1783 74.7497 17.8385 74.2127 18.2786C73.6066 18.588 72.9635 18.8191 72.2989 18.9662C71.4315 19.5438 70.3851 20.8091 69.5452 21.3592C68.2922 22.2256 66.7915 22.6107 65.9378 23.8897C64.9465 24.0823 61.8072 26.8741 61.2014 26.8328C60.6373 26.5485 60.0903 26.2317 59.563 25.8839C59.4666 25.7601 58.9296 23.8622 58.7093 23.4634C58.0575 22.5386 57.4643 21.5741 56.9332 20.5753C56.8092 19.8739 57.1397 18.7186 57.002 17.9072C57.002 17.7009 56.0933 15.1567 55.9969 15.0741C55.7491 14.7303 55.2947 14.8266 55.1846 14.6478C53.5323 11.6084 50.7648 3.90678 46.111 5.99722C44.7342 6.6161 42.9718 8.18393 41.7739 8.87157C40.9616 9.32542 39.0202 9.4767 39.268 10.6732C41.3333 9.11913 40.0115 10.9208 39.1166 11.6221C38.8137 11.8697 38.0839 11.966 37.7397 12.186C37.6709 12.186 37.8499 12.5573 37.7397 12.5849C37.1849 12.8401 36.6147 13.0606 36.0324 13.245C35.1324 12.1613 34.335 10.9964 33.6505 9.76552C33.5678 9.62799 33.8157 9.25665 33.7744 9.17413C33.7331 9.09161 31.9569 7.5788 31.5714 7.19373C30.8829 6.49232 30.8554 5.55713 29.7127 5.47461C28.5699 5.39209 22.3189 8.91283 20.9696 9.75175C19.6203 10.5907 15.3244 13.6576 19.7855 11.5121C19.1345 11.8815 18.6256 12.4575 18.3398 13.1487L5.94804 20.2727C6.42994 21.4555 5.75527 20.9191 5.46613 21.648C4.50233 24.3986 6.27847 26.0489 6.09948 26.6403C5.82411 27.5617 0.0963802 30.6699 0 31.6326C0 32.2377 0.647134 32.5403 0.78482 32.9116C1.6041 35.2022 2.80002 37.3403 4.32336 39.238C4.43351 39.403 4.8741 39.4167 5.01179 39.6505C5.14948 39.8843 4.86034 40.2282 4.92918 40.3382C4.99802 40.4482 5.28713 40.1732 5.32844 40.2144C5.88798 40.9002 6.35121 41.659 6.7053 42.4699C6.7053 42.855 4.07551 45.0004 3.57984 45.413C2.29936 46.4445 0.605827 46.5407 0.826124 48.7687C1.845 50.5703 2.51966 52.5508 3.57984 54.3524C3.78637 54.6962 4.73641 55.4939 4.9567 55.9202C5.79659 57.9144 4.37842 58.2169 4.35088 58.8771C4.91058 60.5776 5.56796 62.2445 6.31978 63.8694L11.2627 69.8931C13.2265 69.8844 15.1606 69.4133 16.9078 68.5178C18.6289 67.1426 15.531 68.2703 15.352 68.064C13.9063 66.8125 19.221 64.8046 19.813 65.0384C19.813 65.0384 19.813 65.3684 19.813 65.4097C19.813 65.451 20.2811 65.5335 20.3362 65.671C20.3913 65.8085 19.5239 66.5237 19.5101 66.6475C19.2898 67.7339 20.887 66.8262 21.1486 67.1013C21.1444 67.3667 21.1815 67.6312 21.2587 67.8852C21.8232 68.8479 22.5117 69.8381 22.9936 70.6358C23.4755 71.4335 24.99 72.8638 24.3704 74.0328C23.0626 75.0459 21.6447 75.9086 20.1435 76.6045C17.0042 79.2451 12.8874 80.7304 9.33511 82.6283C8.79813 82.9034 4.90162 85.1176 4.7777 85.3789C4.11681 86.6441 4.88785 87.1255 5.16322 88.0332C5.61211 89.537 6.35116 90.9386 7.33869 92.1591C7.6324 92.4636 7.95005 92.7442 8.28868 92.998C8.38506 93.2043 8.12346 93.5894 8.28868 94.0295C8.36731 94.178 8.48692 94.301 8.63331 94.3839C8.77971 94.4668 8.94678 94.506 9.1148 94.497C9.1885 94.8829 9.23452 95.2736 9.2525 95.666C8.99089 97.6327 3.97914 97.5089 4.18566 99.7919C4.30958 101.167 5.87918 103.794 6.5263 105.128C6.7025 105.684 6.79531 106.264 6.80169 106.847C6.80169 106.847 7.37998 106.943 7.54521 107.122C7.71043 107.301 9.08729 108.594 9.14237 108.69C9.36267 109.061 9.14234 109.474 9.23872 109.639C9.3351 109.804 9.78947 109.639 9.89962 109.845C10.0098 110.052 10.0511 110.45 10.1199 110.519C10.1888 110.588 10.4366 110.519 10.4779 110.519C10.5192 110.519 10.4779 111.124 10.4779 111.193C10.9931 111.36 11.5171 111.497 12.0475 111.606C12.1852 111.606 14.2643 110.684 14.5534 110.533C14.8426 110.382 14.9527 110.024 15.2556 109.859C15.5585 109.694 18.9594 108.484 18.4362 107.906C18.2434 107.714 17.8166 108.332 17.61 108.112C19.3599 106.889 21.3132 105.986 23.3791 105.444C22.6769 106.641 23.503 105.774 23.9023 106.201C23.9987 106.297 24.7009 108.099 24.9074 108.497C25.1139 108.896 25.4168 108.828 25.4306 108.869C25.4444 108.91 25.0864 109.144 25.169 109.446C25.2516 109.749 25.6922 109.845 25.8849 110.134C26.0777 110.423 25.8023 110.725 25.8849 110.78C25.9676 110.835 26.3531 110.698 26.5734 110.973C27.0828 111.619 27.5923 112.156 28.0879 112.761C28.2394 112.926 27.9778 113.215 28.2118 113.449C28.4459 113.682 29.0104 113.669 29.1481 113.82C29.575 114.342 29.0242 115.553 30.9793 115.484C33.7331 115.401 43.3711 109.859 46.7994 108.608C47.5567 108.332 48.9061 107.659 49.622 107.851C50.9989 108.236 49.622 109.226 49.8974 110.038C49.9938 110.272 50.3655 110.189 50.4344 110.368C50.9287 112.036 51.5931 113.649 52.4171 115.181C52.6236 115.484 53.3533 115.842 53.5048 116.02C53.6562 116.199 53.9729 116.873 54.1932 117.121C54.4135 117.368 54.799 117.217 54.8266 117.244C54.8541 117.272 54.565 117.657 54.8266 118.001C55.0882 118.345 56.0106 118.413 56.0657 118.675C56.0657 118.675 55.3911 118.991 55.6527 119.294C55.6527 119.294 56.0519 119.294 56.1896 119.376C56.3273 119.459 57.181 120.215 57.2636 120.229C57.952 120.394 68.2785 115.016 70.0271 114.411C73.9511 113.036 72.4228 114.301 73.125 116.722C73.3729 117.616 74.1852 118.235 74.5019 118.73C74.8186 119.225 74.6671 119.967 74.8598 120.394C75.0526 120.82 75.9338 121.136 76.2367 121.48C76.5396 121.824 76.994 122.704 77.407 123.186C77.5172 123.323 77.944 123.309 78.1506 123.529C78.3571 123.749 78.0129 123.942 78.1506 124.162C79.5274 125.537 80.7528 126.569 82.0471 128.027C82.1985 128.192 82.7768 128.26 82.9007 128.467C83.0246 128.673 82.7079 128.866 82.9007 129.237C83.0935 129.608 84.2776 129.773 84.7733 130.117C88.3118 128.412 92.167 125.991 95.7881 124.52C96.3823 124.222 96.9938 123.96 97.6193 123.736C99.5332 123.364 98.6795 124.19 99.6433 125.441C99.8912 125.757 100.91 126.72 101.337 127.16C101.516 127.353 101.97 127.339 101.998 127.394C102.025 127.449 101.888 128.068 102.149 128.274C102.411 128.48 102.81 128.274 102.962 128.343C103.113 128.412 102.962 129.031 103.044 129.278C103.457 130.131 103.884 129.801 103.939 129.842C103.994 129.883 103.457 130.543 104.655 130.351C105.853 130.158 111.952 126.087 113.632 125.207C114.307 124.85 117.322 123.131 117.859 123.254C118.396 123.378 118.451 125.744 118.63 126.197C119.079 126.855 119.561 127.488 120.076 128.095C120.282 128.439 120.379 129.471 120.668 129.869C120.792 130.048 123.215 132.469 123.614 132.868C123.78 133.033 124.22 132.964 124.234 132.991C124.248 133.019 123.725 133.294 124.799 134.16C124.909 134.243 125.157 134.078 125.184 134.16C125.212 134.243 125.184 134.587 125.418 134.697C126.175 134.986 133.817 130.42 134.836 129.594C136.35 129.361 140.894 126.184 142.078 127.229C142.298 127.435 142.257 127.779 142.381 127.958C142.505 128.137 142.849 128.082 142.959 128.26C142.972 128.758 143.141 129.239 143.441 129.636C143.785 130.09 145.314 131.671 145.837 132.221C146.197 132.49 146.585 132.721 146.994 132.909C146.994 132.909 146.732 133.28 146.994 133.652C147.255 134.023 147.861 134.009 148.081 134.202C148.302 134.394 148.646 135.247 148.852 135.219C149.348 135.219 148.852 134.628 149.059 134.463C149.527 134.009 151.978 132.579 152.721 132.097C154.098 131.231 164.163 125.221 164.879 125.221C165.32 125.221 166.6 126.596 166.848 127.036C167.096 127.476 167.206 128.494 167.564 128.989C167.674 129.127 169.725 131.011 170.07 131.341C170.414 131.671 170.813 131.451 170.951 131.644C171.089 131.836 170.841 132.18 170.951 132.249C172.975 135.151 174.352 131.809 175.866 132.538C175.99 132.538 177.656 134.174 177.739 134.284C177.821 134.394 178.124 135.659 178.345 135.948C179.795 137.597 181.374 139.128 183.067 140.528C183.26 140.679 183.659 140.665 183.673 140.693C183.687 140.721 183.301 141.009 183.398 141.229C184.123 141.353 184.837 141.537 185.532 141.779C185.752 141.945 186.055 142.825 186.33 143.155C186.775 143.423 187.235 143.666 187.707 143.884C187.79 143.966 187.556 144.406 187.57 144.42C187.583 144.434 188.079 144.42 188.217 144.599C188.988 145.355 189.029 145.63 190.461 145.314C192.127 144.956 196.519 142.11 198.433 141.188C199.787 140.51 201.202 139.962 202.66 139.552C203.335 139.689 204.037 142.055 204.422 142.728C205.371 144.084 206.421 145.367 207.562 146.565C208.622 147.721 209.668 148.876 210.687 150.059C211.059 149.976 211.458 150.32 211.733 150.32C213.95 150.32 220.697 145.617 223.34 144.819C225.681 144.104 224.882 145.121 226.094 146.387C226.893 147.184 227.678 147.322 228.435 148.45C228.683 148.821 228.435 149.22 228.435 149.261C228.435 149.302 229.564 149.261 229.66 149.399C229.757 149.536 229.495 149.742 229.66 149.88C230.229 150.312 230.822 150.711 231.436 151.076C231.436 151.076 231.643 151.888 232.207 151.874C234.403 151.042 236.533 150.049 238.582 148.903C238.968 148.518 238.692 148.422 238.321 148.367C239.505 147.913 238.582 147.679 238.954 147.363C239.326 147.047 247.215 142.467 247.504 142.825C247.504 142.825 247.504 143.334 247.504 143.375C247.504 143.416 248.358 142.99 248.468 143.1C248.578 143.21 248.027 143.609 248.193 143.774C248.358 143.939 249.57 144.31 249.941 144.778C250.313 145.245 250.272 146.153 250.533 146.565C250.795 146.978 251.731 147.239 252.172 147.666C252.365 147.858 252.254 148.271 252.392 148.422C253.191 149.302 254.815 149.949 255.738 150.829C256.302 151.365 255.146 151.723 257.431 151.572C261.039 151.324 267.4 147.693 270.663 145.892C276.886 142.44 282.779 138.369 288.92 134.807C289.43 134.49 288.92 134.202 289.264 133.775C290.704 132.852 292.204 132.025 293.753 131.3C296.507 129.416 298.82 128.095 301.56 126.431C303.557 125.191 305.381 123.693 306.985 121.975C307.191 121.631 306.985 121.466 306.985 121.37C306.985 121.274 307.37 121.37 307.398 120.875C307.398 119.995 304.644 117.093 304.809 116.35C304.809 116.24 305.979 115.429 305.732 115.195C305.484 114.961 303.212 116.749 304.85 114.783C306.489 112.816 311.983 109.061 314.282 107.081C316.967 104.757 319.597 102.295 322.185 99.8469C322.116 98.5129 322.282 97.1651 322.185 95.8586ZM87.0038 8.08768V7.95013L87.0726 8.01891L87.0038 8.08768Z" fill="#00FFB1"/>
</svg>
