<svg width="311" height="300" viewBox="0 0 311 300" fill="none" xmlns="http://www.w3.org/2000/svg">
<path opacity="0.15" d="M126.654 148.496C126.654 144.116 122.974 140.566 118.433 140.566C117.73 140.566 117.05 140.65 116.401 140.81C116.453 140.4 116.48 139.984 116.48 139.56C116.48 133.886 111.711 129.286 105.829 129.286C104.73 129.286 103.671 129.446 102.674 129.746C102.68 129.594 102.684 129.44 102.684 129.286C102.684 123.058 97.4487 118.008 90.9924 118.008C89.2819 118.008 87.6585 118.362 86.1947 118.998C85.384 110.836 78.2559 104.454 69.5831 104.454C60.3651 104.454 52.8928 111.662 52.8928 120.552C52.8928 121.326 52.9509 122.088 53.0607 122.834C52.9716 122.832 52.8825 122.83 52.7933 122.83C48.3522 122.83 44.7322 126.228 44.5787 130.476C42.4867 128.574 39.667 127.41 36.5653 127.41C30.109 127.41 24.8738 132.46 24.8738 138.688C24.8738 140.37 25.2553 141.966 25.9395 143.398C25.0915 143.114 24.1813 142.958 23.2317 142.958C18.6911 142.958 15.0109 146.508 15.0109 150.888C15.0109 153.86 16.7069 156.45 19.2157 157.808C18.8943 158.528 18.716 159.322 18.716 160.156C18.716 163.438 21.4735 166.096 24.8738 166.096C26.3645 166.096 27.7288 165.586 28.7945 164.736C29.9078 167.842 32.966 170.074 36.5653 170.074C38.2572 170.074 39.8308 169.58 41.137 168.734C41.3174 173.878 45.6963 177.994 51.0724 177.994C54.8936 177.994 58.2088 175.914 59.8737 172.866C59.9256 172.906 59.9774 172.946 60.0292 172.984L62.142 176.632C63.9955 179.832 64.8767 183.766 64.6258 187.718L62.4799 221.442C62.0715 227.854 59.8468 233.868 56.2122 238.376L55.6234 239.106H90.8224L90.2335 238.376C86.599 233.868 84.3743 227.856 83.9659 221.442L81.82 187.718C81.5712 183.822 82.4274 179.946 84.2271 176.772C86.7752 176.338 88.9688 174.91 90.3621 172.92C90.8804 173.018 91.4133 173.07 91.9627 173.07C93.7209 173.07 95.3505 172.536 96.6878 171.63C98.0687 174.478 101.069 176.452 104.544 176.452C109.331 176.452 113.212 172.708 113.212 168.088C113.212 167.726 113.187 167.368 113.142 167.018C113.762 167.17 114.409 167.25 115.076 167.25C119.385 167.25 122.878 163.88 122.878 159.724C122.878 158.27 122.451 156.912 121.711 155.76C124.618 154.538 126.65 151.742 126.65 148.488L126.654 148.496ZM68.3474 174.038C70.8748 172.988 72.7471 170.752 73.2094 168.056C73.2716 170.996 74.7893 173.592 77.0948 175.202L73.226 179.674L68.3495 174.038H68.3474Z" fill="#009B68"/>
<g opacity="0.2">
<path d="M198.428 240.314H182.578V159L190.502 148.902L198.428 159V240.314Z" fill="#009B68"/>
<path d="M228.386 240.314H212.535V159L220.46 148.902L228.386 159V240.314Z" fill="#009B68"/>
<path d="M258.344 240.314H242.493V159L250.419 148.902L258.344 159V240.314Z" fill="#009B68"/>
<path d="M288.301 240.314H272.451V159L280.377 148.902L288.301 159V240.314Z" fill="#009B68"/>
<path d="M295.201 169.424H178.22V174.144H295.201V169.424Z" fill="#009B68"/>
<path d="M295.201 212.444H178.22V217.164H295.201V212.444Z" fill="#009B68"/>
</g>
<path d="M150.427 147.53C149.722 148.362 149.06 149.14 148.484 149.82C147.026 151.538 145.31 153.03 143.39 154.254L111.863 174.318V174.322L100.38 188.396L100.461 188.166L100.138 188.574L94.9462 192.332C94.6829 192.518 94.374 192.608 94.0692 192.608C93.6981 192.608 93.3311 192.478 93.0471 192.216C92.4126 191.636 92.4313 190.656 93.0844 190.098L94.2309 189.12C94.0298 189.178 93.8308 189.226 93.6276 189.27L89.9267 190.07C89.4789 190.166 89.0124 190.012 88.7179 189.668C88.5002 189.412 88.4256 189.102 88.4546 188.804L85.9728 189.494C85.4898 189.63 84.9673 189.478 84.6418 189.104C84.0944 188.48 84.3142 187.528 85.0834 187.184L87.4677 186.122L91.9482 181.57L87.9197 184.406C86.91 185.118 85.7759 185.65 84.5754 185.982L81.8531 186.736C81.3058 186.888 80.719 186.7 80.3769 186.262C79.8938 185.65 80.0514 184.772 80.7211 184.348L85.6059 181.266L95.0043 172.862L88.4297 173.8C87.5424 173.926 86.7192 173.328 86.599 172.472C86.4995 171.758 86.9204 171.072 87.617 170.816L97.032 167.324L104.786 166.49C105.848 166.376 106.833 165.902 107.567 165.154L127.931 144.408L135.132 136.998L150.435 147.524L150.427 147.53Z" fill="#AD6359"/>
<g opacity="0.3">
<path d="M102.504 174.136C101.612 174.468 100.704 174.594 99.8414 174.594C97.144 174.594 94.8695 173.358 94.7451 173.288C94.5046 173.154 94.4217 172.86 94.5606 172.628C94.6995 172.398 95.0064 172.318 95.2448 172.45C95.2945 172.476 98.9146 174.434 102.145 173.236C102.404 173.14 102.694 173.262 102.794 173.514C102.891 173.764 102.763 174.042 102.506 174.138L102.504 174.136Z" fill="#183339"/>
</g>
<g opacity="0.3">
<path d="M101.131 180.2C101.098 180.282 101.069 180.366 101.04 180.452C100.774 181.238 100.673 182.05 100.646 182.72C100.596 183.9 100.09 185.004 99.2152 185.828L96.0057 188.856C95.956 188.906 95.8938 188.944 95.8274 188.964C95.6491 189.026 95.4397 188.988 95.2987 188.848C95.1038 188.656 95.108 188.35 95.307 188.164L98.5165 185.136C99.2069 184.486 99.6071 183.612 99.6465 182.682C99.6734 182 99.7709 181.18 100.018 180.366C96.9429 178.358 95.2987 176.01 95.2261 175.908C95.0727 175.686 95.1349 175.386 95.3671 175.238C95.5952 175.088 95.9083 175.148 96.0617 175.372C96.0783 175.394 97.598 177.56 100.378 179.428C100.548 179.544 100.723 179.658 100.903 179.77C101.058 179.866 101.141 180.034 101.131 180.202V180.2Z" fill="#183339"/>
<path d="M101.131 180.2C101.129 180.282 101.1 180.362 101.054 180.438C101.052 180.442 101.046 180.448 101.042 180.452C101.069 180.368 101.1 180.282 101.133 180.2H101.131Z" fill="#183339"/>
</g>
<g opacity="0.3">
<path d="M102.035 178.714C101.629 179.146 101.338 179.662 101.129 180.198C101.139 180.028 101.056 179.862 100.901 179.766C100.72 179.654 100.546 179.542 100.376 179.424C100.604 178.938 100.903 178.474 101.289 178.064C101.473 177.866 101.79 177.848 101.996 178.028C102.201 178.208 102.219 178.514 102.033 178.712L102.035 178.714Z" fill="#183339"/>
</g>
<path opacity="0.3" d="M97.316 181.46L94.7119 184.744C94.6767 184.826 94.6186 184.902 94.544 184.956L90.1071 188.294C89.7795 188.54 89.2964 188.316 89.2964 187.912C89.2964 187.764 89.369 187.624 89.4892 187.532L93.8245 184.272L96.58 180.906C96.75 180.7 97.0693 180.676 97.2704 180.86C97.4425 181.018 97.4632 181.276 97.3181 181.46H97.316Z" fill="#183339"/>
<path d="M221.43 148.75V149.734H165.686L161.434 144.416L157.631 139.118L150.986 147.868L150.404 147.468L135.1 136.942L128.752 132.574L138.729 112.332C140.862 108 144.146 104.346 148.179 101.706C149.724 100.69 151.38 99.826 153.124 99.13C154.045 98.756 154.992 98.436 155.96 98.16L159.696 97.106L174.121 94.248H191.758C194.435 94.248 197.066 94.736 199.521 95.662C201.97 96.588 204.24 97.9541 206.208 99.7081C209.374 102.536 211.571 106.224 212.513 110.286L220.41 144.336L221.432 148.75H221.43Z" fill="#F4F0E6"/>
<path d="M143.487 78.614L143.479 78.304C142.604 76.102 142.293 73.94 142.204 72.344C142.125 71.544 142.131 70.856 142.193 70.268C142.212 69.94 142.231 69.76 142.231 69.76H142.264C142.577 67.966 143.396 67.284 143.396 67.284C143.396 67.284 143.607 67.542 143.983 67.906C144.37 68.282 144.936 68.772 145.625 69.202C145.627 69.202 145.631 69.202 145.631 69.206C145.944 69.378 146.305 69.55 146.722 69.716C147.333 69.964 148.065 70.196 148.925 70.38H148.928C151.824 71.006 156.219 71.12 162.694 69.566C163.746 71.474 165.979 72.434 167.038 72.798C167.559 71.798 169.111 69.37 171.558 70.098C176.169 71.462 177.034 79.46 169.655 80.924C169.57 80.942 169.478 80.958 169.389 80.972L170.065 82.648L173.038 90.02L173.049 90.038L173.107 89.062L177.262 78.838C177.931 77.188 178.346 75.462 178.497 73.716C178.647 71.968 178.535 70.2 178.157 68.468C176.756 62.04 171.879 56.81 165.371 54.874C157.965 52.668 148.652 52.254 143.782 61.288C142.438 61.094 140.734 61.058 138.876 61.53C136.054 62.246 135.32 64.952 135.148 66.744C135.1 67.246 135.729 67.514 136.087 67.148C137.224 65.998 138.758 65.252 140.269 64.77C138.063 66.248 135.293 68.834 135.781 72.296C136.575 77.93 143.489 78.616 143.489 78.616L143.487 78.614Z" fill="#173339"/>
<path d="M157.405 99.3318C170.984 106.388 177.386 94.6358 177.386 94.6358L175.686 94.3098C175.07 94.1918 174.558 93.7798 174.33 93.2138L173.049 90.0338L173.038 90.0158L170.065 82.6438L169.389 80.9678L156.512 83.5798L158.255 93.0338L158.933 96.7018C158.96 96.8558 158.969 97.0118 158.954 97.1678C158.919 97.5558 158.753 97.9238 158.473 98.2158L157.403 99.3318H157.405Z" fill="#AD6359"/>
<g opacity="0.2">
<path d="M158.954 97.1678C167.051 94.5418 169.304 87.1218 169.922 83.5858C169.986 83.2298 170.034 82.9098 170.067 82.6438L169.391 80.9678C169.304 81.2898 169.213 81.6058 169.114 81.9118C167.61 86.6758 164.901 89.5778 162.35 91.3358C161.654 91.8158 160.909 92.2038 160.136 92.4978C160.026 92.5398 159.914 92.5838 159.804 92.6198C159.51 92.7218 159.207 92.8118 158.904 92.8878C158.691 92.9458 158.473 92.9918 158.255 93.0338L158.933 96.7018C158.96 96.8558 158.969 97.0118 158.954 97.1678Z" fill="#183339"/>
</g>
<path d="M143.945 79.8677C144.037 81.6197 144.721 87.3237 149.691 91.0797C151.343 92.3277 153.304 93.0357 155.305 93.1977C156.278 93.2757 157.262 93.2257 158.224 93.0417L158.255 93.0357C158.471 92.9937 158.691 92.9477 158.904 92.8897C159.209 92.8137 159.51 92.7237 159.804 92.6217C159.914 92.5857 160.028 92.5417 160.136 92.4997C160.897 92.2057 161.629 91.8197 162.319 91.3437C164.878 89.5817 167.596 86.6657 169.097 81.8797C169.19 81.5857 169.275 81.2857 169.36 80.9757L169.391 80.9697C169.481 80.9537 169.572 80.9397 169.657 80.9217C177.036 79.4577 176.171 71.4597 171.56 70.0957C169.114 69.3697 167.561 71.7977 167.04 72.7957C165.981 72.4317 163.748 71.4737 162.697 69.5637C156.222 71.1177 151.828 71.0037 148.93 70.3777H148.928C148.065 70.1957 147.335 69.9617 146.724 69.7137H146.601C146.257 69.5677 145.934 69.3897 145.633 69.2037C145.633 69.2017 145.629 69.1997 145.627 69.1997C144.938 68.7697 144.372 68.2797 143.985 67.9037C143.607 67.5397 143.398 67.2817 143.398 67.2817C143.398 67.2817 142.579 67.9637 142.266 69.7557C142.239 69.9157 142.214 70.0877 142.195 70.2657C142.171 70.7137 142.154 71.4397 142.206 72.3417C142.295 73.9377 142.606 76.0997 143.481 78.3017C143.549 78.4817 143.624 78.6617 143.705 78.8437C143.846 79.1677 143.929 79.5177 143.945 79.8677Z" fill="#AD6359"/>
<path d="M157.451 78.7895C158.046 78.7895 158.529 78.3239 158.529 77.7495C158.529 77.1751 158.046 76.7095 157.451 76.7095C156.856 76.7095 156.373 77.1751 156.373 77.7495C156.373 78.3239 156.856 78.7895 157.451 78.7895Z" fill="#173339"/>
<path d="M147.532 80.7675C148.128 80.7675 148.61 80.3019 148.61 79.7275C148.61 79.1531 148.128 78.6875 147.532 78.6875C146.937 78.6875 146.454 79.1531 146.454 79.7275C146.454 80.3019 146.937 80.7675 147.532 80.7675Z" fill="#173339"/>
<g opacity="0.25">
<path d="M152.212 85.4674C152.322 85.4454 152.421 85.3834 152.487 85.2854C152.618 85.0914 152.562 84.8314 152.361 84.7034L151.948 84.4434C151.096 83.9074 150.692 82.9074 150.941 81.9574L151.698 79.0714C151.756 78.8454 151.615 78.6174 151.382 78.5614C151.148 78.5054 150.912 78.6414 150.854 78.8654L150.097 81.7514C149.757 83.0514 150.31 84.4154 151.474 85.1474L151.886 85.4074C151.988 85.4714 152.104 85.4894 152.214 85.4674H152.212Z" fill="#173339"/>
</g>
<g opacity="0.25">
<path d="M156.966 88.1637C158.407 87.8717 159.601 86.7777 159.904 85.2977C159.949 85.0697 159.796 84.8497 159.562 84.8037C159.325 84.7597 159.097 84.9057 159.05 85.1337C158.898 85.8697 158.461 86.5057 157.814 86.9237C157.167 87.3417 156.392 87.4917 155.629 87.3457C155.392 87.3017 155.164 87.4497 155.116 87.6757C155.071 87.9037 155.224 88.1237 155.459 88.1697C155.973 88.2677 156.483 88.2597 156.966 88.1617V88.1637Z" fill="#173339"/>
</g>
<path d="M158.577 75.3438C158.685 75.3218 158.782 75.2618 158.848 75.1678C158.983 74.9758 158.931 74.7138 158.73 74.5838C157.571 73.8298 155.991 74.1258 155.21 75.2438C155.075 75.4358 155.127 75.6978 155.328 75.8278C155.527 75.9578 155.799 75.9078 155.933 75.7138C156.448 74.9798 157.484 74.7858 158.243 75.2818C158.345 75.3478 158.465 75.3678 158.577 75.3438Z" fill="#173339"/>
<path d="M148.538 77.3796C148.646 77.3576 148.743 77.2976 148.809 77.2036C148.944 77.0116 148.892 76.7496 148.691 76.6196C148.129 76.2536 147.453 76.1216 146.79 76.2456C146.118 76.3756 145.55 76.7376 145.171 77.2776C145.036 77.4696 145.088 77.7316 145.289 77.8616C145.488 77.9916 145.76 77.9396 145.894 77.7476C146.408 77.0136 147.445 76.8196 148.204 77.3156C148.306 77.3816 148.426 77.4016 148.538 77.3776V77.3796Z" fill="#173339"/>
<g opacity="0.25">
<path d="M168.545 77.2436C168.603 77.2516 168.659 77.2516 168.713 77.2416C168.881 77.2076 169.018 77.0756 169.051 76.9036C169.263 75.7816 169.733 74.9696 170.266 74.3896C170.818 74.6436 171.378 75.0236 171.436 75.5036C171.504 76.1196 170.737 76.7916 170.463 76.9776C170.266 77.1116 170.221 77.3756 170.36 77.5656C170.463 77.7056 170.642 77.7656 170.805 77.7336C170.861 77.7216 170.917 77.6996 170.969 77.6656C171.027 77.6216 172.441 76.6416 172.3 75.4136C172.23 74.7776 171.772 74.2296 170.938 73.7836C171.784 73.1536 172.593 72.9836 172.659 72.9736H172.661C172.893 72.9256 173.045 72.7036 172.999 72.4776C172.949 72.2496 172.721 72.1036 172.489 72.1496C172.344 72.1796 168.925 72.8776 168.193 76.7556C168.151 76.9856 168.309 77.2016 168.543 77.2456L168.545 77.2436Z" fill="#173339"/>
</g>
<path d="M220.787 187.82L203.912 208.516L211.816 207.878L213.385 233.504L183.43 240.092C175.172 241.91 166.64 238.386 162.298 231.366C160.47 228.406 159.543 225.066 159.543 221.712C159.543 219.184 160.07 216.65 161.133 214.264L172.872 187.944L147.149 182.068V207.496H117.687L113.063 168.488C112.619 164.758 113.93 161.03 116.685 158.19C119.592 155.196 123.813 153.482 128.246 153.482C128.387 153.482 128.526 153.484 128.665 153.486L169.132 154.464L168.668 153.862L167.797 152.73L166.408 150.924L165.512 149.758L161.453 144.484L158.637 140.822C158.637 140.822 154.412 134.312 151.254 125.182C151.148 124.872 151.042 124.56 150.941 124.246C148.724 117.556 147.155 109.582 148.198 101.77C149.742 100.754 151.399 99.894 153.143 99.194C152.971 103.804 153.503 112.952 158.869 123.444C159.634 124.942 160.499 126.464 161.471 128.006L172.734 126.964L180.616 126.236C180.616 126.236 180.614 126.228 180.612 126.214C180.575 125.982 180.258 124.12 179.872 121.318C178.935 114.53 177.583 102.226 178.757 94.314H184.021C184.068 98.732 184.523 109.678 187.618 120.536C188.082 122.166 188.603 123.792 189.198 125.394C190.769 129.666 192.818 133.762 195.486 137.264C195.729 137.58 195.98 137.89 196.241 138.19C196.457 138.442 196.681 138.686 196.913 138.922C201.043 143.222 207.051 145.472 213.193 144.98L220.429 144.402L221.451 144.32L222.749 147.812L223.089 148.726L223.667 150.278L224.005 151.192L226.163 156.99C230.053 167.436 228.054 178.912 220.783 187.824L220.787 187.82Z" fill="#009B68"/>
<path d="M172.87 187.942L178.468 175.394H166.371L169.29 187.124L172.87 187.942Z" fill="#183339"/>
<g opacity="0.35">
<path d="M170.557 164.586L142.278 164.024C139.036 163.956 136 165.156 133.734 167.394C131.468 169.632 130.294 172.584 130.435 175.71L131.746 204.99C131.758 205.25 131.98 205.452 132.246 205.452C132.252 205.452 132.26 205.452 132.268 205.452C132.544 205.44 132.76 205.214 132.747 204.948L131.437 175.668C131.308 172.812 132.38 170.114 134.452 168.07C136.523 166.026 139.289 164.924 142.258 164.992L170.536 165.554C170.807 165.55 171.042 165.348 171.048 165.08C171.054 164.812 170.834 164.592 170.557 164.586Z" fill="#183339"/>
<path d="M210.783 165.963C210.707 164.025 210.398 162.089 209.85 160.187L208.152 154.283C213.186 153.617 218.521 152.627 224.007 151.187L223.669 150.273C207.928 154.385 193.44 154.813 183.793 154.399C176.486 154.087 170.853 153.263 167.797 152.723L168.668 153.855C171.913 154.389 177.148 155.083 183.72 155.365C185.543 155.443 187.535 155.493 189.677 155.493C192.841 155.493 196.328 155.387 200.062 155.113C200.33 156.211 202.766 165.295 209.799 166.519C209.886 171.319 208.503 176.091 205.747 180.195L181.678 216.027C180.494 217.787 180.492 219.977 181.668 221.739C182.69 223.275 184.388 224.157 186.231 224.157C186.505 224.157 186.782 224.137 187.06 224.097L202.028 221.951C202.301 221.913 202.492 221.665 202.449 221.401C202.409 221.137 202.15 220.953 201.88 220.995L186.913 223.141C185.159 223.393 183.471 222.655 182.511 221.215C181.551 219.775 181.556 217.989 182.52 216.553L206.591 180.719C209.512 176.371 210.951 171.297 210.796 166.205C210.798 166.193 210.804 166.179 210.806 166.163C210.817 166.093 210.806 166.025 210.785 165.959L210.783 165.963ZM201.076 155.037C203.042 154.877 205.067 154.675 207.151 154.413L208.886 160.449C209.367 162.121 209.655 163.823 209.761 165.525C203.829 164.309 201.462 156.473 201.076 155.035V155.037Z" fill="#183339"/>
<path d="M223.093 148.722C210.367 151.994 198.48 152.884 189.304 152.884C187.162 152.884 185.169 152.836 183.345 152.758C175.292 152.412 169.246 151.448 166.412 150.918L165.516 149.752C167.54 150.17 174.123 151.394 183.417 151.79C192.955 152.198 207.223 151.788 222.753 147.806L223.093 148.72V148.722Z" fill="#183339"/>
</g>
<path d="M161.473 128.002L172.736 126.96L152.653 128.878L151.256 125.178L150.906 124.246L150.943 124.242L158.871 123.442C159.636 124.94 160.501 126.462 161.473 128.004V128.002Z" fill="#183339"/>
<path d="M189.2 125.39L180.612 126.208C180.575 125.978 180.258 124.116 179.872 121.316L187.62 120.532C188.085 122.162 188.605 123.788 189.2 125.39Z" fill="#183339"/>
<path d="M147.648 201.454H116.246L118.999 222.166L115.422 224.164C112.688 225.694 111.792 226.992 108.852 228.12C105.232 229.508 99.5967 232.752 98.3714 239.722H145.99L147.648 201.456V201.454Z" fill="#FFD1BA"/>
<path d="M145.992 239.72V242.532H131.122L130.589 242.022C129.789 241.254 128.59 241.02 127.543 241.428L124.709 242.532H98.3734V239.72H145.992Z" fill="#183339"/>
<path d="M206.693 205.878L210.837 235.906L231.757 230.54L234.283 233.696C236.215 236.11 237.668 236.794 239.213 239.456C241.116 242.734 245.194 247.694 252.517 247.948L246.233 202.416L206.693 205.882V205.878Z" fill="#FFD1BA"/>
<path d="M246.233 202.414L249.123 202.042L251.087 216.26L250.633 216.836C249.949 217.704 249.868 218.88 250.425 219.828L251.935 222.392L255.41 247.572L252.52 247.944L246.235 202.412L246.233 202.414Z" fill="#183339"/>
<path d="M186.121 147.032C186.359 147.032 178.437 155.466 174.365 159.782C172.816 161.424 171.023 162.83 169.037 163.954L133.927 183.86L123.666 193.408C121.96 194.996 119.793 196.052 117.456 196.436L113.718 197.048C113.65 197.06 113.579 197.064 113.513 197.064C113.129 197.064 112.767 196.89 112.532 196.586C112.329 196.322 112.261 196.008 112.306 195.716L109.802 196.278C109.706 196.3 109.609 196.31 109.513 196.31C109.117 196.31 108.736 196.136 108.491 195.822C107.979 195.172 108.251 194.23 109.035 193.928L111.475 192.988L116.194 188.666L112.016 191.294C110.971 191.954 109.81 192.43 108.591 192.704L105.831 193.32C105.728 193.344 105.624 193.354 105.52 193.354C105.072 193.354 104.643 193.144 104.384 192.774C103.936 192.138 104.137 191.268 104.828 190.88L109.872 188.046L119.71 180.126L113.094 180.734C113.042 180.738 112.99 180.742 112.939 180.742C112.111 180.742 111.406 180.128 111.338 179.318C111.276 178.6 111.734 177.938 112.443 177.714L122.032 174.698L129.82 174.254C130.887 174.192 131.897 173.768 132.671 173.06L154.119 153.358L163.321 144.826L169.706 135.152C169.706 135.152 185.8 147.036 186.121 147.036V147.032Z" fill="#AD6359"/>
<g opacity="0.3">
<path d="M112.57 196.14C112.342 196.14 112.136 195.99 112.082 195.766C112.02 195.506 112.188 195.246 112.458 195.186L114.713 194.68L120.537 190.3C120.755 190.136 121.07 190.174 121.24 190.384C121.41 190.594 121.371 190.898 121.153 191.062L115.242 195.508C115.184 195.552 115.118 195.582 115.047 195.598L112.684 196.128C112.646 196.136 112.607 196.14 112.57 196.14Z" fill="#183339"/>
</g>
<path d="M84.5505 154.266C84.6127 155.446 85.0627 156.614 85.9127 157.59C87.2708 159.146 94.092 165.284 96.2545 165.248C96.2669 165.25 96.2815 165.248 96.2939 165.248C96.3001 165.26 96.3063 165.27 96.3146 165.278C96.3271 165.284 96.3416 165.292 96.354 165.298C96.3789 165.294 96.4059 165.29 96.4328 165.282C98.4854 164.788 103.161 156.876 103.982 154.99C104.492 153.816 104.56 152.57 104.258 151.428C103.903 150.086 102.294 149.434 101.052 150.128C99.9927 150.72 99.1178 151.64 98.6057 152.812C98.4916 153.074 98.3444 153.466 98.1765 153.954C98.1765 151.684 98.079 149.728 97.9546 148.832C97.7266 147.188 96.9511 145.742 95.8274 144.646C94.5108 143.36 92.2509 143.65 91.3283 145.222C90.5404 146.562 90.1838 148.154 90.4119 149.8C90.5591 150.87 91.152 153.39 91.9648 156.1C91.2951 155.132 90.7146 154.362 90.3704 153.97C89.5224 152.998 88.4028 152.372 87.2106 152.11C85.8111 151.802 84.4759 152.888 84.5505 154.27V154.266Z" fill="#009B68"/>
<path d="M104.309 169.872C104.732 173.626 104.278 197.888 100.387 198.298C96.495 198.706 90.6399 175.106 90.2169 171.352C89.794 167.598 92.6054 164.222 96.4971 163.814C100.389 163.406 103.888 166.118 104.311 169.872H104.309Z" fill="#FFD1BA"/>
<path d="M207.174 125.52L187.108 148.782C175.481 144.42 170.229 136.292 168.693 133.452C168.346 132.812 168.189 132.438 168.189 132.438L170.65 128.87L184.979 108.102C185.099 107.926 185.227 107.754 185.358 107.59C187.122 105.326 189.65 103.968 192.32 103.568C195.69 103.058 199.289 104.074 201.874 106.712L206.715 111.652C210.485 115.498 210.682 121.452 207.172 125.52H207.174Z" fill="#F4F0E6"/>
<g opacity="0.3">
<path d="M192.32 103.568C192.318 103.786 192.161 103.98 191.928 104.032C189.716 104.522 187.807 105.796 186.55 107.612L168.693 133.452C168.346 132.812 168.189 132.438 168.189 132.438L170.65 128.87L185.356 107.59L185.713 107.074C187.11 105.052 189.237 103.638 191.7 103.088C191.972 103.03 192.242 103.192 192.308 103.45C192.318 103.488 192.32 103.528 192.32 103.566V103.568Z" fill="#183339"/>
</g>
<g opacity="0.3">
<path d="M207.572 132.622L201.006 134.18H201.001L196.915 138.918C196.683 138.68 196.459 138.436 196.243 138.186L205.395 127.578C205.573 127.374 205.888 127.346 206.102 127.518C206.313 127.688 206.342 127.992 206.164 128.198L202.082 132.928L207.331 131.684C207.599 131.622 207.872 131.778 207.939 132.038C208.003 132.3 207.841 132.56 207.572 132.624V132.622Z" fill="#183339"/>
</g>
<path d="M68.4532 220.24C68.3889 221.444 67.9307 222.636 67.064 223.63C65.679 225.216 58.723 231.478 56.517 231.44C56.5045 231.442 56.49 231.44 56.4776 231.44C56.4714 231.452 56.4652 231.462 56.4569 231.472C56.4444 231.48 56.4299 231.486 56.4175 231.492C56.3905 231.488 56.3636 231.484 56.3366 231.476C54.2425 230.972 49.4759 222.902 48.6383 220.98C48.1179 219.784 48.0474 218.512 48.3584 217.348C48.7192 215.98 50.3613 215.314 51.626 216.022C52.7062 216.626 53.5998 217.564 54.1202 218.76C54.2363 219.026 54.3877 219.426 54.5577 219.924C54.5577 217.61 54.6572 215.614 54.7837 214.7C55.0159 213.024 55.8079 211.548 56.9524 210.432C58.2959 209.122 60.5994 209.418 61.5407 211.02C62.3431 212.388 62.708 214.01 62.4757 215.69C62.3265 216.782 61.7211 219.35 60.8938 222.114C61.578 221.128 62.1689 220.34 62.5193 219.94C63.3839 218.948 64.5242 218.31 65.7412 218.044C67.1677 217.73 68.5299 218.838 68.4552 220.246L68.4532 220.24Z" fill="#009B68"/>
<path d="M77.7998 220.458C77.862 221.638 78.3119 222.806 79.162 223.782C80.52 225.338 87.3413 231.476 89.5037 231.44C89.5162 231.442 89.5307 231.44 89.5431 231.44C89.5494 231.452 89.5556 231.462 89.5639 231.47C89.5763 231.476 89.5908 231.484 89.6033 231.49C89.6281 231.486 89.6551 231.482 89.682 231.474C91.7346 230.98 96.41 223.068 97.2311 221.182C97.7411 220.008 97.8095 218.762 97.5068 217.62C97.1523 216.278 95.5434 215.626 94.3014 216.32C93.242 216.912 92.367 217.832 91.8549 219.004C91.7409 219.266 91.5937 219.658 91.4257 220.146C91.4257 217.876 91.3283 215.92 91.2039 215.024C90.9758 213.38 90.2004 211.934 89.0766 210.838C87.7601 209.552 85.5001 209.842 84.5775 211.414C83.7896 212.754 83.433 214.346 83.6611 215.992C83.8083 217.062 84.4013 219.582 85.214 222.292C84.5443 221.324 83.9638 220.554 83.6196 220.162C82.7716 219.19 81.652 218.564 80.4599 218.302C79.0604 217.994 77.7251 219.08 77.7998 220.462V220.458Z" fill="#009B68"/>
<path d="M44.7363 228.256H103.648C114.334 228.256 123.011 236.626 123.011 246.934H25.3735C25.3735 236.626 34.0504 228.256 44.7363 228.256Z" fill="#AD6359"/>
<path d="M233.584 176.044C233.082 177.122 232.929 178.36 233.225 179.602C233.698 181.584 236.864 190.048 238.807 190.968C238.817 190.976 238.829 190.982 238.842 190.984C238.842 190.998 238.842 191.01 238.846 191.02C238.854 191.032 238.863 191.044 238.871 191.054C238.896 191.062 238.921 191.07 238.95 191.074C241.01 191.538 248.912 186.554 250.535 185.236C251.545 184.416 252.194 183.338 252.466 182.188C252.785 180.838 251.661 179.55 250.229 179.62C249.005 179.682 247.792 180.114 246.783 180.934C246.559 181.116 246.242 181.4 245.862 181.762C246.936 179.744 247.774 177.958 248.087 177.106C248.661 175.542 248.655 173.914 248.174 172.444C247.61 170.72 245.462 169.984 243.899 170.976C242.563 171.822 241.494 173.082 240.917 174.648C240.542 175.666 239.878 178.168 239.319 180.936C239.18 179.78 239.028 178.838 238.908 178.338C238.612 177.1 237.913 176.05 236.976 175.292C235.877 174.402 234.175 174.78 233.586 176.042L233.584 176.044Z" fill="#009B68"/>
<path d="M243.787 198.626C242.387 202.154 230.509 223.544 226.852 222.194C223.194 220.844 229.147 197.268 230.544 193.74C231.944 190.212 236.041 188.446 239.698 189.796C243.355 191.146 245.186 195.098 243.787 198.626Z" fill="#FFD1BA"/>
<path d="M249.277 189.45C249.055 190.612 249.213 191.85 249.806 192.988C250.753 194.804 255.916 202.3 258.028 202.748C258.041 202.754 258.055 202.756 258.066 202.756C258.07 202.77 258.074 202.78 258.078 202.79C258.089 202.8 258.101 202.81 258.111 202.818C258.136 202.82 258.163 202.822 258.192 202.818C260.307 202.796 266.755 196.142 268.007 194.49C268.785 193.462 269.152 192.266 269.131 191.086C269.108 189.702 267.698 188.708 266.326 189.104C265.152 189.444 264.08 190.142 263.303 191.17C263.129 191.398 262.892 191.748 262.613 192.186C263.158 189.978 263.531 188.052 263.626 187.152C263.799 185.502 263.39 183.922 262.561 182.604C261.588 181.06 259.32 180.838 258.045 182.16C256.957 183.288 256.229 184.756 256.055 186.41C255.941 187.484 255.912 190.066 256.055 192.884C255.636 191.794 255.254 190.914 255.016 190.456C254.423 189.32 253.486 188.462 252.389 187.942C251.101 187.33 249.542 188.088 249.281 189.448L249.277 189.45Z" fill="#009B68"/>
<path d="M264.754 209.041C264.265 212.787 257.999 236.289 254.114 235.817C250.231 235.345 250.197 211.079 250.687 207.331C251.176 203.585 254.721 200.929 258.605 201.401C262.488 201.873 265.242 205.293 264.752 209.039L264.754 209.041Z" fill="#FFD1BA"/>
<path d="M232.522 216.742C231.579 215.988 230.383 215.516 229.064 215.458C226.957 215.368 217.656 216.052 216.22 217.612C216.209 217.62 216.201 217.63 216.195 217.64C216.18 217.636 216.168 217.634 216.157 217.634C216.145 217.638 216.128 217.642 216.116 217.648C216.101 217.668 216.087 217.69 216.075 217.714C215.061 219.506 217.932 228.182 218.813 230.042C219.363 231.198 220.267 232.092 221.345 232.65C222.608 233.308 224.196 232.606 224.507 231.256C224.772 230.102 224.664 228.858 224.115 227.702C223.993 227.444 223.794 227.074 223.534 226.624C225.264 228.162 226.825 229.416 227.592 229.936C229.002 230.888 230.629 231.316 232.226 231.26C234.098 231.196 235.406 229.396 234.834 227.676C234.345 226.21 233.372 224.878 231.962 223.926C231.046 223.306 228.724 222.02 226.105 220.762C227.297 220.942 228.278 221.052 228.811 221.074C230.128 221.13 231.361 220.76 232.369 220.09C233.551 219.306 233.627 217.622 232.524 216.738L232.522 216.742Z" fill="#009B68"/>
<path d="M207.24 220.2C204.089 217.958 185.891 201.206 188.213 198.166C190.537 195.126 212.504 206.952 215.654 209.194C218.805 211.436 219.475 215.716 217.151 218.756C214.826 221.796 210.389 222.442 207.238 220.2H207.24Z" fill="#FFD1BA"/>
<path d="M241.653 232.173C241.243 231.059 240.467 230.063 239.364 229.363C237.602 228.247 229.248 224.241 227.185 224.871C227.173 224.871 227.159 224.877 227.148 224.883C227.138 224.873 227.13 224.865 227.119 224.859C227.105 224.855 227.09 224.853 227.076 224.851C227.053 224.861 227.028 224.873 227.005 224.889C225.185 225.927 223.045 234.799 222.815 236.833C222.672 238.097 222.977 239.311 223.605 240.323C224.341 241.511 226.076 241.693 227.061 240.687C227.901 239.827 228.469 238.705 228.61 237.441C228.641 237.159 228.668 236.743 228.682 236.229C229.352 238.405 230.026 240.253 230.412 241.077C231.117 242.589 232.288 243.763 233.69 244.503C235.332 245.373 237.411 244.473 237.83 242.713C238.187 241.211 238.06 239.587 237.353 238.073C236.895 237.087 235.582 234.837 234.001 232.463C234.929 233.205 235.713 233.785 236.159 234.067C237.26 234.765 238.516 235.057 239.737 234.979C241.17 234.889 242.128 233.481 241.649 232.177L241.653 232.173Z" fill="#009B68"/>
<path d="M218.1 222.66C216.582 219.178 209.84 195.8 213.45 194.336C217.059 192.872 229.653 213.878 231.17 217.36C232.688 220.842 230.992 224.85 227.382 226.314C223.773 227.778 219.618 226.142 218.1 222.66Z" fill="#FFD1BA"/>
<path d="M185.887 248.384H270.006V205.18H185.887V248.384Z" fill="#EEEAE3"/>
<g opacity="0.4">
<g opacity="0.39">
<path d="M270.006 215.286H185.887V216.496H270.006V215.286Z" fill="#183339"/>
</g>
</g>
<g opacity="0.4">
<g opacity="0.39">
<path d="M270.006 226.034H185.887V227.244H270.006V226.034Z" fill="#183339"/>
</g>
</g>
<g opacity="0.4">
<g opacity="0.39">
<path d="M270.006 236.782H185.887V237.992H270.006V236.782Z" fill="#183339"/>
</g>
</g>
<g opacity="0.14">
<path d="M239.333 248.39H270.006V205.18H239.333V248.39Z" fill="#183339"/>
</g>
</svg>
