<svg width="299" height="300" viewBox="0 0 299 300" fill="none" xmlns="http://www.w3.org/2000/svg">
<path opacity="0.15" d="M297.872 162.564C297.872 157.254 293.582 152.948 288.288 152.948C287.469 152.948 286.675 153.05 285.918 153.244C285.978 152.746 286.009 152.242 286.009 151.728C286.009 144.848 280.45 139.27 273.593 139.27C272.311 139.27 271.077 139.464 269.915 139.826C269.923 139.642 269.927 139.456 269.927 139.27C269.927 131.716 263.826 125.594 256.297 125.594C254.303 125.594 252.41 126.024 250.703 126.794C249.757 116.898 241.448 109.158 231.336 109.158C220.59 109.158 211.877 117.898 211.877 128.68C211.877 129.62 211.945 130.544 212.073 131.448C211.969 131.444 211.865 131.442 211.76 131.442C206.581 131.442 202.363 135.562 202.182 140.714C199.742 138.408 196.455 136.996 192.839 136.996C185.31 136.996 179.209 143.12 179.209 150.674C179.209 152.714 179.655 154.648 180.452 156.386C179.464 156.04 178.401 155.852 177.295 155.852C172.001 155.852 167.711 160.158 167.711 165.468C167.711 169.072 169.688 172.212 172.613 173.86C172.238 174.734 172.029 175.696 172.029 176.708C172.029 180.686 175.242 183.912 179.209 183.912C180.945 183.912 182.537 183.294 183.781 182.264C185.079 186.03 188.645 188.736 192.841 188.736C194.814 188.736 196.648 188.138 198.171 187.112C198.38 193.35 203.485 198.342 209.752 198.342C214.206 198.342 218.073 195.82 220.014 192.122C220.074 192.172 220.136 192.218 220.196 192.266L222.659 196.69C224.82 200.57 225.847 205.34 225.554 210.132L223.052 251.026C222.576 258.802 219.982 266.094 215.746 271.56L215.061 272.446H256.097L255.412 271.56C251.174 266.094 248.581 258.802 248.106 251.026L245.605 210.132C245.316 205.408 246.312 200.706 248.409 196.858C251.381 196.33 253.937 194.602 255.561 192.186C256.165 192.306 256.787 192.368 257.427 192.368C259.478 192.368 261.378 191.722 262.937 190.62C264.547 194.074 268.044 196.468 272.096 196.468C277.677 196.468 282.204 191.928 282.204 186.326C282.204 185.886 282.176 185.454 282.122 185.03C282.844 185.214 283.599 185.312 284.377 185.312C289.4 185.312 293.472 181.226 293.472 176.186C293.472 174.422 292.974 172.776 292.111 171.38C295.5 169.898 297.87 166.508 297.87 162.562L297.872 162.564ZM229.895 193.538C232.841 192.266 235.024 189.554 235.562 186.284C235.634 189.85 237.404 192.998 240.091 194.95L235.58 200.372L229.893 193.536L229.895 193.538Z" fill="#009B68"/>
<path opacity="0.15" d="M113.465 181.832C113.465 177.452 109.926 173.902 105.561 173.902C104.885 173.902 104.231 173.986 103.608 174.146C103.657 173.736 103.683 173.32 103.683 172.896C103.683 167.222 99.0986 162.622 93.4435 162.622C92.387 162.622 91.3684 162.782 90.4096 163.082C90.4156 162.93 90.4196 162.776 90.4196 162.622C90.4196 156.394 85.3864 151.344 79.1792 151.344C77.5347 151.344 75.9739 151.698 74.5666 152.334C73.7872 144.172 66.9342 137.79 58.596 137.79C49.7337 137.79 42.5497 144.998 42.5497 153.888C42.5497 154.662 42.6055 155.424 42.7112 156.17C42.6255 156.168 42.5397 156.166 42.454 156.166C38.1843 156.166 34.7039 159.564 34.5564 163.812C32.5452 161.91 29.8342 160.746 26.8522 160.746C20.645 160.746 15.6118 165.796 15.6118 172.024C15.6118 173.706 15.9786 175.302 16.6364 176.734C15.8211 176.45 14.946 176.294 14.0331 176.294C9.66768 176.294 6.12952 179.844 6.12952 184.224C6.12952 187.196 7.76006 189.786 10.172 191.144C9.86303 191.864 9.6916 192.658 9.6916 193.492C9.6916 196.774 12.3427 199.432 15.6118 199.432C17.045 199.432 18.3566 198.922 19.3812 198.072C20.4516 201.178 23.3918 203.41 26.8522 203.41C28.4788 203.41 29.9917 202.916 31.2475 202.07C31.4209 207.214 35.6308 211.33 40.7996 211.33C44.4733 211.33 47.6606 209.25 49.2613 206.202C49.3111 206.242 49.3609 206.282 49.4108 206.32L51.442 209.968C53.224 213.168 54.0712 217.102 53.83 221.054L51.7669 254.778C51.3742 261.19 49.2353 267.204 45.741 271.712L45.1749 272.442H79.0157L78.4496 271.712C74.9553 267.204 72.8165 261.192 72.4238 254.778L70.3607 221.054C70.1215 217.158 70.9447 213.282 72.6749 210.108C75.1248 209.674 77.2337 208.246 78.5732 206.256C79.0716 206.354 79.5838 206.406 80.1121 206.406C81.8024 206.406 83.3692 205.872 84.6549 204.966C85.9824 207.814 88.8668 209.788 92.2076 209.788C96.8102 209.788 100.542 206.044 100.542 201.424C100.542 201.062 100.518 200.704 100.474 200.354C101.07 200.506 101.692 200.586 102.334 200.586C106.476 200.586 109.835 197.216 109.835 193.06C109.835 191.606 109.424 190.248 108.712 189.096C111.507 187.874 113.461 185.078 113.461 181.824L113.465 181.832ZM57.408 207.374C59.8379 206.324 61.6379 204.088 62.0824 201.392C62.1422 204.332 63.6013 206.928 65.8179 208.538L62.0983 213.01L57.41 207.374H57.408Z" fill="#009B68"/>
<path d="M115.823 135.76C114.198 139.898 117.888 148.01 117.888 148.01L133.671 139.584C133.952 139.442 134.225 139.284 134.488 139.108L140.893 134.844C141.309 134.566 141.696 134.246 142.045 133.886L145.051 130.79C145.356 130.476 145.394 129.986 145.139 129.63C144.874 129.256 144.371 129.14 143.969 129.362L142.354 130.248L143.709 128.78C144.004 128.462 144.174 128.048 144.192 127.614L144.279 125.356C144.297 124.906 143.992 124.51 143.554 124.412C143.066 124.304 142.581 124.602 142.456 125.088L142.101 126.47L140.253 129.632L142.39 127.196L143.494 123.274C143.626 122.804 143.367 122.312 142.906 122.158C142.499 122.022 142.053 122.188 141.836 122.558L139.493 126.504L138.116 128.082L139.238 125.886L140.088 121.946C140.197 121.438 139.862 120.94 139.352 120.852L139.3 120.844C138.897 120.774 138.499 120.98 138.321 121.35L136.011 126.178L132.026 129.47V128.104L133.157 125.408C133.286 125.096 133.244 124.74 133.045 124.468C132.68 123.972 131.951 123.946 131.552 124.416L128.726 127.744C128.488 128.024 128.305 128.346 128.189 128.694L127.155 131.774C126.814 132.79 125.969 133.552 124.926 133.784L115.825 135.762L115.823 135.76Z" fill="#AD6359"/>
<g opacity="0.3">
<path d="M142.109 129.93L140.323 131.324C139.539 131.346 135.806 131.582 133.444 134.148C133.294 134.31 133.304 134.564 133.466 134.714C133.541 134.784 133.639 134.82 133.737 134.82C133.844 134.82 133.952 134.776 134.03 134.692C136.372 132.148 140.39 132.124 140.46 132.124C140.546 132.116 140.636 132.094 140.707 132.04L142.597 130.564C142.771 130.428 142.802 130.178 142.667 130.002C142.531 129.828 142.28 129.796 142.107 129.932L142.109 129.93Z" fill="#183339"/>
<path d="M131.999 128.81L130.484 129.748C130.296 129.864 130.238 130.11 130.354 130.298C130.43 130.42 130.559 130.488 130.693 130.488C130.765 130.488 130.836 130.468 130.902 130.428L132.417 129.49C132.605 129.374 132.662 129.128 132.547 128.94C132.431 128.752 132.186 128.694 131.999 128.81Z" fill="#183339"/>
<path d="M142.667 124.562C142.464 124.476 142.23 124.57 142.145 124.774L141.283 126.808C141.036 127.392 140.628 127.888 140.101 128.242L138.397 129.388C137.123 128.346 135.712 127.94 135.638 127.918C135.427 127.86 135.208 127.982 135.148 128.196C135.088 128.41 135.212 128.63 135.423 128.69C135.443 128.696 137.478 129.286 138.706 130.824C138.786 130.922 138.901 130.974 139.017 130.974C139.105 130.974 139.192 130.946 139.266 130.886C139.438 130.748 139.466 130.496 139.328 130.324C139.222 130.192 139.113 130.066 138.999 129.946L140.546 128.906C141.2 128.466 141.71 127.848 142.017 127.122L142.878 125.088C142.964 124.884 142.87 124.65 142.667 124.564V124.562Z" fill="#183339"/>
</g>
<path d="M119.606 149.422L107.481 153.89C106.444 154.272 105.36 154.462 104.275 154.462C102.882 154.462 101.493 154.148 100.213 153.524C97.4461 152.176 95.5226 149.542 95.0741 146.486L94.6136 143.34L95.0661 154.264H45.8666L45.7989 153.252L45.743 152.402C45.7311 152.406 45.7191 152.408 45.7072 152.412C44.9816 152.62 44.2421 152.72 43.5065 152.72C41.4036 152.72 39.3484 151.892 37.8175 150.356C34.381 146.906 32.609 142.122 32.9837 137.258C33.6953 128.048 35.7026 120.72 36.486 115.792C37.6561 108.44 43.0102 102.462 50.1762 100.526L67.3009 96.6538L77.8337 97.0518L91.2787 100.106C97.5318 101.844 102.443 106.692 104.295 112.93C107.534 123.842 109.779 136.344 109.779 136.344L116.303 135.422C115.801 144.232 119.606 149.422 119.606 149.422Z" fill="#009B68"/>
<path opacity="0.3" d="M62.9834 142.438C62.9834 144.054 62.0425 145.544 60.5854 146.236L45.8248 153.242C45.8248 153.242 45.8068 153.25 45.7988 153.252L45.743 152.402C45.7311 152.406 45.7191 152.408 45.7072 152.412L60.2445 145.512C61.4246 144.954 62.186 143.746 62.186 142.438C62.186 142.218 62.3654 142.038 62.5847 142.038C62.804 142.038 62.9834 142.218 62.9834 142.438Z" fill="#183339"/>
<path opacity="0.3" d="M59.9116 131.524L59.0206 131.848C57.9801 131.21 56.7024 131.054 55.5303 131.444L46.6958 134.368C43.9989 135.26 41.577 136.86 39.6933 138.992L37.3152 141.684C37.2375 141.774 37.1278 141.818 37.0162 141.818C36.9225 141.818 36.8288 141.786 36.7531 141.718C36.5876 141.572 36.5717 141.318 36.7192 141.154L39.0972 138.462C41.0746 136.224 43.6161 134.546 46.4467 133.608L49.333 132.652L50.8599 119.052C50.9835 117.948 51.6353 116.972 52.6041 116.436C52.7974 116.33 53.0386 116.4 53.1463 116.594C53.2519 116.788 53.1801 117.032 52.9888 117.138C52.2453 117.548 51.7469 118.296 51.6513 119.14L50.1662 132.376L55.2811 130.684C56.822 130.174 58.5183 130.45 59.8179 131.426C59.8558 131.454 59.8877 131.486 59.9116 131.524Z" fill="#183339"/>
<path opacity="0.3" d="M94.6155 143.74C94.6035 143.74 94.5916 143.74 94.5796 143.74C94.3604 143.72 94.1989 143.526 94.2188 143.306L95.2972 131.298C95.2992 131.266 95.3072 131.234 95.3171 131.204C96.7165 127.116 95.5623 119.302 95.0022 116.13C94.7909 114.936 95.1756 113.71 96.0328 112.852C96.1882 112.696 96.4414 112.696 96.5969 112.852C96.7524 113.008 96.7524 113.262 96.5969 113.418C95.9231 114.092 95.6221 115.054 95.7876 115.99C96.3577 119.21 97.5238 127.142 96.0866 131.416L95.0122 143.376C94.9942 143.584 94.8188 143.74 94.6155 143.74Z" fill="#183339"/>
<path opacity="0.3" d="M104.49 137.746C104.303 137.746 104.136 137.612 104.1 137.42C104.058 137.202 104.201 136.994 104.417 136.952L109.705 135.95C109.922 135.91 110.13 136.052 110.171 136.268C110.213 136.484 110.07 136.694 109.855 136.736L104.566 137.738C104.54 137.742 104.516 137.746 104.492 137.746H104.49Z" fill="#183339"/>
<path d="M69.366 68.4999C69.366 68.4999 74.8158 61.3899 82.9545 67.4619C89.6761 72.4779 86.993 78.5419 83.7299 78.6679C80.4669 78.7939 67.9806 89.9339 67.9806 89.9339C67.9806 89.9339 63.1169 79.8459 62.7601 75.4179C62.2059 68.5299 69.366 68.4979 69.366 68.4979V68.4999Z" fill="#606060"/>
<path d="M79.2529 97.7278C71.5228 104.718 65.3773 97.7338 65.3773 97.7338L66.4378 97.2398C66.8225 97.0598 67.0896 96.6957 67.1454 96.2737L67.4564 93.9018V93.8857L67.9806 89.9357L68.1102 88.9458L68.1839 88.3818L68.3494 87.1318L77.2237 86.8438L77.6503 93.5698L77.8137 96.1797C77.8217 96.2897 77.8436 96.3957 77.8755 96.4997C77.9632 96.7577 78.1327 96.9837 78.3659 97.1377L79.2509 97.7257L79.2529 97.7278Z" fill="#AD6359"/>
<g opacity="0.2">
<path opacity="0.3" d="M77.8775 96.5018C69.9181 95.7878 68.9733 92.2478 67.9806 89.9378L68.1102 88.9478C68.166 88.6858 68.2118 88.4558 68.1839 88.3838L68.3494 87.1338C68.459 87.3378 68.5706 87.5398 68.6882 87.7338C70.4643 90.7398 72.7207 92.2838 74.6842 93.0698C75.2224 93.2858 75.7725 93.4318 76.3287 93.5078C76.4064 93.5198 76.4881 93.5298 76.5659 93.5378C76.7772 93.5598 76.9885 93.5738 77.1998 93.5758C77.3493 93.5798 77.5007 93.5778 77.6502 93.5718L77.8137 96.1818C77.8217 96.2918 77.8436 96.3978 77.8755 96.5018H77.8775Z" fill="#183339"/>
</g>
<path d="M67.8232 84.4077C67.883 84.4077 67.9448 84.4017 68.0066 84.3977H68.0285C68.0544 84.4457 68.0803 84.4917 68.1062 84.5377C68.188 84.6857 68.2697 84.8277 68.3514 84.9677C70.1434 87.9817 72.4158 89.5237 74.3872 90.3037C74.9194 90.5157 75.4636 90.6577 76.0118 90.7337C76.0915 90.7457 76.1713 90.7557 76.249 90.7617C76.4603 90.7837 76.6736 90.7957 76.8849 90.7957C77.0344 90.7997 77.1859 90.7957 77.3334 90.7877H77.3553C78.0171 90.7557 78.6689 90.6277 79.2928 90.4157C80.5765 89.9797 81.7406 89.1777 82.6117 88.0577C83.8436 86.4737 84.3798 84.7517 84.5811 83.2457C84.8064 81.5477 84.6031 80.1237 84.4775 79.4837C84.4296 79.2417 84.4257 78.9897 84.4635 78.7477C84.4855 78.6117 84.5034 78.4757 84.5193 78.3417C84.7187 76.6997 84.5572 75.1757 84.3459 74.0737C84.2263 73.4517 84.0948 72.9597 84.0011 72.6577C83.9592 72.5397 83.9154 72.4277 83.8695 72.3237H83.8675C83.8157 72.4257 82.0974 75.6357 76.2251 75.3017C75.8623 75.2817 75.4836 75.2477 75.0889 75.1977C73.9108 75.0497 72.5853 74.7677 71.1002 74.3117C71.1002 74.3117 71.1381 74.8297 70.9188 75.5297C70.7574 76.0477 70.4544 76.6657 69.8943 77.2497C69.4757 77.6857 68.9175 78.1037 68.164 78.4417C67.6537 77.8477 66.2285 76.4477 64.7495 77.3437C61.9608 79.0257 62.7462 84.6117 67.8232 84.4037V84.4077Z" fill="#AD6359"/>
<path d="M68.164 78.4479L68.1062 84.5399L68.0743 87.8779C68.0484 90.4239 69.6909 92.6879 72.1128 93.4539C75.6649 94.5779 78.4775 94.4539 80.5765 93.8919C83.3871 93.1419 85.193 90.3979 84.7924 87.5059L84.5831 83.2539C80.708 81.2859 77.1599 81.9099 74.8357 82.8059C73.2649 83.4099 71.5128 82.5539 71.0224 80.9399L69.8962 77.2539C69.4776 77.6899 68.9194 78.1079 68.166 78.4459L68.164 78.4479Z" fill="#606060"/>
<path d="M75.2782 80.9859C75.68 80.9859 76.0058 80.659 76.0058 80.2559C76.0058 79.8527 75.68 79.5259 75.2782 79.5259C74.8764 79.5259 74.5507 79.8527 74.5507 80.2559C74.5507 80.659 74.8764 80.9859 75.2782 80.9859Z" fill="#173339"/>
<path d="M82.1054 80.71C82.5072 80.71 82.8329 80.3832 82.8329 79.98C82.8329 79.5768 82.5072 79.25 82.1054 79.25C81.7035 79.25 81.3778 79.5768 81.3778 79.98C81.3778 80.3832 81.7035 80.71 82.1054 80.71Z" fill="#173339"/>
<g opacity="0.25">
<path d="M80.0123 84.6537C79.9366 84.6557 79.8609 84.6297 79.8011 84.5757C79.6815 84.4657 79.6755 84.2777 79.7851 84.1597L80.0123 83.9157C80.4788 83.4117 80.5765 82.6637 80.2515 82.0577L79.2688 80.2157C79.1931 80.0717 79.2469 79.8937 79.3884 79.8157C79.532 79.7397 79.7094 79.7937 79.7871 79.9357L80.7698 81.7777C81.2123 82.6077 81.0808 83.6277 80.4429 84.3157L80.2157 84.5597C80.1599 84.6197 80.0861 84.6517 80.0104 84.6537H80.0123Z" fill="#173339"/>
</g>
<g opacity="0.25">
<path d="M77.3553 87.2659C76.3626 87.3019 75.3959 86.7519 74.9474 85.7959C74.8776 85.6479 74.9414 85.4719 75.0889 85.4039C75.2364 85.3339 75.4118 85.3979 75.4796 85.5459C75.7028 86.0219 76.0975 86.3839 76.5919 86.5619C77.0862 86.7399 77.6184 86.7159 78.0948 86.4919C78.2423 86.4239 78.4178 86.4859 78.4855 86.6339C78.5553 86.7819 78.4915 86.9579 78.344 87.0259C78.0251 87.1759 77.6882 87.2539 77.3553 87.2659Z" fill="#173339"/>
</g>
<path d="M74.1341 78.8017C74.0603 78.8037 73.9866 78.7797 73.9268 78.7257C73.8052 78.6157 73.7972 78.4297 73.9048 78.3097C74.5367 77.6057 75.6191 77.5497 76.3208 78.1837C76.4423 78.2937 76.4503 78.4797 76.3427 78.5997C76.233 78.7217 76.0477 78.7297 75.9281 78.6217C75.4676 78.2057 74.756 78.2437 74.3434 78.7057C74.2876 78.7677 74.2118 78.7997 74.1361 78.8037L74.1341 78.8017Z" fill="#173339"/>
<path d="M81.0509 78.5459C80.9772 78.5479 80.9034 78.5239 80.8436 78.4699C80.722 78.3599 80.7141 78.1739 80.8217 78.0539C81.1267 77.7139 81.5473 77.5119 82.0038 77.4879C82.4642 77.4659 82.8988 77.6199 83.2376 77.9259C83.3592 78.0359 83.3672 78.2219 83.2595 78.3419C83.1499 78.4639 82.9645 78.4719 82.8449 78.3639C82.3845 77.9479 81.6729 77.9859 81.2602 78.4479C81.2044 78.5099 81.1287 78.5419 81.0529 78.5459H81.0509Z" fill="#173339"/>
<g opacity="0.25">
<path d="M67.9288 81.7261C67.8929 81.7421 67.855 81.7501 67.8172 81.7521C67.7016 81.7561 67.5899 81.6901 67.5381 81.5781C67.2092 80.8481 66.7647 80.3721 66.3182 80.0641C66.0012 80.3281 65.6983 80.6781 65.7401 81.0141C65.7999 81.4441 66.4159 81.7761 66.6252 81.8581C66.7766 81.9181 66.8504 82.0901 66.7926 82.2421C66.7467 82.3541 66.6431 82.4241 66.5295 82.4281C66.4896 82.4281 66.4517 82.4241 66.4119 82.4081C66.366 82.3881 65.2757 81.9521 65.1601 81.0921C65.0983 80.6481 65.3056 80.2001 65.776 79.7581C65.1162 79.4681 64.5581 79.4841 64.5122 79.4881C64.3508 79.4941 64.2152 79.3681 64.2072 79.2061C64.2013 79.0421 64.3249 78.9061 64.4863 78.8981C64.586 78.8941 66.9421 78.8121 68.0763 81.3321C68.1421 81.4821 68.0763 81.6541 67.9308 81.7241L67.9288 81.7261Z" fill="#173339"/>
</g>
<path d="M82.6037 76.2037C81.0489 76.1837 79.7592 77.3697 79.6077 78.8857H78.1546C78.0051 77.3817 76.7353 76.2037 75.1965 76.2037C73.6576 76.2037 72.4776 77.3077 72.2603 78.7397L68.3434 78.3697C68.18 78.3537 68.0324 78.4757 68.0185 78.6397C68.0025 78.8037 68.1241 78.9517 68.2876 78.9657L72.2304 79.3377C72.3101 80.9097 73.6078 82.1657 75.1945 82.1657C76.7812 82.1657 78.0011 80.9877 78.1526 79.4837H79.6057C79.7552 80.9877 81.025 82.1657 82.5638 82.1657C84.2502 82.1657 85.6136 80.7497 85.5339 79.0397C85.4602 77.4837 84.1565 76.2217 82.6037 76.2017V76.2037ZM75.1965 81.5677C73.8869 81.5677 72.8224 80.4997 72.8224 79.1857C72.8224 77.8717 73.8869 76.8037 75.1965 76.8037C76.5061 76.8037 77.5705 77.8717 77.5705 79.1857C77.5705 80.4997 76.5061 81.5677 75.1965 81.5677ZM82.5638 81.5677C81.2542 81.5677 80.1898 80.4997 80.1898 79.1857C80.1898 77.8717 81.2542 76.8037 82.5638 76.8037C83.8735 76.8037 84.9379 77.8717 84.9379 79.1857C84.9379 80.4997 83.8735 81.5677 82.5638 81.5677Z" fill="#F4F0E6"/>
<path d="M82.9386 240H107.05L104.935 256.54L107.68 258.136C109.781 259.358 110.469 260.394 112.725 261.294C115.504 262.402 119.831 264.994 120.772 270.56H84.2104L82.9366 240H82.9386Z" fill="#FFD1BA"/>
<path d="M84.2103 270.562V272.808H95.6281L96.0368 272.4C96.6527 271.786 97.5716 271.6 98.3769 271.926L100.554 272.808H120.774V270.562H84.2123H84.2103Z" fill="#183339"/>
<path d="M39.7112 240H63.8226L59.8359 256.54L62.5807 258.136C64.6817 259.358 65.3694 260.394 67.6258 261.294C70.4045 262.402 74.7321 264.994 75.6729 270.56H39.1112L39.7112 240Z" fill="#FFD1BA"/>
<path d="M39.1112 270.562V272.808H50.529L50.9376 272.4C51.5536 271.786 52.4725 271.6 53.2778 271.926L55.4545 272.808H75.6749V270.562H39.1132H39.1112Z" fill="#183339"/>
<path d="M104.491 240H83.2336L80.9812 215.214L73.1972 182.408L67.3009 217.402L63.1607 240H39.9962L44.9516 204.326L43.6879 181.478C43.4786 177.722 43.6141 173.956 44.0905 170.226L45.6991 157.63L45.8008 156.834L46.1337 154.228H95.1039L95.5365 156.834L95.668 157.628L103.197 203.028C103.699 206.05 103.95 209.11 103.95 212.174L104.491 240Z" fill="#F4F0E6"/>
<path d="M73.1971 182.408L74.8237 174.102H81.5472L73.1971 182.408Z" fill="#183339"/>
<path opacity="0.3" d="M95.668 157.628L95.5364 156.834H45.8008L45.6991 157.63C45.715 157.632 45.731 157.634 45.7489 157.634H56.9694L56.2777 169.216L54.2385 203.342C54.1648 204.558 54.0392 205.784 53.8658 206.99L49.5701 236.696C49.5383 236.914 49.6897 237.118 49.907 237.15C49.927 237.152 49.9469 237.154 49.9648 237.154C50.1602 237.154 50.3316 237.01 50.3595 236.81L54.6551 207.104C54.8326 205.878 54.9601 204.628 55.0339 203.39L57.0591 169.512C64.1733 166.67 64.1275 159.52 63.9839 157.634H86.1119L92.7976 210.836L92.9072 236.756C92.9072 236.976 93.0866 237.154 93.3059 237.154C93.5271 237.152 93.7045 236.972 93.7025 236.752L93.5909 210.808C93.5909 210.792 93.5909 210.776 93.5889 210.76L86.9152 157.634H95.6002C95.6221 157.634 95.6441 157.632 95.666 157.628H95.668ZM62.8119 161.994C61.9846 165.112 60.067 167.34 57.1109 168.624L57.7687 157.634H63.1866C63.2484 158.34 63.3202 160.068 62.8119 161.994Z" fill="#183339"/>
<path d="M87.6649 93.708L93.904 93.232C93.904 93.232 95.0083 91.062 93.7505 89.836C92.4947 88.61 91.0077 90.484 91.0077 90.484C91.0077 90.484 90.1505 89.292 89.2336 89.938C88.3167 90.586 88.6216 91.982 88.6216 91.982C88.6216 91.982 87.2502 91.648 87.6629 93.706L87.6649 93.708Z" fill="#FFD1BA"/>
<path d="M95.69 129.504L91.5379 129.562H91.52L91.1931 129.162L90.3758 128.168L90.2502 128.018L85.217 121.898L86.2974 121L91.0296 126.748L91.1472 126.558C91.6754 125.696 92.6223 125.184 93.6289 125.21L92.6601 126.778L92.7797 126.68C93.5033 126.074 94.512 125.942 95.3631 126.346L93.2422 128.126C94.2448 128.118 95.1717 128.64 95.69 129.5V129.504Z" fill="#FFD1BA"/>
<path d="M89.4927 132.524L85.3406 132.582H85.3227L84.9958 132.182L84.1785 131.188L84.0529 131.038L79.0198 124.918L80.1002 124.02L84.8323 129.768L84.9499 129.578C85.4782 128.716 86.425 128.204 87.4316 128.23L86.4629 129.798L86.5825 129.7C87.3061 129.094 88.3147 128.962 89.1658 129.366L87.0449 131.146C88.0476 131.138 88.9745 131.66 89.4927 132.52V132.524Z" fill="#FFD1BA"/>
<path d="M91.538 129.564L91.526 129.574L91.52 129.564H91.538Z" fill="#FFD1BA"/>
<path d="M85.6017 96.898L84.6569 100.312C84.1984 101.97 82.9446 103.29 81.3141 103.826L71.8677 106.942C70.863 107.274 69.7866 107.31 68.762 107.048L59.9834 104.808C59.9834 104.808 59.8 108.064 61.3309 109.476C61.3309 109.476 61.1475 112.548 63.6571 113.838C63.6571 113.838 62.6764 122.868 72.1966 124.71C81.7167 126.552 89.4309 123.174 92.1857 116.662C94.9405 110.15 93.288 101.428 93.288 101.428L94.7133 99.626C95.7239 98.35 95.9671 96.626 95.3511 95.116C94.488 93.002 92.1857 91.872 89.993 92.484C87.8582 93.08 86.1898 94.754 85.5977 96.896L85.6017 96.898Z" fill="#F4F0E6"/>
<path d="M91.8926 97.2099C92.4024 97.2099 92.8156 96.7953 92.8156 96.2839C92.8156 95.7725 92.4024 95.3579 91.8926 95.3579C91.3829 95.3579 90.9697 95.7725 90.9697 96.2839C90.9697 96.7953 91.3829 97.2099 91.8926 97.2099Z" fill="#173339"/>
<path d="M94.8967 95.2158L98.2136 96.5158L95.0462 98.0938L94.4143 96.5158L94.8967 95.2158Z" fill="#FFD1BA"/>
<g opacity="0.3">
<path opacity="0.3" d="M85.0078 105.85C84.8423 105.65 84.5473 105.622 84.348 105.788C84.1486 105.954 84.1207 106.25 84.2862 106.45C86.5247 109.166 86.2576 113.17 83.6782 115.564C80.0882 118.898 75.7368 120.202 70.7435 119.442C70.6079 119.422 70.4943 119.332 70.4425 119.204C70.4186 119.146 70.3747 118.994 70.4843 118.846C71.0564 118.074 72.1468 117.072 74.0963 116.682C74.3494 116.632 74.5149 116.384 74.463 116.13C74.4132 115.876 74.166 115.71 73.9129 115.762C72.7428 115.996 71.8418 116.426 71.1481 116.914C71.19 116.368 71.3973 115.63 72.0989 114.964C72.1029 114.96 72.1069 114.956 72.1109 114.954C72.5375 114.554 73.1414 114.182 73.9966 113.896C74.2418 113.814 74.3753 113.548 74.2936 113.302C74.2119 113.056 73.9467 112.924 73.7016 113.004C73.1853 113.176 72.7448 113.38 72.368 113.604C72.9162 111.43 75.7627 110.648 75.9062 110.61C76.1574 110.544 76.3069 110.288 76.2411 110.038C76.1753 109.786 75.9202 109.636 75.671 109.702C74.1321 110.104 71.3076 111.594 71.3415 114.402C70.1494 115.632 70.1754 117.08 70.2491 117.682C70.0478 117.89 69.8744 118.096 69.7328 118.288C69.4598 118.658 69.4 119.136 69.5774 119.564C69.7568 120 70.1395 120.302 70.6039 120.374C71.5767 120.522 72.5016 120.59 73.3826 120.59C78.4776 120.59 82.0815 118.33 84.3141 116.258C87.2582 113.526 87.5612 108.956 85.0078 105.856V105.85Z" fill="#183339"/>
</g>
<path d="M91.6076 119.856C91.5737 120.06 91.4661 120.262 91.2827 120.422L90.0349 121.53C89.8714 122.434 89.393 123.244 88.6874 123.824L85.7572 126.228L84.6589 127.13L84.6469 127.138L77.1898 132.164L62.3276 142.194C60.3681 143.516 57.7349 143.178 56.1721 141.402L55.0758 140.16C54.3064 139.284 53.8958 138.168 53.8958 137.03C53.8958 136.576 53.9615 136.118 54.0951 135.67C54.5237 134.242 55.5981 133.102 56.9934 132.59L59.0206 131.848L59.9116 131.524L67.877 128.612C69.1109 128.162 70.0697 127.204 70.4265 126.064L70.8471 124.722C71.1979 123.596 71.762 122.516 72.5155 121.53L75.5075 117.6C75.936 117.042 76.7932 116.926 77.2795 117.364C77.4211 117.492 77.5148 117.66 77.5506 117.836C77.5885 118.016 77.5726 118.21 77.4928 118.394L76.0776 121.738L82.9885 119.358L88.4203 116.366C88.8548 116.126 89.391 116.184 89.688 116.508L89.7319 116.556C90.0449 116.898 89.989 117.43 89.6003 117.774L86.4688 120.56C86.0841 120.902 85.6575 121.204 85.2011 121.454L83.1081 122.618L86.1519 121.77L90.0508 119.116C90.5292 118.792 91.1731 118.86 91.4701 119.27C91.5997 119.442 91.6415 119.648 91.6076 119.856Z" fill="#AD6359"/>
<path d="M139.073 129.546C138.264 131.15 136.312 131.792 134.713 130.978C133.115 130.166 132.475 128.208 133.286 126.604C134.096 125 136.609 123.246 138.208 124.058C139.806 124.87 139.884 127.942 139.075 129.544L139.073 129.546Z" fill="#F4F0E6"/>
<path d="M131.516 172.52H264.978C267.256 172.52 269.106 174.376 269.106 176.662V257.62H127.388V176.662C127.388 174.376 129.238 172.52 131.516 172.52Z" fill="#AD6359"/>
<path opacity="0.2" d="M232.018 218.044H127.388V220.606H232.018V218.044Z" fill="#173239"/>
<path opacity="0.2" d="M232.018 255.056H127.388V257.618H232.018V255.056Z" fill="#173239"/>
<path opacity="0.2" d="M232.018 172.52H264.978C267.256 172.52 269.106 174.376 269.106 176.662V257.62H232.018V172.52Z" fill="#173239"/>
<path d="M134.355 273.958H131.125V257.62H138.8L134.355 273.958Z" fill="#009B68"/>
<path d="M228.791 273.958H232.018V257.62H224.344L228.791 273.958Z" fill="#009B68"/>
<path d="M171.441 273.958H168.214V257.62H175.888L171.441 273.958Z" fill="#009B68"/>
<path d="M265.877 273.958H269.106V257.62H261.432L265.877 273.958Z" fill="#009B68"/>
<path d="M156.592 185.384L161.747 184.992C161.747 184.992 162.66 183.2 161.621 182.186C160.583 181.172 159.355 182.722 159.355 182.722C159.355 182.722 158.647 181.736 157.888 182.272C157.128 182.808 157.384 183.962 157.384 183.962C157.384 183.962 156.249 183.686 156.592 185.388V185.384Z" fill="#FFD1BA"/>
<path d="M159.794 215.014L159.784 215.02L159.778 215.014H159.794Z" fill="#FFD1BA"/>
<path d="M154.888 188.02L154.109 190.842C153.73 192.212 152.693 193.302 151.348 193.746L143.542 196.322C142.713 196.596 141.822 196.626 140.974 196.41L133.721 194.558C133.721 194.558 133.569 197.248 134.833 198.416C134.833 198.416 134.682 200.954 136.755 202.02C136.755 202.02 135.943 209.482 143.811 211.004C151.679 212.526 158.053 209.734 160.33 204.354C162.606 198.974 161.241 191.766 161.241 191.766L162.419 190.276C163.254 189.222 163.455 187.796 162.945 186.55C162.231 184.804 160.33 183.868 158.518 184.374C156.754 184.866 155.376 186.25 154.886 188.02H154.888Z" fill="#F4F0E6"/>
<path d="M159.821 188.414C160.212 188.414 160.529 188.096 160.529 187.704C160.529 187.312 160.212 186.994 159.821 186.994C159.431 186.994 159.114 187.312 159.114 187.704C159.114 188.096 159.431 188.414 159.821 188.414Z" fill="#183339"/>
<path d="M162.568 186.63L165.309 187.704L162.692 189.008L162.17 187.704L162.568 186.63Z" fill="#FFD1BA"/>
<path opacity="0.3" d="M154.398 195.418C154.262 195.252 154.017 195.23 153.853 195.366C153.688 195.502 153.666 195.748 153.802 195.912C155.651 198.156 155.43 201.464 153.299 203.442C150.333 206.196 146.737 207.274 142.611 206.646C142.499 206.628 142.406 206.556 142.362 206.448C142.342 206.4 142.306 206.274 142.396 206.152C142.868 205.514 143.769 204.686 145.38 204.364C145.589 204.322 145.725 204.118 145.683 203.908C145.641 203.698 145.437 203.562 145.228 203.604C144.261 203.798 143.516 204.154 142.944 204.556C142.978 204.104 143.151 203.494 143.729 202.946C143.733 202.944 143.735 202.94 143.739 202.936C144.092 202.606 144.59 202.298 145.298 202.062C145.501 201.994 145.611 201.774 145.543 201.572C145.475 201.368 145.256 201.258 145.055 201.326C144.628 201.468 144.263 201.636 143.952 201.822C144.405 200.026 146.757 199.38 146.877 199.348C147.084 199.294 147.208 199.082 147.154 198.874C147.1 198.666 146.889 198.542 146.681 198.596C145.41 198.928 143.075 200.16 143.103 202.48C142.119 203.496 142.139 204.694 142.2 205.19C142.033 205.362 141.891 205.532 141.774 205.692C141.546 205.998 141.499 206.392 141.644 206.748C141.792 207.108 142.109 207.358 142.493 207.416C143.297 207.538 144.062 207.594 144.79 207.594C149 207.594 151.978 205.726 153.823 204.014C156.255 201.756 156.506 197.98 154.396 195.418H154.398Z" fill="#183339"/>
<path d="M155.797 218.044H142.882C138.644 218.044 134.951 215.146 133.928 211.02L133.757 210.328C133.539 209.448 134.201 208.596 135.106 208.596H163.575C164.478 208.596 165.142 209.448 164.924 210.328L164.753 211.02C163.73 215.148 160.037 218.044 155.799 218.044H155.797Z" fill="#FFD1BA"/>
<path d="M195.257 187.18L190.102 186.788C190.102 186.788 189.189 184.996 190.228 183.982C191.266 182.968 192.494 184.518 192.494 184.518C192.494 184.518 193.202 183.532 193.961 184.068C194.719 184.604 194.466 185.758 194.466 185.758C194.466 185.758 195.6 185.482 195.257 187.184V187.18Z" fill="#FFD1BA"/>
<path d="M192.058 216.808L192.068 216.816L192.074 216.808H192.058Z" fill="#FFD1BA"/>
<path d="M196.963 189.816L197.743 192.638C198.121 194.008 199.158 195.098 200.503 195.542L208.309 198.118C209.139 198.392 210.03 198.422 210.877 198.206L218.13 196.354C218.13 196.354 218.282 199.044 217.018 200.212C217.018 200.212 217.17 202.75 215.097 203.816C215.097 203.816 215.908 211.278 208.04 212.8C200.173 214.322 193.798 211.53 191.521 206.15C189.245 200.77 190.61 193.562 190.61 193.562L189.432 192.072C188.597 191.018 188.396 189.592 188.906 188.346C189.62 186.6 191.521 185.664 193.333 186.17C195.097 186.662 196.475 188.046 196.965 189.816H196.963Z" fill="#F4F0E6"/>
<path d="M192.028 190.21C192.419 190.21 192.735 189.892 192.735 189.5C192.735 189.108 192.419 188.79 192.028 188.79C191.637 188.79 191.32 189.108 191.32 189.5C191.32 189.892 191.637 190.21 192.028 190.21Z" fill="#183339"/>
<path d="M189.283 188.426L186.542 189.5L189.159 190.804L189.68 189.5L189.283 188.426Z" fill="#FFD1BA"/>
<path opacity="0.3" d="M197.454 197.214C197.589 197.048 197.834 197.026 197.998 197.162C198.163 197.298 198.185 197.544 198.05 197.708C196.2 199.952 196.421 203.26 198.552 205.238C201.518 207.992 205.114 209.07 209.24 208.442C209.352 208.424 209.446 208.352 209.489 208.244C209.509 208.196 209.545 208.07 209.456 207.948C208.983 207.31 208.082 206.482 206.472 206.16C206.262 206.118 206.127 205.914 206.169 205.704C206.21 205.494 206.414 205.358 206.623 205.4C207.59 205.594 208.335 205.95 208.907 206.352C208.873 205.9 208.7 205.29 208.122 204.742C208.118 204.74 208.116 204.736 208.112 204.732C207.759 204.402 207.261 204.094 206.553 203.858C206.35 203.79 206.24 203.57 206.308 203.368C206.376 203.164 206.595 203.054 206.796 203.122C207.223 203.264 207.588 203.432 207.899 203.618C207.446 201.822 205.094 201.176 204.975 201.144C204.767 201.09 204.644 200.878 204.697 200.67C204.751 200.462 204.963 200.338 205.17 200.392C206.442 200.724 208.776 201.956 208.748 204.276C209.733 205.292 209.713 206.49 209.651 206.986C209.818 207.158 209.96 207.328 210.077 207.488C210.305 207.794 210.353 208.188 210.207 208.544C210.06 208.904 209.743 209.154 209.358 209.212C208.555 209.334 207.789 209.39 207.062 209.39C202.852 209.39 199.874 207.522 198.028 205.81C195.596 203.552 195.345 199.776 197.456 197.214H197.454Z" fill="#183339"/>
<path d="M208.624 218.044H195.709C191.472 218.044 187.778 215.146 186.755 211.02L186.584 210.328C186.367 209.448 187.028 208.596 187.933 208.596H216.402C217.305 208.596 217.969 209.448 217.752 210.328L217.58 211.02C216.558 215.148 212.864 218.044 208.626 218.044H208.624Z" fill="#FFD1BA"/>
<path d="M198.679 243.336C199.367 244.996 198.584 246.902 196.929 247.592C195.275 248.282 193.375 247.496 192.687 245.836C192 244.176 192.305 241.12 193.959 240.43C195.614 239.74 197.99 241.676 198.677 243.336H198.679Z" fill="#F4F0E6"/>
<path d="M206.093 245.924C205.347 247.558 203.422 248.278 201.793 247.53C200.164 246.782 199.447 244.85 200.192 243.216C200.938 241.582 203.38 239.73 205.01 240.478C206.639 241.226 206.838 244.292 206.093 245.926V245.924Z" fill="#F4F0E6"/>
<path d="M213.964 245.582C213.99 247.38 212.559 248.858 210.767 248.884C208.975 248.91 207.502 247.474 207.476 245.676C207.45 243.878 208.863 241.154 210.653 241.128C212.443 241.102 213.936 243.784 213.962 245.582H213.964Z" fill="#F4F0E6"/>
<path d="M208.624 254.914H195.709C191.472 254.914 187.778 252.016 186.755 247.89L186.584 247.198C186.367 246.318 187.028 245.466 187.933 245.466H216.402C217.305 245.466 217.969 246.318 217.752 247.198L217.58 247.89C216.558 252.018 212.864 254.914 208.626 254.914H208.624Z" fill="#FFD1BA"/>
<path d="M156.088 246.602C155.853 248.384 154.222 249.638 152.446 249.402C150.67 249.166 149.42 247.53 149.656 245.748C149.891 243.966 151.685 241.476 153.461 241.712C155.237 241.948 156.323 244.82 156.088 246.602Z" fill="#F4F0E6"/>
<path d="M147.933 244.392C148.621 246.052 147.838 247.958 146.183 248.648C144.529 249.338 142.629 248.552 141.941 246.892C141.254 245.232 141.559 242.176 143.213 241.486C144.867 240.796 147.244 242.732 147.931 244.392H147.933Z" fill="#F4F0E6"/>
<path d="M158.458 255.056H145.543C141.305 255.056 137.612 252.158 136.589 248.032L136.418 247.34C136.201 246.46 136.862 245.608 137.767 245.608H166.236C167.139 245.608 167.803 246.46 167.586 247.34L167.414 248.032C166.392 252.16 162.698 255.056 158.46 255.056H158.458Z" fill="#FFD1BA"/>
</svg>
