<svg width="1728" height="680" viewBox="0 0 1728 680" fill="none" xmlns="http://www.w3.org/2000/svg">
<g opacity="0.1" clip-path="url(#clip0_23_1363)">
<path d="M-114 260.683C-77.2074 255.588 -40.1834 250.493 -3.39081 254.43C34.096 258.599 71.8142 273.19 96.3426 301.908C128.507 339.427 132.672 392.464 140.309 441.1C148.176 489.736 165.763 543.699 210.191 564.774C251.149 584.229 299.049 568.711 343.015 558.058C396.931 544.857 454.087 539.53 507.078 555.742C560.068 571.954 607.505 613.642 618.844 668.068C627.637 709.524 614.91 752.139 602.414 792.669C579.043 868.402 555.672 944.367 532.3 1020.1C527.209 1036.31 520.499 1054.61 504.764 1061.09C488.103 1068.04 469.822 1058.55 454.318 1049.28C402.948 1018.48 351.345 987.676 299.975 957.105C239.348 920.744 173.399 877.898 156.275 809.112C151.879 791.279 152.11 769.74 165.763 757.466C173.167 750.749 182.886 747.97 192.374 745.422C259.942 726.663 327.743 707.903 395.311 689.144C413.361 684.048 515.871 660.657 478.384 629.391C470.748 622.906 460.103 620.821 450.153 619.2C398.782 609.936 348.569 641.434 297.198 651.393C245.827 661.352 189.365 663.204 145.168 634.949C117.631 617.347 97.731 589.324 85.6982 558.984C73.6654 528.645 69.2688 495.757 68.1118 462.87C67.1862 436.931 67.8804 409.602 56.3104 386.442C40.1124 354.25 2.857 336.88 -33.2414 334.795C-60.778 333.406 -88.0832 339.196 -114.694 347.07" stroke="#00FFB1" stroke-width="3" stroke-miterlimit="10" stroke-linecap="round"/>
<path d="M-114 404.507C-82.9924 399.412 -50.365 397.791 -25.1424 415.392C1.4686 433.689 11.4188 467.734 19.7492 499C41.038 580.06 62.3268 660.888 83.6156 741.948C100.971 808.186 120.177 877.666 167.382 927.46C210.886 973.316 275.909 999.95 305.297 1056C326.354 1096.06 325.197 1144.7 342.552 1186.62C356.205 1219.97 380.733 1247.53 401.096 1277.18C408.964 1288.76 416.369 1301.26 422.154 1314.23" stroke="#00FFB1" stroke-width="1.5" stroke-miterlimit="10" stroke-linecap="round"/>
<path d="M-114 492.283C-90.3972 501.779 -71.191 522.854 -59.8524 546.014C-44.8114 576.586 -40.6462 611.094 -34.8612 644.676C-18.2004 742.643 14.8898 841.304 82.9214 913.564C124.573 957.568 177.795 990.223 215.051 1038.16C275.678 1115.98 284.239 1220.43 317.33 1313.77" stroke="#00FFB1" stroke-width="1.5" stroke-miterlimit="10" stroke-linecap="round"/>
<path d="M-114 193.751C-63.5548 186.571 -12.184 181.939 38.2612 189.119C92.4088 196.761 146.556 232.891 175.713 279.211C197.002 313.256 203.018 354.249 216.208 392.232C229.166 430.214 253.926 468.891 293.033 478.155C324.503 485.567 356.436 472.365 387.444 463.333C454.318 443.879 528.135 445.037 592.001 472.597C655.868 500.389 708.627 556.205 726.213 623.6C740.329 676.868 732.693 733.147 721.354 786.878C710.015 840.61 694.974 894.341 694.28 949.461C693.586 1004.35 709.553 1062.71 750.51 1099.31C786.377 1131.5 842.839 1151.19 849.318 1198.89C853.252 1228.54 831.732 1258.88 803.038 1266.75C774.345 1274.86 741.486 1261.66 724.362 1236.88C714.643 1222.75 711.867 1207.7 710.247 1191.02C708.627 1175.27 703.768 1159.75 698.908 1144.24C687.338 1108.11 671.603 1073.6 651.703 1041.41C626.711 1000.88 628.794 948.535 634.81 901.289C640.827 854.042 654.479 807.954 661.19 760.939C668.132 713.693 667.901 663.899 647.769 620.589C624.166 569.869 574.646 533.971 520.73 518.685C466.814 503.4 409.195 506.874 354.585 519.612C324.966 526.56 294.884 532.35 266.653 521.928C247.215 514.748 230.786 500.621 218.059 484.177C205.332 467.734 196.076 448.974 187.746 429.751C173.399 396.632 161.366 362.587 145.399 330.163C129.664 297.739 109.532 266.705 81.7644 243.545C30.3936 200.699 -49.208 212.742 -114.463 233.123" stroke="#00FFB1" stroke-width="1.5" stroke-miterlimit="10" stroke-linecap="round"/>
<path d="M-114 111.765C-73.505 96.4789 -30.696 83.9725 11.8816 90.6889C50.0626 96.7105 83.847 117.786 119.251 133.072C163.217 152.063 210.654 162.485 256.009 178.002C301.363 193.519 346.486 215.29 377.725 251.651C410.815 290.328 426.319 335.027 467.277 365.367C552.663 428.593 661.884 458.47 767.403 447.353C778.741 446.195 790.311 444.574 801.418 446.89C812.526 449.206 823.401 456.617 826.178 467.734C828.955 478.85 822.939 490.662 814.377 498.537C805.815 506.179 795.171 511.043 785.22 516.601C764.857 528.181 746.114 545.551 740.792 568.48C735.932 590.018 743.568 612.021 749.353 633.096C763.006 681.732 775.039 727.82 763.932 776.92C754.213 820.46 737.321 862.148 731.304 906.384C725.288 950.62 731.536 999.487 762.312 1031.68C792.857 1063.64 841.682 1073.37 870.144 1107.18C897.912 1140.07 899.069 1189.17 884.26 1229.7C872.921 1260.73 853.715 1287.83 832.889 1313.77" stroke="#00FFB1" stroke-width="1.5" stroke-miterlimit="10" stroke-linecap="round"/>
<path d="M323.809 250.956C361.064 282.917 389.758 323.447 413.592 366.293C418.451 374.862 423.079 383.894 424.931 393.622C426.782 403.349 425.162 414.234 418.683 421.645C411.741 429.52 400.402 432.299 389.989 434.383C366.618 439.247 343.015 444.111 319.412 443.184C295.578 442.258 271.281 434.846 254.389 417.94C227.084 390.842 225.464 348.228 213.662 311.635C207.415 291.949 197.696 273.653 191.217 253.967C187.051 241.229 177.564 212.511 186.357 200.004C194.688 188.193 214.819 195.835 226.158 198.846C262.256 207.879 295.578 226.87 323.809 250.956Z" stroke="#00FFB1" stroke-width="1.5" stroke-miterlimit="10" stroke-linecap="round"/>
<path d="M381.89 372.083C386.981 381.81 391.378 394.085 384.898 402.886C380.039 409.602 370.783 410.992 362.453 411.687C345.098 412.845 327.743 412.15 310.619 409.834C296.735 407.981 282.62 404.507 271.281 396.169C250.224 380.652 244.207 352.165 239.811 326.458C236.108 305.382 234.026 281.759 255.314 269.716C273.595 259.525 287.248 270.411 302.289 281.527C335.379 305.151 362.684 336.185 381.89 372.083Z" stroke="#00FFB1" stroke-width="1.5" stroke-miterlimit="10" stroke-linecap="round"/>
<path d="M336.073 362.587C338.156 366.061 340.007 369.767 340.701 373.704C341.164 377.641 340.238 382.273 337.461 385.052C333.759 388.526 327.974 388.758 322.883 388.063C311.082 386.673 299.28 383.199 288.867 377.409C284.471 375.093 280.074 372.083 277.76 367.451C274.289 360.271 277.529 351.702 281.694 344.985C299.975 315.572 323.809 342.206 336.073 362.587Z" stroke="#00FFB1" stroke-width="1.5" stroke-miterlimit="10" stroke-linecap="round"/>
<path d="M-114 67.9922C-73.2736 55.7174 -29.7704 53.1698 12.113 60.3494C79.6818 71.9294 140.309 108.522 206.026 128.671C227.315 135.156 248.141 140.946 270.124 145.347C316.404 154.842 359.676 179.392 391.378 214.363C417.757 243.545 436.269 279.211 463.112 307.93C501.987 349.849 550.812 376.947 606.58 389.685C660.727 402.191 715.569 412.613 770.874 417.477C803.501 420.256 836.36 421.414 868.987 425.119C890.97 427.667 933.779 430.215 931.234 462.639C929.845 478.851 917.35 491.589 904.623 501.547C873.384 525.865 834.74 542.772 812.988 575.891C790.543 609.936 791.005 654.172 796.559 694.702C802.113 735.232 811.6 776.225 804.427 816.523C795.402 867.707 759.998 917.964 776.659 967.063C791.468 1011.3 840.988 1031.68 877.318 1060.86C920.358 1095.6 947.895 1149.1 951.134 1204.22C953.448 1241.97 944.424 1280.42 926.143 1313.31" stroke="#00FFB1" stroke-width="1.5" stroke-miterlimit="10" stroke-linecap="round"/>
<path d="M-114 31.8626C-77.9016 15.6506 -36.9438 12.4082 2.3942 16.8086C44.509 21.4406 85.4668 34.6418 125.499 48.5378C151.416 57.5702 177.101 67.0658 202.555 77.0246C284.471 109.217 364.535 148.126 436.501 199.309C451.773 210.195 458.946 230.112 469.822 245.398C481.161 261.147 493.656 275.969 507.309 289.633C534.614 316.731 566.547 339.196 601.257 355.176C670.215 387.137 746.808 393.853 821.55 400.107C859.5 403.349 897.449 406.128 935.168 412.15C963.167 416.55 1008.52 416.782 1002.51 458.238C1000.42 472.597 989.315 483.714 978.902 493.441C949.052 521.002 918.044 548.331 884.028 570.796C856.954 588.629 846.31 623.601 846.541 656.025C846.541 688.449 855.566 720.178 858.343 752.37C862.277 795.679 855.566 839.915 838.905 880.213C829.881 901.521 817.848 923.754 821.55 946.683C825.947 974.938 852.095 993.929 875.929 1009.68C917.581 1037.01 960.39 1064.8 990.241 1104.87C1019.86 1144.93 1034.21 1200.28 1012.92 1245.45C1005.05 1261.89 993.018 1276.02 983.53 1291.77C979.365 1298.71 975.663 1306.36 973.117 1314.23" stroke="#00FFB1" stroke-width="1.5" stroke-miterlimit="10" stroke-linecap="round"/>
<path d="M-114 -31.8275C-56.3814 -14.4575 15.3526 -54.7559 74.8224 -32.9855C101.896 -23.0267 122.722 -1.48784 146.556 14.7242C196.77 49.001 259.017 59.1914 316.635 78.6458C390.221 103.427 458.021 144.883 514.02 198.846C559.374 242.619 598.249 295.655 654.479 323.91C722.28 357.955 802.807 350.312 876.855 366.293C934.473 378.799 988.39 405.665 1046.47 415.161C1084.42 421.414 1126.3 418.403 1160.78 400.338C1198.04 381.115 1224.88 337.806 1242.47 300.982C1253.57 277.822 1260.52 252.346 1259.13 226.638C1257.51 195.604 1243.39 165.959 1223.03 142.567C1202.67 119.176 1176.06 101.574 1147.82 88.6045C1129.31 80.0353 1107.33 70.7714 1102.01 50.8538C1099 39.5054 1102.47 27.4622 1106.17 16.1138C1113.58 -6.81462 1122.14 -30.2063 1138.34 -48.2711C1154.53 -66.1043 1180.45 -77.221 1203.36 -69.3466C1227.66 -61.009 1240.62 -34.8382 1249.41 -10.5202C1262.14 24.683 1298.47 50.8538 1299.39 87.9098C1299.85 102.501 1293.61 116.165 1289.21 130.061C1277.41 167.58 1279.95 208.11 1279.49 247.482C1279.03 286.854 1275.33 328.31 1253.57 361.198C1233.21 391.769 1199.89 410.992 1166.34 425.814C1132.78 440.637 1097.38 452.216 1066.6 472.366C1020.79 502.705 990.935 547.636 955.068 589.092C940.027 606.462 925.217 624.527 918.738 646.529C906.705 687.754 927.3 731.758 921.515 774.141C918.275 799.153 906.011 821.85 894.441 844.084C882.871 866.317 871.07 889.477 869.219 914.722C867.136 939.734 876.855 967.526 898.838 979.801C936.093 1000.41 968.721 1027.28 1000.65 1055.53C1030.5 1081.94 1059.43 1113.9 1064.98 1153.5C1069.38 1185.23 1058.04 1216.73 1045.31 1245.91C1035.6 1267.91 1024.95 1290.15 1018.93 1313.31" stroke="#00FFB1" stroke-width="3" stroke-miterlimit="10" stroke-linecap="round"/>
<path d="M1148.52 10.0921C1142.73 20.7457 1140.65 34.4101 1146.67 45.0637C1152.45 55.7173 1164.72 61.2757 1175.36 66.8341C1190.17 74.7085 1204.05 84.2041 1216.78 95.3209C1221.18 99.2581 1225.34 103.195 1230.67 105.743C1235.99 108.29 1242.24 109.217 1247.33 106.669C1252.88 103.89 1255.66 97.4053 1256.12 91.3837C1256.35 85.1305 1254.5 79.1089 1252.19 73.5505C1246.86 59.6545 1240.15 46.2217 1233.21 33.0205C1225.81 18.6613 1218.4 4.07052 1211 -10.2887C1207.99 -15.8471 1204.75 -22.1003 1198.96 -24.4163C1180.45 -32.5223 1155.92 -3.34071 1148.52 10.0921Z" stroke="#00FFB1" stroke-width="1.5" stroke-miterlimit="10" stroke-linecap="round"/>
<path d="M2200 209.731C2111.14 219.922 2028.3 258.831 1947.31 297.508C1881.59 328.774 1811.94 363.514 1774.92 426.509C1749.23 470.281 1742.75 522.16 1732.57 571.722C1722.39 621.516 1706.42 673.163 1668.01 706.282C1618.49 748.665 1546.99 748.665 1481.97 750.749C1446.56 751.907 1409.77 754.918 1379.22 773.214C1325.54 805.638 1308.88 874.192 1296.85 935.797C1288.98 976.559 1283.19 1025.19 1313.28 1053.68C1345.21 1084.02 1396.58 1072.67 1438.46 1059.47C1487.52 1043.95 1538.43 1027.28 1574.53 990.687C1610.39 954.094 1626.13 902.91 1645.57 855.664C1676.34 780.625 1718.69 710.914 1752.24 637.265C1783.02 569.406 1806.62 497.147 1852.9 438.784C1896.87 383.2 1959.11 344.059 2024.83 317.425C2081.06 294.497 2140.3 279.906 2199.77 266.705" stroke="#00FFB1" stroke-width="3" stroke-miterlimit="10" stroke-linecap="round"/>
<path d="M1918.15 1314C1908.2 1257.95 1893.63 1200.52 1851.74 1163.23C1822.12 1137.06 1783.02 1124.78 1749.93 1103.48C1713.37 1079.85 1683.05 1044.42 1640.94 1033.53C1602.99 1023.57 1562.72 1035.62 1527.32 1052.52C1491.92 1069.43 1458.83 1091.66 1421.34 1103.48C1384.08 1115.52 1339.89 1115.52 1309.11 1091.2C1281.11 1068.97 1270 1031.68 1245.47 1005.97C1228.81 988.602 1205.67 975.633 1198.96 952.473C1192.48 930.008 1204.98 905.69 1220.02 889.478C1234.14 874.192 1241.54 866.318 1248.25 845.474C1262.37 801.701 1282.04 756.771 1319.52 728.284C1364.65 694.007 1425.04 690.765 1481.5 687.059C1537.96 683.585 1599.05 676.406 1640.24 637.728C1721.7 560.837 1678.66 408.213 1758.95 329.932C1793.66 296.118 1843.41 284.77 1888.07 266.474C1941.76 244.472 1990.35 211.584 2043.57 188.424C2092.63 166.886 2148.86 154.379 2200 168.738" stroke="#00FFB1" stroke-width="1.5" stroke-miterlimit="10" stroke-linecap="round"/>
<path d="M1975.08 1314C1976.7 1253.55 1952.17 1192.41 1907.97 1150.95C1850.12 1096.76 1763.58 1076.38 1716.37 1012.69C1690.69 977.949 1679.81 932.323 1686.99 889.709C1701.33 806.333 1776.77 747.738 1808.7 669.457C1828.37 621.053 1830.69 566.395 1853.13 519.149C1884.37 453.838 1949.86 411.687 2016.96 383.895C2077.13 359.113 2140.99 342.901 2200 315.804" stroke="#00FFB1" stroke-width="1.5" stroke-miterlimit="10" stroke-linecap="round"/>
<path d="M-114 -83.9375C-42.0346 -98.9915 34.3274 -94.1279 103.747 -69.3467C163.68 -48.0395 217.596 -12.8363 276.835 10.5553C364.304 44.8321 466.814 55.9489 530.912 124.734C578.117 175.454 596.861 251.188 653.785 290.791C708.858 329.005 781.981 321.594 848.161 331.553C912.028 341.28 972.423 368.377 1036.52 377.41C1100.39 386.442 1174.67 372.083 1210.3 318.12C1237.14 277.59 1234.37 219.922 1203.82 182.171C1179.53 152.063 1142.04 136.314 1111.49 112.691C1074.93 84.6672 1047.63 43.4425 1041.15 -2.1827C1034.67 -47.8079 1050.87 -97.1387 1086.5 -126.32C1122.14 -155.27 1177.21 -160.365 1214.93 -134.195C1252.88 -108.024 1267.23 -59.6195 1290.14 -19.3211C1307.72 11.7132 1340.12 40.6632 1372.98 43.2108C1391.26 44.6004 1400.74 66.1393 1389.64 80.7301C1384.32 87.9097 1377.6 95.0892 1370.43 103.427C1329.47 152.294 1311.89 219.69 1323.69 282.454C1328.78 309.782 1339.42 337.343 1333.18 364.672C1325.54 398.254 1294.53 420.95 1264.45 437.626C1208.45 468.892 1147.59 490.662 1092.75 524.013C1037.91 557.131 987.927 605.073 971.729 667.141C957.845 720.409 970.109 778.773 950.671 830.419C940.953 856.359 923.135 879.982 921.515 907.774C919.664 943.208 945.349 974.475 974.043 995.319C1002.74 1016.16 1036.06 1030.75 1061.97 1054.84C1102.47 1092.82 1119.82 1153.5 1105.71 1207.23C1096.22 1243.36 1073.54 1278.57 1068.92 1314.23" stroke="#00FFB1" stroke-width="1.5" stroke-miterlimit="10" stroke-linecap="round"/>
<path d="M1793.2 1314C1756.64 1261.89 1702.49 1221.82 1641.86 1202.37C1626.82 1197.51 1610.86 1193.8 1595.12 1195.88C1573.6 1198.66 1555.09 1211.86 1536.81 1223.21C1487.75 1253.78 1431.98 1275.55 1374.13 1278.8C1316.28 1282.04 1256.35 1265.6 1212.62 1227.61C1137.41 1162.3 1120.52 1046.5 1042.54 984.665C1014.54 962.431 977.051 944.366 969.646 909.395C962.473 875.813 987.233 844.778 998.34 812.123C1013.61 767.192 1002.5 717.398 1013.15 671.31C1024.95 619.895 1063.36 577.744 1107.33 548.794C1151.3 519.844 1201.51 501.779 1250.33 481.861C1291.29 465.186 1334.8 444.11 1354.93 404.507C1370.43 374.167 1368.81 338.964 1361.64 306.54C1357.94 289.633 1352.84 272.958 1347.29 256.515C1340.58 237.06 1344.28 219.69 1351.69 199.773C1369.51 152.989 1399.82 111.765 1439.16 80.7301C1455.12 68.2237 1471.55 54.3277 1487.29 41.5897C1491.92 37.8841 1497.01 33.4837 1495.16 26.0725C1494.69 24.2197 1493.77 22.5985 1492.61 21.2089C1488.68 16.3453 1482.66 14.0293 1476.87 12.4081C1444.48 2.91253 1409.07 1.75451 1380.15 -15.6155C1347.29 -35.3015 1329.7 -71.8942 1308.88 -104.087C1293.37 -128.405 1274.86 -151.565 1251.03 -168.008C1237.38 -177.272 1222.1 -184.452 1205.91 -187.694C1194.34 -190.01 1167.72 -183.757 1161.94 -195.569C1159.39 -200.664 1159.86 -206.685 1160.78 -212.475C1170.04 -264.122 1187.39 -313.221 1197.58 -363.479C1206.14 -406.788 1198.04 -451.718 1175.59 -489.469C1162.17 -512.166 1149.68 -535.094 1145.97 -563.581C1144.35 -575.393 1146.67 -587.436 1153.15 -597.395C1173.05 -627.503 1211.92 -612.449 1226.04 -586.741C1237.61 -565.665 1237.38 -540.421 1236.68 -516.335C1234.37 -422.305 1247.56 -323.875 1209.84 -237.488C1205.67 -228.224 1201.28 -216.876 1210.07 -208.77C1211.69 -207.149 1213.77 -205.991 1215.86 -205.296C1225.57 -201.59 1235.29 -204.369 1244.78 -204.138C1263.29 -203.675 1280.18 -192.326 1291.99 -177.735C1303.56 -163.145 1310.73 -145.775 1317.9 -128.636C1346.6 -58.4615 1426.66 -20.479 1500.48 -3.34065C1574.29 13.7978 1652.28 6.1549 1725.17 -14.6891C1798.06 -35.5331 1866.55 -69.3466 1933.43 -105.245C1943.84 -110.803 1954.95 -116.593 1966.75 -116.825C1983.87 -117.056 1998.45 -105.476 2012.33 -95.7491C2066.71 -57.5351 2133.36 -37.1542 2199.77 -38.0806" stroke="#00FFB1" stroke-width="1.5" stroke-miterlimit="10" stroke-linecap="round"/>
<path d="M2200 122.186C2156.03 107.132 2106.28 111.533 2060.93 124.502C2007.71 139.788 1958.19 166.19 1906.12 185.645C1855.21 204.636 1800.84 217.837 1757.33 250.261C1700.87 292.644 1671.25 361.892 1655.75 430.909C1645.57 475.84 1640.47 522.159 1621.04 563.847C1602.76 603.219 1570.82 635.18 1527.78 644.213C1477.8 654.866 1428.05 656.256 1377.14 661.119C1327.16 665.983 1274.4 680.574 1242.93 719.946C1217.71 751.443 1210.77 793.595 1199.2 832.272C1189.71 864.696 1176.29 895.962 1163.1 926.996C1158.24 938.576 1152.92 950.619 1142.96 958.031C1131.63 966.368 1116.82 967.295 1103.16 971.232C1094.6 973.548 1086.27 977.253 1077.48 978.18C1068.69 979.106 1062.9 973.085 1055.73 967.989C1031.66 951.083 1017.78 920.28 1021.25 891.098C1024.95 859.832 1046.01 833.43 1053.88 803.09C1065.68 757.234 1046.47 707.671 1057.58 661.583C1069.38 612.715 1112.88 577.743 1158.7 557.363C1204.52 536.982 1254.5 527.718 1300.78 508.263C1347.06 488.809 1391.49 455.922 1406.07 407.749C1423.88 348.46 1391.49 284.77 1400.98 223.627C1413.47 143.725 1493.3 91.3835 1571.05 69.3815C1648.81 47.1479 1732.57 43.9055 1805.93 9.86028C1853.59 -12.3733 1896.63 -47.3449 1948.7 -54.2929C2033.85 -65.8729 2115.08 1.0595 2199.31 -3.8041" stroke="#00FFB1" stroke-width="1.5" stroke-miterlimit="10" stroke-linecap="round"/>
<path d="M2200 87.6781C2162.74 75.6349 2120.86 78.1825 2082.45 87.6781C2035.94 99.2581 1992.2 120.334 1947.31 137.241C1890.62 158.316 1831.61 172.907 1776.54 198.151C1721.7 223.396 1669.86 261.841 1644.18 316.499C1621.27 365.366 1621.5 421.414 1613.63 475.145C1606 528.644 1585.86 586.081 1538.89 612.484C1496.31 636.338 1444.25 628.232 1395.65 631.012C1314.2 635.412 1244.09 672.236 1186.93 730.6C1178.14 739.4 1169.81 749.128 1158.47 754.686C1130.01 768.351 1093.45 746.348 1085.11 716.009C1076.78 685.669 1091.36 652.551 1114.04 630.78C1136.95 609.01 1166.8 596.735 1196.42 585.85C1256.58 563.848 1319.29 546.015 1371.12 508.495C1405.37 483.483 1434.3 448.743 1443.32 407.286C1455.82 348.46 1426.43 286.159 1440.31 227.565C1451.88 179.16 1492.15 141.641 1537.5 120.797C1582.62 99.9529 1632.84 93.0049 1682.13 86.0569C1731.41 79.1089 1781.63 71.6977 1826.29 49.6957C1863.31 31.3993 1895.48 3.83891 1933.66 -12.1415C1954.48 -20.7107 1977.62 -25.1111 2000.07 -22.5635C2022.75 -19.7843 2032.93 -6.81469 2051.67 1.75451C2074.81 12.4081 2106.75 14.4925 2131.51 17.2717C2154.18 19.8193 2176.86 21.2089 2199.77 20.7457" stroke="#00FFB1" stroke-width="1.5" stroke-miterlimit="10" stroke-linecap="round"/>
<path d="M2029.69 37.4209C2032 54.5593 2021.13 71.4662 2007.01 81.1934C1992.67 90.9206 1975.54 95.3209 1958.88 99.9529C1898.49 116.397 1839.71 137.935 1783.25 164.801C1727.02 191.435 1671.25 224.322 1634.23 274.348C1598.36 322.752 1582.62 383.431 1577.3 443.416C1575.22 469.123 1574.76 495.062 1568.74 520.075C1562.72 545.088 1550.69 569.638 1529.63 584.692C1505.57 601.83 1474.1 603.451 1444.48 604.378C1403.52 605.767 1362.56 607.157 1321.61 608.547C1316.28 608.778 1310.73 608.778 1306.56 605.536C1299.16 599.977 1301.24 587.702 1307.95 581.449C1314.66 575.196 1323.92 573.112 1332.94 570.796C1377.37 558.521 1417.17 529.803 1442.86 491.589C1468.54 453.375 1479.88 405.665 1474.56 359.808C1469.7 319.973 1452.58 279.443 1463.45 240.766C1472.02 209.963 1497.24 186.34 1524.31 169.201C1632.14 101.111 1776.31 114.312 1885.06 47.8429C1902.88 36.9577 1919.31 24.2197 1938.29 15.4189C1963.28 3.83891 2024.14 -3.57229 2029.69 37.4209Z" stroke="#00FFB1" stroke-width="1.5" stroke-miterlimit="10" stroke-linecap="round"/>
<path d="M1715.45 136.546C1722.85 136.082 1731.41 136.546 1736.04 142.336C1742.52 150.905 1735.35 162.948 1727.71 170.591C1695.55 202.088 1651.81 219.922 1618.72 250.493C1589.34 277.822 1569.9 314.414 1557.4 352.628C1545.14 390.842 1539.35 430.909 1534.49 470.745C1532.41 488.115 1530.33 505.484 1524.08 521.928C1517.83 538.14 1506.96 553.426 1491.45 561.3C1476.64 568.711 1454.43 565.932 1448.41 550.415C1442.86 535.824 1454.43 521.002 1463.69 508.495C1492.84 469.355 1506.73 419.329 1501.87 370.925C1497.47 325.531 1471.09 264.389 1509.04 227.564C1544.44 193.519 1587.48 167.58 1634.23 152.294C1660.38 143.494 1687.68 138.167 1715.45 136.546Z" stroke="#00FFB1" stroke-width="3" stroke-miterlimit="10" stroke-linecap="round"/>
<path d="M-114 -120.762C-48.2824 -115.898 21.8318 -161.06 86.8552 -141.838C119.945 -131.879 146.094 -106.866 174.093 -86.4853C244.207 -35.5333 330.751 -13.9945 411.741 16.5767C470.748 38.8103 529.986 67.7604 574.415 113.617C617.687 158.316 631.571 221.543 686.875 254.893C725.751 278.516 771.105 288.243 815.534 297.507C879.632 311.172 943.729 324.605 1007.83 338.269C1038.37 344.754 1069.61 351.239 1100.39 345.912C1131.16 340.585 1161.25 320.436 1169.11 290.328C1177.67 257.209 1157.08 222.932 1131.16 200.699C1105.25 178.465 1073.54 163.643 1047.86 140.946C1001.35 99.9527 978.671 33.252 990.704 -27.6588C1002.74 -88.1064 1044.39 -137.437 1081.41 -186.768C1118.44 -236.099 1153.38 -293.072 1148.52 -354.678C1144.58 -403.777 1115.66 -446.623 1096.68 -492.017C1077.94 -537.41 1071 -595.542 1105.02 -631.208C1142.27 -670.117 1212.15 -658.074 1248.25 -618.239C1284.35 -578.404 1293.14 -520.735 1291.29 -466.772C1289.21 -413.041 1278.33 -359.542 1281.34 -305.81C1286.43 -218.266 1331.09 -133.732 1400.74 -80.4637C1470.4 -27.1957 1563.65 -5.8885 1649.27 -23.9533C1745.76 -44.3341 1826.75 -109.645 1893.39 -182.368C1913.3 -203.906 1942.68 -228.456 1968.14 -213.634C1979.94 -206.686 1985.72 -193.253 1991.97 -181.21C2031.08 -106.634 2116.23 -59.8513 2199.77 -64.0201" stroke="#00FFB1" stroke-width="1.5" stroke-miterlimit="10" stroke-linecap="round"/>
<path d="M-114 -155.502C-89.9344 -162.218 -68.1828 -177.504 -49.208 -194.41C-23.9854 -216.876 -0.845406 -242.815 29.0052 -259.027C58.8558 -275.007 98.6566 -278.713 124.573 -256.943C146.556 -238.183 152.341 -206.917 166.225 -181.441C189.365 -138.827 234.951 -113.814 279.149 -93.6645C347.874 -62.1669 419.377 -36.4594 487.177 -3.10897C543.639 24.683 598.018 58.4967 642.678 103.195C684.33 144.884 704.693 193.288 759.304 222.701C804.889 247.251 856.029 259.062 906.474 270.874C948.126 280.369 990.009 290.097 1031.66 299.824C1046.24 303.066 1061.28 306.54 1076.09 303.993C1090.9 301.445 1105.48 291.486 1108.49 276.664C1113.11 254.662 1092.06 236.829 1073.54 224.091C1017.55 185.877 959.927 142.336 935.862 78.8775C917.813 30.9363 921.978 -23.4897 939.101 -71.8941C956.456 -120.299 986.076 -163.145 1018.7 -202.748C1041.38 -230.309 1066.14 -257.174 1080.26 -290.061C1094.6 -322.717 1099.92 -363.247 1077.71 -391.502C1031.89 -450.097 1017.31 -531.852 1040.22 -602.721C1063.13 -673.591 1122.6 -731.491 1194.1 -752.103C1220.02 -759.515 1252.19 -760.441 1269.08 -739.365C1276.02 -730.565 1279.03 -719.448 1281.8 -708.563C1299.39 -640.935 1317.21 -572.15 1317.9 -502.207C1318.83 -420.221 1296.85 -336.845 1315.82 -257.174C1335.26 -175.883 1398.66 -107.561 1476.87 -77.9157C1555.09 -48.2709 1645.57 -56.6086 1719.38 -95.749C1778.39 -127.015 1826.06 -176.346 1865.63 -230.077C1879.28 -248.605 1892.24 -267.828 1910.29 -281.724C1928.34 -295.62 1953.33 -303.263 1974.62 -294.693C2005.39 -282.187 2014.88 -244.436 2028.07 -214.096C2057.46 -146.701 2126.88 -99.223 2200 -93.433" stroke="#00FFB1" stroke-width="3" stroke-miterlimit="10" stroke-linecap="round"/>
<path d="M-114 -210.623C-82.9924 -230.772 -57.5384 -263.196 -32.3158 -291.451C4.7082 -332.676 61.6326 -370.89 112.078 -347.73C150.953 -329.897 165.994 -284.04 187.977 -247.447C229.86 -177.504 304.603 -134.195 379.345 -101.771C454.087 -69.3468 532.994 -43.8708 599.406 3.60722C657.488 45.2952 702.842 101.806 756.758 148.589C781.981 170.591 810.443 190.74 840.756 205.099C877.318 222.469 915.499 184.024 898.606 147.199C844.227 28.3884 858.111 -122.615 941.647 -224.519C972.654 -262.27 1013.61 -297.241 1020.55 -345.646C1028.19 -397.524 993.943 -445.234 978.902 -495.491C952.754 -582.804 990.704 -685.171 1067.3 -734.502C1120.06 -768.316 1185.54 -777.348 1239.92 -808.846C1312.35 -850.997 1356.08 -927.193 1394.96 -1002" stroke="#00FFB1" stroke-width="1.5" stroke-miterlimit="10" stroke-linecap="round"/>
<path d="M982.836 -1002C959.002 -971.197 933.779 -941.321 902.54 -918.392C866.442 -891.99 820.162 -876.01 776.427 -885.737C729.916 -896.159 694.28 -932.983 651.703 -954.29C597.324 -981.619 523.507 -979.303 483.706 -933.215C453.624 -898.475 449.459 -848.681 450.616 -802.592C451.773 -763.684 456.401 -722.922 478.153 -690.498C504.069 -651.589 549.887 -631.208 594.547 -617.544C639.207 -603.88 685.95 -594.152 725.288 -568.908C791.237 -526.525 824.79 -439.675 804.889 -363.942C792.625 -317.159 762.775 -277.324 745.42 -232.162C731.304 -195.8 725.288 -156.197 707.239 -121.457C696.363 -100.613 679.471 -81.6216 658.413 -70.7364C641.752 -62.1672 609.356 -60.7776 614.679 -33.4488C616.993 -21.4056 626.48 -12.1416 635.505 -4.03562C654.017 12.408 673.917 27.462 693.586 42.516C725.288 66.6024 756.99 90.6888 788.691 114.775C797.485 121.492 809.517 128.44 818.542 122.186C827.567 116.165 825.947 102.5 823.633 91.8468C799.567 -20.9424 829.418 -143.922 902.077 -233.32C924.755 -261.112 951.366 -286.124 968.258 -317.854C979.134 -338.234 985.381 -362.321 982.373 -385.712C979.134 -409.567 962.704 -430.874 954.837 -453.803C937.25 -504.523 931.928 -560.107 942.572 -612.912C956.225 -681.697 997.183 -745.387 1056.19 -782.675C1101.54 -811.162 1155.23 -823.668 1202.9 -847.986C1268.38 -880.642 1321.84 -935.994 1353.08 -1002" stroke="#00FFB1" stroke-width="3" stroke-miterlimit="10" stroke-linecap="round"/>
<path d="M1017.31 -1002C958.076 -926.73 886.111 -861.419 805.352 -810.004C782.212 -795.181 757.915 -781.285 737.552 -762.526C717.189 -743.766 700.528 -719.448 697.288 -692.119C692.198 -649.505 719.271 -609.901 749.122 -578.867C778.741 -547.832 813.451 -519.114 829.186 -479.279C845.847 -437.591 839.137 -389.881 824.096 -347.498C809.055 -305.116 786.377 -265.975 770.411 -224.056C757.221 -189.779 748.659 -154.112 734.312 -120.299C721.585 -90.654 703.536 -61.9356 677.851 -42.7128C668.132 -35.5332 664.661 -22.332 670.446 -11.6784V-11.4468C674.38 -4.49878 680.165 1.29121 685.95 6.84961C707.701 26.7672 732.23 43.674 758.609 56.8752C761.849 58.4964 765.32 59.1912 768.791 58.4964C777.584 56.8752 778.741 48.7692 779.204 41.8212C781.518 14.2608 780.592 -14.226 785.452 -41.0916C790.543 -68.4204 797.947 -95.5176 807.435 -121.688C826.641 -174.03 854.409 -223.361 889.582 -266.67C906.937 -287.977 926.374 -308.358 936.556 -333.602C945.349 -355.141 947.432 -381.544 940.027 -404.009C933.085 -425.084 919.895 -443.844 913.416 -466.078C898.606 -515.872 895.367 -569.371 905.317 -620.323C918.507 -688.877 955.762 -753.03 1010.14 -797.266C1059.43 -837.332 1120.06 -859.798 1177.21 -887.59C1232.29 -914.455 1287.36 -949.195 1317.9 -1002" stroke="#00FFB1" stroke-width="1.5" stroke-miterlimit="10" stroke-linecap="round"/>
</g>
<defs>
<clipPath id="clip0_23_1363">
<rect width="2314" height="2316" fill="white" transform="translate(-114 -1002)"/>
</clipPath>
</defs>
</svg>
