<svg width="127" height="114" viewBox="0 0 127 114" fill="none" xmlns="http://www.w3.org/2000/svg">
<path d="M117.573 38.9216C116.937 37.5977 116.182 36.2738 115.532 34.8704C115.334 34.46 115.943 34.1688 115.002 34.4865C115.625 34.4865 114.525 32.1697 114.287 32.9243C114.486 32.1961 113.982 31.6004 113.677 30.9384C113.677 30.8457 113.359 31.1238 113.28 30.9384C113.346 30.8479 113.388 30.742 113.402 30.6309C113.416 30.5198 113.401 30.4069 113.359 30.3029C112.935 29.3894 112.803 29.9587 112.71 29.7999C112.618 29.641 112.962 29.4424 112.856 29.257C112.591 28.7407 111.955 28.1052 111.849 27.43L111.571 27.8669C111.131 26.6901 110.529 25.5805 109.782 24.5704C109.676 24.4247 109.464 24.5704 109.438 24.5704C107.994 22.558 106.576 20.1088 105.119 18.3082C105.119 18.3082 104.893 18.4671 104.867 18.4274C96.2551 7.83608 86.1461 2.5404 72.5527 0.461849C56.9852 -1.90796 42.9413 5.0161 33.932 17.2359C31.8255 20.0955 31.9712 21.671 30.8185 24.769C27.4533 33.8378 24.459 40.7751 22.5247 50.2676C22.2973 51.1639 22.0231 52.0478 21.7033 52.9154C21.0673 53.3391 9.55398 48.2288 7.88461 47.6198C5.80453 46.9313 2.05506 45.8325 0.412186 47.7522C0.345947 47.8448 0.597672 48.0169 0.412186 48.3876C0.412186 48.4803 -0.515236 47.9243 0.412186 49.7115C1.19388 51.2076 5.57928 52.4786 5.71177 52.8757C5.56603 55.2191 5.71177 57.5227 5.71177 59.866C5.77802 74.2702 6.24174 88.9922 7.12942 103.714C7.22216 105.157 7.02341 108.599 7.2884 110.016C7.89552 111.288 8.80527 112.393 9.93819 113.233C10.0839 113.233 12.7072 113.485 12.8795 113.458C13.0517 113.432 16.8541 111.777 16.9866 111.631C17.1191 111.486 16.9866 111.194 17.0926 111.115C18.9611 109.36 20.6275 107.401 22.061 105.276C22.2729 104.998 22.2199 104.919 22.3922 104.667C24.9095 101.225 26.8968 98.0478 29.0167 94.6718C29.0167 94.6718 29.2817 94.8174 29.2949 94.8042C29.3082 94.7909 29.3744 93.9172 29.4406 93.798C29.5069 93.6789 29.6791 93.9569 29.7056 93.9172C30.093 93.4425 30.3037 92.8483 30.3018 92.2358L30.5801 92.6594C30.3813 91.6532 31.163 91.64 31.5605 91.0972C31.7267 90.8631 31.7934 90.5728 31.7459 90.2896C32.5674 89.1908 33.7333 87.8668 34.6342 86.7018C34.6342 86.7018 35.1509 86.7945 35.4027 86.4635C35.9724 85.7353 36.5686 84.0275 37.0323 83.3655C37.0323 83.3655 37.3768 83.5244 37.39 83.5112C37.4033 83.4979 37.231 82.505 37.7345 83.2199L38.4896 81.4856C39.7609 79.8904 40.9461 78.2288 42.0404 76.5077C42.0404 76.5077 42.2789 76.6533 42.3054 76.64C43.6302 74.9057 45.2864 71.8077 47.1147 70.4971C47.6182 70.1264 50.1355 69.3188 49.526 68.8025C48.9166 68.2861 47.8302 68.2332 46.6113 67.3064C46.492 67.2137 45.7766 67.1078 45.7501 67.0681C45.1406 66.0619 48.9166 65.7442 49.0226 65.4794C49.3008 64.9101 48.1879 64.8042 48.0422 64.6851C44.0675 61.5209 39.2846 60.8325 34.7932 58.8334C34.0163 58.4964 33.2676 58.098 32.5541 57.6418C31.9314 56.9137 32.9914 54.8086 32.7661 53.776L33.0576 54.0672C33.0366 52.9969 33.0897 51.9264 33.2166 50.8634C34.5415 42.7345 38.9666 31.7592 42.3716 24.16C44.5974 19.2217 54.0704 9.35857 59.0653 6.94904C76.3817 -1.5108 95.3276 17.8846 102.88 31.7328C109.623 44.0849 116.579 63.904 115.307 78.0699C115.241 78.8642 114.406 81.8563 114.486 82.227C115.007 83.0714 115.601 83.8688 116.261 84.61C117.586 85.2356 119.052 85.5049 120.514 85.3911C121.801 85.2452 123.079 85.0286 124.343 84.7424C124.316 83.8573 124.364 82.9714 124.489 82.0946L124.767 82.174L125.058 79.1687C125.297 79.1687 125.125 79.4732 125.337 79.46C125.337 79.1422 125.217 78.4935 125.628 78.3214C125.363 78.8377 125.919 79.407 125.337 79.46C125.293 80.4581 125.101 81.4442 124.767 82.3859C124.939 82.6242 125.085 82.3858 125.164 82.2137C126.264 80.1219 126.37 73.4361 126.198 71.0266C126.268 71.9786 126.268 72.9343 126.198 73.8863C125.93 72.0397 125.903 70.1661 126.118 68.3126C126.087 69.2198 126.136 70.128 126.264 71.0266C126.326 69.4937 126.229 67.9585 125.972 66.4459C126.023 66.9716 126.001 67.5018 125.906 68.0213C125.601 67.5315 125.906 66.9092 125.84 66.4459C125.653 66.0292 125.554 65.5786 125.549 65.122C125.628 64.8969 125.827 65.3206 125.84 65.3338C125.78 64.4652 125.634 63.6048 125.403 62.7654L125.125 63.0434L124.409 59.9719L124.979 61.1899L124.687 58.4759C124.237 58.6877 124.025 58.9525 123.972 58.1847C124.78 59.1776 124.118 56.0002 123.694 57.3241C123.694 57.0858 123.694 56.8475 123.694 56.6092V55.8943C123.694 55.3779 123.495 54.8351 123.402 54.332C122.978 54.6233 123.137 54.332 123.111 53.8951L122.832 54.1864C122.673 53.8687 122.978 52.1078 122.541 52.0417C122.541 52.2005 122.647 52.7698 122.409 52.7566C122.409 52.3462 122.011 51.9622 122.541 52.0417C122.493 51.1086 122.171 50.2104 121.614 49.46L121.402 49.7513C121.402 46.5077 119.03 43.3965 118.394 40.1661C118.023 40.4971 117.97 39.663 117.679 39.0276C117.679 39.0276 117.771 39.5306 117.533 39.4644C117.294 39.3982 117.281 38.6304 117.573 38.9216ZM114.499 33.2023V33.3479L114.433 33.2817L114.499 33.2023ZM116.354 36.9225V37.0682L116.287 36.9887L116.354 36.9225ZM116.645 37.4918V37.6374H116.579L116.645 37.4918ZM116.645 38.2067V37.9287H116.791V38.2067H116.645ZM116.937 38.6436V38.3524H117.175V38.6436H116.937ZM118.076 41.2915V41.0002H118.222V41.2915H118.076ZM118.368 41.8607V41.5695H118.513V41.8607H118.368ZM118.871 42.9993V43.1449L118.792 43.0788L118.871 42.9993ZM119.229 44.1511V43.8599H119.361V44.1511H119.229ZM119.507 44.866V44.5748H119.653V44.866H119.507ZM119.798 45.7133C119.785 45.5724 119.785 45.4306 119.798 45.2897C120.05 45.1043 120.037 46.0443 119.825 45.7795L119.798 45.7133ZM119.944 45.8589C119.944 45.8589 120.236 45.859 120.222 45.9384C120.209 46.0178 120.222 46.2164 120.01 45.9384C119.798 45.6604 119.971 45.9781 120.01 45.9252L119.944 45.8589ZM120.302 46.7195L120.514 46.9314H120.448L120.302 46.799V46.7195ZM120.514 47.5801V47.2888H120.66V47.5801H120.514ZM120.805 48.295V48.0037H120.938V48.3612L120.805 48.295ZM121.084 48.8643V48.573H121.229V48.8643H121.084ZM121.733 50.5853V50.7177L121.653 50.6516L121.733 50.5853ZM121.945 51.5783V51.3003H122.091V51.5783H121.945ZM122.872 54.4379V54.5836L122.806 54.5042L122.872 54.4379ZM123.018 54.7292V54.8616H122.938L123.018 54.7292ZM123.084 55.7221V55.4441H123.23V55.7221H123.084ZM14.3501 56.8739C14.8606 56.876 15.367 56.9656 15.8472 57.1387C15.9797 57.1387 15.8472 57.5756 15.9267 57.5889C16.0062 57.6021 16.046 57.046 16.5362 57.4432C16.6137 57.4954 16.6704 57.5732 16.6962 57.6629C16.7221 57.7527 16.7155 57.8487 16.6775 57.9341C16.6395 58.0194 16.5727 58.0887 16.4887 58.1297C16.4047 58.1706 16.3089 58.1807 16.2182 58.1581C16.2182 58.1581 16.2977 57.7477 16.1387 57.7213C15.9797 57.6948 14.4031 57.9331 14.3501 57.8669C14.3432 57.5566 14.3654 57.2463 14.4163 56.9402L14.3501 56.8739ZM14.0586 57.8669C13.6479 57.8669 13.7671 57.152 13.9924 57.152C14.2176 57.152 14.0984 57.7742 14.1249 57.9331L14.0586 57.8669ZM124.025 59.1908V58.9525H124.171V59.2305L124.025 59.1908ZM125.204 63.6127L125.35 64.7513H125.164L125.019 63.6259L125.204 63.6127ZM45.4719 67.0549C45.2201 67.2005 44.8757 66.7239 45.2599 66.6312C45.6441 66.5385 45.6309 67.0681 45.6309 67.0814L45.4719 67.0549ZM125.522 68.776V68.9216V68.8422V68.776ZM125.813 74.3497V74.4953L125.734 74.4158L125.813 74.3497ZM6.05625 74.3497V74.4953L5.98998 74.4158L6.05625 74.3497ZM125.747 75.3426C125.727 75.2021 125.727 75.0595 125.747 74.9189C126.065 74.6939 126.039 75.6339 125.88 75.3691L125.747 75.3426ZM125.747 76.4944C125.813 76.2429 125.575 75.5412 125.88 75.4882C125.946 75.7662 126.184 76.4414 125.88 76.5209L125.747 76.4944ZM125.601 77.2093C125.601 76.9975 125.482 76.5871 125.734 76.64C125.84 76.8783 125.999 77.2755 125.734 77.2358L125.601 77.2093ZM125.31 77.3549C125.628 76.9975 125.707 77.9242 125.376 77.9242C125.39 77.9507 125.429 77.3947 125.442 77.3814L125.31 77.3549Z" fill="#00FFB1"/>
</svg>
