<svg width="159" height="78" viewBox="0 0 159 78" fill="none" xmlns="http://www.w3.org/2000/svg">
<path d="M17.5274 42.155C17.1505 42.3275 16.7588 42.4655 16.3571 42.5676L16.839 42.1688C16.3846 42.2788 15.0766 42.3613 15.889 42.8427C14.7462 42.4989 15.4208 43.0627 14.6498 43.1177L14.7324 42.8564L13.6998 43.2552L14.099 43.5303L12.3229 43.6679L12.5983 43.9429C12.0751 43.9429 11.2214 43.7091 11.4968 44.4793C11.0562 43.8879 9.81701 44.9606 9.23873 45.1669L9.44526 45.4419C8.27627 45.7404 7.16767 46.2382 6.16833 46.9135C4.12353 48.6281 2.47878 50.7685 1.34932 53.1848C1.01888 53.8587 1.62469 54.3951 0.536976 54.2163C1.84499 53.9275 -0.922495 57.682 0.536976 56.8156C0.260676 58.4632 0.0813762 60.1256 0 61.7942C0 61.9454 0.550745 64.3522 0.605819 64.4759C0.867422 65.1223 1.666 66.3188 2.46458 66.1263L2.05152 66.3876C4.66756 66.1676 6.99445 67.3916 9.41772 68.0104C13.3693 69.0007 17.6789 70.2384 21.8095 70.8711C24.5473 71.2406 27.308 71.4152 30.0706 71.3936C30.6902 71.3936 31.296 71.6275 31.9294 71.6L31.7917 71.8613H33.2925L32.8794 72.1363C33.5265 72.1363 33.5403 71.6687 34.2563 71.9988C34.2563 72.2738 33.857 72.0951 33.8432 72.1363C33.7193 72.4939 40.4934 72.6589 41.113 72.6864L40.0115 72.4114C42.7653 72.7139 45.519 73.0028 48.3691 73.2366L47.6944 73.5116H49.6083L49.4706 73.7867C51.4946 73.4979 53.2707 73.993 55.3635 73.7867L54.5512 74.048L63.2529 74.3368L63.0464 74.0617C64.974 74.3093 66.9705 73.9654 68.8017 74.1855L67.4248 74.323C69.1734 74.4468 70.9633 74.4743 72.6982 74.5981C75.0251 74.7631 77.4346 75.0657 79.8303 75.0244C80.5187 75.0244 81.8405 74.378 82.5014 75.0244L81.6753 75.162L86.6733 75.2995L86.0675 75.0244C86.8248 75.0244 86.9349 74.8731 87.3617 75.437L87.1552 75.162C89.9089 74.9282 92.1119 75.7808 94.9758 75.8496H92.6627C94.3628 76.0444 96.0733 76.1363 97.7846 76.1246C105.192 76.4547 114.307 77.0186 121.935 76.9498C122.293 76.9498 122.637 76.661 123.16 76.6473C123.449 76.6473 123.353 76.9361 123.367 76.9361C123.614 76.9361 123.435 76.661 123.573 76.661C124.289 76.661 125.336 77.1974 126.175 76.9361L125.556 76.6748C127.332 77.1836 129.177 76.7435 130.967 76.7986C131.779 76.7986 132.729 77.0736 133.459 77.1011C133.9 77.1011 133.652 76.7986 134.12 76.7986C134.12 76.7986 134.12 77.0874 134.395 77.0874C135.499 77.1586 136.606 77.1125 137.7 76.9498L137.617 77.2111C138.285 77.1954 138.951 77.145 139.614 77.0599C139.916 77.0599 139.614 77.3624 140.027 77.3487C140.137 77.3487 140.027 77.0599 140.288 77.0599C140.892 77.1023 141.491 77.1989 142.078 77.3487V77.0736C143.207 77.665 144.061 76.5372 144.515 76.3997C147.173 75.6158 151.097 76.3035 153.506 75.8083C153.809 75.8083 154.966 74.9557 155.585 75.0382C155.916 73.5666 156.755 73.6629 157.086 72.1363C157.086 72.1363 157.416 72.0263 157.416 71.9988C157.416 71.9713 157.017 71.3111 157.031 71.2011C157.031 70.8573 158.311 70.9673 158.256 70.7198C158.201 70.4722 157.664 70.2659 157.595 70.0046C157.527 69.7433 157.595 66.9377 157.43 66.8139C157.265 66.6902 157.113 67.1853 156.893 67.089C156.4 66.6411 155.881 66.2232 155.337 65.8375C145.231 60.859 112.049 62.8531 99.0926 62.4405C89.0553 62.1242 79.0731 61.244 69.077 60.6664C56.107 59.9237 43.1232 59.3737 30.2083 58.1909L30.759 57.9296C30.6237 58.0209 30.4598 58.06 30.2978 58.0398C30.1357 58.0196 29.9865 57.9413 29.8779 57.8195C28.3495 57.6133 19.6478 56.4443 19.1108 55.6741C18.7804 55.2203 19.5789 55.3853 19.6616 55.3165C19.7442 55.2477 19.042 55.069 19.2485 54.7802C19.634 54.2438 23.1037 53.7349 24.5219 53.006C24.99 53.5286 25.3755 52.4559 26.1053 52.8548L25.9676 52.5935C26.7473 52.4049 27.5473 52.3125 28.3495 52.3184C28.5148 52.3184 28.3495 51.9333 28.4322 51.9058C28.7075 51.6858 28.9967 52.9923 28.9829 51.7683L38.1666 50.1179L38.0289 49.8567L42.2696 49.169L41.5949 48.8939L42.8203 49.0315L50.6409 47.2573L55.9831 46.9823L55.4324 46.5697C57.4564 46.2671 59.5629 45.9508 61.5319 45.7445C65.6764 45.3286 69.8411 45.1449 74.0062 45.1944C74.1164 45.1944 74.0062 45.4695 74.1577 45.4695C74.3091 45.4695 74.254 45.1806 74.557 45.1806H76.9527C77.3107 45.1806 77.2831 45.5933 77.3107 45.5933C77.3382 45.5933 77.7237 45.1944 78.0679 45.1944H81.8956C84.3914 45.1176 86.8895 45.2141 89.372 45.4832L89.1654 45.7583H90.0466L89.5097 45.4832H93.7504L93.475 45.2082C95.6262 45.0417 97.7896 45.134 99.9187 45.4832L99.244 45.6207C100.869 45.6207 102.452 45.2219 104.104 45.2082C104.297 45.2082 103.953 45.5657 104.38 45.6207C104.807 45.6758 106.183 45.0156 106.913 45.3457L106.362 45.6207C107.643 45.717 109.639 45.442 110.823 45.6207C110.892 45.6207 110.906 46.3222 111.856 46.0196L111.718 45.7445L115.009 45.8821H112.393L124.537 46.1571V45.8821C126.835 46.0353 129.143 45.943 131.421 45.607L131.228 45.8821C132.413 45.717 133.61 45.5245 134.795 45.3319C135.072 45.3217 135.348 45.3685 135.607 45.4695C135.731 45.4695 135.511 45.2082 135.607 45.1944C136.196 44.971 136.837 44.9232 137.452 45.0569L137.19 44.658L138.829 44.5068L138.691 44.2455C139.159 44.0392 140.77 43.7228 141.101 43.5578C141.101 43.5578 141.018 43.2965 141.018 43.2827C141.018 43.269 141.307 43.434 141.403 43.379C142.652 42.4041 143.839 41.3523 144.956 40.2296C146.475 38.0749 147.452 35.5863 147.804 32.9745C148.156 30.3628 147.874 27.7047 146.98 25.2252C144.488 18.5138 138.512 16.5472 132.33 14.2229C132.22 14.2229 132.33 13.9753 132.33 13.9478C131.327 13.7968 130.337 13.5669 129.37 13.2602L129.645 12.9851L113.467 8.47417C113.137 8.47417 112.806 8.66676 112.462 8.59799C107.05 7.3851 101.575 6.46689 96.0635 5.84741V5.57233C95.1423 5.62381 94.2182 5.56844 93.3098 5.40731C93.1032 5.40731 92.938 5.03598 92.8554 5.02223C92.7728 5.00848 92.6764 5.31101 92.58 5.29726C86.3291 4.38957 80.1883 3.35812 73.841 2.69799C73.6895 2.69799 73.7446 2.43667 73.7308 2.42291C73.4968 2.42291 73.7308 2.75297 73.4004 2.71172C64.974 1.85903 57.2498 1.51521 48.7821 1.33643C48.7821 1.33643 49.0437 0.923851 48.5894 0.923851L39.7775 1.11642C39.5434 1.21268 39.1579 1.44648 38.9651 1.11642C38.6622 1.11642 38.3731 1.36394 38.0702 1.39145L38.139 1.11642C37.0513 0.758842 36.9136 1.51522 36.7622 1.51522C36.6107 1.51522 36.8861 0.800064 36.0187 1.25391C36.5556 0.827568 36.0186 0.648819 36.6933 0.428772L35.881 0.291229L41.8428 0.0161591C39.5985 0.236206 32.1359 -0.533951 30.5663 0.882599C30.1775 1.54695 29.8767 2.25889 29.6713 3.00055C29.6025 3.12433 29.2445 3.00053 29.1619 3.27559C28.2925 5.29602 28.1419 7.55289 28.7351 9.67072L28.4735 9.60192V10.0145L28.7488 9.86323C28.6249 12.7788 30.0293 13.9891 32.783 14.0854C33.9396 14.0854 34.986 13.6178 36.0049 13.9753L35.8121 13.7003C36.4808 13.723 37.1453 13.8152 37.7948 13.9753V13.7003C39.7912 14.2504 41.9254 13.7003 43.9769 13.7003C44.1421 13.7003 44.2523 14.1954 44.8581 13.8516L44.6516 13.5765L45.5327 13.714L45.2849 13.9066C46.111 13.5078 47.185 13.9066 48.1488 13.9066C49.1126 13.9066 50.4619 13.7553 51.5909 13.769C51.6735 13.769 51.4532 14.0441 51.5909 14.0441C53.7801 14.0441 56.1759 13.7828 58.4752 13.8928C60.2789 13.9891 62.7022 14.5942 64.3544 14.7318C64.8088 14.7318 64.6849 14.443 64.7812 14.443C71.1423 14.9656 77.6824 16.2171 84.25 16.7809C84.7044 16.7809 85.0899 16.6434 85.5443 16.6434L84.9935 16.9185L86.4943 16.7809L86.095 17.056C92.4837 17.9499 98.9687 18.5963 105.151 20.4805L104.738 20.8793L107.96 21.2919L107.478 21.0168C107.794 21.0168 108.62 20.838 108.634 21.2919L108.166 21.2231L109.116 21.4294C108.896 21.0031 109.116 21.2781 109.391 21.2919L109.116 21.4294L112.82 22.3921H111.87C112.379 22.9973 113.137 22.3921 113.963 22.6947C114.252 22.8047 114.1 23.5198 115.147 23.2173L114.885 23.4786C115.668 23.4031 116.457 23.4031 117.24 23.4786C120.971 24.1525 133.858 28.2371 136.516 30.245C136.598 30.245 137.287 29.9837 137.259 30.7264C137.232 31.469 135.882 31.579 135.249 31.3865L135.387 31.6478C134.643 31.194 134.437 31.6478 133.666 31.7716C129.535 32.1429 125.239 32.0329 121.053 32.1292C120.769 32.2083 120.496 32.3239 120.241 32.473V32.1979C100.29 32.5692 80.3122 31.194 60.4028 33.2982L64.5334 33.1606L59.8108 33.8483C59.2876 33.3944 60.1688 33.8483 60.2927 33.4357C56.983 33.5975 53.6862 33.9603 50.4206 34.5222C50.6822 34.5222 51.054 34.3709 50.9713 34.7972L47.6807 35.0723C48.5894 34.9485 49.5256 34.6872 50.4344 34.5222C48.4094 34.6764 46.3956 34.9519 44.4037 35.3473L46.0422 35.4849C45.2023 35.4849 44.3349 35.8424 43.495 35.8974C41.2069 35.9396 38.9323 36.2583 36.7208 36.8464C36.9136 36.8464 37.5194 36.7364 37.547 36.9839L35.7708 37.259C35.9223 36.9427 36.3766 36.9702 36.7208 36.8464C35.6699 36.9055 34.6299 37.0902 33.6229 37.3965C33.2649 37.479 33.6229 37.094 33.499 37.1352C32.9069 37.2728 32.5627 37.7954 32.1221 37.9467C31.8515 38.0172 31.575 38.0632 31.296 38.0841C30.7459 38.3626 30.1365 38.5042 29.5199 38.4968C29.5199 38.318 29.8641 38.3042 30.0568 38.2217C29.6576 38.2217 29.2307 38.2905 28.8314 38.3592L29.3684 38.6343C28.1843 38.1529 28.2256 39.0469 27.4546 38.9781L27.6611 38.7581C27.3031 38.648 27.0828 38.9781 26.9038 39.0469C27.6611 39.0469 27.2894 39.0469 26.9038 39.1844C26.6816 39.2389 26.4563 39.2803 26.2292 39.3082C26.0502 39.3769 25.8574 39.597 25.6096 39.597C25.3618 39.597 25.7473 39.3494 25.8161 39.3082C25.2378 39.4044 24.3429 39.3082 24.99 39.8583C23.7371 39.2394 24.3842 39.9408 24.3016 39.9958C23.9857 39.9235 23.6613 39.8957 23.3378 39.9133C22.374 40.1334 22.6493 40.3946 22.5943 40.4084C22.5392 40.4221 21.4515 40.2434 21.1486 40.5459L21.4239 40.821L19.7855 40.9585C20.2811 41.6599 18.9181 41.2198 18.4086 41.3711L18.9594 41.6324C18.6875 41.5705 18.4051 41.5705 18.1332 41.6324C18.3673 41.6324 18.2847 41.6324 18.1332 41.77L17.8579 41.8937L17.5274 42.155ZM133.308 76.9086V76.771V76.8398V76.9086ZM128.296 76.771C128.089 76.771 127.718 76.8948 127.759 76.6473C127.896 76.6748 128.337 76.5235 128.296 76.771ZM144.13 76.5097V76.3722V76.441V76.5097ZM105.578 76.2347H105.316V76.0971H105.578V76.2347ZM106.886 76.2347V76.0971H106.954L106.886 76.2347ZM107.643 76.2347H107.368V76.0971H107.643V76.2347ZM112.159 76.2347H111.76C111.471 76.0559 112.366 76.0697 112.118 76.2347H112.159ZM112.779 76.2347V76.0971H112.847L112.779 76.2347ZM95.4439 75.9596V75.8221H96.5316V75.9596H95.4439ZM95.9947 75.6846H95.7193V75.547H95.9947V75.6846ZM91.6025 75.4095C91.3822 75.4095 90.8865 75.547 90.914 75.272C91.0655 75.327 91.5749 75.1344 91.5612 75.4095H91.6025ZM92.704 75.4095H92.2909C92.0018 75.2307 92.8967 75.2445 92.6627 75.4095H92.704ZM85.2965 74.9969C84.8509 75.1321 84.3831 75.1788 83.9196 75.1344C84.3266 74.9569 84.7785 74.9089 85.2138 74.9969H85.2965ZM83.7819 74.9969C83.5478 74.9282 82.8869 75.162 82.8319 74.8594C83.0246 74.9282 83.6718 74.6944 83.7406 74.9969H83.7819ZM85.8472 74.9969H85.5718V74.8594H85.8472V74.9969ZM76.2092 74.7219V74.5843H77.2969V74.7219H76.2092ZM79.4999 74.7219H79.2245V74.5843H79.4999V74.7219ZM60.926 74.048V73.9104V73.9792V74.048ZM66.3371 74.048C66.1306 74.048 65.745 74.1718 65.7864 73.9242C65.9378 73.938 66.3784 73.7867 66.3371 74.0342V74.048ZM67.3009 74.048C67.164 74.0687 67.0247 74.0687 66.8878 74.048C66.64 73.8554 67.535 73.8829 67.3147 74.0342L67.3009 74.048ZM54.8128 73.6491C54.62 73.6491 54.2345 73.7592 54.2758 73.5116C54.4823 73.5254 54.9229 73.3741 54.8128 73.6354V73.6491ZM55.4324 73.6491V73.5116L55.5012 73.5804L55.4324 73.6491ZM51.054 73.5116V73.3741H51.1228L51.054 73.5116ZM45.5465 72.824V72.6864H46.6618V72.824H45.5465ZM43.3435 72.6864C43.1095 72.6177 42.4348 72.8515 42.3935 72.5489C42.5312 72.6039 43.2334 72.3701 43.3022 72.6727L43.3435 72.6864ZM38.2767 72.4114L36.7622 72.1363C37.0238 72.2463 38.2767 71.8337 38.2354 72.3976L38.2767 72.4114ZM38.9514 72.4114C38.8186 72.4251 38.6848 72.4251 38.5521 72.4114C38.2629 72.2188 39.1579 72.2326 38.9101 72.3976L38.9514 72.4114ZM35.6607 72.2876L34.5592 72.1225V71.9575L35.6607 72.1225V72.2876ZM0.523207 56.3893V56.6643H0.399289V56.3893H0.523207ZM18.9043 55.8391H18.4912C18.2434 55.6603 19.1246 55.6878 18.9043 55.8391ZM27.7437 52.1534V52.0158V52.0846V52.1534ZM33.2512 50.9156V50.7781V50.8468V50.9156ZM41.1543 49.1415C40.9478 49.1415 40.5623 49.2515 40.6036 49.0039C40.7688 49.0314 41.1543 48.8802 41.1543 49.1415ZM47.8734 47.6287H47.598V47.5049H47.8734V47.6287ZM54.5925 46.9548C54.386 46.9548 54.0004 47.0648 54.0417 46.8172C54.207 46.8447 54.5925 46.6935 54.5512 46.9135L54.5925 46.9548ZM55.2671 46.8172H54.8679C54.5787 46.6385 55.4737 46.6522 55.2258 46.8172H55.2671ZM111.374 45.5382V45.8133H111.236V45.5382H111.374ZM115.353 45.8133V45.6758H117.129V45.8133H115.353ZM117.543 45.8133V45.6758H121.246V45.8133H117.543ZM122.059 45.8133C121.852 45.8133 121.48 45.9233 121.522 45.6758C121.646 45.7445 122.031 45.5382 121.99 45.8546L122.059 45.8133ZM9.0322 45.6758V45.5382L9.10104 45.607L9.0322 45.6758ZM126.175 45.6758C125.941 45.607 125.267 45.8408 125.212 45.5382C125.377 45.6483 126.038 45.4145 126.107 45.717L126.175 45.6758ZM126.657 45.6758V45.5382V45.607V45.6758ZM132.275 45.5382V45.4007L132.344 45.4695L132.275 45.5382ZM109.584 45.4007H109.171C108.868 45.2632 109.763 45.2769 109.515 45.4419L109.584 45.4007ZM80.9318 45.2632C80.7253 45.2632 80.1332 45.4145 80.1195 45.1257C80.2572 45.2357 80.8492 45.0156 80.863 45.3044L80.9318 45.2632ZM100.814 45.2632C100.607 45.2632 100.222 45.387 100.263 45.1257C100.359 45.1944 100.786 45.0569 100.745 45.3044L100.814 45.2632ZM11.2902 44.5755H11.0149V44.4517H11.2902V44.5755ZM13.6171 43.6266H13.3555V43.4891H13.6171V43.6266ZM20.9558 41.0273V40.8897V40.9585V41.0273ZM22.1261 40.7522H21.8508V40.6147H22.1261V40.7522ZM23.2139 40.3396H22.9523V40.2021H23.2139V40.3396ZM23.7646 40.2021H23.4892V40.0646H23.7646V40.2021ZM34.27 37.6441C33.8432 37.6441 33.4715 37.9329 33.0309 37.9191C32.8932 37.6303 34.27 37.4515 34.27 37.6441ZM35.6331 37.369H35.3715V37.2315H35.6469L35.6331 37.369ZM38.3868 36.9564C38.1665 36.9564 37.6709 37.094 37.6984 36.8327C37.8774 36.8739 38.4006 36.6814 38.4006 36.9564H38.3868ZM39.1992 36.8189C39.0064 36.8189 38.6209 36.9427 38.6622 36.6951C38.8412 36.7226 39.2267 36.5714 39.1854 36.8189H39.1992ZM40.0253 36.6814C39.8884 36.7021 39.7492 36.7021 39.6123 36.6814C39.3644 36.5026 40.2594 36.5301 40.0115 36.6814H40.0253ZM40.8514 36.4063H40.5761V36.2825H40.8514V36.4063ZM41.4022 36.145C41.7203 36.15 42.0382 36.1269 42.3522 36.0762C42.2145 36.2963 41.4572 36.4476 41.3884 36.145H41.4022ZM43.1783 36.0075H42.9029V35.8699H43.1783V36.0075ZM46.5379 35.4574V35.3198L46.6067 35.3886L46.5379 35.4574ZM47.2951 35.4574H47.0198V35.3198H47.2951V35.4574ZM52.4997 34.4947C52.2931 34.9485 51.646 34.7285 51.2743 34.7697C51.467 34.4397 52.1692 34.5359 52.4859 34.5359L52.4997 34.4947ZM53.6011 34.4947H53.3258V34.3571H53.5461L53.6011 34.4947ZM55.7904 34.0958C55.694 34.4534 54.1106 34.5772 54.1519 34.2884C54.1932 33.9996 55.5287 34.1646 55.7766 34.0958H55.7904ZM57.5803 34.0958C57.1948 33.972 56.5339 34.4121 56.3411 33.972C56.644 34.0271 57.3737 33.7658 57.5665 34.0821L57.5803 34.0958ZM57.718 33.8345C57.8174 33.7989 57.9262 33.8002 58.0248 33.838C58.1234 33.8759 58.205 33.9479 58.2549 34.0408C58.1035 34.0271 57.6767 34.0133 57.6767 33.8208L57.718 33.8345ZM58.668 33.9583H58.3926V33.8345H58.668V33.9583ZM65.1805 33.4219V33.2844L65.2494 33.3532L65.1805 33.4219ZM66.7639 33.4219C66.461 33.3257 65.5523 33.6695 65.6624 33.1469L66.7639 33.4219ZM68.1408 33.2844C67.8241 33.2019 67.0944 33.4632 66.9154 33.1469C67.2183 33.0093 67.893 32.8993 68.1133 33.2706L68.1408 33.2844ZM68.5538 33.2844H68.2785V33.1469H68.5538V33.2844ZM69.0357 33.1469V33.0094L69.1046 33.0781L69.0357 33.1469ZM69.5176 33.1469H69.2423V33.0094H69.5176V33.1469ZM70.743 33.0094C70.5365 33.0094 69.9445 33.1606 69.9307 32.8718C70.0684 32.9131 70.7017 32.7068 70.7155 32.9956L70.743 33.0094ZM71.5692 33.0094H71.2938V32.8718H71.5692V33.0094ZM72.533 32.7343C72.409 33.1194 72.1337 32.9406 71.8445 32.8718C71.8032 32.583 72.3127 32.7755 72.5054 32.7205L72.533 32.7343ZM73.3591 32.8718C73.1525 32.8718 72.767 32.9818 72.8083 32.7343C72.9873 32.748 73.3728 32.6105 73.3315 32.8581L73.3591 32.8718ZM76.3744 32.7343L74.8599 32.8718C74.9976 32.4592 76.0577 32.4592 76.3469 32.7205L76.3744 32.7343ZM74.0337 32.7343H73.7721V32.5968H74.0337V32.7343ZM77.1868 32.7343C76.994 32.7343 76.6085 32.8443 76.6498 32.5968C76.8288 32.6105 77.2005 32.473 77.1592 32.7205L77.1868 32.7343ZM77.8752 32.7343H77.5998V32.5968H77.8752V32.7343ZM78.1506 32.7343V32.5968H79.8028V32.7343H78.1506ZM80.6151 32.7343H80.3535V32.5968H80.6151V32.7343ZM100.635 32.5968C100.635 32.5968 101.034 32.4867 101.048 32.528C101.062 32.5693 100.442 32.8168 100.607 32.583L100.635 32.5968ZM101.392 32.7343V32.5968V32.6655V32.7343ZM103.237 32.7343C103.017 32.7343 102.521 32.8718 102.562 32.5968C102.714 32.638 103.223 32.4455 103.209 32.7205L103.237 32.7343ZM104.683 32.7343V32.5968V32.6655V32.7343ZM106.183 32.7343V32.5968L106.252 32.6655L106.183 32.7343ZM81.4413 32.5968V32.4592H83.2312V32.5968H81.4413ZM83.7681 32.5968H83.5065V32.4592H83.7681V32.5968ZM85.0762 32.5968V32.4592H85.145L85.0762 32.5968ZM86.9212 32.5968C86.5494 32.473 85.861 32.7068 85.5443 32.4592C85.916 32.4317 86.5907 32.2117 86.8936 32.583L86.9212 32.5968ZM90.0742 32.5968C89.1517 32.2804 87.885 32.9406 87.1965 32.3217C88.0364 32.4593 89.0966 32.2255 89.9502 32.3217C90.1017 32.3905 90.1292 32.2392 90.0466 32.583L90.0742 32.5968ZM91.5887 32.5968C91.1894 32.5968 90.5561 32.7756 90.3495 32.3217C90.7213 32.4868 91.3684 32.1566 91.5612 32.583L91.5887 32.5968ZM93.7779 32.5968L92.4011 32.3217C92.6764 32.4317 93.8192 32.0191 93.7504 32.583L93.7779 32.5968ZM95.4301 32.5968C95.2236 32.5968 94.8381 32.7068 94.8794 32.4592C95.0584 32.473 95.4439 32.3354 95.4026 32.583L95.4301 32.5968ZM95.7055 32.5968V32.4592H97.344V32.5968H95.7055ZM98.9962 32.5968H98.5832C98.3078 32.4042 99.2027 32.418 98.9824 32.583L98.9962 32.5968ZM92.1119 32.4592H91.8365V32.3217H92.0981L92.1119 32.4592ZM94.5765 32.4592H94.1634C93.9156 32.2667 94.8519 32.2805 94.5765 32.4455V32.4592ZM115.684 23.2861H115.408V23.1623H115.684V23.2861ZM115.271 23.1485C115.023 23.2585 114.224 23.1485 114.596 22.8872C114.624 22.846 115.298 22.9972 115.271 23.1348V23.1485ZM107.326 21.0994H106.913C106.555 20.783 107.684 20.783 107.326 21.0856V21.0994ZM79.4999 16.0383H79.2245V15.9008H79.4999V16.0383ZM28.8452 5.65485V5.51731L28.9141 5.58611L28.8452 5.65485Z" fill="black"/>
</svg>
