<svg width="299" height="300" viewBox="0 0 299 300" fill="none" xmlns="http://www.w3.org/2000/svg">
<g clip-path="url(#clip0_23_799)">
<path opacity="0.15" d="M301.322 126.894C301.322 121.584 297.033 117.278 291.738 117.278C290.919 117.278 290.126 117.38 289.368 117.574C289.428 117.076 289.46 116.572 289.46 116.058C289.46 109.178 283.901 103.6 277.043 103.6C275.762 103.6 274.528 103.794 273.366 104.156C273.374 103.972 273.378 103.786 273.378 103.6C273.378 96.0458 267.276 89.9238 259.747 89.9238C257.754 89.9238 255.86 90.3538 254.154 91.1238C253.207 81.2278 244.899 73.4878 234.787 73.4878C224.041 73.4878 215.328 82.2278 215.328 93.0098C215.328 93.9498 215.396 94.8738 215.523 95.7778C215.42 95.7738 215.316 95.7718 215.21 95.7718C210.032 95.7718 205.814 99.8918 205.632 105.044C203.192 102.738 199.905 101.326 196.29 101.326C188.761 101.326 182.659 107.45 182.659 115.004C182.659 117.044 183.106 118.978 183.903 120.716C182.914 120.37 181.852 120.182 180.746 120.182C175.451 120.182 171.162 124.488 171.162 129.798C171.162 133.402 173.139 136.542 176.063 138.19C175.688 139.064 175.479 140.026 175.479 141.038C175.479 145.016 178.692 148.242 182.659 148.242C184.395 148.242 185.988 147.624 187.232 146.594C188.529 150.36 192.096 153.066 196.292 153.066C198.265 153.066 200.099 152.468 201.622 151.442C201.831 157.68 206.936 162.672 213.203 162.672C217.656 162.672 221.523 160.15 223.465 156.452C223.524 156.502 223.586 156.548 223.646 156.596L226.11 161.02C228.271 164.9 229.297 169.67 229.004 174.462L226.502 215.356C226.026 223.132 223.433 230.424 219.197 235.89L218.511 236.776H259.548L258.862 235.89C254.624 230.424 252.031 223.132 251.557 215.356L249.055 174.462C248.766 169.738 249.763 165.036 251.86 161.188C254.832 160.66 257.387 158.932 259.012 156.516C259.616 156.636 260.238 156.698 260.878 156.698C262.929 156.698 264.828 156.052 266.387 154.95C267.998 158.404 271.494 160.798 275.546 160.798C281.128 160.798 285.655 156.258 285.655 150.656C285.655 150.216 285.627 149.784 285.573 149.36C286.295 149.544 287.05 149.642 287.827 149.642C292.851 149.642 296.923 145.556 296.923 140.516C296.923 138.752 296.425 137.106 295.562 135.71C298.95 134.228 301.32 130.838 301.32 126.892L301.322 126.894ZM233.346 157.868C236.292 156.596 238.474 153.884 239.013 150.614C239.084 154.18 240.854 157.328 243.541 159.28L239.031 164.702L233.344 157.866L233.346 157.868Z" fill="#009B68"/>
<path opacity="0.15" d="M116.915 147.012C116.915 142.632 113.377 139.082 109.011 139.082C108.336 139.082 107.682 139.166 107.058 139.326C107.108 138.916 107.134 138.5 107.134 138.076C107.134 132.402 102.549 127.802 96.8939 127.802C95.8375 127.802 94.8189 127.962 93.8601 128.262C93.8661 128.11 93.8701 127.956 93.8701 127.802C93.8701 121.574 88.8369 116.524 82.6296 116.524C80.9851 116.524 79.4244 116.878 78.0171 117.514C77.2377 109.352 70.3846 102.97 62.0465 102.97C53.1841 102.97 46.0002 110.178 46.0002 119.068C46.0002 119.842 46.056 120.604 46.1616 121.35C46.0759 121.348 45.9902 121.346 45.9045 121.346C41.6348 121.346 38.1544 124.744 38.0069 128.992C35.9956 127.09 33.2847 125.926 30.3027 125.926C24.0954 125.926 19.0622 130.976 19.0622 137.204C19.0622 138.886 19.429 140.482 20.0868 141.914C19.2715 141.63 18.3965 141.474 17.4835 141.474C13.1181 141.474 9.57996 145.024 9.57996 149.404C9.57996 152.376 11.2105 154.966 13.6224 156.324C13.3135 157.044 13.142 157.838 13.142 158.672C13.142 161.954 15.7932 164.612 19.0622 164.612C20.4954 164.612 21.8071 164.102 22.8316 163.252C23.9021 166.358 26.8422 168.59 30.3027 168.59C31.9292 168.59 33.4422 168.096 34.698 167.25C34.8714 172.394 39.0813 176.51 44.25 176.51C47.9237 176.51 51.1111 174.43 52.7117 171.382C52.7615 171.422 52.8114 171.462 52.8612 171.5L54.8924 175.148C56.6745 178.348 57.5216 182.282 57.2804 186.234L55.2173 219.958C54.8246 226.37 52.6858 232.384 49.1915 236.892L48.6254 237.622H82.4662L81.9001 236.892C78.4058 232.384 76.2669 226.372 75.8742 219.958L73.8111 186.234C73.5719 182.338 74.3952 178.462 76.1254 175.288C78.5752 174.854 80.6842 173.426 82.0237 171.436C82.522 171.534 83.0343 171.586 83.5625 171.586C85.2529 171.586 86.8196 171.052 88.1053 170.146C89.4329 172.994 92.3172 174.968 95.6581 174.968C100.261 174.968 103.992 171.224 103.992 166.604C103.992 166.242 103.968 165.884 103.924 165.534C104.52 165.686 105.142 165.766 105.784 165.766C109.926 165.766 113.285 162.396 113.285 158.24C113.285 156.786 112.874 155.428 112.163 154.276C114.958 153.054 116.911 150.258 116.911 147.004L116.915 147.012ZM60.8585 172.554C63.2883 171.504 65.0883 169.268 65.5328 166.572C65.5926 169.512 67.0517 172.108 69.2683 173.718L65.5488 178.19L60.8605 172.554H60.8585Z" fill="#009B68"/>
<path d="M204.606 193.91L191.693 208.498L175.062 191.442C173.161 189.494 171.947 186.976 171.604 184.272L168.682 161.228L156.969 210.658L137.418 205.828L148.87 143.326L149.016 142.526L149.548 139.624L189.961 140.006L190.712 142.632L190.941 143.434L191.876 146.698C192.422 148.608 192.755 150.574 192.865 152.558L194.424 180.666L204.608 193.91H204.606Z" fill="#009B68"/>
<path d="M168.837 161.228H161.879L167.607 166.416L168.837 161.228Z" fill="#173239"/>
<path opacity="0.3" d="M197.175 196.154L189.584 185.434C187.407 182.358 186.255 178.738 186.255 174.966V143.424L190.993 143.436L190.764 142.634L186.028 142.622C185.976 142.596 185.918 142.582 185.856 142.582C185.795 142.582 185.737 142.598 185.685 142.622L181.08 142.61C181.042 142.596 181.005 142.586 180.963 142.582C180.903 142.578 180.847 142.588 180.795 142.608L149.069 142.528L148.924 143.328L157.794 143.35L147.931 205.258C147.897 205.476 148.045 205.682 148.262 205.716C148.284 205.72 148.304 205.722 148.326 205.722C148.519 205.722 148.689 205.582 148.719 205.386L158.6 143.354L180.526 143.41C180.508 145.184 180.785 151.62 185.456 154.682V174.966C185.456 178.906 186.658 182.686 188.932 185.896L196.523 196.616C196.6 196.726 196.724 196.784 196.848 196.784C196.927 196.784 197.007 196.76 197.079 196.71C197.258 196.582 197.3 196.332 197.173 196.152L197.175 196.154ZM181.33 143.41L185.458 143.42V153.706C181.589 150.774 181.326 144.988 181.33 143.408V143.41Z" fill="#173339"/>
<path d="M157.125 210.66L135.511 205.32L133.767 220.616L130.954 221.44C128.803 222.07 127.958 222.848 125.737 223.154C123.003 223.532 118.554 224.896 116.484 229.678L149.261 237.774L157.125 210.66Z" fill="#FFD1BA"/>
<path d="M149.261 237.774L148.766 239.788L138.533 237.26L138.256 236.804C137.839 236.118 137.056 235.748 136.262 235.862L134.117 236.17L115.992 231.692L116.486 229.678L149.263 237.774H149.261Z" fill="#183339"/>
<path d="M204.761 193.91L189.981 210.61L202.656 219.286L202.072 222.166C201.626 224.37 201.917 225.482 201.153 227.596C200.212 230.2 199.341 234.786 202.594 238.85L225.007 213.526L204.763 193.91H204.761Z" fill="#FFD1BA"/>
<path d="M225.007 213.526L226.552 214.902L219.554 222.81L219.021 222.844C218.222 222.894 217.53 223.418 217.261 224.174L216.534 226.222L204.139 240.226L202.594 238.85L225.007 213.526Z" fill="#183339"/>
<path d="M58.004 244.304C60.9654 244.304 63.3661 240.832 63.3661 236.548C63.3661 232.264 60.9654 228.792 58.004 228.792C55.0426 228.792 52.642 232.264 52.642 236.548C52.642 240.832 55.0426 244.304 58.004 244.304Z" fill="#183339"/>
<path d="M58.004 228.792V244.304H52.64C52.4925 244.304 52.3469 244.296 52.2034 244.278C49.4466 243.958 47.2779 240.62 47.2779 236.548C47.2779 232.476 49.4466 229.138 52.2034 228.818C52.3469 228.8 52.4925 228.792 52.64 228.792H58.004Z" fill="#183339"/>
<path d="M52.2034 244.278C52.347 244.296 52.4925 244.304 52.64 244.304H52.2034V244.278Z" fill="#183339"/>
<g opacity="0.51">
<path d="M58.004 244.304C60.9654 244.304 63.3661 240.832 63.3661 236.548C63.3661 232.264 60.9654 228.792 58.004 228.792C55.0426 228.792 52.642 232.264 52.642 236.548C52.642 240.832 55.0426 244.304 58.004 244.304Z" fill="#009B68"/>
</g>
<path d="M138.846 175.098L137.141 181.02C136.918 181.796 136.585 182.534 136.153 183.214L103.514 234.47C102.071 236.54 99.7125 237.774 97.1949 237.774H58.4286C56.1522 237.774 53.9914 236.764 52.5263 235.016L45.7111 226.878L138.846 175.1V175.098Z" fill="#009B68"/>
<path d="M166.35 150.33H117.545C116.959 150.33 116.484 150.806 116.484 151.394V152.484C116.484 153.072 116.959 153.548 117.545 153.548H117.828L108.33 161.054C105.404 163.366 103.069 166.4 101.582 169.826L97.2368 179.828L59.2957 225.18L60.2126 225.952L98.2096 180.534L98.2654 180.468L102.681 170.308C104.09 167.062 106.301 164.19 109.073 161.998L119.763 153.548H162.359L152.861 161.054C149.935 163.366 147.6 166.4 146.113 169.826L141.76 179.848L106.083 229.328L107.052 230.032L142.767 180.5L142.804 180.448L147.21 170.306C148.619 167.06 150.83 164.188 153.602 161.996L164.293 153.546H166.354C166.94 153.546 167.414 153.07 167.414 152.482V151.392C167.414 150.804 166.94 150.328 166.354 150.328L166.35 150.33Z" fill="#183339"/>
<path d="M138.846 175.098H95.8454L45.7111 226.876H88.0954C91.2149 226.876 94.185 225.538 96.2581 223.198L138.848 175.098H138.846Z" fill="#F4F0E6"/>
<g opacity="0.12">
<path d="M138.846 175.098H95.8454L45.7111 226.876H88.0954C91.2149 226.876 94.185 225.538 96.2581 223.198L138.848 175.098H138.846Z" fill="#173239"/>
</g>
<path d="M104.1 244.304C107.061 244.304 109.462 240.832 109.462 236.548C109.462 232.264 107.061 228.792 104.1 228.792C101.138 228.792 98.7378 232.264 98.7378 236.548C98.7378 240.832 101.138 244.304 104.1 244.304Z" fill="#183339"/>
<path d="M104.102 228.792V244.304H98.7378C98.5903 244.304 98.4448 244.296 98.3013 244.278C95.5445 243.958 93.3757 240.62 93.3757 236.548C93.3757 232.476 95.5445 229.138 98.3013 228.818C98.4448 228.8 98.5903 228.792 98.7378 228.792H104.102Z" fill="#183339"/>
<path d="M98.3013 244.278C98.4448 244.296 98.5903 244.304 98.7378 244.304H98.3013V244.278Z" fill="#183339"/>
<g opacity="0.51">
<path d="M104.102 244.304C107.063 244.304 109.464 240.832 109.464 236.548C109.464 232.264 107.063 228.792 104.102 228.792C101.14 228.792 98.7398 232.264 98.7398 236.548C98.7398 240.832 101.14 244.304 104.102 244.304Z" fill="#009B68"/>
</g>
<path d="M59.7541 225.794C61.9901 225.794 63.8026 223.975 63.8026 221.732C63.8026 219.489 61.9901 217.67 59.7541 217.67C57.5182 217.67 55.7057 219.489 55.7057 221.732C55.7057 223.975 57.5182 225.794 59.7541 225.794Z" fill="#FFD1BA"/>
<path d="M60.1369 218.466C60.1149 218.466 60.095 218.462 60.0731 218.456C59.9694 218.42 59.9136 218.306 59.9495 218.202C60.3481 217.026 60.3103 215.92 60.3083 215.908C60.3043 215.798 60.39 215.704 60.4996 215.7C60.6093 215.694 60.703 215.782 60.7069 215.892C60.7069 215.94 60.7488 217.084 60.3262 218.33C60.2983 218.414 60.2206 218.466 60.1369 218.466Z" fill="#009B68"/>
<path d="M58.6439 216.994C59.1143 217.394 59.7442 217.488 60.2884 217.294C60.392 216.724 60.1987 216.116 59.7263 215.714C59.2538 215.312 58.6239 215.22 58.0818 215.416C57.9781 215.986 58.1734 216.594 58.6459 216.994H58.6439Z" fill="#009B68"/>
<path d="M83.0004 212.518C85.79 212.518 88.0515 210.249 88.0515 207.45C88.0515 204.651 85.79 202.382 83.0004 202.382C80.2107 202.382 77.9493 204.651 77.9493 207.45C77.9493 210.249 80.2107 212.518 83.0004 212.518Z" fill="#FFD1BA"/>
<path d="M83.1957 203.302C83.1001 203.302 83.0163 203.234 83.0004 203.136C82.7233 201.528 82.9904 200.134 83.0004 200.076C83.0223 199.968 83.126 199.896 83.2336 199.918C83.3412 199.94 83.411 200.044 83.3911 200.152C83.3891 200.166 83.128 201.536 83.3911 203.068C83.409 203.176 83.3373 203.28 83.2296 203.3C83.2177 203.3 83.2057 203.302 83.1957 203.302Z" fill="#009B68"/>
<path d="M85.2827 201.824C84.6249 202.226 83.8296 202.22 83.1977 201.874C83.1818 201.15 83.5366 200.438 84.1964 200.036C84.8562 199.632 85.6515 199.64 86.2834 199.988C86.3013 200.71 85.9425 201.422 85.2847 201.824H85.2827Z" fill="#009B68"/>
<path d="M71.7161 224.23C74.7975 224.23 77.2955 221.724 77.2955 218.632C77.2955 215.54 74.7975 213.034 71.7161 213.034C68.6347 213.034 66.1368 215.54 66.1368 218.632C66.1368 221.724 68.6347 224.23 71.7161 224.23Z" fill="#FFD1BA"/>
<path d="M71.9334 214.028C71.8377 214.028 71.754 213.96 71.7381 213.862C71.4311 212.09 71.7261 210.554 71.7381 210.488C71.76 210.38 71.8636 210.31 71.9713 210.33C72.0789 210.352 72.1487 210.456 72.1288 210.564C72.1268 210.58 71.8357 212.096 72.1288 213.792C72.1467 213.9 72.0749 214.004 71.9673 214.024C71.9553 214.024 71.9434 214.026 71.9334 214.026V214.028Z" fill="#009B68"/>
<path d="M74.2377 212.416C73.5101 212.86 72.633 212.854 71.9334 212.472C71.9154 211.672 72.3081 210.886 73.0357 210.442C73.7633 209.998 74.6423 210.004 75.34 210.388C75.3599 211.186 74.9653 211.972 74.2357 212.418L74.2377 212.416Z" fill="#009B68"/>
<path d="M87.2861 225.196C90.3675 225.196 92.8654 222.69 92.8654 219.598C92.8654 216.507 90.3675 214 87.2861 214C84.2047 214 81.7067 216.507 81.7067 219.598C81.7067 222.69 84.2047 225.196 87.2861 225.196Z" fill="#FFD1BA"/>
<path d="M84.0449 216.256C83.9771 216.256 83.9094 216.22 83.8715 216.156C83.0104 214.668 81.8184 213.692 81.8064 213.682C81.7207 213.612 81.7067 213.486 81.7765 213.4C81.8463 213.314 81.9719 213.3 82.0576 213.37C82.1094 213.412 83.3174 214.398 84.2183 215.954C84.2742 216.05 84.2403 216.172 84.1466 216.228C84.1147 216.246 84.0808 216.254 84.0469 216.254L84.0449 216.256Z" fill="#009B68"/>
<path d="M81.3758 216.46C82.217 216.332 82.8848 215.762 83.1758 215.018C82.6775 214.394 81.8742 214.044 81.031 214.172C80.1878 214.3 79.5201 214.872 79.231 215.616C79.7274 216.24 80.5327 216.588 81.3758 216.46Z" fill="#009B68"/>
<path d="M98.1238 215.864C100.516 215.864 102.455 213.918 102.455 211.518C102.455 209.118 100.516 207.172 98.1238 207.172C95.7316 207.172 93.7923 209.118 93.7923 211.518C93.7923 213.918 95.7316 215.864 98.1238 215.864Z" fill="#FFD1BA"/>
<path d="M95.2275 209.376C95.1976 209.376 95.1677 209.37 95.1398 209.356C93.886 208.73 93.0588 207.834 93.0229 207.796C92.9491 207.714 92.9531 207.588 93.0348 207.514C93.1166 207.44 93.2421 207.444 93.3159 207.526C93.3239 207.534 94.1312 208.408 95.3172 208.998C95.4149 209.048 95.4567 209.168 95.4069 209.266C95.373 209.336 95.3013 209.376 95.2275 209.376Z" fill="#009B68"/>
<path d="M95.4049 207.08C95.3491 207.74 94.9405 208.288 94.3804 208.552C93.874 208.196 93.5631 207.588 93.6209 206.926C93.6787 206.264 94.0873 205.716 94.6455 205.454C95.1518 205.808 95.4607 206.418 95.4049 207.08Z" fill="#009B68"/>
<path d="M189.004 127.852C189.004 127.852 189.002 127.858 189.002 127.86L189.319 129.62L191.181 139.938C191.24 140.266 190.989 140.568 190.656 140.568H182.914L182.769 140.674H182.767L173.143 147.722C172.734 148.02 172.286 148.25 171.811 148.404C171.339 148.56 170.841 148.64 170.336 148.64C169.659 148.64 169.031 148.278 168.688 147.69L164.731 140.884C164.731 140.778 164.735 140.674 164.741 140.568H149.53C149.261 140.568 149.032 140.366 149.002 140.096L148.446 135.33L147.23 132.466L146.956 131.822L146.887 131.658V131.674L146.947 132.884C146.947 132.884 146.943 132.89 146.947 132.898L146.992 133.798L147.088 135.716C147.21 138.17 146.384 140.576 144.784 142.434L140.775 147.086C139.597 148.454 137.763 149.058 136.007 148.656L132.268 147.802L130.998 142.37C130.709 141.128 130.914 139.822 131.572 138.73L132.919 136.488C132.919 136.488 131.873 123.854 132.724 113.324C132.89 111.284 133.173 109.432 133.523 107.774C134.819 101.642 139.958 97.08 146.177 96.492L152.532 95.89L167.376 95.416L180.102 96.59C186.965 97.222 192.03 103.29 191.458 110.182C190.792 118.178 189.062 127.536 189.004 127.852Z" fill="#FFD1BA"/>
<path opacity="0.3" d="M146.992 133.798L144.545 128.528C141.501 121.988 140.422 114.752 141.423 107.606C141.475 107.238 141.271 106.88 140.931 106.736L140.149 106.406C139.948 106.32 139.852 106.086 139.938 105.882C140.022 105.678 140.257 105.582 140.46 105.668L141.24 105.998C141.913 106.284 142.314 106.99 142.212 107.716C141.234 114.71 142.29 121.79 145.266 128.19L146.887 131.674L146.947 132.884C146.947 132.884 146.943 132.89 146.947 132.898L146.992 133.798Z" fill="#173339"/>
<path opacity="0.3" d="M189.319 129.62L188.093 134.414C187.519 136.654 186.319 138.666 184.621 140.232L184.214 140.568H182.914L182.769 140.674L184.08 139.644C185.665 138.182 186.785 136.306 187.322 134.214L189.002 127.86L189.319 129.62Z" fill="#173339"/>
<path opacity="0.3" d="M176.264 128.012C176.129 127.838 175.878 127.806 175.704 127.942L174.787 128.66L175.804 110.238C175.816 110.018 175.649 109.828 175.427 109.816C175.21 109.804 175.019 109.972 175.007 110.194L173.95 129.314L165.841 135.666C164.713 136.544 163.906 137.734 163.511 139.112C163.449 139.324 163.573 139.546 163.784 139.608C163.822 139.618 163.858 139.624 163.894 139.624C164.067 139.624 164.227 139.51 164.277 139.334C164.625 138.122 165.335 137.072 166.33 136.298L174.413 129.964C174.536 129.938 174.64 129.856 174.692 129.744L176.189 128.572C176.362 128.436 176.394 128.184 176.258 128.01L176.264 128.012Z" fill="#173339"/>
<path d="M132.768 139.092C132.67 139.138 132.573 139.184 132.473 139.234C131.773 139.584 131.141 140.062 130.589 140.618L125.255 145.976L124.823 146.41L120.575 150.678H128.829C131.542 150.678 134.207 149.962 136.557 148.602L137.187 148.238C142.94 145.174 138.69 136.366 132.77 139.092H132.768Z" fill="#AD6359"/>
<path d="M128.434 149.876C128.249 150.168 128.171 150.516 128.219 150.858L128.55 153.26C128.556 153.31 128.56 153.36 128.56 153.408C128.56 153.75 128.397 154.074 128.122 154.278H128.12C128.08 154.306 128.04 154.332 127.996 154.356C127.655 154.542 127.24 154.528 126.912 154.32L126.808 154.254C126.718 154.198 126.64 154.13 126.571 154.052C126.469 153.934 126.391 153.794 126.347 153.642L126.326 153.566C126.242 153.82 126.066 154.04 125.823 154.174C125.821 154.176 125.817 154.176 125.815 154.178C125.474 154.364 125.06 154.35 124.731 154.142L124.627 154.076C124.46 153.972 124.326 153.824 124.24 153.65C124.239 153.654 124.237 153.66 124.235 153.664C124.141 153.878 123.979 154.06 123.762 154.178C123.736 154.192 123.71 154.206 123.684 154.216C123.359 154.36 122.981 154.334 122.676 154.142L122.572 154.076C122.365 153.946 122.207 153.748 122.132 153.516C122.128 153.534 122.122 153.55 122.116 153.566C122.03 153.824 121.852 154.044 121.607 154.178C121.553 154.206 121.5 154.23 121.444 154.25C121.139 154.356 120.8 154.318 120.521 154.142L120.417 154.076C120.194 153.936 120.031 153.718 119.957 153.464L119.333 151.29L119.323 151.256C119.036 150.258 119.215 149.184 119.811 148.334L120.641 147.15C120.641 147.15 120.648 147.138 120.654 147.132L120.66 147.122C121.125 146.486 121.93 146.208 122.678 146.414C122.74 146.43 122.801 146.45 122.863 146.474L123.316 146.65C123.712 146.392 124.193 146.292 124.665 146.376C124.671 146.374 124.675 146.376 124.681 146.378C124.795 146.398 124.906 146.43 125.018 146.474L125.411 146.626C125.899 146.324 126.511 146.256 127.071 146.474L127.727 146.728C128.189 146.492 128.741 146.454 129.252 146.652L129.351 146.69L130.24 147.034L128.57 149.664L128.434 149.876Z" fill="#AD6359"/>
<path opacity="0.3" d="M121.526 149.906C121.731 148.272 123.13 146.832 123.316 146.65L122.863 146.474C122.801 146.45 122.74 146.43 122.678 146.414L122.598 146.5C122.066 147.102 121.101 148.362 120.92 149.816C120.708 151.494 121.448 153.564 121.673 154.138C121.884 154.004 122.038 153.8 122.116 153.566C121.884 152.944 121.35 151.31 121.526 149.906Z" fill="#183339"/>
<path opacity="0.3" d="M129.353 146.072C128.807 145.842 128.201 145.856 127.667 146.104L127.117 145.874C126.854 145.764 126.571 145.708 126.288 145.708C125.929 145.708 125.57 145.798 125.255 145.976L124.823 146.41C124.835 146.412 124.844 146.416 124.856 146.42L124.797 146.496C124.045 147.548 122.195 150.782 123.782 154.166C123.989 154.048 124.143 153.872 124.235 153.664C122.686 150.158 125.173 147.002 125.496 146.616C125.925 146.344 126.431 146.298 126.896 146.492L127.105 146.58C126.204 147.55 124.201 150.38 125.935 154.102C126.12 153.968 126.254 153.782 126.324 153.57C124.639 149.67 127.518 147.028 127.84 146.75C128.243 146.536 128.712 146.514 129.132 146.69C129.206 146.72 129.284 146.718 129.351 146.69C129.431 146.658 129.497 146.592 129.529 146.5C129.591 146.33 129.511 146.138 129.353 146.072Z" fill="#183339"/>
<path d="M169.36 147.188L164.894 149.254C163.497 149.898 161.99 150.26 160.459 150.32C160.366 150.324 160.27 150.326 160.176 150.328C160.118 150.33 160.061 150.33 160.003 150.33H151.577L156.313 146.076L156.881 145.566L164.199 138.996C164.695 138.708 165.182 138.472 165.658 138.286C171.413 136.018 174.975 144.592 169.36 147.188Z" fill="#AD6359"/>
<path d="M160.188 152.994C160.194 153.044 160.198 153.094 160.198 153.142C160.198 153.424 160.087 153.694 159.893 153.892C159.819 153.97 159.732 154.036 159.634 154.09C159.293 154.276 158.879 154.262 158.55 154.054L158.446 153.988C158.358 153.934 158.281 153.866 158.213 153.79C158.109 153.672 158.031 153.53 157.986 153.376L157.964 153.3C157.894 153.514 157.756 153.704 157.569 153.84C157.533 153.866 157.493 153.89 157.453 153.912C157.113 154.098 156.698 154.084 156.369 153.876L156.265 153.81C156.154 153.74 156.056 153.652 155.98 153.548C155.94 153.496 155.907 153.442 155.879 153.384C155.795 153.584 155.649 153.758 155.456 153.878C155.438 153.89 155.42 153.902 155.4 153.912C155.059 154.098 154.643 154.084 154.314 153.876L154.21 153.81C154.123 153.754 154.043 153.688 153.977 153.61C153.883 153.506 153.814 153.384 153.77 153.25C153.708 153.47 153.58 153.666 153.399 153.808C153.351 153.848 153.301 153.882 153.245 153.912C152.903 154.098 152.488 154.084 152.159 153.876L152.055 153.81C151.98 153.762 151.91 153.704 151.848 153.64C151.731 153.516 151.643 153.364 151.595 153.198L150.961 150.99C150.674 149.992 150.853 148.918 151.449 148.068L152.279 146.884C152.504 146.564 152.815 146.33 153.164 146.2C153.164 146.2 153.164 146.198 153.166 146.198C153.554 146.054 153.989 146.038 154.404 146.174C154.435 146.184 154.469 146.196 154.501 146.208L154.954 146.384C155.071 146.308 155.195 146.246 155.325 146.198C155.709 146.054 156.138 146.038 156.546 146.17C156.584 146.182 156.62 146.194 156.656 146.208L157.049 146.36C157.152 146.296 157.264 146.242 157.378 146.2C157.796 146.042 158.269 146.036 158.709 146.208L158.771 146.232L159.365 146.462C159.501 146.392 159.644 146.34 159.792 146.306C160.071 146.242 160.366 146.242 160.655 146.312C160.732 146.33 160.808 146.354 160.882 146.384C160.882 146.384 160.888 146.384 160.89 146.384L161.879 146.766L160.188 149.426L160.073 149.608C159.887 149.9 159.81 150.248 159.857 150.59L160.188 152.992V152.994Z" fill="#AD6359"/>
<path opacity="0.3" d="M153.367 149.706C153.566 148.008 154.952 146.504 155.131 146.318C155.193 146.272 155.259 146.232 155.324 146.198C155.195 146.246 155.071 146.308 154.954 146.384L154.501 146.208C154.469 146.196 154.435 146.184 154.404 146.174C153.881 146.804 152.952 148.108 152.775 149.612C152.58 151.276 153.158 153.128 153.399 153.808C153.58 153.666 153.708 153.47 153.77 153.25C153.814 153.384 153.883 153.506 153.977 153.61C153.776 153.05 153.188 151.244 153.367 149.706Z" fill="#183339"/>
<path opacity="0.3" d="M160.513 149.466C160.499 149.456 160.483 149.446 160.467 149.44C160.336 149.376 160.178 149.43 160.101 149.572C159.971 149.804 159.887 150.062 159.849 150.33H160.003C160.061 150.33 160.118 150.33 160.176 150.328C160.27 150.326 160.366 150.324 160.459 150.32C160.491 150.188 160.541 150.06 160.605 149.942C160.693 149.782 160.653 149.568 160.513 149.466Z" fill="#183339"/>
<path opacity="0.3" d="M160.998 145.718C160.465 145.48 159.873 145.494 159.355 145.752L158.819 145.514C158.235 145.252 157.575 145.298 157.025 145.63L156.881 145.566L156.313 146.076C156.393 146.094 156.471 146.122 156.548 146.156L156.554 146.16C156.554 146.16 156.55 146.166 156.546 146.17C155.825 147.254 154.057 150.438 155.456 153.878C155.649 153.758 155.795 153.584 155.879 153.384C155.907 153.442 155.94 153.496 155.98 153.548C154.527 149.93 156.923 146.684 157.236 146.284C157.282 146.252 157.33 146.224 157.378 146.2C157.764 145.994 158.199 145.976 158.602 146.156L158.771 146.232L158.807 146.248C157.94 147.242 155.998 150.048 157.569 153.84C157.756 153.704 157.894 153.514 157.964 153.3L157.986 153.376C158.031 153.53 158.109 153.672 158.213 153.79C156.297 149.564 159.198 146.724 159.522 146.424C159.61 146.376 159.7 146.336 159.792 146.306C160.073 146.216 160.372 146.216 160.655 146.312C160.732 146.33 160.808 146.354 160.882 146.384C161.004 146.388 161.121 146.304 161.169 146.164C161.229 145.986 161.153 145.786 160.998 145.718Z" fill="#183339"/>
<path d="M179.37 92.7939H144.03C144.03 92.7939 143.697 88.8399 145.976 86.4499C148.256 84.0599 147.212 78.9299 148.019 74.5479C148.826 70.1639 153.812 64.9239 162.122 65.9239C170.43 66.9239 172.663 77.0719 173.566 80.1699C174.008 81.6879 175.043 82.5079 176.129 83.4179C176.38 83.5839 181.084 86.7779 179.37 92.7939Z" fill="#173239"/>
<path d="M155.307 96.3145C163.392 103.167 169.411 95.8645 169.411 95.8645L168.317 95.3965C167.92 95.2265 167.637 94.8665 167.568 94.4385L167.173 92.0365L167.169 92.0225L166.252 86.4525L166.043 85.1865H157.013L156.8 92.0365L156.718 94.6945C156.714 94.8065 156.696 94.9165 156.664 95.0225C156.584 95.2885 156.419 95.5225 156.188 95.6865L155.307 96.3145Z" fill="#AD6359"/>
<g opacity="0.2">
<path d="M156.664 95.0225C162.485 94.3345 165.084 89.4725 166.017 87.0905C166.113 86.8505 166.19 86.6345 166.252 86.4525L166.043 85.1865C165.937 85.3985 165.829 85.6065 165.718 85.8065C164.012 88.9205 161.767 90.5645 159.798 91.4305C159.259 91.6665 158.703 91.8325 158.141 91.9285C158.061 91.9425 157.98 91.9565 157.9 91.9665C157.687 91.9965 157.471 92.0165 157.256 92.0265C157.105 92.0365 156.951 92.0385 156.8 92.0365L156.718 94.6945C156.714 94.8065 156.696 94.9165 156.664 95.0225Z" fill="#183339"/>
</g>
<path d="M166.228 85.1923C166.168 85.1923 166.105 85.1903 166.043 85.1883H166.021C165.919 85.3923 165.817 85.5903 165.712 85.7823C164.004 88.9123 161.751 90.5643 159.776 91.4323C159.243 91.6663 158.695 91.8323 158.141 91.9303C158.061 91.9443 157.98 91.9583 157.9 91.9683C157.687 91.9983 157.471 92.0183 157.256 92.0283C157.105 92.0383 156.951 92.0403 156.8 92.0383H156.778C156.104 92.0303 155.436 91.9263 154.794 91.7343C153.475 91.3383 152.261 90.5663 151.334 89.4603C148.547 86.1343 148.922 82.0523 149.117 80.8163C149.157 80.5683 149.153 80.3123 149.105 80.0663C149.077 79.9283 149.054 79.7923 149.034 79.6563C148.768 77.9943 148.876 76.4403 149.05 75.3123C149.147 74.6743 149.265 74.1703 149.347 73.8603C149.384 73.7383 149.426 73.6223 149.468 73.5143C149.801 72.6643 150.22 72.2343 150.439 72.0543C150.533 71.9783 150.59 71.9463 150.59 71.9463C150.59 71.9463 150.598 71.9623 150.614 71.9903C150.652 72.0663 150.748 72.2383 150.893 72.4643C151.099 72.7823 151.408 73.2043 151.806 73.6023C151.808 73.6023 151.81 73.6023 151.81 73.6063C151.986 73.7783 152.259 73.9643 152.468 74.1163C152.843 74.3763 153.299 74.6423 153.851 74.8923H153.853C155.707 75.7403 158.641 76.4423 163.216 76.2743C163.643 77.7563 165.002 78.7423 165.66 79.1463C166.156 78.5223 167.554 77.0463 169.091 77.9003C171.987 79.5063 171.397 85.2143 166.228 85.1923Z" fill="#AD6359"/>
<path d="M158.496 81.9904C158.904 81.9904 159.235 81.6581 159.235 81.2483C159.235 80.8386 158.904 80.5063 158.496 80.5063C158.088 80.5063 157.756 80.8386 157.756 81.2483C157.756 81.6581 158.088 81.9904 158.496 81.9904Z" fill="#173339"/>
<path d="M151.547 81.9684C151.956 81.9684 152.287 81.6362 152.287 81.2264C152.287 80.8166 151.956 80.4844 151.547 80.4844C151.139 80.4844 150.808 80.8166 150.808 81.2264C150.808 81.6362 151.139 81.9684 151.547 81.9684Z" fill="#173339"/>
<g opacity="0.25">
<path d="M153.849 85.8963C153.925 85.8963 154.003 85.8663 154.061 85.8083C154.178 85.6903 154.178 85.5003 154.061 85.3843L153.822 85.1443C153.327 84.6483 153.202 83.8943 153.509 83.2643L154.44 81.3563C154.511 81.2083 154.451 81.0283 154.302 80.9543C154.152 80.8823 153.975 80.9443 153.901 81.0923L152.97 83.0003C152.552 83.8603 152.723 84.8923 153.397 85.5683L153.636 85.8083C153.694 85.8663 153.772 85.8963 153.847 85.8963H153.849Z" fill="#173339"/>
</g>
<g opacity="0.25">
<path d="M156.646 88.4524C157.657 88.4524 158.62 87.8564 159.038 86.8684C159.102 86.7164 159.032 86.5404 158.881 86.4744C158.729 86.4104 158.554 86.4804 158.488 86.6324C158.279 87.1244 157.892 87.5064 157.396 87.7064C156.901 87.9064 156.357 87.9004 155.867 87.6924C155.715 87.6284 155.54 87.6984 155.474 87.8504C155.41 88.0024 155.48 88.1784 155.632 88.2444C155.962 88.3864 156.305 88.4524 156.644 88.4524H156.646Z" fill="#173339"/>
</g>
<path d="M159.604 79.7284C159.68 79.7284 159.754 79.7004 159.812 79.6444C159.929 79.5284 159.933 79.3384 159.818 79.2204C159.15 78.5284 158.045 78.5124 157.358 79.1824C157.24 79.2984 157.236 79.4884 157.352 79.6064C157.467 79.7264 157.657 79.7284 157.774 79.6124C158.227 79.1724 158.95 79.1844 159.389 79.6384C159.447 79.6984 159.527 79.7304 159.604 79.7304V79.7284Z" fill="#173339"/>
<path d="M152.566 79.7285C152.642 79.7285 152.715 79.7005 152.773 79.6445C152.891 79.5285 152.895 79.3385 152.779 79.2205C152.456 78.8865 152.022 78.6965 151.557 78.6905C151.087 78.6865 150.652 78.8585 150.319 79.1825C150.202 79.2985 150.198 79.4885 150.313 79.6065C150.429 79.7265 150.618 79.7285 150.736 79.6125C151.188 79.1725 151.912 79.1845 152.351 79.6385C152.408 79.6985 152.488 79.7305 152.566 79.7305V79.7285Z" fill="#173339"/>
<g opacity="0.25">
<path d="M166.021 82.4663C166.059 82.4803 166.097 82.4883 166.134 82.4883C166.252 82.4883 166.364 82.4163 166.411 82.3003C166.718 81.5463 167.153 81.0463 167.596 80.7163C167.928 80.9723 168.249 81.3163 168.217 81.6603C168.174 82.1003 167.56 82.4603 167.348 82.5523C167.197 82.6183 167.127 82.7963 167.193 82.9483C167.243 83.0603 167.352 83.1283 167.468 83.1283C167.508 83.1283 167.548 83.1203 167.588 83.1043C167.633 83.0823 168.726 82.5983 168.811 81.7203C168.857 81.2663 168.63 80.8183 168.136 80.3883C168.795 80.0683 169.364 80.0643 169.409 80.0663H169.411C169.575 80.0663 169.708 79.9323 169.71 79.7683C169.71 79.6023 169.579 79.4683 169.415 79.4663C169.314 79.4663 166.916 79.4703 165.857 82.0743C165.796 82.2283 165.869 82.4023 166.021 82.4663Z" fill="#173339"/>
</g>
<path d="M178.784 78.2962C175.621 85.2642 166.748 89.4722 166.748 89.4722L166.043 85.1882C166.104 85.1882 166.168 85.1922 166.228 85.1922C171.397 85.2142 171.987 79.5062 169.091 77.9002C167.554 77.0462 166.156 78.5222 165.66 79.1462C165.66 79.1462 162.373 73.3922 155.45 71.9462C153.265 71.4882 151.715 71.6102 150.614 71.9902C150.598 71.9622 150.59 71.9462 150.59 71.9462C150.59 71.9462 150.533 71.9782 150.439 72.0542C148.216 72.9142 147.967 74.8522 147.967 74.8522L147.686 77.7922C147.686 77.7922 145.057 65.8002 158.496 63.3062C171.935 60.8142 178.784 78.2962 178.784 78.2962Z" fill="#F4F0E6"/>
</g>
<defs>
<clipPath id="clip0_23_799">
<rect width="299" height="300" fill="white"/>
</clipPath>
</defs>
</svg>
