<svg width="243" height="166" viewBox="0 0 243 166" fill="none" xmlns="http://www.w3.org/2000/svg">
<path d="M165.26 103.64C165.823 102.544 165.554 101.496 166.187 100.313C166.82 99.1306 166.559 101.59 167.32 100.873C167.918 100.059 168.345 99.1324 168.578 98.1491C168.811 97.1658 168.843 96.1456 168.674 95.1491L170.111 96.7142L169.77 93.44L170.773 95.0502L173.862 89.5447C174.563 86.7461 175.619 84.0496 177.006 81.521C177.006 81.521 177.799 81.8769 177.834 81.8334C178.775 79.7815 179.648 74.0281 180.753 71.6401C180.753 71.6401 181.961 72.1524 182.21 71.4884C182.459 70.8244 182.465 64.7625 184.124 66.9424C183.286 66.1524 185.062 61.4215 185.811 62.4999C186.542 58.4361 189.113 51.788 190.034 46.1093C189.611 43.9601 182.911 43.8204 180.922 43.0704C174.214 40.8716 167.88 37.6582 162.14 33.5416C159.454 29.4529 157.079 25.1681 155.034 20.7233C151.502 11.6402 159.872 19.0232 161.326 19.2307C161.326 19.2307 161.458 17.8212 163.497 18.2868C168.638 19.506 168.062 23.9127 176.656 22.7387C185.25 21.5647 209.977 10.9746 215.787 5.6242C216.733 4.76807 218.899 1.11304 219.314 1.26929C220.445 1.43064 224.223 5.22436 224.842 5.43901C227.371 6.41186 232.075 5.72267 235.349 7.73451C235.649 7.94251 240.543 12.8961 240.733 13.1953C240.924 13.4945 240.251 14.6811 240.526 15.4101C240.801 16.1391 242.053 15.929 242.177 16.3548C242.301 16.7805 241.037 18.7863 240.84 19.5645C240.642 20.3428 241.52 21.1287 241.074 21.8132C240.628 22.4977 237.124 24.0189 236.5 24.5225C235.876 25.0261 229.927 30.1916 229.688 30.5753C222.849 41.3365 217.231 82.5563 219.696 95.1401C220.498 99.4032 223.993 102.389 221.459 106.72C219.508 110.153 219.574 108.113 217.031 108.537C216.716 108.57 217.146 109.642 215.424 109.542C211.827 109.398 211.667 105.945 208.269 105.422C205.617 103.266 205.132 98.6105 203.684 96.1693C202.919 94.9331 203.136 97.0239 202.666 96.7139C199.912 81.7278 195.703 98.6353 193.504 103.889C193.348 104.304 194.724 103.762 194.435 104.43C194.147 105.098 193.26 104.991 193.007 105.615C190.54 111.336 187.628 116.852 184.297 122.114C183.891 122.795 184.21 124.715 184.108 124.885C184.007 125.056 182.921 124.57 182.785 124.784C182.258 126.213 181.646 127.608 180.951 128.963C168.595 143.688 144.321 143.344 127.847 136.486C125.558 135.528 115.403 128.969 114.711 129.201C114.018 129.432 109.958 135.159 108.99 136.177C96.0375 149.768 83.6763 160.625 63.749 152.332C60.1306 150.835 45.1975 139.669 43.5996 139.995C42.0018 140.321 34.5522 150.188 32.4888 152.158C28.0651 156.719 22.6013 160.134 16.5676 162.11C10.5339 164.085 4.11077 164.563 -2.14914 163.501C-5.80764 162.765 -17.567 156.852 -18.4726 156.946C-19.3782 157.04 -24.9273 161.845 -26.598 162.617C-35.3471 166.343 -45.0982 166.993 -54.2652 164.461C-76.9372 160.003 -93.8682 135.766 -96.9501 114.195L-97.726 115.153C-99.6433 104.444 -100.876 93.6236 -101.417 82.758C-101.362 79.0836 -99.9215 66.9306 -93.8699 70.009C-91.5254 71.1207 -94.2691 71.5261 -93.6317 72.2971C-92.3797 72.697 -91.1671 73.2114 -90.0092 73.8339C-89.6572 74.1562 -86.7859 81.4738 -86.5979 82.1321C-86.41 82.7905 -87.0239 85.6857 -86.5809 86.1181C-86.1379 86.5505 -85.5048 85.3679 -85.3661 85.5529C-85.2275 85.7378 -84.2327 89.941 -83.9807 90.8319C-80.1403 105.545 -78.4466 149.712 -55.062 147.636C-52.4635 147.366 -43.5298 143.724 -43.8584 140.568C-42.9296 142.226 -39.3498 138.384 -40.7863 136.819C-39.5932 139.486 -37.2188 132.858 -37.2599 132.464C-37.3872 131.241 -41.6132 125.819 -41.5988 123.664L-42.3352 124.618C-45.2055 113.871 -49.8934 103.632 -51.9491 92.6805C-55.8692 72.233 -57.3232 49.0962 -36.2252 39.203C-35.3525 38.7931 -35.233 37.2654 -34.8869 37.1496C-31.7635 36.1864 -12.3587 44.8129 -8.22362 45.5388C-2.25827 50.6844 2.48818 57.0968 5.67062 64.3097L6.8837 63.346C7.60667 70.2891 9.85209 77.7117 9.94511 84.7204C9.64867 91.4036 8.86479 98.0558 7.59988 104.624C6.30394 110.142 2.58409 115.315 2.98286 121.056L2.02463 119.879C2.63227 123.804 -0.26493 128.851 -1.94017 132.255C-1.91553 132.492 -2.94667 131.762 -3.14181 132.181L-10.0102 145.338L-8.77673 144.571C-9.56695 147.684 -3.14615 145.899 -1.41549 145.32C4.54339 143.304 7.33987 139.583 12.069 136.459C12.069 136.459 13.0378 137.355 13.21 137.098C13.3823 136.841 12.8571 135.619 13.0375 135.441C13.2179 135.263 14.5338 135.285 14.6125 135.277C14.6912 135.269 14.4728 133.936 15.1922 133.582C15.9115 133.228 15.6779 134.807 16.1545 134.797C16.6311 134.788 15.7847 131.247 18.4422 130.013C18.8359 129.972 19.95 130.734 20.9326 130.232C22.1484 128.57 23.2163 126.805 24.1241 124.955C24.1241 124.955 25.1266 125.409 25.2283 125.239C25.33 125.069 25.2444 123.483 25.4789 123.06C25.7135 122.637 26.2764 123.455 26.3075 123.372C28.0769 118.961 25.8559 120.947 25.6696 120.687C25.9278 119.954 26.284 119.26 26.7283 118.623C27.5944 118.533 26.4359 121.166 27.8222 121.101C27.9211 119.376 30.6432 117.617 29.4388 115.988L27.9019 117.663L29.1513 113.226L28.3697 113.746C27.4526 108.379 22.5439 101.752 21.0584 97.0416C20.7712 96.1942 22.0016 96.5446 21.762 95.772C15.4094 72.9858 10.2768 41.6584 31.6396 25.5168C33.3004 24.2672 37.0408 23.8778 36.8148 21.7081L37.3834 22.9648L47.0094 23.6771C55.6332 25.8497 65.8917 32.6374 68.1292 41.8952C69.2915 46.5594 68.532 52.261 69.6984 56.9647L68.7402 55.7885C70.1712 58.8297 68.4778 61.6777 68.8064 64.8337C70.4207 64.6656 69.3108 59.3579 70.9548 60.6223C71.0945 61.9635 69.1984 68.98 69.3223 69.4057C69.4463 69.8315 70.8971 69.2418 71.017 69.6281C71.9287 71.8859 66.2989 90.0579 65.3423 93.866C64.3856 97.6742 64.0771 101.973 63.1047 104.866C61.8225 108.987 52.033 126.197 52.1209 127.424C52.4899 128.173 52.898 128.903 53.3435 129.609C56.0963 132.14 59.0003 134.501 62.0394 136.679C70.2219 138.818 86.0425 124.49 90.9254 118.638C91.137 118.376 90.7981 117.415 90.7734 117.178C91.8666 115.828 96.6632 109.147 97.1069 108.822C97.5506 108.497 98.2686 109.658 98.4367 109.362C98.6048 109.065 97.8885 108.302 97.9738 107.974C99.9103 102.11 98.7884 103.184 97.584 96.9689L96.8024 97.4888L89.3027 67.1258L89.325 63.1357L90.2815 63.9134L89.5363 60.9604L88.6948 61.2873L89.3415 38.4501C91.1061 34.7571 90.6303 29.4233 91.5681 25.8165C93.5558 17.5615 97.6635 9.97157 103.484 3.79982C105.274 1.82116 107.755 0.606524 110.414 0.406419C117.71 2.29583 124.748 5.07151 131.373 8.67177C135.772 12.2342 139.09 16.958 140.951 22.3093C140.433 22.6823 139.67 21.0869 139.298 22.4815C138.926 23.8761 140.802 31.5763 140.8 33.8495C140.846 42.6974 137.968 51.3713 138.01 60.1798L139.243 59.4134L138.585 65.7028L137.54 63.6981C138.165 69.6944 135.296 75.0175 134.127 80.6025C134.164 80.9575 135.06 81.5421 134.952 82.0319C134.411 84.4809 134.046 87.4697 133.405 89.7297C131.736 95.4862 123.878 108.308 123.161 112.888C121.533 123.625 138.854 122.181 145.277 120.036C148.949 118.254 152.473 116.18 155.815 113.835C156.25 113.43 155.449 112.996 155.679 112.533C157.337 115.072 160.692 107.545 161.811 107.588C162.93 107.631 161.14 109.173 162.184 109.264C163.228 109.354 161.889 106.423 161.872 106.265C161.856 106.108 162.963 107.189 163.222 107.002C163.896 105.961 164.515 104.885 165.076 103.778C164.107 104.796 163.881 102.627 164.708 102.541C165.535 102.455 165.295 103.596 165.26 103.64ZM125.731 21.3819C124.078 21.5071 122.442 21.7977 120.847 22.2494C108.28 27.3064 107.767 70.5467 110.509 81.5863C112.97 91.4589 118.048 73.3442 119.014 70.7712C119.583 69.3561 122.234 65.7703 121.171 63.9669L122.088 64.7487C124.674 54.0317 128.241 43.5714 127.926 32.5184C127.447 28.7608 126.714 25.0401 125.731 21.3819ZM128.221 28.8588L128.131 27.9909L127.737 28.0319L127.828 28.8998L128.221 28.8588ZM47.3888 81.9778C51.3022 71.4017 57.2038 55.0756 55.9191 43.8843C55.4755 39.6238 54.7038 36.0354 50.4235 40.0301C51.4605 41.1982 48.5248 40.9057 47.1502 41.8464C44.2065 44.1356 41.4884 46.7022 39.0332 49.5107C30.594 62.871 35.1893 83.6869 38.7401 97.9122L39.4355 96.5636L40.0904 98.6488L39.7371 95.2561C39.2537 98.2574 43.5019 93.1893 43.7881 92.8804C44.0743 92.5714 46.6427 84.3685 47.434 82.4118C47.4175 82.2541 48.3231 82.1597 47.3888 81.9778ZM128.095 37.9639L128.14 38.3978L128.352 38.1365L128.095 37.9639ZM-26.8195 117.3C-26.2763 115.467 -25.5981 113.677 -24.7903 111.944L-26.0379 116.78C-24.8747 115.737 -24.0056 114.406 -23.5176 112.921C-23.0297 111.435 -22.94 109.847 -23.2577 108.316L-21.9729 110.335C-19.7889 103.408 -15.4048 96.9704 -15.1182 89.4038L-14.2461 89.7515C-13.774 86.0767 -13.0352 82.4413 -12.0356 78.8743C-12.0356 78.8743 -13.2761 78.0463 -11.657 77.1599C-11.5908 70.5335 -10.8429 63.9556 -14.0536 58.3482L-13.08 67.6977C-14.1896 64.3041 -13.158 57.7765 -17.1397 56.9948C-27.212 55.0528 -33.9749 66.165 -35.1826 74.8244C-35.8933 80.1185 -35.9233 85.4823 -35.2718 90.7846C-34.9227 94.1378 -30.7633 118.03 -29.0775 118.931C-28.2315 118.482 -27.4201 117.971 -26.6498 117.402C-26.6498 117.402 -26.5594 118.27 -26.5635 118.23C-26.5676 118.191 -25.8739 116.444 -26.7096 117.209L-26.8195 117.3ZM39.0038 99.6791L39.0489 100.113L39.2646 99.8912L39.0038 99.6791ZM-26.9898 119.87L-27.076 119.041L-27.5091 119.086L-27.4228 119.915L-26.9898 119.87ZM57.2635 114.127L57.3087 114.561L57.5203 114.3L57.2635 114.127ZM97.6592 109.921L97.095 110.618L97.1155 110.815L97.5075 110.375L97.6592 109.921ZM-0.256627 124.344L-0.211435 124.778L0.000132751 124.516L-0.256627 124.344ZM95.181 114.406C95.181 114.406 94.3149 114.496 94.3748 114.689C94.4347 114.883 94.4611 115.518 95.0294 114.861C95.5977 114.203 95.1147 114.533 95.0236 114.422L95.181 114.406ZM161.942 109.608L161.983 110.002L161.962 109.805L161.942 109.608ZM19.1766 131.333C18.8247 131.01 17.7462 132.119 18.0071 132.332C18.2679 132.544 19.28 131.561 19.0191 131.349L19.1766 131.333ZM17.3788 132.796L17.4239 133.23L17.6396 133.008L17.3788 132.796ZM14.6929 135.667C13.6332 136.575 13.6343 137.732 14.5224 136.323C14.5765 136.078 14.9579 135.919 14.5355 135.684L14.6929 135.667Z" fill="#00FFB1"/>
</svg>
