<svg width="149" height="143" viewBox="0 0 149 143" fill="none" xmlns="http://www.w3.org/2000/svg">
<path d="M63.9804 48.4199C62.9417 44.7473 61.4595 41.1214 60.3741 37.6353C57.9815 30.022 56.1957 22.1288 53.7798 14.5155C53.6514 14.0958 53.3596 14.3289 53.4763 13.4778L53.1962 13.7577C53.5931 12.5335 52.5193 11.4958 52.496 10.26L52.2159 10.3999C51.574 8.83756 51.0488 5.88782 50.3252 4.57035C50.2318 4.40713 49.8233 4.65196 49.8349 4.78021L56.3825 27.1772L56.2775 27.6319L49.018 2.41343C49.018 2.2502 50.1851 1.99369 50.3835 1.88876C50.5819 1.78383 50.3835 1.53901 50.3835 1.51569C50.3835 1.49238 50.9554 1.60897 51.0605 1.51569C51.1655 1.42242 51.0605 -0.0466276 51.4923 1.24752C51.1888 0.979367 52.1342 0.279805 52.1925 0.279805C52.2509 0.279805 52.4376 0.711196 52.531 0.687878C52.9272 0.531285 53.2883 0.297449 53.5931 0C53.8382 0 53.6631 0.2565 53.7915 0.2565C53.9199 0.2565 54.3751 0.0466418 54.8419 0.151573C54.8419 0.151573 54.8419 0.547987 54.8419 0.559646C54.8419 0.571305 55.227 0.233192 55.4488 0.303146C55.8573 0.419736 56.0907 1.32912 56.6159 0.979354L57.8881 4.74523L58.1682 4.18559V5.58468L58.425 5.46809C58.6117 5.93445 59.2069 6.16763 58.5883 6.56404C59.0902 6.17929 59.1019 7.17032 59.3119 7.52009C59.522 7.86986 60.0123 7.2636 59.4287 7.89318C59.9422 7.76493 60.0122 8.77925 60.1289 9.3622L60.409 9.08239C60.1873 9.96848 61.086 10.6447 61.4945 11.5658C62.004 12.6881 62.3952 13.8603 62.6616 15.0635L62.9417 14.9236L63.5019 17.4419L63.782 17.1621C63.6508 18.0576 63.7472 18.9717 64.0621 19.8203C64.0621 19.8903 64.6573 19.5988 64.3422 20.9862L64.6224 20.2867C64.3773 20.6831 64.9025 21.2777 64.9025 21.336V23.5046C65.2293 22.3387 65.8012 24.5189 65.4627 25.0319L65.8828 24.6122V26.5709L66.163 26.1512C65.9996 27.1888 66.5598 26.8041 66.5832 26.8507C66.6065 26.8974 66.2914 28.0167 66.4431 28.2498L66.8633 27.97V29.3691L67.1433 29.0893C67.2834 29.4041 67.3651 31.0946 67.4234 31.1879C67.4818 31.2812 67.7969 30.9897 67.8436 31.048C68.1354 31.5027 67.2134 32.4238 68.2638 32.2139C67.797 32.5753 68.649 33.3798 68.2638 34.1726L68.5439 33.8928L68.6139 34.8722L68.9641 34.7323L69.2441 36.8192L69.5242 36.6793C69.6993 37.2506 69.8978 38.4165 70.0845 38.9178C70.0845 39.0461 70.6797 38.2999 70.2246 39.6174L70.5047 39.1976C70.2829 39.5241 70.9131 40.7833 71.2749 40.7366C71.6367 40.69 71.3567 39.9438 71.7652 40.5967C72.3254 36.073 72.1619 31.1646 72.7455 26.6992C73.0268 24.6595 73.8087 22.721 75.0214 21.0562C75.7626 20.3679 76.5419 19.7217 77.3557 19.1208C77.8692 19.0392 77.6941 19.4939 77.8575 19.4939C78.0209 19.4939 78.4528 18.806 78.4878 18.7943C78.5228 18.7827 79.2697 19.1791 79.3164 19.1791C80.2734 19.1791 80.1218 18.806 80.1684 18.7943C80.4019 18.7943 80.1684 19.4939 80.7286 18.7943C80.5302 19.7504 81.2539 19.2607 81.9892 20.0186C82.7244 20.7764 82.456 21.8607 83.2613 22.2338L82.3976 32.9834L82.6894 33.613L82.4093 33.3332L81.9892 38.3582L81.709 38.2183C81.709 38.6147 81.5806 38.8595 82.0008 38.9878C81.5908 40.8083 81.3062 42.6548 81.1488 44.5142V45.4935C80.8625 47.0305 80.7684 48.597 80.8687 50.1572L80.5886 49.8773C80.8103 51.8127 80.2384 53.7132 81.2888 55.4737L84.3701 49.3177L84.6502 49.5975L89.412 41.2147C89.6221 41.1214 89.5171 41.6344 89.6921 41.4945C90.0773 41.168 92.1431 37.5421 92.6916 36.7493C92.785 36.621 92.6216 36.4578 92.6916 36.3295L92.9717 36.5977C93.9288 33.8695 95.9595 31.3744 97.1967 28.7162C97.967 27.0489 97.6986 25.8131 99.0291 24.484C100.36 23.1548 104.573 21.7791 106.627 21.9306C107.619 22.0006 109.802 22.362 109.778 23.5979L110.058 23.3297C110.595 25.1485 110.805 25.1718 109.778 26.6759C109.778 26.6759 109.521 26.5243 109.51 26.5476C107.829 29.1126 106.977 31.631 105.577 34.2309C105.577 34.2309 105.308 34.0677 105.297 34.091C105.145 34.3825 104.9 35.3852 104.573 35.9681C104.421 36.2363 104.188 36.0264 104.176 36.0381C103.452 37.3322 102.834 38.7663 101.982 40.142C101.877 40.3169 101.982 40.5967 101.982 40.655C101.982 40.7133 101.713 40.5035 101.702 40.5151C101.69 40.5268 101.62 41.1214 101.562 41.2147C101.503 41.3079 101.293 41.0631 101.282 41.0748C100.686 42.0075 100.114 43.3366 99.5192 44.2693C98.5272 45.8549 97.1267 47.6388 96.2396 49.1428C96.0179 49.5159 95.8078 50.1688 95.6094 50.5885C95.411 51.0083 95.306 50.1222 95.2593 51.2764V51.4163C95.446 52.1741 95.5277 51.4163 95.6094 51.4163C95.6911 51.4163 95.5044 51.7311 95.8895 51.6961C96.2747 51.6611 95.8895 50.8567 96.5197 51.6961C96.2046 50.3087 96.5198 51.1715 96.9283 50.9383C98.7023 49.7724 100.57 48.3383 102.227 47.0325C105.472 44.4908 108.634 41.7043 111.716 38.9761C111.984 38.9761 112.077 38.8712 112.066 39.186C112.066 39.7456 110.444 40.8183 109.965 41.2147H109.825C109.704 41.4148 109.563 41.6023 109.405 41.7743C107.946 42.3689 106.872 43.9662 105.553 44.8523C105.425 44.9339 105.553 44.4909 105.343 44.5725V45.4119C106.65 44.246 108.098 43.1501 109.545 41.9142C110.175 41.3779 111.354 40.6201 111.879 40.0604C112.031 39.8972 111.716 39.5008 112.194 39.8156C111.809 38.5098 112.708 38.1484 113.595 37.3672C114.851 36.2311 116.185 35.1832 117.586 34.2309C118.077 34.3358 116.746 35.6533 118.753 34.4641C118.893 34.3521 119.042 34.2507 119.197 34.161C120.078 33.607 120.923 32.9996 121.73 32.3421C121.216 32.3421 120.562 32.9834 119.991 33.2632C119.419 33.543 119.08 33.1816 119.209 33.8112C118.263 33.8112 120.959 32.0856 121.099 32.0273C123.807 31.0713 128.359 32.0273 130.32 34.2426C130.742 34.6242 131.062 35.1067 131.247 35.6449C131.433 36.1832 131.479 36.7597 131.382 37.3206C131.23 38.0434 129.958 38.1717 129.584 38.3699C122.313 42.3106 114.482 50.0289 107.759 55.1239C107.667 55.2022 107.591 55.2983 107.537 55.4065C107.483 55.5147 107.451 55.6327 107.444 55.7535C107.386 55.7535 106.405 55.7535 106.464 56.5929L106.254 56.3131C105.696 56.7716 105.163 57.258 104.655 57.7705C104.538 57.8638 104.281 57.6655 104.223 57.7122C104.164 57.7588 104.375 58.0503 104.363 58.062C104.351 58.0736 104.024 57.922 103.954 57.992C103.884 58.0619 103.954 58.3418 103.814 58.4934C103.674 58.6449 103.406 58.3651 103.382 58.4117C103.149 58.7848 103.184 59.6359 104.048 59.2045C104.118 59.2045 104.048 58.8548 104.048 58.8431C104.468 58.6799 104.853 59.2395 105.215 59.1113C105.378 59.1113 105.215 58.6916 105.297 58.6799C105.822 58.5633 106.919 58.5167 107.467 58.3651C115.194 56.2431 122.757 53.3517 130.483 51.288C133.074 50.6002 136.097 50.367 138.653 49.7141C141.209 49.0612 142.376 47.3823 145.2 48.9096L144.92 49.1778C145.41 48.863 146.356 49.9706 146.683 50.3437C147.009 50.7168 148.165 52.5939 148.223 52.7804C148.282 52.967 148.48 56.0449 148.433 56.2082C148.387 56.3714 148.048 56.2082 148.025 56.3014C147.863 56.7976 147.664 57.2809 147.43 57.7472C147.254 57.9803 146.974 57.9104 146.904 57.992C146.834 58.0736 146.904 58.4584 146.904 58.5167C146.904 58.575 145.2 59.2162 145.737 58.5167C139.851 59.6803 134.03 61.1553 128.3 62.9354C127.869 63.0637 127.67 62.5274 127.74 63.2619L122.558 64.9408L105.997 69.5228C106.137 69.9075 106.055 70.3272 105.717 69.8026C105.717 69.9542 105.927 70.2456 105.857 70.3622C105.787 70.4788 105.717 69.9075 105.156 70.2923C104.981 70.4089 106.254 71.0851 106.557 70.9219L106.417 71.19L116.501 72.181L116.081 72.4492C116.839 72.0645 117.656 72.5425 118.111 72.6008C118.263 72.6008 118.006 72.2626 118.462 72.3209C118.462 72.3209 118.275 72.6474 118.532 72.6824C123.77 73.454 129.066 73.7506 134.358 73.5685C134.44 74.3613 134.673 73.685 135.163 73.8483C135.35 73.8483 135.338 74.2097 135.478 74.268C135.618 74.3263 135.478 73.9299 135.618 73.9882C135.758 74.0465 136.634 74.5128 136.669 74.5478C136.704 74.5828 136.494 74.8976 136.61 75.0725C138.128 77.276 136.704 78.5702 135.56 80.2491C135.478 80.3657 135.56 80.7737 135.56 80.8437C135.56 80.9136 135.292 80.6921 135.28 80.7038C135.268 80.7154 135.35 81.0769 135.28 81.2168C133.868 83.0939 127.635 82.7325 125.324 82.6509C125.196 82.6509 125.324 82.3827 125.161 82.3827C124.998 82.3827 124.869 82.8024 124.461 82.7674C124.391 82.7674 124.402 82.5343 124.332 82.5343C123.784 82.5343 121.998 82.8957 122.29 81.823C122.29 83.3737 120.574 82.1029 120.399 82.0912C120.224 82.0796 120.399 82.3827 120.236 82.3827C119.29 82.3827 118.205 82.3827 117.33 82.3827C117.119 82.3827 116.162 82.1495 115.521 82.1029C115.38 82.1029 115.439 81.823 115.427 81.823C115.182 81.823 115.357 82.1145 115.205 82.1029C114.155 82.0096 113.046 81.6365 111.996 81.5432C111.832 81.5432 112.124 81.858 111.646 81.8114C111.529 81.8114 109.755 81.2634 109.487 81.2518C108.938 81.2518 108.319 81.2518 107.817 81.2518C107.677 81.2518 107.818 81.5316 107.654 81.5316C107.511 81.3438 107.311 81.2071 107.084 81.142C106.857 81.0769 106.615 81.0867 106.394 81.1701C104.585 81.858 107.246 82.5343 107.304 82.6509C107.362 82.7674 106.837 82.6508 107.024 83.0589C107.164 83.1288 107.549 82.8957 107.584 82.9307C107.619 82.9656 107.584 83.3504 107.584 83.4786C107.526 83.1405 108.646 83.6185 108.891 83.7584C109.848 84.3181 111.05 85.1575 112.206 85.7988C112.404 85.9037 112.696 85.6705 112.766 85.7172C112.836 85.7638 112.568 86.0903 112.626 86.1369C112.684 86.1835 113.14 85.9737 113.186 85.997C113.233 86.0203 113.186 86.3351 113.268 86.4284C113.35 86.5216 113.805 86.51 113.886 86.5566C113.968 86.6032 113.735 86.8248 113.746 86.8364C114.482 87.2562 115.777 87.5826 116.513 88.0023C117.049 88.3055 117.68 89.0517 118.088 89.3431C118.287 89.4714 118.17 88.9351 118.368 89.0633C118.368 89.0633 118.485 89.6113 118.508 89.6229C118.718 89.7395 118.578 89.2149 118.788 89.3431C118.999 89.4714 120.072 90.8005 120.189 90.1826L136.715 99.4049C136.937 99.5215 136.634 98.9268 137.287 99.2883C137.941 99.6497 142.189 101.76 142.458 101.993C142.983 102.436 142.843 103.159 142.889 103.252C142.936 103.346 143.426 103.252 143.438 103.322C143.45 103.392 142.574 104.85 143.438 104.861C141.874 104.861 143.438 105.141 143.438 105.211C143.272 105.478 143.08 105.727 142.866 105.957C142.621 106.062 142.376 105.619 142.318 105.701C142.259 105.782 142.318 106.19 142.318 106.26C142.287 106.234 142.25 106.215 142.211 106.205C142.172 106.194 142.131 106.192 142.091 106.199C142.051 106.205 142.013 106.22 141.98 106.243C141.946 106.266 141.918 106.296 141.897 106.33C141.792 106.494 142.049 106.867 142.037 106.89C141.664 107.438 139.913 108.324 139.575 109.222C139.04 108.792 138.399 108.514 137.719 108.417C137.404 108.347 136.785 108.581 136.715 108.522C136.645 108.464 137.112 107.998 136.715 107.555L137.136 107.963C137.241 107.368 136.599 107.24 136.155 107.275L136.505 107.834C135.572 107.543 133.973 106.668 136.015 106.995C135.408 106.995 134.848 106.132 134.685 106.995L134.615 106.435C134.883 107.018 133.447 106.61 133.354 106.563C133.261 106.517 134.171 105.712 132.654 105.736L133.214 106.085C132.887 106.529 129.713 104.616 129.853 104.477C129.993 104.337 130.518 104.908 130.413 104.337C130.175 104.314 129.941 104.267 129.713 104.197C129.713 104.838 128.546 104.092 128.546 103.777C128.924 103.944 129.314 104.085 129.713 104.197C129.713 103.777 127.612 103.031 127.612 103.147C127.612 103.264 128.709 103.544 128.102 103.637C127.799 103.637 126.235 102.868 126.632 102.658C126.632 102.658 128.184 103.486 127.472 102.798C126.468 101.83 126.503 102.914 126.421 102.938C126.34 102.961 125.873 101.515 124.951 101.678C126.293 102.844 123.877 101.83 124.321 101.399C124.321 101.399 124.507 101.923 124.811 101.678C125.114 101.434 124.227 101.025 124.11 101.119C123.994 101.212 124.204 101.632 124.04 101.678C123.877 101.725 123.107 100.932 122.99 100.839C123.083 100.839 124.029 101.457 123.97 101.049C123.585 100.909 123.445 100.676 122.99 100.699C122.803 100.493 122.559 100.347 122.29 100.279C122.488 100.408 122.383 100.676 122.15 100.699C122.15 100.512 121.905 100.023 122.29 100.279C121.554 100.011 122.208 100.396 121.66 100.419C120.866 100.419 122.43 99.8596 121.309 99.8596C121.309 99.708 121.181 99.7313 121.169 99.7197C120.948 99.5331 119.512 98.6937 119.909 99.2999C119.991 99.4282 120.714 99.23 120.609 99.7197C120.061 99.7197 120.107 99.5215 119.909 99.2999C119.909 99.2999 119.652 99.2999 119.629 99.2999C119.605 99.2999 120.131 98.9968 119.699 98.7403C119.886 99.6614 118.24 98.6237 118.228 98.5304C118.217 98.4372 119.139 98.7753 118.788 98.3905C117.925 97.5394 115.731 97.3412 115.567 96.2219C115.229 96.7466 114.867 96.222 114.587 95.8022L114.867 96.7116C114.038 96.7116 113.7 95.5457 114.447 96.2219C114.447 95.7206 114.003 95.6157 113.606 95.5224C113.552 95.4678 113.486 95.4267 113.413 95.4023C113.34 95.378 113.262 95.3712 113.186 95.3825C113.186 95.3825 113.186 95.0793 113.186 94.9744C112.754 95.6506 111.937 95.2542 111.646 94.6946C111.867 94.7646 112.112 94.6946 112.346 94.9628C112.031 94.5314 111.179 93.7269 111.646 94.6946C111.494 94.6946 111.202 94.7762 111.004 94.5547C110.805 94.3332 111.155 93.8202 110.875 93.8552C110.595 93.8901 111.307 94.4148 110.49 94.2632C109.133 93.6488 107.822 92.9357 106.569 92.1296C106.032 91.8615 104.62 91.535 104.234 91.3252C104.234 91.3252 104.234 91.0104 104.129 90.9171C103.639 90.6606 102.764 90.4041 102.297 90.1593C101.562 89.7629 101.13 88.7019 99.8811 89.0983L100.161 88.8884C99.811 88.6785 98.9241 87.9207 98.8307 88.5387L98.7607 87.979L98.5506 88.3987C98.4689 87.571 96.9282 87.6759 96.5898 87.5593C96.4264 87.5593 96.5898 87.1629 96.5197 87.1395C96.2863 87.0579 96.4381 87.4893 96.3097 87.4194C95.7495 87.1279 95.9712 87.0463 96.3797 86.8597C96.0529 86.7198 95.2126 86.9297 94.9791 86.8597C94.9791 86.8597 95.0959 86.2418 94.7691 86.3001C94.6407 86.3001 94.7691 87.2095 94.1388 86.44C94.1388 88.0373 96.2397 88.492 96.0996 89.9377C96.5898 89.2265 96.2747 90.1126 96.3797 90.2176C96.4847 90.3225 96.9282 90.0427 97.185 90.2176C97.185 90.2176 97.4885 90.8938 97.5935 91.0104C97.967 91.3834 98.5622 91.0104 98.3404 91.9897C98.7139 91.0686 99.2158 92.3861 99.3209 92.9691L99.601 92.4095C100.17 93.5077 100.966 94.4732 101.935 95.2426C102.414 95.7323 102.542 95.7206 102.927 96.1053C103.756 96.9098 104.503 97.7726 105.343 98.5537H105.483C105.6 98.717 105.833 98.7869 105.763 99.1134L105.903 98.8336C106.534 99.0668 106.289 99.4865 106.324 99.5331C106.359 99.5797 106.674 99.5331 106.709 99.5331C106.904 100.024 107.056 100.531 107.164 101.049L107.444 100.629C107.444 100.827 107.374 101.177 107.444 101.317C107.514 101.457 108.798 102.588 109.136 102.961C109.253 103.089 109.767 103.101 109.802 103.147C109.837 103.194 109.591 103.602 109.802 103.882C110.012 104.162 110.677 104.313 110.77 104.418C111.254 104.979 111.684 105.584 112.054 106.225C112.054 106.225 112.474 106.109 112.334 106.494C111.949 106.645 112.077 106.214 112.054 106.225C111.517 106.424 112.509 107.52 112.474 107.683C112.439 107.846 111.996 107.368 112.054 107.823C112.054 107.974 112.533 108.511 112.568 108.919C112.603 109.327 111.996 110.085 112.568 110.411C111.634 110.189 112.112 111.122 112.007 111.81L111.657 111.25C111.844 113.174 111.237 111.95 110.957 111.95C110.677 111.95 110.7 113.256 110.397 113.349C109.411 112.746 108.467 112.076 107.572 111.344C106.86 110.772 106.137 110.108 105.448 109.548C105.203 109.35 105.647 108.674 104.748 109C103.861 108.126 102.869 107.146 101.912 106.365C101.912 106.365 101.573 106.552 101.503 106.505C101.433 106.459 101.503 106.19 101.503 106.12C100.535 105.328 97.3251 102.494 96.6014 102.121C96.4381 102.04 96.1112 102.215 96.0762 102.121C96.0412 102.028 96.5081 101.69 96.3564 101.562C96.2047 101.434 95.8078 101.783 95.6561 101.702C95.5044 101.62 95.6561 101.352 95.516 101.224C94.9091 100.757 93.4153 99.0784 92.9951 99.6031C92.9951 98.8219 92.995 98.8919 92.2948 98.9035C92.4582 98.8103 92.2948 98.204 92.0847 98.2156C91.8746 98.2273 91.7346 99.23 92.2948 98.9035C92.2948 98.9035 91.9447 99.2533 91.7463 99.0434C91.5479 98.8336 91.8163 98.3905 91.4545 98.3439C91.151 99.16 92.003 99.3349 92.0147 99.4049C91.9652 99.9712 91.9652 100.541 92.0147 101.107C92.0847 101.364 92.4465 101.247 92.4582 101.294C92.8317 102.46 93.1701 103.625 93.6253 104.791C93.6859 105.156 93.6496 105.53 93.5202 105.876C93.5202 105.876 94.1038 105.747 94.2206 106.19C94.3373 106.633 94.3839 107.764 94.5006 108.312C94.6991 108.406 94.6173 107.881 94.7807 108.044C94.9441 108.207 94.8741 108.359 94.9208 108.452C94.5473 108.079 94.5473 109.245 94.9208 108.872C94.9325 108.732 94.9325 108.592 94.9208 108.452C95.2826 109.268 95.1076 110.528 95.7612 110.271C95.2826 110.341 95.5861 111.285 95.7612 111.67C95.7612 111.67 96.1346 111.355 96.3914 112.23C96.5314 112.673 96.3914 113.232 96.4731 113.524C96.5548 113.815 97.4184 114.41 97.0216 115.028L97.3018 114.748C97.1034 115.611 97.7569 116.439 98.0954 117.232C98.3055 117.698 97.8152 118.339 98.5622 117.966L98.2821 118.526L98.5622 118.456C98.7056 119.412 98.9241 120.355 99.2158 121.277C99.3675 121.674 99.6593 121.44 99.671 121.464C100.056 122.478 99.9395 123.796 100.733 124.67L100.943 124.39C101.118 124.857 100.64 124.74 100.663 124.95C100.663 124.95 100.896 124.891 100.931 125.043C101.282 126.839 101.877 128.611 102.344 130.395L102.624 130.126L103.884 134.452C104.666 134.09 104.024 134.65 104.304 135.175C105.133 136.679 106.767 137.891 106.008 139.838C105.845 140.235 105.542 140.083 105.425 140.27C105.308 140.456 105.425 141.016 105.285 141.156C105.145 141.296 104.923 140.724 104.456 140.888C104.398 140.888 104.141 141.471 104.304 141.704C103.791 141.482 103.663 142.054 103.546 142.077C103.021 142.193 102.274 140.596 102.064 142.263C101.667 141.214 101.76 142.928 101.363 141.855L101.083 142.683H100.943C101.293 141.028 100.406 141.774 99.7761 141.424C99.601 141.319 100.196 140.689 99.0757 140.993L96.123 134.16L95.7028 134.72L95.5627 132.621L95.2826 133.181C93.707 127.806 91.8863 122.501 89.9605 117.255L89.6804 117.523C89.8219 116.963 89.7425 116.37 89.4587 115.867C88.1282 112.067 86.1324 108.161 84.6502 104.418C84.1366 103.089 83.7631 101.632 83.2496 100.279C83.2496 100.151 82.9228 100.384 82.8178 100.128C82.7127 99.8712 83.2262 100.338 83.0979 99.9995C82.7361 99.1017 82.4093 98.1807 82.1175 97.2596L81.8374 97.6793C82.2459 96.5134 81.5806 96.8982 81.5573 96.8399C81.4872 96.595 81.9541 96.8399 81.8374 96.5018C81.5952 95.9466 81.3143 95.4089 80.9971 94.8928V94.1933H80.857V94.8928C80.6989 94.7907 80.5352 94.6972 80.3668 94.613C79.8533 94.7412 79.3047 99.3815 79.5965 100.058L79.1764 99.4981L79.3164 101.177L79.0363 100.757C78.8496 101.923 79.3981 101.224 79.4565 101.317C79.3791 102.073 79.2385 102.822 79.0363 103.555L79.3164 103.416C79.1529 105.067 79.1529 106.731 79.3164 108.382C79.3164 108.685 78.9663 108.476 79.0246 108.79C79.083 109.105 79.5031 108.685 79.4448 109.07C79.4448 109.187 79.1414 109.07 79.1414 109.35C79.2113 110.538 79.2113 111.729 79.1414 112.918L79.4215 112.778V113.267L78.0209 128.424C77.9392 130.756 78.4061 133.542 78.1493 135.886C78.1493 136.189 77.6941 136.609 77.8809 137.052L77.6008 136.772L77.3207 138.731L76.9005 138.171C77.2623 138.428 76.8304 139.337 76.7604 139.337C76.492 139.337 76.7604 138.649 76.3403 138.917C76.2652 139.176 76.1716 139.43 76.0602 139.675C75.8501 139.873 75.3482 139.815 75.2198 139.897C75.0914 139.978 75.6984 140.223 74.9747 140.41C74.2511 140.596 73.971 140.538 74.0994 139.757C73.3174 140.806 72.9323 139.885 71.7652 140.736C71.6251 140.853 71.6951 141.144 71.6718 141.156C71.31 141.249 71.2983 139.57 71.8118 139.99C71.1582 138.824 71.31 140.328 70.4113 140.34C71.0999 139.104 70.7847 138.521 70.6914 137.192L71.2516 138.358C70.7269 135.757 70.492 133.106 70.5513 130.453L70.2712 130.523L70.7964 96.2219L70.6564 96.9215C70.0495 95.7556 69.9444 97.3062 69.4893 96.6533C68.9524 97.2013 69.4893 97.8192 68.9991 98.0407C68.9991 98.0407 68.7423 97.7143 68.6489 97.7609C68.5555 97.8076 68.4855 98.9968 68.3688 99.16L67.9487 98.8802C68.1121 99.2416 67.8086 99.9062 67.5985 100.291C67.3885 100.676 67.12 100.291 67.1084 100.291C66.9566 100.559 66.5715 101.935 66.233 102.506C66.233 102.576 65.8595 102.506 65.8479 102.506C65.8362 102.506 66.0462 102.914 65.9645 103.042C64.7974 105.036 63.3619 106.972 62.1714 108.965C61.5995 109.945 61.0043 110.854 60.4441 111.763C60.304 111.997 60.2807 112.195 60.0472 112.568C59.6346 113.097 59.3653 113.723 59.2653 114.387L58.9852 114.107C59.0902 115.18 58.5533 114.667 58.4366 114.818C58.3199 114.97 58.355 115.541 58.2849 115.646C58.2149 115.751 58.0281 115.459 58.0048 115.506C57.9814 115.553 58.1915 115.856 58.1448 115.926C58.0981 115.996 57.818 115.856 57.713 116.007C57.2461 116.719 57.0127 117.616 56.5459 118.339C56.4058 118.572 55.7989 119.097 55.7639 119.179C55.1337 120.263 54.0716 123.353 53.1379 123.749C52.8344 123.877 52.9745 123.422 52.8578 123.469C51.9591 123.819 51.4922 124.332 50.2668 124.169V123.749C49.9983 123.749 49.5198 123.912 49.0996 123.749C47.8275 123.387 48.0726 122.315 47.6407 122.163C47.6407 122.163 47.0922 123.166 47.1506 121.744L46.8705 122.023C46.6954 121.79 46.7771 121.067 46.7304 121.044C46.6837 121.021 45.4466 122.396 45.8084 119.785C46.1235 117.523 52.0292 107.718 53.5931 105.071C53.9666 104.43 54.4568 103.824 54.8536 103.159C54.8536 103.089 55.2387 103.346 55.2738 103.299C55.3088 103.252 55.2737 101.748 55.9623 101.83L58.495 96.5834L58.9152 96.8632C58.5067 96.3269 59.347 95.1493 59.7555 94.7762C59.7555 95.1493 59.8371 95.2309 59.8955 94.7762C59.8955 94.7762 60.199 94.648 59.8955 94.6363C60.5024 92.5727 62.043 90.6489 62.8367 88.6203C62.8367 88.6203 63.1868 88.7718 63.1168 88.2005C63.3288 88.0454 63.5656 87.9271 63.8171 87.8508C63.7004 87.7109 63.467 88.1073 63.537 87.7109C63.7121 86.6499 63.782 86.953 63.9221 86.7548C64.7858 85.5889 63.8288 86.4866 63.607 86.5216C63.3853 86.5566 63.6069 86.0902 63.2568 86.2418C62.2764 86.7082 63.4319 88.1073 62.5566 87.0813V87.6409C62.2648 87.6409 62.5566 87.2212 62.3465 87.2212C62.1364 87.2212 62.4282 87.6876 62.1364 87.6409L61.9964 87.0813L61.8563 87.9207L61.5762 87.3611C61.5073 87.6368 61.4605 87.9174 61.4361 88.2005C61.4361 88.2005 60.8059 87.7925 60.5958 87.9207C61.2377 88.5153 57.7597 89.5064 58.0748 90.4391C57.6546 89.8561 57.8997 90.3575 57.6547 90.4391C54.6085 92.0713 52.496 94.0884 49.6716 96.1986C49.4382 96.3619 48.7262 96.6417 48.5045 96.8515C45.3299 99.1833 41.8986 102.215 38.4322 104.337C37.4051 104.966 34.2889 106.878 33.2735 106.902C32.2581 106.925 29.9472 106.109 29.9122 105.071L29.7021 105.631C29.5037 105.223 29.5271 104.593 29.352 104.232C29.1769 103.87 28.7568 103.987 28.7218 103.952C28.4767 103.707 29.0019 103.637 29.0019 103.602C29.0019 103.381 28.6984 103.241 28.7918 102.821C28.7918 102.716 30.239 102.04 30.3907 101.912C30.5425 101.783 30.7759 101.212 30.8342 101.165C30.8926 101.119 31.1844 101.34 31.2427 101.294C31.3011 101.247 32.0014 100.128 32.1531 99.8945L32.3632 100.174C32.3632 99.5914 33.5303 99.5564 32.9234 99.0085C32.7833 98.9035 30.6592 100.897 30.1223 101.247C30.5191 101.888 30.0289 101.492 29.5621 101.667C29.5621 101.34 29.9706 101.34 30.1223 101.247C33.8221 97.3062 38.2922 94.1233 42.3771 90.7539C43.1707 90.9987 38.9924 93.5054 39.3659 94.1C39.6227 93.9484 39.821 93.5987 40.0661 93.4121H40.2062C41.1399 92.7009 41.9802 91.9198 42.8673 91.1736C42.5405 91.535 42.5638 90.7655 42.7855 90.4624C42.9212 90.2836 43.0983 90.1403 43.3016 90.0449C43.5049 89.9494 43.7283 89.9047 43.9527 89.9144C43.9527 89.9144 43.9527 89.4714 43.9527 89.3898C43.9527 89.3082 45.1781 88.2238 45.3065 88.9351C45.3065 88.9351 44.6763 89.1216 44.4662 89.3198C43.8702 89.9044 43.3091 90.5234 42.7855 91.1736C43.3458 90.6956 43.0773 91.5234 43.4858 91.1736C43.4858 91.1736 43.2524 90.7655 43.2757 90.7422C43.2991 90.7189 45.3999 89.1449 45.5166 89.075C45.6334 89.005 45.5166 89.4248 45.7267 89.3548C45.4349 89.0866 46.0652 88.4337 46.4503 88.1073C46.532 88.0373 46.7887 88.2821 46.8471 88.2355C46.9055 88.1889 46.567 87.979 46.9171 87.6875C46.9171 87.6875 47.314 87.8974 47.4074 87.8158C47.5007 87.7342 47.5357 87.0579 47.1272 87.2561C47.0222 87.2561 47.3606 87.5127 47.1272 87.6059C47.1272 87.6059 46.9755 87.3728 46.8471 87.466C46.7187 87.5593 45.2131 89.075 45.1665 88.7252C45.1198 88.3754 46.1235 87.5593 46.427 87.3145C46.6374 87.1824 46.84 87.0384 47.0339 86.8831C48.096 85.997 50.6286 84.901 50.2084 83.4903C50.8036 85.1459 50.6987 83.4903 50.7687 83.4903C51.0371 83.3271 51.2588 84.2831 51.749 82.9307C50.8387 83.8634 51.3989 83.1522 50.9904 83.1872C50.3133 83.2912 49.643 83.4352 48.983 83.6185C46.4036 84.0499 43.8009 84.423 41.2449 84.8777L42.0853 84.4697C41.5718 84.5513 40.2529 84.5979 39.8444 84.7378C39.4359 84.8777 40.3696 84.9943 39.9844 85.2275C39.4116 85.4796 38.7893 85.5991 38.1637 85.5772C38.934 84.7261 37.6269 85.5772 37.5335 85.5772C36.6815 85.7638 35.0475 85.8105 34.2422 86.0087C34.1722 86.0087 34.464 86.3934 34.3122 86.4284C34.1605 86.4633 33.612 86.2768 33.4952 86.3001C28.2315 87.6293 23.1429 89.04 17.9142 90.3225C16.9805 90.5557 16.0468 90.6723 15.1248 90.8471C14.9497 90.8471 14.7046 90.1826 14.7747 91.1852C14.2961 90.2175 12.0436 91.7799 10.9932 91.4651L11.0632 91.7332C8.72899 91.6166 6.52313 92.526 4.06051 92.3628C3.59366 92.3628 3.69871 92.048 3.59366 92.0247C3.48862 92.0014 3.33687 92.3162 3.31353 92.2929C2.85835 92.0597 2.58991 90.9754 2.54323 90.9054C2.3098 90.6023 2.27481 91.4068 1.98303 91.1852C1.98303 91.1852 1.98301 90.7422 1.85463 90.6839C1.72625 90.6256 1.29443 90.9404 0.885937 90.2642C0.885937 89.1566 -0.164496 89.0983 0.0222434 87.9324C0.434249 86.9399 1.11284 86.0805 1.98303 85.449C2.0764 85.3907 2.39151 85.449 2.40318 85.1692H1.98303C2.30983 84.8777 3.38357 84.1782 3.80374 84.4697C3.80374 84.4697 2.16978 84.8661 2.75334 85.0409C3.26687 85.0409 3.82709 84.493 4.21224 84.3181C4.18789 84.3429 4.15668 84.3599 4.12262 84.3669C4.08857 84.374 4.0532 84.3707 4.02101 84.3576C3.98881 84.3444 3.96125 84.322 3.94186 84.2932C3.92247 84.2643 3.91212 84.2304 3.91212 84.1957C3.91212 84.1609 3.92247 84.127 3.94186 84.0981C3.96125 84.0693 3.98881 84.0469 4.02101 84.0338C4.0532 84.0206 4.08857 84.0174 4.12262 84.0244C4.15668 84.0314 4.18789 84.0484 4.21224 84.0733C4.22962 84.0886 4.24352 84.1074 4.25305 84.1285C4.26259 84.1496 4.26755 84.1725 4.26755 84.1957C4.26755 84.2188 4.26259 84.2417 4.25305 84.2628C4.24352 84.2839 4.22962 84.3028 4.21224 84.3181C5.37936 83.875 6.54648 83.397 7.7136 82.9307C8.14543 82.9307 8.11039 82.849 8.41384 82.6625C8.71729 82.4759 9.27752 82.4526 9.8144 82.2428L10.2345 82.1029C10.3863 82.1029 10.5497 81.9863 10.6547 81.963C10.7505 81.9213 10.844 81.8746 10.9348 81.823C11.0749 81.823 11.3667 81.2518 12.102 81.6715L11.8218 81.2634C13.234 81.6365 13.981 80.4123 15.0431 80.5639L14.2028 80.9836L15.4633 80.5639C14.8564 80.2258 15.5917 79.8993 15.7434 80.5639C15.6734 79.3164 16.4436 80.2841 16.5137 80.2724C17.4499 80.0281 18.3636 79.7044 19.2448 79.3047C19.4782 79.3047 19.84 79.398 19.945 79.0249C24.1233 78.1155 28.1148 76.6931 32.3281 75.737C34.2072 75.3173 36.7982 75.329 38.6072 74.6877C38.7473 74.6877 38.7006 74.4196 38.7123 74.4079C38.9224 74.3263 38.8173 74.8393 38.9924 74.6877C39.1675 74.5361 39.4009 74.0931 39.4126 74.0582C39.4242 74.0232 38.3272 73.5451 38.1521 73.5685L38.2922 73.2887C33.5186 72.6124 29.2003 70.9569 24.3567 70.6304C24.275 70.6304 24.4851 70.3622 24.3567 70.3506C22.6061 70.3506 24.7536 71.3066 25.5239 71.19C24.6835 71.19 22.8744 71.4232 23.423 70.2223C23.3646 71.1317 22.2559 70.3273 22.2559 70.0125C22.2559 69.6977 22.6527 70.0125 22.6644 69.9309C22.8745 68.6134 22.3026 69.3246 22.2559 69.243C22.0575 68.8815 22.1508 67.4941 21.9758 67.0044C20.4702 67.704 21.3105 64.4394 20.8087 63.5067C21.6723 63.4368 22.3609 62.504 23.1429 62.3408C25.4771 61.8045 29.6204 62.8888 32.048 63.2385C39.3309 64.2879 46.6487 65.8735 53.9432 66.0484C53.9432 66.0484 53.9432 66.3399 54.1533 66.3399C54.7369 66.3399 55.052 65.9901 55.6356 66.0484L55.0754 66.1883C55.3205 66.7596 55.9623 66.13 56.4175 66.0484C56.6626 66.0484 57.1878 66.5847 57.3162 66.1183C57.4446 65.652 56.3125 64.8475 56.1491 65.4888C56.2425 64.3229 54.9819 64.4627 54.375 64.113C50.5352 61.7812 46.2052 59.2162 42.1203 57.1176L32.6199 50.9966C31.056 52.1625 32.1297 50.9966 31.908 50.5769C31.908 50.5769 31.4178 50.5769 31.3595 50.3553C31.4858 49.8011 31.5832 49.2407 31.6512 48.6764C31.6512 47.9886 31.3594 47.8953 31.4762 46.9859C31.631 46.3091 31.8298 45.6431 32.0714 44.9922C32.2348 44.8872 32.7133 45.0621 32.8884 44.9922C33.0635 44.9222 32.8884 44.6074 32.8884 44.5958C32.8884 44.5841 33.2619 44.7823 33.3085 44.7357C33.3552 44.689 33.2268 43.5698 34.0088 43.5698L47.5941 50.9733C48.0532 51.1015 48.5214 51.195 48.9946 51.2531C49.0569 51.4391 49.1577 51.61 49.2904 51.7546C49.4231 51.8993 49.5848 52.0144 49.7649 52.0925C49.8933 52.1508 49.7649 51.7078 49.975 51.8127C49.975 51.8127 49.975 52.2208 49.975 52.2325C49.975 52.2441 50.3952 52.0576 50.6519 52.1741C50.9087 52.2907 51.0721 52.6055 51.3055 52.7221C51.9124 53.0486 51.9708 52.419 52.2859 53.4916L52.2159 52.7921L52.636 53.2118L52.7761 52.5123L53.0562 53.3517C52.9862 52.6172 53.0562 51.8827 52.3559 51.393L52.7761 52.1625C52.0408 52.1625 52.3209 51.2764 52.0174 50.6818C50.2455 47.4303 48.2974 44.2776 46.1818 41.238C45.9484 40.9815 45.2365 41.0048 45.2482 40.8416C45.2598 40.6783 45.7267 41.1564 45.6683 40.7017C45.6099 40.247 45.0381 39.8389 44.758 39.5358C44.5246 39.6873 45.2248 40.6201 44.688 40.7017C44.4545 40.2819 44.3611 39.594 43.8476 39.3026C44.011 39.5474 44.3728 40.725 44.688 40.7017C44.688 40.8183 46.0418 43.0335 45.1081 42.3806C45.1081 42.3806 44.723 41.3079 44.688 41.2147C44.6529 41.1214 44.4312 41.3662 44.4195 41.3429C44.4079 41.3196 44.2678 40.8066 44.1394 40.6084C44.011 40.4102 43.8126 40.6084 43.7076 40.4219C42.7097 38.8663 41.8244 37.2416 41.0582 35.56C41.0582 35.3618 41.5134 35.3851 41.5601 35.3035C41.6068 35.2219 41.7468 34.6973 41.9102 34.5457C42.0736 34.3941 42.5988 34.5457 42.7272 34.1493C42.7272 34.0793 42.097 34.4757 42.3071 33.8112C43.3808 33.9861 43.054 32.8901 43.2874 32.552C43.2874 32.552 44.011 32.4238 44.0461 32.4004C44.2795 32.2605 43.9527 31.6426 44.4079 32.2722V31.7126C44.5946 31.7709 45.5166 31.9924 45.575 31.9924C45.6333 31.9924 45.6567 31.7009 45.7384 31.7126C46.4037 31.7126 46.0418 31.9224 46.4153 31.9924C46.4853 31.9924 46.5086 31.4794 46.7654 31.7126C46.7654 31.7126 46.8822 32.2605 46.9055 32.2722C46.9289 32.2838 47.1623 31.8291 47.2556 31.8525C47.349 31.8758 47.8508 32.8551 48.0142 33.0184C49.5824 34.3761 50.9534 35.9458 52.0875 37.682C52.0875 37.682 52.0058 37.9618 52.1576 37.9618L52.2276 37.682C52.8228 38.7196 53.5698 38.4981 53.3947 39.7806C54.3868 38.9062 54.3284 40.8765 54.375 40.9465C54.4217 41.0164 55.122 40.8649 55.1454 40.8882C55.1687 40.9115 55.0753 41.6577 55.4255 41.716C55.7756 41.7743 55.1804 40.9582 55.5655 41.2963C55.5655 42.3106 56.9077 43.0918 56.7327 43.8146L58.3666 45.1088C58.2732 45.5285 59.5337 46.2747 58.6934 46.3913C60.0356 46.6011 59.522 47.1258 59.9889 47.7554C60.4326 48.2119 60.8241 48.7163 61.156 49.2594C61.156 49.4226 61.0626 49.7374 61.226 49.819C61.3894 49.9006 61.3194 49.3177 61.2961 49.2594C61.5412 49.8074 61.8096 50.4253 61.7863 49.3993C62.1131 50.1571 62.5682 50.1688 62.5566 50.9383L62.9767 50.5186C62.755 51.0432 63.5953 52.0226 63.3619 51.0432L59.0552 37.5187L62.4165 47.5105C63.0468 48.4899 63.3152 50.5536 63.8404 51.941C63.9916 52.2523 64.1713 52.5489 64.3773 52.827L64.2372 51.2181L64.1672 52.0575C63.4553 49.9356 63.9221 51.0782 64.0272 51.0782C64.5757 51.0782 63.7471 48.9679 63.677 48.7464C63.677 48.7464 63.7704 49.4926 63.537 49.4459C63.3036 49.3993 63.4319 48.28 63.677 48.7464C63.6375 48.6042 63.5908 48.4641 63.537 48.3267C63.537 48.4083 63.1168 48.863 63.1168 49.0262L63.2568 48.0585C63.7937 48.0935 63.9804 48.4083 63.9804 48.4199ZM60.8993 10.8196V10.5514H60.7592V10.8196H60.8993ZM61.6695 13.0581V13.198L61.7396 13.1281L61.6695 13.0581ZM62.2297 14.0375V14.1774L62.2998 14.1074L62.2297 14.0375ZM82.9578 23.1315V23.2714L83.0278 23.2015L82.9578 23.1315ZM65.311 24.0526V24.1925L65.381 24.1225L65.311 24.0526ZM57.1411 25.3117V25.4517L57.2111 25.3817L57.1411 25.3117ZM98.5272 25.8714V25.5916H98.3872V25.8714H98.5272ZM67.2951 30.3951V30.535L67.3651 30.465L67.2951 30.3951ZM122.547 31.9341H122.266V32.074H122.547V31.9341ZM68.2055 33.1932C68.2172 33.0536 68.2172 32.9132 68.2055 32.7735C67.9954 32.517 68.0187 33.4381 68.1821 33.1932H68.2055ZM117.481 35.1403C117.481 35.0237 117.481 34.4874 117.481 34.4524L112.369 38.708C113.035 38.9528 112.206 38.7663 112.369 39.3375C113.222 38.6612 114.026 37.9248 114.774 37.134C114.774 37.134 115.112 37.2972 115.17 37.2389C115.229 37.1806 115.345 36.4345 115.38 36.4112C115.415 36.3878 115.684 36.6443 115.847 36.5277C116.349 36.1197 116.734 35.2103 117.411 35.4201C116.676 34.9771 117.481 35.2219 117.481 35.1403ZM42.0386 35.6999C42.0386 35.6653 42.0283 35.6316 42.0091 35.6028C41.9898 35.574 41.9625 35.5516 41.9305 35.5384C41.8985 35.5251 41.8633 35.5217 41.8294 35.5284C41.7954 35.5352 41.7642 35.5518 41.7397 35.5763C41.7153 35.6007 41.6986 35.6319 41.6918 35.6658C41.685 35.6997 41.6885 35.7349 41.7018 35.7669C41.715 35.7988 41.7375 35.8261 41.7662 35.8453C41.795 35.8646 41.8289 35.8748 41.8635 35.8748C41.906 35.8721 41.946 35.854 41.976 35.824C42.0061 35.7939 42.0241 35.754 42.0269 35.7116L42.0386 35.6999ZM69.5242 37.5187V37.6587L69.5943 37.5887L69.5242 37.5187ZM44.4545 38.6846V38.8246L44.5245 38.7546L44.4545 38.6846ZM44.8046 39.3842C44.9214 39.2793 44.6062 38.8945 44.5245 38.9645C44.4428 39.0344 44.7113 39.4075 44.793 39.3375L44.8046 39.3842ZM43.8243 39.5241V39.2093H43.6843V39.4891L43.8243 39.5241ZM44.8747 39.5241V39.664L44.9447 39.594L44.8747 39.5241ZM71.3449 41.0631V41.203L71.415 41.133L71.3449 41.0631ZM71.6951 41.7626C71.6951 41.5528 71.8119 41.1564 71.5551 41.203C71.5784 41.3662 71.4267 41.7626 71.6835 41.716L71.6951 41.7626ZM56.0791 42.3223V42.4622L56.1491 42.3922L56.0791 42.3223ZM104.771 45.4352C104.771 45.4352 105.413 45.5635 105.098 44.9805C104.783 45.4819 103.931 45.5635 104.048 46.2397L104.188 45.6801C104.643 46.3446 104.643 45.5518 104.76 45.3886L104.771 45.4352ZM103.709 46.4496C103.709 46.333 104.071 46.0998 103.838 45.9599C103.441 46.6944 102.134 46.8343 102.227 47.767C102.425 47.4872 103.604 46.5778 103.698 46.4029L103.709 46.4496ZM97.5351 46.6594V46.7993L97.6052 46.7294L97.5351 46.6594ZM101.807 47.6271C101.363 48.1285 101.585 48.1984 101.947 47.767C102.005 47.7087 102.157 47.6621 101.947 47.6271C101.877 47.3706 101.877 47.4989 101.795 47.5805L101.807 47.6271ZM80.6586 47.7787V49.0262H80.7987V47.7787H80.6586ZM101.527 48.0585C101.388 48.0352 101.246 48.0352 101.107 48.0585C100.85 48.1868 101.76 48.1751 101.515 48.0119L101.527 48.0585ZM101.142 48.5365V48.2567H101.002V48.5365H101.142ZM96.4731 48.6764V48.3966H96.333V48.6764H96.4731ZM100.745 48.3966V48.5365L100.815 48.4666L100.745 48.3966ZM100.675 48.9562C100.535 48.4782 100.021 48.7231 100.255 48.9562C100.278 49.0145 100.558 48.9679 100.675 48.9796V48.9562ZM100.044 48.8163V48.9562L100.114 48.8863L100.044 48.8163ZM99.8344 49.0962C99.6943 48.863 99.3326 49.4109 99.4143 49.6558C99.5893 49.6325 99.9744 49.306 99.8344 49.1195V49.0962ZM99.4143 49.7957C99.4143 49.6091 98.037 49.9823 98.5739 50.2154C98.6206 50.2621 99.4259 49.924 99.4143 49.819V49.7957ZM98.4338 50.6351C98.4338 50.4253 98.5506 50.0406 98.2938 50.0755C98.3288 50.3087 98.1771 50.7051 98.4338 50.6585V50.6351ZM98.1887 50.6351C98.1887 50.6006 98.1785 50.5668 98.1592 50.538C98.14 50.5092 98.1126 50.4868 98.0807 50.4736C98.0487 50.4603 98.0135 50.4569 97.9795 50.4636C97.9455 50.4704 97.9144 50.487 97.8899 50.5115C97.8654 50.536 97.8488 50.5671 97.842 50.601C97.8353 50.6349 97.8387 50.6701 97.8519 50.7021C97.8652 50.734 97.8877 50.7613 97.9165 50.7806C97.9452 50.7998 97.9791 50.8101 98.0137 50.8101C98.0564 50.8104 98.0976 50.7952 98.1299 50.7673C98.1621 50.7394 98.183 50.7007 98.1887 50.6585V50.6351ZM97.7336 50.6351C97.5002 50.2504 97.4185 50.9966 97.5235 51.1948C97.6108 51.139 97.678 51.0571 97.7158 50.9607C97.7535 50.8644 97.7598 50.7586 97.7336 50.6585V50.6351ZM62.86 51.0549V50.7751H62.72V51.0549H62.86ZM64.9608 51.6145C64.9608 51.4047 65.0776 51.0199 64.8208 51.0549C64.8558 51.2881 64.7041 51.6845 64.9608 51.6378V51.6145ZM97.1384 51.4396C97.5352 50.6585 96.4731 51.4396 96.6131 51.8943C96.7967 51.7611 96.9721 51.6171 97.1384 51.463V51.4396ZM95.3526 51.6145C95.3526 51.6145 95.0725 51.6145 95.0725 51.6845C95.0725 51.7544 95.5977 51.9643 95.306 51.6378L95.3526 51.6145ZM96.333 51.8943V51.6145H96.193V51.8943H96.333ZM63.9804 52.0342V51.7544H63.7937V52.0342H63.9804ZM65.1475 51.7311H64.9608L65.2993 53.2818H65.4744L65.1475 51.7311ZM94.1388 52.0342V52.1741L94.2089 52.1042L94.1388 52.0342ZM94.9091 52.0342H94.629V52.1741H94.9091V52.0342ZM95.8895 52.0342H95.6094V52.1741H95.8895V52.0342ZM96.2396 52.0342V52.1741L96.3097 52.1042L96.2396 52.0342ZM95.2593 52.4539V52.5939L95.3293 52.5239L95.2593 52.4539ZM51.1421 52.5939V52.7338L51.2121 52.6638L51.1421 52.5939ZM64.0972 52.8737V52.5939H63.9571V52.8737H64.0972ZM53.8732 53.1535C53.8732 53.1535 53.7448 52.6872 53.5931 52.7338C53.4414 52.7804 53.6631 53.3867 53.8966 53.2001L53.8732 53.1535ZM94.8391 52.7338V52.8737L94.9091 52.8037L94.8391 52.7338ZM53.7331 53.5732V53.2934H53.5931V53.5732H53.7331ZM54.0132 53.7131C54.0249 53.5735 54.0249 53.4331 54.0132 53.2934C53.8498 53.0719 53.8732 53.9813 54.0366 53.7364L54.0132 53.7131ZM65.5678 53.2934V53.4333L65.6378 53.3634L65.5678 53.2934ZM148.06 53.2934V53.4333L148.13 53.3634L148.06 53.2934ZM53.243 53.7131V53.853L53.313 53.7831L53.243 53.7131ZM54.2933 53.9929V53.7131H54.1533V53.9929H54.2933ZM123.153 53.7131V53.853L123.223 53.7831L123.153 53.7131ZM54.9469 54.2728V54.4127L55.0169 54.3427L54.9469 54.2728ZM66.0813 54.6925V54.4127H65.9412V54.6925H66.0813ZM80.5769 54.4127V54.5526L80.6469 54.4826L80.5769 54.4127ZM80.927 55.392H80.6469V55.5319H80.927V55.392ZM81.2772 55.392V55.5319H81.3005L81.2772 55.392ZM80.927 55.9517V55.6718H80.787V55.9517H80.927ZM80.717 56.0916V56.2315L80.787 56.1615L80.717 56.0916ZM80.5769 56.5113V56.6978L80.6469 56.6279L80.5769 56.5113ZM103.196 59.1579L102.916 58.47L102.776 59.1579C103.044 59.2162 102.776 58.8897 102.986 58.8781C103.196 58.8664 102.939 59.2512 103.196 59.1812V59.1579ZM104.246 58.8898V59.0297L104.316 58.9597L104.246 58.8898ZM102.355 59.3095C102.355 59.3095 101.947 59.2512 101.935 59.3678C101.924 59.4844 102.472 59.5193 102.309 59.3328L102.355 59.3095ZM101.865 59.5776V59.7175L101.935 59.6476L101.865 59.5776ZM58.5183 66.4331V66.1533H58.3783V66.4331H58.5183ZM56.0674 66.573V66.713L56.1374 66.643L56.0674 66.573ZM57.8881 66.713V66.8529L57.9581 66.7829L57.8881 66.713ZM110.969 67.8789V68.0188L111.039 67.9488L110.969 67.8789ZM105.226 69.8376V69.9775L105.297 69.9075L105.226 69.8376ZM104.386 69.9775V70.1174L104.456 70.0474L104.386 69.9775ZM104.946 69.9775V70.1174L105.016 70.0474L104.946 69.9775ZM104.876 70.2573H104.643V70.3855H104.923L104.876 70.2573ZM104.176 70.8053V70.5371H104.036V70.8053H104.176ZM104.876 70.677H104.643V70.8053H104.923L104.876 70.677ZM110.198 71.8429H109.918V71.8546H110.198V71.8429ZM110.759 71.8429H110.479V71.8546H110.759V71.8429ZM40.5213 73.9299V74.0698L40.5914 73.9998L40.5213 73.9299ZM40.2062 74.2097C40.2062 74.1751 40.1959 74.1413 40.1767 74.1126C40.1575 74.0838 40.1301 74.0614 40.0981 74.0481C40.0661 74.0349 40.0309 74.0314 39.997 74.0382C39.963 74.0449 39.9318 74.0616 39.9074 74.0861C39.8829 74.1105 39.8662 74.1416 39.8594 74.1756C39.8527 74.2095 39.8561 74.2447 39.8694 74.2766C39.8826 74.3086 39.9051 74.3359 39.9339 74.3551C39.9626 74.3743 39.9965 74.3846 40.0312 74.3846C40.0563 74.3848 40.0811 74.3797 40.104 74.3695C40.127 74.3592 40.1474 74.3442 40.164 74.3254C40.1806 74.3066 40.1929 74.2845 40.2002 74.2605C40.2075 74.2365 40.2095 74.2112 40.2062 74.1864V74.2097ZM40.5213 74.3496V74.4895L40.5914 74.4196L40.5213 74.3496ZM39.3542 74.6294V74.7693L39.4242 74.6994L39.3542 74.6294ZM35.1526 75.7953V75.9352L35.2226 75.8653L35.1526 75.7953ZM33.612 76.0751V76.215L33.682 76.1451L33.612 76.0751ZM16.4553 80.4123H16.1752V80.5522H16.4553V80.4123ZM105.39 81.2518C105.063 81.0069 105.075 81.5199 105.32 81.5316C105.565 81.5432 105.448 81.1818 105.437 81.1818L105.39 81.2518ZM104.83 81.3917H104.643V81.5199H104.923L104.83 81.3917ZM133.331 81.3917V81.5316L133.401 81.4616L133.331 81.3917ZM105.25 82.0912V81.8114H105.11V82.0912H105.25ZM11.8802 81.9513C11.7407 81.9339 11.5995 81.9339 11.46 81.9513C11.2733 82.0096 12.1253 81.9979 11.8802 81.8347V81.9513ZM119.932 82.2311V82.371L120.002 82.3011L119.932 82.2311ZM106.557 82.919V82.6509H106.417V82.919H106.557ZM48.201 83.4903H47.9209V83.5136H48.201V83.4903ZM47.5007 83.6302C47.3616 83.6069 47.2196 83.6069 47.0805 83.6302C46.7888 83.6885 47.6991 83.6768 47.454 83.5136L47.5007 83.6302ZM52.8928 83.6302V83.7701L52.9628 83.7002L52.8928 83.6302ZM46.5203 83.7818C46.3103 83.7818 46.2169 83.8401 46.1002 83.9916C46.1819 83.8867 46.532 83.8051 46.4736 83.6535L46.5203 83.7818ZM6.67484 84.0499V84.1898L6.74487 84.1199L6.67484 84.0499ZM45.3999 84.0499C45.1898 84.0499 44.793 83.9217 44.8397 84.1782C45.0031 84.0383 45.3999 84.1898 45.3532 83.9333L45.3999 84.0499ZM45.75 84.0499V84.1898L45.82 84.1199L45.75 84.0499ZM52.3326 84.0499V84.1898L52.4026 84.1199L52.3326 84.0499ZM44.6996 84.2015H44.4195V84.3298H44.6996V84.2015ZM52.1225 84.2015C51.7957 83.9683 51.8074 84.4696 52.0525 84.4813C52.2976 84.493 52.1225 84.0732 52.1225 84.0616V84.2015ZM43.7192 84.6212C44.1861 84.3064 42.9373 84.3647 42.8789 84.7611C42.984 84.5629 43.6376 84.5046 43.6726 84.4813L43.7192 84.6212ZM44.1394 84.3531H43.8593V84.4813H44.1394V84.3531ZM51.1421 84.7611C50.8503 84.8428 51.1421 84.901 51.1421 84.901C51.3522 85.2508 51.3756 84.901 51.4223 84.901C51.469 84.901 51.4223 84.7728 51.4223 84.7611C51.4223 84.7495 51.8191 84.6678 51.7024 84.3414L51.1421 84.7611ZM42.7389 84.6329H42.4587V84.6795H42.7389V84.6329ZM109.615 84.6329V84.6795L109.685 84.6096L109.615 84.6329ZM51.0021 85.0526C50.5936 84.9943 50.8387 85.5773 50.5819 85.7522C50.6659 85.7256 50.7432 85.6814 50.8087 85.6226C50.8742 85.5638 50.9264 85.4917 50.9617 85.4111C50.9971 85.3305 51.0148 85.2434 51.0137 85.1554C51.0126 85.0674 50.9927 84.9807 50.9554 84.901L51.0021 85.0526ZM39.9378 85.1925C39.716 85.4257 38.7707 85.1925 38.7707 85.6122C39.0274 85.3324 39.9845 85.519 39.8911 85.0409L39.9378 85.1925ZM50.0217 85.7522C50.3602 85.6589 50.2318 86.2185 50.5819 85.2625C50.2785 85.3324 49.5665 85.6822 50.0917 86.032C50.1851 85.8454 49.9633 85.6122 49.975 85.6006L50.0217 85.7522ZM64.5173 85.8921V85.8454L64.5873 85.7755L64.5173 85.8921ZM49.6016 86.1719C49.0764 86.3118 47.2673 87.2328 47.7809 87.7109C47.7809 87.7109 48.4928 87.0347 48.6212 86.953C48.7495 86.8714 48.9829 87.058 49.0413 87.0113C49.0997 86.9647 48.9129 86.7548 49.0413 86.6616C49.1697 86.5683 49.6365 86.44 49.5548 86.0203L49.6016 86.1719ZM94.489 86.3118V86.4517L94.559 86.3817L94.489 86.3118ZM95.3293 86.7315V86.8714L95.3994 86.8015L95.3293 86.7315ZM1.77292 86.8714V87.0113L1.84298 86.9414L1.77292 86.8714ZM61.5061 88.1772V87.8974H61.3661V88.1772H61.5061ZM1.49283 90.4158V90.5557L1.56285 90.4857L1.49283 90.4158ZM62.6966 90.4158V90.5557L62.7666 90.4857L62.6966 90.4158ZM80.0634 93.6336V93.7735L80.1334 93.7036L80.0634 93.6336ZM80.6936 94.1933C80.6936 93.9368 80.6936 93.7735 80.4835 93.6336C80.4252 93.5753 80.4485 94.0067 80.6469 94.0067L80.6936 94.1933ZM125.441 93.6336V93.7735L125.511 93.7036L125.441 93.6336ZM39.3308 94.5664C39.5059 93.8319 38.7823 94.3448 38.9574 94.8812C38.9924 94.683 39.2842 94.3915 39.2842 94.3682L39.3308 94.5664ZM38.3155 95.3709C39.7977 93.7386 37.6386 95.4874 37.2768 96.082C37.6766 95.864 38.0171 95.5518 38.2688 95.1726L38.3155 95.3709ZM60.4907 94.8812V94.613H60.2924V94.8812H60.4907ZM112.731 95.3009V95.0327H112.591V95.3009H112.731ZM59.8605 95.8605V96.0004L59.9305 95.9305L59.8605 95.8605ZM36.6815 96.5601C36.5532 96.6767 33.7754 98.4138 34.4406 98.6587C34.7324 98.7636 36.0863 96.6883 36.5415 97.1197C36.6349 96.9098 36.1213 97.0264 36.2613 96.8515C36.4014 96.6767 36.3664 96.9681 36.6815 96.5601C36.6815 96.5601 37.3468 96.3269 37.1017 96.0121C36.8566 95.6973 36.7049 96.3385 36.6698 96.3385L36.6815 96.5601ZM59.6505 96.2803V96.0121H59.5104V96.2803H59.6505ZM70.5747 96.2803V96.0121H70.4346V96.2803H70.5747ZM70.7848 96.0004V96.1403L70.8548 96.0704L70.7848 96.0004ZM90.8126 96.9798V97.1197L90.8826 97.0497L90.8126 96.9798ZM91.5128 98.1457V98.2856L91.5828 98.2156L91.5128 98.1457ZM34.1605 98.5654L33.1802 99.5448C33.5653 99.265 34.2072 98.7753 34.1488 98.3206L34.1605 98.5654ZM119.174 99.1251C119.185 98.9854 119.185 98.845 119.174 98.7053C118.975 98.2156 118.999 99.1367 119.162 98.8802L119.174 99.1251ZM119.384 98.9851V99.1251L119.454 99.0551L119.384 98.9851ZM58.3199 99.265V99.4049L58.3899 99.3349L58.3199 99.265ZM90.9993 99.4049V99.5448L91.0693 99.4748L90.9993 99.4049ZM91.6295 100.104V99.8246H91.4895V99.8363L91.6295 100.104ZM106.615 100.524V100.244H106.475V100.524H106.615ZM91.6995 100.384V100.524L91.7696 100.454L91.6995 100.384ZM91.7696 101.224V100.944H91.6295V101.002L91.7696 101.224ZM91.6995 101.503V101.643L91.7696 101.573L91.6995 101.503ZM56.5459 101.643V101.783L56.6159 101.713L56.5459 101.643ZM71.1816 101.923V101.643H71.0416V101.923H71.1816ZM92.3298 102.203V101.923H92.1898V102.203H92.3298ZM55.9857 102.623L55.7756 102.833L55.8456 102.903L55.9857 102.763V102.623ZM71.3917 102.623V102.763L71.4617 102.693L71.3917 102.623ZM92.2598 102.623V102.763L92.3298 102.693L92.2598 102.623ZM140.859 102.763V102.903L140.929 102.833L140.859 102.763ZM92.75 103.929C92.75 103.929 92.6683 103.194 92.4699 103.229C92.3181 103.182 92.4699 104.01 92.6916 103.637L92.75 103.929ZM65.3693 103.929V104.068L65.4393 103.999L65.3693 103.929ZM129.934 103.929V104.068L130.004 103.999L129.934 103.929ZM131.405 105.468C131.405 105.024 130.868 104.966 130.565 104.908C130.763 104.791 131.055 105.118 131.347 105.176L131.405 105.468ZM78.9546 105.048V105.188L79.0246 105.118L78.9546 105.048ZM132.385 106.027C132.572 105.841 131.743 105.258 131.545 105.328C131.347 105.398 132.28 105.771 132.327 105.736L132.385 106.027ZM101.013 105.747V105.468H100.873V105.747H101.013ZM111.307 106.027V106.167L111.377 106.097L111.307 106.027ZM101.363 106.167V106.307L101.433 106.237L101.363 106.167ZM134.556 106.167V106.307L134.626 106.237L134.556 106.167ZM111.797 106.575V106.307H111.646V106.575H111.797ZM93.8704 106.855V106.587H93.7304V106.855H93.8704ZM32.5266 106.995V106.727H32.2815V106.995H32.5266ZM33.6937 107.135V106.867H33.4486V106.832L33.6937 107.135ZM111.891 107.135V106.867H111.646V106.832L111.891 107.135ZM111.26 107.135V107.263L111.331 107.193L111.26 107.135ZM103.207 107.275H102.927V107.403H103.207V107.275ZM137.941 108.254C137.808 108.199 137.665 108.171 137.521 108.172C137.322 108.091 137.964 108.207 137.789 107.998L137.941 108.254ZM53.1379 108.254V108.394L53.2079 108.324L53.1379 108.254ZM79.048 108.394V108.534L79.118 108.464L79.048 108.394ZM139.738 108.954C139.738 108.919 139.728 108.885 139.709 108.856C139.69 108.828 139.662 108.805 139.63 108.792C139.598 108.779 139.563 108.775 139.529 108.782C139.495 108.789 139.464 108.805 139.439 108.83C139.415 108.854 139.398 108.886 139.391 108.919C139.385 108.953 139.388 108.989 139.401 109.021C139.415 109.052 139.437 109.08 139.466 109.099C139.495 109.118 139.529 109.128 139.563 109.128C139.625 109.141 139.689 109.128 139.742 109.093C139.794 109.058 139.831 109.004 139.843 108.942C139.856 108.88 139.843 108.816 139.808 108.763C139.773 108.711 139.718 108.675 139.657 108.662L139.738 108.954ZM61.833 110.213C61.8447 110.073 61.8447 109.933 61.833 109.793C61.5529 109.257 61.5762 110.178 61.7396 109.921L61.833 110.213ZM112.253 110.633C112.253 110.411 112.393 109.91 112.113 109.933C112.066 109.84 111.879 110.329 112.159 110.329L112.253 110.633ZM106.58 110.353V110.493L106.65 110.423L106.58 110.353ZM78.9896 110.493V110.329H78.9663L78.9896 110.493ZM108.168 110.493V110.329H108.144L108.168 110.493ZM108.728 111.659V111.495L108.798 111.425L108.728 111.659ZM51.0254 111.798V111.938L50.9554 111.495L51.0254 111.798ZM110.128 111.798V111.938L110.198 111.868L110.128 111.798ZM96.333 113.337V113.058H96.193V113.337H96.333ZM49.6482 113.897V114.037L49.7182 113.967L49.6482 113.897ZM49.4381 114.457C49.4498 114.317 49.4498 114.177 49.4381 114.037C49.088 113.454 49.1113 114.363 49.2747 114.119L49.4381 114.457ZM79.1297 114.597V114.317H78.9896V114.597H79.1297ZM49.2981 114.736C48.8429 114.736 48.8312 115.634 48.7029 115.972C48.7029 116.054 48.0376 115.762 48.4577 116.695L49.2981 114.736ZM79.1297 115.576C79.1414 115.436 79.1414 115.296 79.1297 115.156C78.7796 114.573 78.8029 115.483 78.9663 115.238L79.1297 115.576ZM78.9896 116.275V115.996H78.8496V116.275H78.9896ZM47.1973 119.901C47.4074 118.794 48.6212 117.675 48.3644 116.555C47.7575 117.465 47.1156 118.141 47.384 119.202L47.1039 118.794L47.1973 119.901ZM78.9896 119.482C79.0016 119.346 79.0016 119.209 78.9896 119.074C78.6395 118.491 78.6628 119.4 78.8262 119.144L78.9896 119.482ZM46.7538 119.657C46.7538 119.528 46.8355 119.144 46.6838 119.109C46.532 119.074 46.427 119.657 46.7538 119.657ZM70.7731 120.356V120.496L70.8431 120.426L70.7731 120.356ZM53.7565 123.294C53.7565 123.084 53.8732 122.7 53.6165 122.735C53.6515 122.991 53.4997 123.387 53.7565 123.341V123.294ZM78.266 124.833C78.2777 124.694 78.2777 124.553 78.266 124.413C78.0793 124.215 78.1026 125.125 78.266 124.88V124.833ZM70.703 126.372C70.703 126.139 70.8431 125.638 70.563 125.673C70.6097 125.906 70.4229 126.43 70.703 126.419V126.372ZM93.812 127.771C93.7537 127.55 93.812 126.967 93.5319 126.932C93.5903 127.188 93.5436 127.818 93.812 127.818V127.771ZM77.9859 127.072V128.238H78.126V127.072H77.9859ZM70.563 128.471V128.191H70.423V128.471H70.563ZM94.0922 128.471V128.191H93.9521V128.471H94.0922ZM70.563 129.31V129.03H70.423V129.31H70.563ZM94.1622 129.03V129.17L94.2322 129.1L94.1622 129.03ZM95.0025 130.43V130.569L95.0725 130.499L95.0025 130.43ZM94.9325 131.117C94.9444 130.982 94.9444 130.845 94.9325 130.709C94.7457 130.499 94.7691 131.421 94.9325 131.164V131.117ZM77.9859 131.537V131.316H77.7992V131.584L77.9859 131.537ZM77.8458 132.796V132.517H77.7058V132.796H77.8458ZM96.4031 132.517V132.656L96.4731 132.586L96.4031 132.517ZM96.263 134.755V134.895L96.333 134.825L96.263 134.755ZM96.5431 134.895V135.035L96.6131 134.965L96.5431 134.895ZM97.5935 136.574C97.6052 136.434 97.6052 136.294 97.5935 136.154C97.4068 135.979 97.4301 136.865 97.6402 136.62L97.5935 136.574ZM98.5039 138.113V138.311L98.5739 138.241L98.5039 138.113ZM97.9437 138.253V138.393L98.0137 138.323L97.9437 138.253ZM105.717 139.419C105.717 139.209 105.833 138.812 105.577 138.859C105.612 139.069 105.46 139.477 105.717 139.477V139.419Z" fill="#003624"/>
</svg>
