<svg width="598" height="720" viewBox="0 0 598 720" fill="none" xmlns="http://www.w3.org/2000/svg">
<g opacity="0.25" clip-path="url(#clip0_23_1125)">
<path d="M95.2442 561.916C90.2405 565.255 83.9538 565.768 78.052 566.025C65.8635 566.539 53.5467 566.41 41.8714 563.457C30.0678 560.504 18.7774 554.597 10.9511 545.224C6.46062 539.831 3.12482 531.999 6.46062 525.836C8.89832 521.085 14.4152 518.774 19.4189 517.104C38.1507 510.941 72.1502 502.339 90.7537 512.739C105.508 520.828 109.87 552.158 95.2442 561.916Z" stroke="#00FFB1" stroke-width="1.5" stroke-miterlimit="10" stroke-linecap="round"/>
<path d="M-235 236.037C-214.6 233.212 -194.072 230.387 -173.673 232.57C-152.888 234.881 -131.975 242.97 -118.375 258.892C-100.542 279.693 -98.2322 309.096 -93.9983 336.06C-89.6361 363.024 -79.8853 392.941 -55.2517 404.626C-32.5426 415.411 -5.9845 406.809 18.3925 400.902C48.2864 393.583 79.9765 390.63 109.357 399.618C138.738 408.606 165.039 431.718 171.326 461.892C176.201 484.876 169.145 508.502 162.217 530.972C149.258 572.958 136.3 615.073 123.342 657.06C120.519 666.048 116.799 676.192 108.074 679.787C98.8366 683.639 88.7009 678.375 80.1048 673.239C51.6222 656.162 23.0113 639.084 -5.47131 622.136C-39.0859 601.977 -75.6514 578.223 -85.1456 540.088C-87.5833 530.201 -87.455 518.26 -79.8853 511.455C-75.7797 507.731 -70.3911 506.19 -65.1308 504.778C-27.6672 494.377 9.92471 483.977 47.3883 473.577C57.3957 470.752 114.233 457.784 93.448 440.45C89.2141 436.854 83.3123 435.699 77.7954 434.8C49.3128 429.664 21.4717 447.126 -7.0109 452.648C-35.4935 458.169 -66.7987 459.196 -91.304 443.531C-106.572 433.773 -117.605 418.236 -124.277 401.416C-130.949 384.595 -133.386 366.363 -134.028 348.13C-134.541 333.749 -134.156 318.598 -140.571 305.758C-149.552 287.91 -170.209 278.28 -190.223 277.125C-205.491 276.354 -220.63 279.564 -235.385 283.93" stroke="#00FFB1" stroke-width="3" stroke-miterlimit="10" stroke-linecap="round"/>
<path d="M116.67 484.876C105.123 481.024 92.4216 483.592 80.4897 486.16C58.6787 490.911 36.7394 495.533 14.9284 500.284C1.20029 503.237 -12.9127 506.319 -24.588 514.151C-36.2633 521.983 -44.9877 535.722 -42.8066 549.718C-40.4972 563.97 -27.9238 573.986 -16.1202 582.46C10.6945 601.848 38.5356 621.365 70.354 630.225C78.5652 632.536 87.9311 633.948 95.3725 629.583C102.301 625.346 105.508 617.128 108.074 609.424C119.878 574.371 129.629 538.547 137.198 502.338C138.866 493.864 125.01 487.701 116.67 484.876Z" stroke="#00FFB1" stroke-width="1.5" stroke-miterlimit="10" stroke-linecap="round"/>
<path d="M-235 315.773C-217.808 312.948 -199.717 312.049 -185.733 321.808C-170.978 331.951 -165.461 350.826 -160.843 368.16C-149.039 413.1 -137.235 457.912 -125.432 502.852C-115.809 539.574 -105.16 578.094 -78.9872 605.7C-54.8668 631.123 -18.8145 645.889 -2.52041 676.962C9.1549 699.175 8.5134 726.139 18.1359 749.38C25.7056 767.869 39.3054 783.149 50.5958 799.584C54.958 806.004 59.0636 812.938 62.2711 820.128" stroke="#00FFB1" stroke-width="1.5" stroke-miterlimit="10" stroke-linecap="round"/>
<path d="M-235 364.437C-221.913 369.701 -211.265 381.385 -204.978 394.225C-196.638 411.174 -194.329 430.306 -191.121 448.924C-181.884 503.237 -163.537 557.935 -125.817 597.996C-102.723 622.392 -73.2137 640.497 -52.5574 667.075C-18.9428 710.218 -14.1957 768.126 4.15119 819.871" stroke="#00FFB1" stroke-width="1.5" stroke-miterlimit="10" stroke-linecap="round"/>
<path d="M-235 198.929C-207.031 194.949 -178.548 192.381 -150.579 196.361C-120.556 200.599 -90.5342 220.629 -74.3684 246.309C-62.5648 265.184 -59.229 287.911 -51.9159 308.968C-44.7311 330.026 -31.003 351.469 -9.32029 356.605C8.12851 360.713 25.8339 353.395 43.0261 348.387C80.1048 337.601 121.033 338.243 156.443 353.523C191.854 368.931 221.107 399.875 230.857 437.24C238.684 466.772 234.45 497.973 228.163 527.762C221.876 557.551 213.537 587.339 213.152 617.899C212.767 648.329 221.62 680.686 244.329 700.973C264.215 718.821 295.521 729.735 299.113 756.185C301.294 772.621 289.362 789.441 273.453 793.807C257.544 798.301 239.325 790.982 229.831 777.243C224.442 769.411 222.903 761.065 222.005 751.82C221.107 743.089 218.412 734.486 215.718 725.883C209.303 705.853 200.579 686.721 189.545 668.873C175.688 646.403 176.843 617.385 180.179 591.191C183.515 564.998 191.084 539.446 194.805 513.381C198.654 487.187 198.526 459.581 187.364 435.571C174.277 407.451 146.821 387.549 116.927 379.075C87.033 370.6 55.0863 372.526 24.8075 379.588C8.38512 383.44 -8.29388 386.65 -23.9465 380.872C-34.7237 376.892 -43.833 369.059 -50.8895 359.943C-57.946 350.827 -63.078 340.426 -67.6968 329.769C-75.6514 311.408 -82.323 292.533 -91.1757 274.557C-99.9001 256.581 -111.062 239.375 -126.458 226.535C-154.941 202.781 -199.076 209.458 -235.257 220.757" stroke="#00FFB1" stroke-width="1.5" stroke-miterlimit="10" stroke-linecap="round"/>
<path d="M-235 153.475C-212.548 145.001 -188.812 138.067 -165.205 141.791C-144.035 145.129 -125.303 156.814 -105.674 165.288C-81.2966 175.817 -54.9951 181.595 -29.8483 190.198C-4.70151 198.801 20.317 210.87 37.6375 231.029C55.9844 252.472 64.5805 277.253 87.2896 294.074C134.632 329.127 195.19 345.69 253.695 339.527C259.981 338.885 266.396 337.986 272.555 339.27C278.713 340.554 284.743 344.663 286.283 350.826C287.822 356.989 284.487 363.538 279.74 367.904C274.993 372.141 269.091 374.837 263.574 377.919C252.283 384.339 241.891 393.969 238.94 406.68C236.246 418.621 240.48 430.819 243.687 442.504C251.257 469.468 257.929 495.019 251.77 522.24C246.382 546.379 237.016 569.491 233.68 594.016C230.344 618.54 233.808 645.633 250.872 663.48C267.808 681.199 294.879 686.592 310.66 705.339C326.056 723.571 326.697 750.792 318.486 773.262C312.199 790.468 301.551 805.491 290.004 819.872" stroke="#00FFB1" stroke-width="1.5" stroke-miterlimit="10" stroke-linecap="round"/>
<path d="M7.74361 230.644C28.3999 248.363 44.3091 270.833 57.524 294.587C60.2183 299.338 62.7843 304.345 63.8107 309.738C64.8371 315.131 63.939 321.166 60.3466 325.275C56.4976 329.64 50.2109 331.181 44.4374 332.337C31.4791 335.033 18.3925 337.73 5.30592 337.216C-7.90898 336.702 -21.3805 332.594 -30.7464 323.22C-45.8858 308.198 -46.7839 284.572 -53.3272 264.285C-56.7913 253.371 -62.1799 243.227 -65.7723 232.313C-68.0817 225.251 -73.342 209.33 -68.4666 202.396C-63.8478 195.848 -52.6857 200.085 -46.399 201.754C-26.3842 206.762 -7.90899 217.29 7.74361 230.644Z" stroke="#00FFB1" stroke-width="1.5" stroke-miterlimit="10" stroke-linecap="round"/>
<path d="M39.9469 297.797C42.7695 303.19 45.2072 309.995 41.6148 314.874C38.9205 318.598 33.7885 319.368 29.1697 319.753C19.5472 320.395 9.9247 320.01 0.4305 318.726C-7.2675 317.699 -15.0938 315.773 -21.3805 311.151C-33.0558 302.548 -36.3916 286.755 -38.8293 272.502C-40.8821 260.818 -42.0368 247.721 -30.2332 241.044C-20.0975 235.395 -12.5278 241.429 -4.18831 247.593C14.1586 260.689 29.298 277.895 39.9469 297.797Z" stroke="#00FFB1" stroke-width="1.5" stroke-miterlimit="10" stroke-linecap="round"/>
<path d="M14.5435 292.532C15.6982 294.458 16.7246 296.513 17.1095 298.696C17.3661 300.878 16.8529 303.446 15.3133 304.987C13.2605 306.913 10.053 307.042 7.2304 306.656C0.6871 305.886 -5.8562 303.96 -11.6297 300.75C-14.0674 299.466 -16.5051 297.797 -17.7881 295.229C-19.7126 291.248 -17.9164 286.498 -15.607 282.774C-5.4713 266.467 7.7436 281.233 14.5435 292.532Z" stroke="#00FFB1" stroke-width="1.5" stroke-miterlimit="10" stroke-linecap="round"/>
<path d="M82.6708 820C78.9501 801.125 67.9163 783.663 57.524 766.971C44.694 746.555 31.7357 724.214 33.4036 700.203C33.6602 696.608 34.3017 693.013 36.3545 690.188C39.1771 686.336 44.1808 684.666 48.9279 684.923C53.675 685.18 58.1655 686.978 62.3994 689.032C73.6898 694.553 84.3387 701.872 96.3989 705.596C108.459 709.191 123.085 708.292 131.681 699.047C138.866 691.343 141.432 678.375 151.44 675.165C158.111 672.982 165.681 676.577 170.171 681.97C174.662 687.363 176.843 694.425 178.896 701.102C186.337 725.498 193.65 749.765 200.963 774.161C203.914 783.92 207.25 794.063 214.82 800.868C222.518 807.674 233.295 809.471 242.661 813.58C246.253 815.121 249.846 817.432 252.797 820.257" stroke="#00FFB1" stroke-width="1.5" stroke-miterlimit="10" stroke-linecap="round"/>
<path d="M103.584 820C98.4517 792.779 86.6481 766.714 69.4559 744.886C66.7616 741.548 63.939 738.209 62.5277 734.1C61.1164 729.992 61.5013 725.112 64.5805 722.031C67.788 719.078 72.7917 718.949 76.8973 720.49C81.0029 722.031 84.467 724.856 88.1877 727.167C101.018 735.128 117.697 736.54 131.681 731.019C140.662 727.424 150.028 721.132 159.138 724.47C169.145 728.194 171.454 740.906 173.251 751.434C177.741 776.472 188.775 800.226 204.812 819.872" stroke="#00FFB1" stroke-width="3" stroke-miterlimit="10" stroke-linecap="round"/>
<path d="M-235 129.208C-212.419 122.403 -188.299 120.991 -165.077 124.971C-127.613 131.391 -93.9983 151.678 -57.5611 162.849C-45.7575 166.444 -34.2105 169.654 -22.022 172.094C3.638 177.358 27.6301 190.969 45.2072 210.357C59.8334 226.535 70.0974 246.309 84.9802 262.231C106.535 285.471 133.606 300.494 164.526 307.556C194.548 314.489 224.955 320.267 255.619 322.964C273.709 324.505 291.928 325.147 310.018 327.201C322.207 328.613 345.942 330.026 344.531 348.002C343.761 356.99 336.833 364.052 329.777 369.573C312.456 383.055 291.03 392.428 278.97 410.789C266.525 429.664 266.781 454.189 269.86 476.659C272.94 499.129 278.2 521.855 274.223 544.197C269.219 572.573 249.589 600.436 258.827 627.657C267.038 652.181 294.494 663.481 314.637 679.659C338.501 698.919 353.769 728.579 355.565 759.139C356.848 780.068 351.844 801.382 341.708 819.615" stroke="#00FFB1" stroke-width="1.5" stroke-miterlimit="10" stroke-linecap="round"/>
<path d="M-235 109.178C-214.985 100.19 -192.276 98.3921 -170.465 100.832C-147.114 103.4 -124.405 110.719 -102.209 118.423C-87.8399 123.43 -73.5986 128.695 -59.4856 134.216C-14.0674 152.063 30.3244 173.635 70.2257 202.011C78.6935 208.046 82.6708 219.088 88.7009 227.563C94.9876 236.294 101.916 244.511 109.486 252.087C124.625 267.11 142.33 279.565 161.575 288.424C199.809 306.143 242.276 309.867 283.717 313.334C304.758 315.131 325.799 316.672 346.712 320.011C362.237 322.45 387.383 322.579 384.048 345.562C382.893 353.523 376.734 359.686 370.961 365.079C354.41 380.359 337.218 395.51 318.358 407.965C303.347 417.851 297.445 437.24 297.573 455.216C297.573 473.192 302.577 490.783 304.117 508.63C306.298 532.641 302.577 557.165 293.339 579.507C288.336 591.32 281.664 603.646 283.717 616.358C286.155 632.023 300.653 642.551 313.867 651.283C336.961 666.434 360.697 681.842 377.248 704.055C393.67 726.268 401.625 756.956 389.821 781.994C385.459 791.11 378.787 798.943 373.527 807.674C371.218 811.526 369.165 815.763 367.753 820.129" stroke="#00FFB1" stroke-width="1.5" stroke-miterlimit="10" stroke-linecap="round"/>
<path d="M-235 73.8677C-203.053 83.4977 -163.28 61.1561 -130.307 73.2257C-115.296 78.7469 -103.749 90.6881 -90.5342 99.6761C-62.6931 118.679 -28.1804 124.329 3.76631 135.114C44.5657 148.853 82.1576 171.837 113.206 201.754C138.353 226.022 159.907 255.425 191.084 271.09C228.676 289.965 273.325 285.728 314.381 294.587C346.327 301.521 376.221 316.415 408.424 321.68C429.466 325.146 452.688 323.477 471.805 313.462C492.461 302.805 507.344 278.794 517.095 258.378C523.253 245.538 527.102 231.414 526.332 217.162C525.434 199.956 517.608 183.521 506.317 170.553C495.027 157.584 480.272 147.826 464.62 140.636C454.356 135.885 442.167 130.749 439.216 119.706C437.549 113.415 439.473 106.738 441.526 100.446C445.631 87.7349 450.379 74.7665 459.36 64.7513C468.341 54.8645 482.71 48.7013 495.412 53.0669C508.883 57.6893 516.068 72.1985 520.944 85.6805C528 105.197 548.143 119.706 548.656 140.25C548.913 148.34 545.449 155.915 543.011 163.619C536.468 184.42 537.879 206.89 537.623 228.718C537.366 250.546 535.313 273.53 523.253 291.762C511.963 308.711 493.487 319.368 474.884 327.586C456.28 335.804 436.651 342.224 419.587 353.394C394.183 370.215 377.632 395.124 357.746 418.108C349.406 427.738 341.195 437.753 337.603 449.951C330.931 472.806 342.35 497.202 339.142 520.7C337.346 534.567 330.546 547.15 324.131 559.476C317.716 571.803 311.173 584.643 310.147 598.638C308.992 612.506 314.381 627.914 326.569 634.719C347.225 646.146 365.316 661.041 383.021 676.706C399.572 691.343 415.609 709.062 418.688 731.019C421.126 748.61 414.839 766.072 407.783 782.25C402.394 794.448 396.493 806.775 393.157 819.615" stroke="#00FFB1" stroke-width="3" stroke-miterlimit="10" stroke-linecap="round"/>
<path d="M465.005 97.108C461.797 103.014 460.643 110.59 463.978 116.496C467.186 122.403 473.986 125.484 479.888 128.566C488.099 132.932 495.797 138.196 502.853 144.359C505.291 146.542 507.6 148.725 510.551 150.137C513.502 151.55 516.966 152.063 519.789 150.651C522.868 149.11 524.408 145.515 524.664 142.176C524.793 138.71 523.766 135.371 522.483 132.29C519.532 124.586 515.812 117.138 511.963 109.82C507.857 101.859 503.751 93.7696 499.646 85.8088C497.978 82.7272 496.182 79.2604 492.974 77.9764C482.71 73.4824 469.11 89.6608 465.005 97.108Z" stroke="#00FFB1" stroke-width="1.5" stroke-miterlimit="10" stroke-linecap="round"/>
<path d="M642.829 544.068C658.738 542.913 674.904 541.757 690.428 545.609C695.303 546.765 700.692 549.076 702.36 553.827C703.899 558.064 701.847 562.815 699.922 566.795C691.711 583.615 683.115 600.949 668.617 612.762C655.659 623.291 639.236 628.427 624.867 636.645C620.376 639.213 616.014 642.166 611.01 643.578C606.007 644.991 600.105 644.477 596.384 640.882C590.867 635.489 592.407 626.373 594.588 618.926C599.463 602.619 605.365 586.44 612.165 570.776C615.372 563.457 618.836 556.009 624.995 551.002C632.18 545.095 642.059 543.426 651.425 543.298C660.791 543.169 670.157 544.325 679.394 543.17" stroke="#00FFB1" stroke-width="1.5" stroke-miterlimit="10" stroke-linecap="round"/>
<path d="M694.149 529.174C704.669 530.586 721.092 534.695 722.76 547.535C723.401 552.928 723.529 558.449 722.888 563.842C720.578 585.413 709.288 605.572 693.764 620.338C672.081 640.882 643.47 652.31 614.731 660.27C604.467 663.095 592.92 665.535 583.426 660.656C572.905 655.263 568.158 642.551 567.773 630.738C566.875 605.187 581.245 581.946 595.101 560.504C602.158 549.461 609.727 538.034 621.403 531.999C630.64 527.248 641.289 526.478 651.553 526.349C665.666 526.349 679.907 527.248 694.149 529.174Z" stroke="#00FFB1" stroke-width="1.5" stroke-miterlimit="10" stroke-linecap="round"/>
<path d="M1048 207.789C998.733 213.439 952.801 235.01 907.896 256.453C871.459 273.787 832.841 293.047 812.313 327.971C798.072 352.239 794.479 381.001 788.834 408.478C783.189 436.084 774.336 464.717 753.038 483.079C725.582 506.576 685.937 506.576 649.885 507.731C630.255 508.373 609.856 510.043 592.92 520.186C563.154 538.162 553.917 576.169 547.245 610.323C542.883 632.921 539.675 659.885 556.354 675.679C574.06 692.499 602.542 686.207 625.765 678.889C652.964 670.286 681.19 661.041 701.205 640.754C721.092 620.467 729.816 592.09 740.593 565.897C757.657 524.295 781.136 485.647 799.74 444.815C816.803 407.194 829.89 367.133 855.55 334.777C879.927 303.961 914.44 282.261 950.877 267.495C982.054 254.783 1014.9 246.694 1047.87 239.375" stroke="#00FFB1" stroke-width="3" stroke-miterlimit="10" stroke-linecap="round"/>
<path d="M891.731 820C886.214 788.927 878.131 757.084 854.908 736.412C838.486 721.902 816.803 715.097 798.457 703.284C778.185 690.188 761.378 670.542 738.027 664.508C716.986 658.986 694.662 665.663 675.032 675.036C655.402 684.41 637.055 696.736 616.27 703.284C595.614 709.961 571.109 709.961 554.045 696.479C538.521 684.153 532.362 663.48 518.762 649.228C509.525 639.598 496.695 632.408 492.974 619.568C489.382 607.113 496.31 593.631 504.649 584.643C512.476 576.168 516.581 571.803 520.302 560.247C528.128 535.979 539.034 511.07 559.818 495.276C584.837 476.273 618.323 474.476 649.628 472.421C680.934 470.495 714.805 466.515 737.642 445.072C782.804 402.443 758.94 317.828 803.46 274.428C822.705 255.682 850.29 249.39 875.052 239.247C904.817 227.049 931.76 208.816 961.269 195.976C988.469 184.035 1019.65 177.101 1048 185.062" stroke="#00FFB1" stroke-width="1.5" stroke-miterlimit="10" stroke-linecap="round"/>
<path d="M-235 44.9776C-195.099 36.6316 -152.76 39.3281 -114.27 53.0669C-81.04 64.8797 -51.1461 84.3965 -18.3013 97.3649C30.1961 116.368 87.033 122.531 122.572 160.666C148.745 188.786 159.138 230.772 190.699 252.729C221.235 273.915 261.778 269.806 298.471 275.327C333.882 280.72 367.369 295.743 402.908 300.75C438.318 305.758 479.503 297.797 499.261 267.88C514.144 245.41 512.604 213.438 495.669 192.509C482.197 175.817 461.412 167.086 444.477 153.989C424.205 138.453 409.066 115.598 405.474 90.3029C401.881 65.0081 410.862 37.6589 430.62 21.4805C450.379 5.43046 480.914 2.60566 501.827 17.1149C522.868 31.6241 530.823 58.4596 543.524 80.8012C553.275 98.0068 571.237 114.057 589.456 115.469C599.592 116.24 604.852 128.181 598.693 136.27C595.743 140.25 592.022 144.231 588.045 148.853C565.335 175.946 555.585 213.31 562.128 248.106C564.951 263.258 570.852 278.537 567.388 293.688C563.154 312.306 545.962 324.89 529.283 334.134C498.235 351.468 464.492 363.538 434.085 382.028C403.677 400.389 375.965 426.968 366.984 461.379C359.286 490.911 366.086 523.268 355.308 551.901C349.92 566.282 340.041 579.378 339.143 594.786C338.116 614.432 352.357 631.766 368.267 643.322C384.176 654.878 402.651 662.967 417.021 676.32C439.473 697.378 449.096 731.019 441.269 760.808C436.009 780.838 423.436 800.355 420.87 820.128" stroke="#00FFB1" stroke-width="1.5" stroke-miterlimit="10" stroke-linecap="round"/>
<path d="M822.449 820C802.177 791.11 772.155 768.897 738.54 758.111C730.201 755.415 721.348 753.36 712.624 754.516C700.692 756.057 690.428 763.375 680.292 769.667C653.093 786.616 622.172 798.685 590.097 800.483C558.022 802.281 524.793 793.164 500.544 772.107C458.846 735.898 449.48 671.698 406.243 637.415C390.719 625.089 369.934 615.073 365.829 595.685C361.852 577.067 375.58 559.861 381.738 541.757C390.206 516.847 384.047 489.241 389.949 463.69C396.493 435.185 417.79 411.816 442.167 395.766C466.544 379.716 494.385 369.701 521.457 358.659C544.166 349.414 568.286 337.729 579.448 315.773C588.044 298.953 587.146 279.436 583.169 261.46C581.116 252.087 578.294 242.842 575.214 233.725C571.494 222.94 573.547 213.31 577.652 202.267C587.531 176.331 604.339 153.475 626.15 136.27C635.002 129.336 644.112 121.632 652.836 114.57C655.402 112.516 658.225 110.076 657.198 105.967C656.942 104.94 656.428 104.041 655.787 103.271C653.606 100.575 650.27 99.2906 647.062 98.3918C629.1 93.1274 609.471 92.4854 593.433 82.8554C575.214 71.9414 565.464 51.6542 553.917 33.8066C545.321 20.3246 535.057 7.48462 521.842 -1.63178C514.272 -6.76778 505.804 -10.7482 496.823 -12.5458C490.408 -13.8298 475.654 -10.363 472.446 -16.9114C471.035 -19.7362 471.292 -23.0746 471.805 -26.2846C476.937 -54.9178 486.559 -82.1386 492.204 -110.001C496.951 -134.012 492.461 -158.922 480.016 -179.851C472.574 -192.434 465.646 -205.146 463.593 -220.939C462.695 -227.487 463.978 -234.164 467.571 -239.685C478.605 -256.377 500.159 -248.031 507.985 -233.779C514.4 -222.095 514.272 -208.099 513.887 -194.745C512.604 -142.615 519.917 -88.045 499.004 -40.1518C496.695 -35.0158 494.257 -28.7242 499.133 -24.2302C500.031 -23.3314 501.185 -22.6894 502.34 -22.3042C507.729 -20.2498 513.117 -21.7906 518.378 -21.6622C528.642 -21.4054 538.007 -15.1138 544.551 -7.02459C550.966 1.06461 554.943 10.6946 558.92 20.1962C574.83 59.1014 619.221 80.159 660.149 89.6606C701.077 99.1622 744.314 94.925 784.728 83.369C825.143 71.813 863.12 53.0666 900.198 33.1646C905.972 30.083 912.13 26.873 918.674 26.7446C928.168 26.6162 936.251 33.0362 943.949 38.429C974.099 59.615 1011.05 70.9142 1047.87 70.4006" stroke="#00FFB1" stroke-width="1.5" stroke-miterlimit="10" stroke-linecap="round"/>
<path d="M834.765 820C828.992 800.868 812.826 785.588 795.506 774.803C776.132 762.605 754.321 754.259 736.103 740.52C726.993 733.715 717.114 725.112 705.952 727.295C694.79 729.349 688.76 740.905 681.319 749.38C666.821 765.815 644.24 772.106 623.07 777.756C606.135 782.122 588.943 786.616 571.365 787.386C553.788 788.156 535.57 784.818 521.2 774.803C491.306 754.259 485.148 712.4 460.899 685.436C453.073 676.705 442.424 667.075 444.862 655.519C445.76 651.154 448.454 647.43 451.79 644.605C462.824 635.36 479.888 636.516 492.204 643.835C504.649 651.154 513.246 663.352 520.559 675.678C527.872 688.004 534.672 700.973 544.807 711.245C563.154 729.863 592.278 737.182 617.169 729.221C638.21 722.544 654.889 706.751 672.979 694.168C691.069 681.584 713.907 671.569 734.82 678.76C748.548 683.51 758.812 694.81 770.231 703.798C789.347 718.82 812.57 727.808 831.815 742.446C856.705 761.321 874.154 789.44 880.569 820" stroke="#00FFB1" stroke-width="1.5" stroke-miterlimit="10" stroke-linecap="round"/>
<path d="M845.799 820C841.181 800.098 825.528 783.278 808.207 771.465C788.321 757.854 765.612 748.866 746.11 734.614C738.54 729.093 731.484 722.801 723.273 718.307C715.062 713.813 705.182 711.245 696.201 714.07C682.987 718.05 675.802 731.789 666.179 741.676C644.625 764.018 610.754 767.613 579.833 769.924C563.411 771.208 545.577 771.978 532.106 762.605C514.657 750.407 511.706 726.396 501.955 707.265C498.363 700.074 506.831 692.884 513.117 697.892L513.246 698.02C518.378 702.129 521.329 708.164 524.793 713.813C537.238 733.458 557.894 747.711 580.603 752.462C603.312 757.212 627.946 752.333 647.191 739.365C660.021 730.762 670.285 718.821 682.473 709.576C694.79 700.331 710.571 693.526 725.454 697.506C742.005 701.872 752.397 717.794 765.868 728.451C782.547 741.676 804.102 746.94 822.32 757.983C844.901 771.722 861.58 794.705 868.252 820.257" stroke="#00FFB1" stroke-width="1.5" stroke-miterlimit="10" stroke-linecap="round"/>
<path d="M1048 159.254C1023.62 150.908 996.039 153.347 970.892 160.538C941.383 169.012 913.927 183.65 885.059 194.435C856.833 204.964 826.683 212.283 802.562 230.259C771.257 253.756 754.835 292.148 746.238 330.411C740.593 355.32 737.771 381 726.993 404.112C716.858 425.94 699.152 443.66 675.289 448.667C647.576 454.574 619.991 455.344 591.765 458.04C564.052 460.737 534.8 468.826 517.351 490.654C503.367 508.116 499.518 531.485 493.103 552.928C487.842 570.904 480.401 588.238 473.088 605.444C470.393 611.864 467.443 618.54 461.926 622.649C455.639 627.272 447.428 627.785 439.858 629.968C435.111 631.252 430.492 633.306 425.617 633.82C420.741 634.334 417.534 630.995 413.557 628.17C400.213 618.797 392.515 601.72 394.44 585.542C396.493 568.208 408.168 553.57 412.53 536.75C419.073 511.326 408.425 483.849 414.583 458.297C421.126 431.205 445.247 411.816 470.65 400.517C496.053 389.218 523.766 384.082 549.426 373.296C575.086 362.511 599.72 344.278 607.803 317.571C617.682 284.7 599.72 249.39 604.98 215.493C611.908 171.195 656.172 142.176 699.281 129.978C742.389 117.652 788.834 115.854 829.505 96.9796C855.935 84.6532 879.799 65.2648 908.666 61.4128C955.881 54.9928 1000.91 92.1004 1047.62 89.404" stroke="#00FFB1" stroke-width="1.5" stroke-miterlimit="10" stroke-linecap="round"/>
<path d="M1048 140.122C1027.34 133.445 1004.12 134.857 982.823 140.122C957.035 146.542 932.786 158.226 907.896 167.599C876.463 179.284 843.746 187.373 813.211 201.369C782.804 215.364 754.065 236.679 739.823 266.981C727.122 294.073 727.25 325.146 722.888 354.935C718.654 384.595 707.492 416.439 681.447 431.076C657.84 444.301 628.972 439.807 602.029 441.348C556.868 443.788 517.993 464.203 486.303 496.56C481.427 501.439 476.808 506.832 470.522 509.914C454.741 517.489 434.469 505.291 429.851 488.471C425.232 471.651 433.315 453.289 445.888 441.22C458.59 429.15 475.14 422.345 491.563 416.31C524.921 404.112 559.69 394.225 588.429 373.425C607.418 359.557 623.455 340.297 628.459 317.314C635.387 284.7 619.093 250.161 626.791 217.675C633.206 190.84 655.53 170.039 680.677 158.483C705.696 146.927 733.537 143.075 760.864 139.223C788.192 135.371 816.033 131.262 840.795 119.064C861.323 108.921 879.157 93.641 900.327 84.7814C911.874 80.0306 924.704 77.591 937.149 79.0034C949.722 80.5442 955.367 87.7346 965.76 92.4855C978.59 98.3919 996.295 99.5475 1010.02 101.088C1022.6 102.501 1035.17 103.271 1047.87 103.014" stroke="#00FFB1" stroke-width="1.5" stroke-miterlimit="10" stroke-linecap="round"/>
<path d="M953.571 112.259C954.854 121.761 948.824 131.134 940.998 136.527C933.043 141.92 923.549 144.359 914.311 146.927C880.825 156.044 848.237 167.985 816.932 182.879C785.755 197.645 754.835 215.878 734.307 243.612C714.42 270.448 705.696 304.089 702.745 337.344C701.59 351.597 701.333 365.978 697.998 379.845C694.662 393.712 687.99 407.322 676.315 415.668C662.972 425.17 645.523 426.069 629.101 426.582C606.391 427.353 583.682 428.123 560.973 428.894C558.022 429.022 554.943 429.022 552.634 427.224C548.528 424.143 549.683 417.338 553.404 413.871C557.124 410.404 562.256 409.248 567.26 407.964C591.894 401.159 613.961 385.238 628.202 364.052C642.444 342.866 648.73 316.415 645.78 290.992C643.085 268.907 633.591 246.437 639.621 224.994C644.368 207.917 658.353 194.82 673.364 185.319C733.152 147.569 813.083 154.888 873.384 118.037C883.263 112.002 892.372 104.94 902.893 100.061C916.749 93.6413 950.492 89.5325 953.571 112.259Z" stroke="#00FFB1" stroke-width="1.5" stroke-miterlimit="10" stroke-linecap="round"/>
<path d="M-235 24.5619C-198.563 27.2583 -159.688 2.22029 -123.636 12.8775C-105.289 18.3987 -90.7908 32.2659 -75.2665 43.5651C-36.3916 71.8131 11.5926 83.7543 56.4976 100.703C89.2141 113.029 122.059 129.08 146.692 154.503C170.685 179.284 178.383 214.337 209.046 232.827C230.601 245.924 255.748 251.316 280.381 256.452C315.92 264.028 351.459 271.475 386.998 279.051C403.934 282.646 421.254 286.241 438.318 283.288C455.382 280.335 472.061 269.164 476.423 252.472C481.171 234.111 469.752 215.107 455.382 202.781C441.013 190.455 423.436 182.237 409.194 169.654C383.406 146.927 370.833 109.948 377.504 76.1787C384.176 42.6663 407.27 15.3171 427.798 -12.0321C448.326 -39.3813 467.699 -70.9677 465.005 -105.122C462.824 -132.343 446.786 -156.097 436.266 -181.263C425.873 -206.43 422.024 -238.658 440.884 -258.432C461.541 -280.003 500.287 -273.326 520.302 -251.241C540.317 -229.157 545.192 -197.185 544.166 -167.268C543.011 -137.479 536.981 -107.819 538.649 -78.0297C541.472 -29.4945 566.233 17.3715 604.852 46.9035C643.47 76.4355 695.175 88.2483 742.646 78.2331C796.147 66.9339 841.052 30.7251 878.002 -9.59251C889.036 -21.5337 905.33 -35.1441 919.443 -26.9265C925.987 -23.0745 929.194 -15.6273 932.658 -8.95051C954.341 32.3943 1001.56 58.3311 1047.87 56.0199" stroke="#00FFB1" stroke-width="1.5" stroke-miterlimit="10" stroke-linecap="round"/>
<path d="M-235 5.3021C-221.657 1.5785 -209.597 -6.89586 -199.076 -16.2691C-185.091 -28.7239 -172.261 -43.1047 -155.711 -52.0927C-139.16 -60.9523 -117.092 -63.0067 -102.723 -50.9371C-90.5342 -40.5367 -87.3267 -23.2027 -79.6287 -9.07869C-66.7987 14.5469 -41.5236 28.4141 -17.0183 39.5849C21.0868 57.0473 60.7315 71.2997 98.3234 89.7893C129.629 105.197 159.779 123.944 184.541 148.725C207.635 171.837 218.925 198.672 249.204 214.979C274.479 228.59 302.834 235.138 330.803 241.686C353.897 246.951 377.119 252.344 400.213 257.736C408.296 259.534 416.636 261.46 424.847 260.048C433.058 258.635 441.141 253.114 442.809 244.896C445.375 232.698 433.7 222.812 423.436 215.75C392.387 194.564 360.44 170.425 347.097 135.243C337.09 108.664 339.399 78.4901 348.893 51.6545C358.516 24.8189 374.938 1.06493 393.028 -20.8915C405.602 -36.1711 419.33 -51.0655 427.156 -69.2983C435.111 -87.4027 438.062 -109.873 425.745 -125.537C400.342 -158.023 392.259 -203.348 404.96 -242.638C417.662 -281.929 450.635 -314.029 490.28 -325.456C504.649 -329.565 522.483 -330.079 531.849 -318.394C535.698 -313.515 537.366 -307.352 538.906 -301.317C548.656 -263.824 558.535 -225.689 558.92 -186.913C559.434 -141.459 547.245 -95.2351 557.766 -51.0655C568.543 -5.99707 603.697 31.8809 647.062 48.3161C690.428 64.7513 740.593 60.1289 781.521 38.4293C814.237 21.0953 840.667 -6.25389 862.606 -36.0427C870.176 -46.3147 877.361 -56.9719 887.368 -64.6759C897.376 -72.3799 911.232 -76.6171 923.036 -71.8663C940.1 -64.9327 945.36 -44.0035 952.673 -27.1831C968.967 10.1813 1007.46 36.5033 1048 39.7133" stroke="#00FFB1" stroke-width="3" stroke-miterlimit="10" stroke-linecap="round"/>
<path d="M-235 -25.2572C-217.808 -36.428 -203.695 -54.404 -189.71 -70.0688C-169.182 -92.924 -137.62 -114.11 -109.651 -101.27C-88.0965 -91.3832 -79.757 -65.96 -67.5685 -45.6728C-44.3462 -6.89604 -2.9053 17.1148 38.5356 35.0908C79.9765 53.0668 123.727 67.1908 160.549 93.5128C192.752 116.625 217.899 147.954 247.793 173.891C261.778 186.089 277.559 197.26 294.366 205.221C314.637 214.851 335.807 193.536 326.441 173.121C296.29 107.252 303.988 23.5348 350.305 -32.9612C367.497 -53.8904 390.206 -73.2788 394.055 -100.114C398.289 -128.876 379.3 -155.326 370.961 -183.189C356.463 -231.596 377.504 -288.349 419.971 -315.698C449.224 -334.444 485.533 -339.452 515.683 -356.914C555.841 -380.283 580.09 -422.527 601.644 -464" stroke="#00FFB1" stroke-width="1.5" stroke-miterlimit="10" stroke-linecap="round"/>
<path d="M227.008 -108.46C217.642 -85.3482 203.401 -63.6486 200.065 -38.8674C198.397 -26.6694 199.039 -13.059 190.956 -3.81419C181.205 7.22821 163.756 6.07262 149.515 2.09222C110.384 -8.82178 74.7162 -35.2722 58.2938 -72.3798C41.8714 -109.487 47.5166 -156.867 76.2558 -185.5C96.9121 -206.173 127.576 -215.417 156.7 -212.207C180.179 -209.639 211.612 -197.955 226.88 -178.823C241.378 -160.462 234.835 -128.234 227.008 -108.46Z" stroke="#00FFB1" stroke-width="1.5" stroke-miterlimit="10" stroke-linecap="round"/>
<path d="M247.793 -166.626C228.676 -207.971 183.001 -234.935 137.583 -233.009C92.165 -230.954 49.4411 -200.652 31.4791 -158.922C13.5171 -117.192 20.5736 -65.8318 48.1581 -29.7514C75.7426 6.32898 122.7 26.4878 167.99 22.6358C180.949 21.6086 195.062 17.885 202.76 7.35618C211.227 -4.45662 209.046 -20.635 212.382 -34.759C216.359 -52.2214 228.676 -66.4738 237.272 -82.1386C250.616 -107.048 259.596 -141.074 247.793 -166.626Z" stroke="#00FFB1" stroke-width="1.5" stroke-miterlimit="10" stroke-linecap="round"/>
<path d="M-30.4898 -106.535C-26.3842 -109.359 -22.4069 -112.955 -17.4032 -113.34C-11.1165 -113.853 -5.47129 -109.231 -2.64869 -103.581C0.173907 -97.9318 0.815399 -91.6403 1.7135 -85.3487C6.8455 -52.2215 23.6528 -21.1487 48.4147 1.32132C50.8524 3.50412 53.4184 5.68694 54.5731 8.76854C55.7278 11.8501 54.8297 15.8305 51.7505 17.1145C49.6977 17.8849 47.3883 17.1145 45.2072 16.3441C4.1512 0.807734 -32.7992 -25.3859 -61.2818 -58.7699C-68.0817 -66.7307 -81.04 -83.6795 -68.4666 -91.8971C-57.1762 -99.3443 -42.1651 -98.1887 -30.4898 -106.535Z" stroke="#00FFB1" stroke-width="3" stroke-miterlimit="10" stroke-linecap="round"/>
<path d="M373.142 -464C359.927 -446.923 345.942 -430.359 328.622 -417.648C308.607 -403.01 282.947 -394.15 258.698 -399.543C232.91 -405.321 213.152 -425.737 189.545 -437.55C159.394 -452.701 118.467 -451.417 96.3989 -425.865C79.7199 -406.605 77.4105 -378.999 78.052 -353.448C78.6935 -331.876 81.2595 -309.278 93.3197 -291.302C107.689 -269.731 133.093 -258.432 157.855 -250.856C182.617 -243.28 208.533 -237.888 230.344 -223.892C266.91 -200.395 285.513 -152.245 274.479 -110.258C267.679 -84.3212 251.129 -62.2364 241.506 -37.1984C233.68 -17.0396 230.344 4.91683 220.337 24.1768C214.307 35.7328 204.941 46.2616 193.265 52.2964C184.028 57.0472 166.066 57.8176 169.017 72.9688C170.3 79.6456 175.56 84.7816 180.564 89.2756C190.828 98.392 201.862 106.738 212.767 115.084C230.344 128.438 247.921 141.791 265.498 155.145C270.374 158.868 277.045 162.72 282.049 159.254C287.053 155.915 286.155 148.34 284.872 142.433C271.528 79.9024 288.079 11.722 328.365 -37.8404C340.939 -53.2484 355.693 -67.1156 365.059 -84.7064C371.089 -96.0056 374.553 -109.359 372.885 -122.328C371.089 -135.553 361.98 -147.366 357.618 -160.077C347.867 -188.197 344.916 -219.013 350.818 -248.288C358.387 -286.423 381.097 -321.733 413.813 -342.405C438.96 -358.198 468.725 -365.132 495.155 -378.614C531.464 -396.718 561.101 -427.406 578.422 -464" stroke="#00FFB1" stroke-width="3" stroke-miterlimit="10" stroke-linecap="round"/>
<path d="M392.259 -464C359.414 -422.27 319.513 -386.061 274.736 -357.556C261.906 -349.339 248.434 -341.635 237.144 -331.234C225.854 -320.834 216.616 -307.352 214.82 -292.201C211.997 -268.575 227.008 -246.619 243.559 -229.413C259.981 -212.208 279.226 -196.286 287.951 -174.201C297.188 -151.089 293.468 -124.639 285.128 -101.142C276.789 -77.6444 264.215 -55.9448 255.363 -32.7044C248.05 -13.7012 243.302 6.07243 235.348 24.8188C228.291 41.254 218.284 57.1756 204.043 67.8328C198.654 71.8132 196.73 79.132 199.937 85.0384V85.1668C202.118 89.0188 205.326 92.2288 208.533 95.3104C220.593 106.353 234.193 115.726 248.819 123.045C250.616 123.944 252.54 124.329 254.465 123.944C259.34 123.045 259.981 118.551 260.238 114.699C261.521 99.4192 261.008 83.626 263.702 68.7316C266.525 53.5804 270.63 38.5576 275.891 24.0484C286.54 -4.96998 301.936 -32.3192 321.437 -56.33C331.06 -68.1428 341.837 -79.442 347.482 -93.4376C352.357 -105.379 353.512 -120.016 349.407 -132.471C345.558 -144.156 338.244 -154.556 334.652 -166.882C326.441 -194.488 324.645 -224.149 330.162 -252.397C337.475 -290.403 358.131 -325.97 388.281 -350.494C415.609 -372.708 449.224 -385.162 480.914 -400.57C511.449 -415.465 541.985 -434.725 558.92 -464" stroke="#00FFB1" stroke-width="1.5" stroke-miterlimit="10" stroke-linecap="round"/>
<path d="M638.082 -464C612.422 -436.137 602.414 -395.563 600.875 -357.171C599.207 -314.157 606.007 -271.143 603.056 -228.258C599.976 -184.858 586.89 -142.615 584.58 -99.2156C582.271 -55.8164 593.433 -7.92319 628.331 18.0136C666.821 46.6468 722.246 39.328 764.072 15.9592C805.898 -7.2812 838.486 -43.7468 874.795 -75.0764C890.319 -88.43 908.281 -101.527 928.809 -102.04C956.009 -102.682 978.333 -81.2396 995.654 -60.3104C1010.92 -41.9492 1026.7 -21.662 1048.13 -12.4172" stroke="#00FFB1" stroke-width="1.5" stroke-miterlimit="10" stroke-linecap="round"/>
</g>
<defs>
<clipPath id="clip0_23_1125">
<rect width="1283" height="1284" fill="white" transform="translate(-235 -464)"/>
</clipPath>
</defs>
</svg>
