<svg width="1440" height="582" viewBox="0 0 1440 582" fill="none" xmlns="http://www.w3.org/2000/svg">
<g opacity="0.4" clip-path="url(#clip0_23_522)">
<path d="M-240 516.827C-201.377 502.255 -160.548 490.331 -119.939 496.735C-83.5237 502.475 -51.3015 522.568 -17.5344 537.141C24.3986 555.247 69.6421 565.183 112.899 579.976C156.156 594.77 199.193 615.525 228.988 650.191C260.548 687.064 275.334 729.679 314.398 758.603C395.837 818.882 500.007 847.365 600.646 836.767C611.461 835.663 622.496 834.117 633.089 836.325C643.683 838.533 654.056 845.599 656.704 856.197C659.352 866.795 653.614 878.056 645.448 885.563C637.283 892.85 627.13 897.487 617.64 902.786C598.219 913.826 580.342 930.386 575.266 952.245C570.631 972.779 577.914 993.755 583.432 1013.85C596.453 1060.22 607.929 1104.16 597.336 1150.96C588.066 1192.48 571.955 1232.22 566.217 1274.39C560.479 1316.56 566.438 1363.15 595.791 1393.84C624.923 1424.32 671.491 1433.59 698.637 1465.83C725.121 1497.18 726.225 1543.99 712.1 1582.63C701.285 1612.22 682.967 1638.05 663.104 1662.78" stroke="#00FFB1" stroke-width="1.5" stroke-miterlimit="10" stroke-linecap="round"/>
<path d="M-240 475.096C-201.157 463.394 -159.665 460.965 -119.718 467.81C-55.2741 478.85 2.54931 513.736 65.2281 532.946C85.5325 539.128 105.396 544.648 126.362 548.843C170.502 557.896 211.773 581.301 242.009 614.642C267.169 642.463 284.825 676.466 310.426 703.845C347.503 743.81 394.071 769.643 447.26 781.787C498.904 793.711 551.209 803.647 603.957 808.283C635.075 810.933 666.415 812.037 697.534 815.57C718.5 817.999 759.33 820.427 756.902 851.339C755.578 866.795 743.66 878.939 731.521 888.434C701.727 911.618 664.87 927.736 644.124 959.311C622.716 991.768 623.158 1033.94 628.455 1072.58C633.751 1111.22 642.8 1150.3 635.958 1188.72C627.351 1237.52 593.584 1285.43 609.474 1332.24C623.599 1374.41 670.829 1393.84 705.479 1421.67C746.529 1454.79 772.792 1505.79 775.882 1558.34C778.089 1594.33 769.482 1630.98 752.047 1662.34" stroke="#00FFB1" stroke-width="1.5" stroke-miterlimit="10" stroke-linecap="round"/>
<path d="M-240 440.651C-205.571 425.195 -166.507 422.104 -128.988 426.299C-88.8205 430.715 -49.7566 443.301 -11.5755 456.549C13.1429 465.16 37.6406 474.213 61.9176 483.707C140.045 514.399 216.408 551.493 285.045 600.29C299.611 610.667 306.453 629.656 316.826 644.229C327.64 659.243 339.558 673.375 352.58 686.402C378.622 712.235 409.079 733.653 442.184 748.888C507.952 779.359 581.004 785.762 652.29 791.724C688.485 794.815 724.68 797.464 760.654 803.205C787.358 807.4 830.616 807.621 824.878 847.144C822.891 860.834 812.298 871.432 802.366 880.706C773.896 906.981 744.322 933.035 711.879 954.453C686.057 971.455 675.905 1004.8 676.126 1035.71C676.126 1066.62 684.733 1096.87 687.381 1127.56C691.133 1168.85 684.733 1211.02 668.843 1249.44C660.235 1269.76 648.759 1290.95 652.29 1312.81C656.483 1339.75 681.422 1357.85 704.155 1372.87C743.881 1398.92 784.71 1425.42 813.18 1463.62C841.43 1501.82 855.113 1554.59 834.809 1597.64C827.305 1613.32 815.829 1626.79 806.78 1641.8C802.807 1648.43 799.276 1655.71 796.849 1663.22" stroke="#00FFB1" stroke-width="1.5" stroke-miterlimit="10" stroke-linecap="round"/>
<path d="M-240 379.931C-185.046 396.491 -116.629 358.072 -59.9088 378.827C-34.0869 388.322 -14.2239 408.856 8.5082 424.312C56.4001 456.99 115.768 466.706 170.723 485.253C240.905 508.878 305.57 548.402 358.98 599.848C402.237 641.579 439.315 692.142 492.945 719.08C557.61 751.538 634.413 744.251 705.037 759.486C759.992 771.41 811.415 797.022 866.811 806.075C903.005 812.037 942.952 809.166 975.836 791.944C1011.37 773.618 1036.97 732.328 1053.74 697.221C1064.34 675.141 1070.96 650.853 1069.63 626.344C1068.09 596.757 1054.63 568.494 1035.2 546.194C1015.78 523.893 990.402 507.112 963.477 494.747C945.821 486.578 924.855 477.746 919.779 458.757C916.909 447.938 920.22 436.456 923.751 425.637C930.813 403.778 938.979 381.477 954.428 364.254C969.877 347.253 994.596 336.654 1016.45 344.162C1039.62 352.11 1051.98 377.061 1060.36 400.245C1072.5 433.806 1107.15 458.757 1108.04 494.085C1108.48 507.995 1102.52 521.022 1098.32 534.27C1087.07 570.04 1089.5 608.68 1089.06 646.216C1088.61 683.752 1085.08 723.275 1064.34 754.629C1044.92 783.774 1013.13 802.101 981.133 816.232C949.132 830.363 915.365 841.403 886.011 860.613C842.313 889.538 813.843 932.373 779.634 971.896C765.289 988.456 751.164 1005.68 744.984 1026.65C733.508 1065.96 753.15 1107.91 747.633 1148.32C744.543 1172.16 732.846 1193.8 721.811 1215C710.776 1236.19 699.52 1258.27 697.754 1282.34C695.768 1306.19 705.037 1332.68 726.004 1344.39C761.537 1364.04 792.655 1389.65 823.112 1416.59C851.582 1441.76 879.17 1472.23 884.467 1509.99C888.66 1540.24 877.846 1570.26 865.707 1598.08C856.438 1619.06 846.285 1640.26 840.547 1662.34" stroke="#00FFB1" stroke-width="3" stroke-miterlimit="10" stroke-linecap="round"/>
<path d="M964.139 419.896C958.622 430.053 956.635 443.08 962.374 453.237C967.891 463.394 979.588 468.693 989.74 473.992C1003.87 481.499 1017.11 490.552 1029.25 501.151C1033.44 504.904 1037.41 508.658 1042.49 511.087C1047.56 513.515 1053.52 514.399 1058.38 511.97C1063.67 509.32 1066.32 503.138 1066.76 497.397C1066.99 491.435 1065.22 485.695 1063.01 480.395C1057.94 467.147 1051.54 454.341 1044.92 441.755C1037.85 428.066 1030.79 414.155 1023.73 400.466C1020.86 395.167 1017.77 389.205 1012.25 386.997C994.596 379.269 971.202 407.09 964.139 419.896Z" stroke="#00FFB1" stroke-width="1.5" stroke-miterlimit="10" stroke-linecap="round"/>
<path d="M1698.19 1663C1688.7 1609.57 1674.79 1554.81 1634.85 1519.26C1606.6 1494.31 1569.3 1482.61 1537.74 1462.29C1502.87 1439.77 1473.96 1405.99 1433.79 1395.61C1397.59 1386.12 1359.19 1397.6 1325.43 1413.72C1291.66 1429.84 1260.1 1451.03 1224.34 1462.29C1188.81 1473.77 1146.66 1473.77 1117.3 1450.59C1090.6 1429.39 1080.01 1393.85 1056.61 1369.34C1040.72 1352.78 1018.65 1340.41 1012.25 1318.33C1006.07 1296.91 1017.99 1273.73 1032.34 1258.27C1045.8 1243.7 1052.86 1236.19 1059.26 1216.32C1072.72 1174.59 1091.48 1131.76 1127.24 1104.6C1170.27 1071.92 1227.88 1068.83 1281.73 1065.29C1335.58 1061.98 1393.84 1055.14 1433.13 1018.26C1510.81 944.959 1469.76 799.451 1546.35 724.821C1579.45 692.584 1626.9 681.765 1669.5 664.322C1720.7 643.346 1767.05 611.992 1817.81 589.912C1864.6 569.378 1918.23 557.455 1967 571.144" stroke="#00FFB1" stroke-width="1.5" stroke-miterlimit="10" stroke-linecap="round"/>
<path d="M-240 330.251C-171.362 315.899 -98.5313 320.536 -32.3213 344.162C24.84 364.475 76.2631 398.037 132.762 420.338C216.187 453.016 313.957 463.614 375.091 529.192C420.114 577.547 437.99 649.749 492.283 687.506C544.809 723.938 614.55 716.872 677.671 726.366C738.584 735.64 796.187 761.474 857.32 770.085C918.234 778.696 989.078 765.006 1023.07 713.56C1048.67 674.92 1046.02 619.941 1016.89 583.95C993.713 555.246 957.96 540.232 928.827 517.71C893.957 490.994 867.914 451.691 861.734 408.194C855.555 364.696 871.004 317.666 904.992 289.845C938.979 262.245 991.506 257.387 1027.48 282.338C1063.67 307.288 1077.36 353.435 1099.21 391.854C1115.98 421.442 1146.88 449.042 1178.22 451.47C1195.65 452.795 1204.7 473.33 1194.11 487.24C1189.03 494.085 1182.63 500.93 1175.79 508.878C1136.73 555.467 1119.95 619.72 1131.21 679.557C1136.06 705.611 1146.22 731.886 1140.26 757.941C1132.97 789.957 1103.4 811.595 1074.71 827.493C1021.3 857.301 963.256 878.056 910.951 909.851C858.645 941.426 810.973 987.131 795.524 1046.31C782.282 1097.09 793.98 1152.73 775.441 1201.97C766.171 1226.7 749.177 1249.22 747.633 1275.72C745.867 1309.5 770.365 1339.31 797.731 1359.18C825.098 1379.05 856.879 1392.96 881.597 1415.92C920.22 1452.14 936.772 1509.99 923.31 1561.21C914.261 1595.66 892.632 1629.22 888.218 1663.22" stroke="#00FFB1" stroke-width="1.5" stroke-miterlimit="10" stroke-linecap="round"/>
<path d="M1579.01 1663C1544.14 1613.32 1492.49 1575.12 1434.67 1556.57C1420.33 1551.94 1405.1 1548.4 1390.09 1550.39C1369.57 1553.04 1351.91 1565.63 1334.47 1576.45C1287.69 1605.59 1234.5 1626.35 1179.32 1629.44C1124.15 1632.53 1066.99 1616.85 1025.27 1580.64C953.545 1518.38 937.434 1407.98 863.058 1349.02C836.354 1327.83 800.6 1310.6 793.538 1277.26C786.696 1245.25 810.311 1215.66 820.905 1184.53C835.471 1141.69 824.877 1094.22 835.03 1050.28C846.285 1001.26 882.921 961.077 924.854 933.477C966.787 905.877 1014.68 888.655 1061.25 869.666C1100.31 853.768 1141.8 833.675 1161 795.919C1175.79 766.994 1174.25 733.432 1167.4 702.52C1163.87 686.402 1159.02 670.504 1153.72 654.827C1147.32 636.28 1150.85 619.72 1157.91 600.731C1174.91 556.13 1203.82 516.827 1241.34 487.24C1256.57 475.317 1272.24 462.069 1287.24 449.925C1291.66 446.392 1296.51 442.197 1294.75 435.131C1294.31 433.365 1293.42 431.819 1292.32 430.495C1288.57 425.858 1282.83 423.65 1277.31 422.104C1246.41 413.051 1212.65 411.947 1185.06 395.387C1153.72 376.619 1136.95 341.733 1117.08 311.042C1102.3 287.858 1084.64 265.778 1061.91 250.101C1048.89 241.269 1034.32 234.424 1018.87 231.333C1007.84 229.125 982.457 235.087 976.94 223.826C974.512 218.968 974.953 213.227 975.836 207.707C984.664 158.469 1001.22 111.659 1010.93 63.7458C1019.09 22.4562 1011.37 -20.379 989.961 -56.3694C977.16 -78.0078 965.243 -99.867 961.711 -127.025C960.167 -138.286 962.373 -149.768 968.553 -159.262C987.533 -187.966 1024.61 -173.614 1038.07 -149.105C1049.11 -129.013 1048.89 -104.945 1048.23 -81.9822C1046.02 7.66258 1058.6 101.503 1022.62 183.861C1018.65 192.693 1014.46 203.512 1022.85 211.24C1024.39 212.786 1026.38 213.89 1028.36 214.552C1037.63 218.085 1046.9 215.435 1055.95 215.656C1073.61 216.098 1089.72 226.917 1100.97 240.827C1112.01 254.738 1118.85 271.298 1125.69 287.637C1153.06 354.539 1229.42 390.751 1299.82 407.09C1370.23 423.429 1444.6 416.143 1514.12 396.271C1583.64 376.399 1648.97 344.162 1712.75 309.938C1722.69 304.639 1733.28 299.119 1744.53 298.898C1760.87 298.677 1774.77 309.717 1788.01 318.991C1839.88 355.423 1903.44 374.853 1966.78 373.97" stroke="#00FFB1" stroke-width="1.5" stroke-miterlimit="10" stroke-linecap="round"/>
<path d="M1967 526.763C1925.07 512.411 1877.62 516.607 1834.36 528.971C1783.6 543.544 1736.37 568.715 1686.71 587.263C1638.16 605.368 1586.29 617.954 1544.8 648.866C1490.95 689.272 1462.7 755.291 1447.91 821.09C1438.2 863.925 1433.35 908.085 1414.81 947.829C1397.37 985.365 1366.92 1015.84 1325.87 1024.45C1278.2 1034.6 1230.74 1035.93 1182.19 1040.56C1134.52 1045.2 1084.2 1059.11 1054.18 1096.65C1030.13 1126.68 1023.51 1166.86 1012.47 1203.74C1003.42 1234.65 990.623 1264.46 978.043 1294.04C973.409 1305.08 968.333 1316.56 958.842 1323.63C948.028 1331.58 933.903 1332.46 920.882 1336.22C912.716 1338.42 904.771 1341.96 896.384 1342.84C887.998 1343.72 882.48 1337.98 875.639 1333.12C852.686 1317.01 839.444 1287.64 842.754 1259.82C846.285 1230.01 866.369 1204.84 873.873 1175.92C885.129 1132.2 866.811 1084.95 877.404 1041.01C888.66 994.418 930.151 961.077 973.85 941.647C1017.55 922.216 1065.22 913.384 1109.36 894.837C1153.5 876.29 1195.87 844.936 1209.78 799.01C1226.77 742.485 1195.87 681.765 1204.92 623.474C1216.84 547.298 1292.98 497.397 1367.14 476.421C1441.29 455.224 1521.19 452.133 1591.15 419.675C1636.61 398.479 1677.66 365.138 1727.32 358.514C1808.54 347.474 1886 411.285 1966.34 406.648" stroke="#00FFB1" stroke-width="1.5" stroke-miterlimit="10" stroke-linecap="round"/>
<path d="M1967 493.864C1931.47 482.383 1891.52 484.811 1854.88 493.864C1810.52 504.904 1768.81 524.997 1726 541.115C1671.92 561.208 1615.65 575.119 1563.12 599.186C1510.81 623.253 1461.38 659.906 1436.88 712.015C1415.03 758.603 1415.25 812.037 1407.75 863.263C1400.46 914.267 1381.26 969.026 1336.46 994.197C1295.85 1016.94 1246.19 1009.21 1199.85 1011.86C1122.16 1016.06 1055.29 1051.16 1000.78 1106.8C992.389 1115.2 984.443 1124.47 973.629 1129.77C946.483 1142.8 911.612 1121.82 903.667 1092.89C895.722 1063.97 909.626 1032.4 931.255 1011.64C953.104 990.885 981.574 979.182 1009.82 968.805C1067.21 947.829 1127.02 930.827 1176.45 895.058C1209.12 871.211 1236.7 838.091 1245.31 798.568C1257.23 742.485 1229.2 683.09 1242.44 627.227C1253.48 581.08 1291.88 545.311 1335.14 525.439C1378.17 505.567 1426.06 498.943 1473.07 492.319C1520.08 485.695 1567.97 478.629 1610.57 457.653C1645.88 440.21 1676.56 413.935 1712.97 398.699C1732.84 390.53 1754.91 386.335 1776.31 388.763C1797.94 391.413 1807.65 403.778 1825.53 411.947C1847.6 422.104 1878.06 424.091 1901.67 426.741C1923.3 429.17 1944.93 430.495 1966.78 430.053" stroke="#00FFB1" stroke-width="1.5" stroke-miterlimit="10" stroke-linecap="round"/>
<path d="M1804.56 445.951C1806.77 462.29 1796.4 478.408 1782.94 487.682C1769.25 496.955 1752.92 501.151 1737.03 505.567C1679.43 521.243 1623.37 541.778 1569.52 567.391C1515.89 592.783 1462.7 624.136 1427.39 671.829C1393.18 717.976 1378.17 775.826 1373.1 833.013C1371.11 857.522 1370.67 882.251 1364.93 906.098C1359.19 929.944 1347.72 953.349 1327.63 967.701C1304.68 984.04 1274.66 985.586 1246.41 986.469C1207.35 987.794 1168.29 989.119 1129.22 990.443C1124.15 990.664 1118.85 990.664 1114.88 987.573C1107.81 982.274 1109.8 970.571 1116.2 964.61C1122.6 958.648 1131.43 956.661 1140.04 954.453C1182.41 942.751 1220.37 915.371 1244.87 878.939C1269.37 842.507 1280.18 797.023 1275.11 753.304C1270.47 715.327 1254.14 676.687 1264.51 639.813C1272.68 610.447 1296.73 587.925 1322.56 571.586C1425.4 506.671 1562.9 519.256 1666.63 455.887C1683.62 445.509 1699.29 433.365 1717.39 424.975C1741.22 413.935 1799.27 406.869 1804.56 445.951Z" stroke="#00FFB1" stroke-width="1.5" stroke-miterlimit="10" stroke-linecap="round"/>
<path d="M1504.85 540.453C1511.92 540.011 1520.08 540.453 1524.5 545.973C1530.68 554.143 1523.83 565.624 1516.55 572.91C1485.87 602.939 1444.16 619.941 1412.6 649.086C1384.57 675.141 1366.03 710.027 1354.12 746.459C1342.42 782.891 1336.9 821.09 1332.27 859.067C1330.28 875.627 1328.29 892.187 1322.34 907.864C1316.38 923.32 1306 937.893 1291.22 945.4C1277.09 952.466 1255.9 949.816 1250.17 935.022C1244.87 921.112 1255.9 906.981 1264.73 895.058C1292.54 857.743 1305.78 810.05 1301.15 763.902C1296.95 720.626 1271.79 662.335 1307.99 627.227C1341.76 594.77 1382.81 570.04 1427.39 555.467C1452.33 547.077 1478.37 541.999 1504.85 540.453Z" stroke="#00FFB1" stroke-width="3" stroke-miterlimit="10" stroke-linecap="round"/>
<path d="M-240 295.144C-177.321 299.781 -110.449 256.725 -48.4324 275.051C-16.8723 284.546 8.0668 308.392 34.7715 327.822C101.644 376.398 184.185 396.933 261.43 426.078C317.709 447.275 374.208 474.875 416.583 518.594C457.853 561.208 471.095 621.486 523.843 653.282C560.92 675.803 604.178 685.077 646.552 693.909C707.686 706.936 768.82 719.742 829.954 732.77C859.086 738.952 888.88 745.134 918.234 740.056C947.587 734.978 976.278 715.768 983.782 687.064C991.947 655.49 972.305 622.811 947.587 601.614C922.868 580.418 892.632 566.286 868.135 544.648C823.774 505.566 802.145 441.976 813.622 383.906C825.098 326.277 864.824 279.246 900.136 232.216C935.448 185.186 968.774 130.869 964.139 72.136C960.387 25.3264 932.8 -15.5216 914.702 -58.7984C896.826 -102.075 890.205 -157.496 922.648 -191.499C958.18 -228.594 1024.83 -217.112 1059.26 -179.134C1093.69 -141.157 1102.08 -86.1776 1100.31 -34.7312C1098.32 16.4944 1087.95 67.4992 1090.82 118.725C1095.68 202.187 1138.27 282.779 1204.7 333.563C1271.13 384.347 1360.08 404.661 1441.73 387.438C1533.77 368.008 1611.01 305.742 1674.57 236.411C1693.55 215.877 1721.58 192.472 1745.86 206.603C1757.11 213.227 1762.63 226.034 1768.59 237.515C1805.89 308.613 1887.11 353.214 1966.78 349.24" stroke="#00FFB1" stroke-width="1.5" stroke-miterlimit="10" stroke-linecap="round"/>
<path d="M-240 262.024C-217.047 255.621 -196.301 241.048 -178.204 224.93C-154.148 203.512 -132.078 178.782 -103.607 163.326C-75.1371 148.091 -37.1767 144.558 -12.4583 165.314C8.5082 183.198 14.0257 213.006 27.2677 237.294C49.3377 277.922 92.8156 301.768 134.969 320.978C200.517 351.006 268.713 375.515 333.379 407.31C387.229 433.806 439.094 466.043 481.689 508.658C521.415 548.402 540.837 594.549 592.922 622.59C636.4 645.995 685.174 657.256 733.287 668.517C773.013 677.57 812.96 686.843 852.686 696.117C866.59 699.208 880.935 702.52 895.06 700.091C909.185 697.662 923.089 688.168 925.958 674.037C930.372 653.061 910.288 636.059 892.632 623.915C839.223 587.483 784.269 545.973 761.316 485.474C744.101 439.768 748.074 387.88 764.406 341.733C780.958 295.586 809.208 254.738 840.327 216.981C861.955 190.706 885.57 165.093 899.033 133.739C912.716 102.606 917.792 63.9665 896.605 37.0289C852.906 -18.8335 839.002 -96.776 860.852 -164.341C882.701 -231.906 939.421 -287.106 1007.62 -306.757C1032.34 -313.822 1063.01 -314.706 1079.12 -294.613C1085.74 -286.222 1088.61 -275.624 1091.26 -265.246C1108.04 -200.773 1125.03 -135.195 1125.69 -68.5136C1126.57 9.64963 1105.61 89.1376 1123.71 165.093C1142.24 242.594 1202.72 307.73 1277.31 335.992C1351.91 364.254 1438.2 356.306 1508.61 318.99C1564.88 289.182 1610.35 242.152 1648.09 190.926C1661.11 173.262 1673.47 154.936 1690.68 141.688C1707.9 128.44 1731.73 121.154 1752.04 129.323C1781.39 141.246 1790.44 177.237 1803.02 206.162C1831.05 270.414 1897.26 315.678 1967 321.198" stroke="#00FFB1" stroke-width="3" stroke-miterlimit="10" stroke-linecap="round"/>
<path d="M-240 209.474C-210.426 190.264 -186.149 159.352 -162.093 132.414C-126.781 93.112 -72.4887 56.68 -24.3761 78.76C12.7015 95.7616 27.047 139.48 48.0135 174.366C87.9602 241.048 159.246 282.338 230.532 313.25C301.818 344.162 377.077 368.45 440.418 413.714C495.814 453.458 539.071 507.333 590.494 551.934C614.55 572.91 641.697 592.12 670.608 605.81C705.479 622.37 741.894 585.717 725.783 550.61C673.919 437.339 687.161 293.378 766.833 196.226C796.407 160.235 835.471 126.894 842.092 80.7472C849.375 31.288 816.712 -14.1968 802.366 -62.1104C777.427 -145.352 813.622 -242.946 886.674 -289.976C936.993 -322.213 999.451 -330.824 1051.32 -360.853C1120.39 -401.038 1162.11 -473.682 1199.18 -545" stroke="#00FFB1" stroke-width="1.5" stroke-miterlimit="10" stroke-linecap="round"/>
<path d="M361.187 16.7154C364.277 32.613 373.767 46.7442 385.243 58.2258C389.878 62.8626 395.616 67.2786 402.016 66.1746C410.403 64.629 413.713 54.693 415.479 46.3026C418.789 30.1842 422.321 14.2866 425.631 -1.83179C426.735 -7.35179 428.059 -13.3134 426.514 -18.8334C423.866 -28.9902 412.389 -34.9518 401.796 -35.1726C372.884 -35.1726 355.89 -11.3262 361.187 16.7154Z" stroke="#00FFB1" stroke-width="1.5" stroke-miterlimit="10" stroke-linecap="round"/>
<path d="M333.599 -23.2495C324.992 -5.80626 324.551 14.5073 326.978 33.7169C332.275 73.4609 349.931 111.659 377.298 141.026C383.698 147.871 390.54 154.274 399.147 158.027C407.754 161.781 418.127 162.223 425.852 157.365C434.459 152.066 438.432 141.688 441.742 132.194C451.453 104.815 461.164 77.2145 470.875 49.8353C475.509 36.8081 480.144 23.5601 481.689 9.87054C483.234 -3.81906 481.689 -18.3918 474.627 -30.315C465.357 -45.771 447.701 -54.6031 430.045 -57.4735C396.719 -63.2143 350.152 -56.8111 333.599 -23.2495Z" stroke="#00FFB1" stroke-width="1.5" stroke-miterlimit="10" stroke-linecap="round"/>
<path d="M295.197 87.1505C310.867 144.779 355.228 191.147 405.768 223.163C420.996 232.879 440.639 241.49 456.529 232.658C467.343 226.696 472.64 213.89 474.185 201.746C475.73 189.602 474.185 177.016 475.289 164.872C478.158 127.557 501.993 95.9825 519.429 63.0833C536.864 29.9633 547.016 -13.0927 524.284 -42.6799C509.939 -61.4479 485.882 -69.6175 462.929 -74.4751C433.135 -80.6575 400.03 -83.9695 369.794 -79.7743C348.828 -76.9039 336.248 -63.2143 322.564 -47.0959C291.446 -10.8847 282.838 41.8865 295.197 87.1505Z" stroke="#00FFB1" stroke-width="1.5" stroke-miterlimit="10" stroke-linecap="round"/>
<path d="M554.741 66.3954C538.63 106.139 514.132 143.455 508.394 186.069C505.525 207.045 506.628 230.45 492.724 246.347C475.951 265.336 445.936 263.349 421.438 256.504C354.124 237.736 292.77 192.251 264.52 128.44C236.271 64.629 245.981 -16.8462 295.418 -66.0846C330.951 -101.633 383.698 -117.531 433.797 -112.011C474.185 -107.595 528.257 -87.5022 554.52 -54.603C579.459 -23.0286 568.203 32.3922 554.741 66.3954Z" stroke="#00FFB1" stroke-width="1.5" stroke-miterlimit="10" stroke-linecap="round"/>
<path d="M590.494 -33.6271C557.61 -104.725 479.041 -151.093 400.913 -147.781C322.785 -144.248 249.292 -92.1391 218.394 -20.3791C187.496 51.3809 199.634 139.701 247.085 201.746C294.535 263.791 375.312 298.456 453.219 291.832C475.509 290.066 499.786 283.662 513.028 265.557C527.595 245.243 523.843 217.422 529.581 193.134C536.423 163.106 557.61 138.597 572.397 111.659C595.35 68.8241 610.798 10.3121 590.494 -33.6271Z" stroke="#00FFB1" stroke-width="1.5" stroke-miterlimit="10" stroke-linecap="round"/>
<path d="M-240 140.584C-238.455 139.48 -237.131 138.155 -235.807 137.051C-220.799 124.024 -209.323 107.685 -195.639 93.5536C-156.355 52.7056 -98.5313 30.8464 -42.0321 35.2624C-1.2026 38.5744 39.8476 54.472 79.3529 44.0944C108.485 36.3664 132.321 14.9488 150.86 -8.89761C169.399 -32.744 183.744 -59.4608 201.841 -83.7488C224.353 -113.778 253.044 -140.274 266.286 -175.381C283.059 -220.424 272.024 -270.104 265.403 -317.576C254.589 -393.973 257.458 -476.11 289.459 -545" stroke="#00FFB1" stroke-width="1.5" stroke-miterlimit="10" stroke-linecap="round"/>
<path d="M111.796 69.7073C118.858 64.8497 125.7 58.6673 134.307 58.0049C145.122 57.1217 154.832 65.0705 159.688 74.7857C164.543 84.5009 165.647 95.3201 167.191 106.139C176.019 163.106 204.931 216.539 247.526 255.179C251.72 258.933 256.134 262.686 258.12 267.986C260.106 273.285 258.561 280.13 253.265 282.338C249.733 283.662 245.761 282.338 242.009 281.013C171.385 254.296 107.823 209.253 58.8278 151.845C47.1307 138.155 24.84 109.01 46.4686 94.8785C65.8902 82.0721 91.7121 84.0593 111.796 69.7073Z" stroke="#00FFB1" stroke-width="3" stroke-miterlimit="10" stroke-linecap="round"/>
<path d="M806.118 -545C783.386 -515.634 759.33 -487.15 729.535 -465.291C695.106 -440.12 650.966 -424.885 609.254 -434.158C564.893 -444.094 530.905 -479.202 490.296 -499.515C438.432 -525.57 368.029 -523.362 330.068 -479.422C301.377 -446.302 297.405 -398.83 298.508 -354.891C299.612 -317.797 304.026 -278.936 324.771 -248.024C349.49 -210.93 393.188 -191.499 435.783 -178.472C478.379 -165.445 522.96 -156.171 560.479 -132.104C623.378 -91.6976 655.38 -8.89756 636.4 63.3041C624.703 107.906 596.232 145.883 579.68 188.939C566.217 223.605 560.479 261.362 543.264 294.482C532.891 314.354 516.78 332.459 496.697 342.837C480.806 351.006 449.908 352.331 454.984 378.386C457.191 389.867 466.24 398.699 474.847 406.427C492.503 422.104 511.484 436.456 530.243 450.808C560.479 473.771 590.715 496.735 620.951 519.698C629.337 526.101 640.814 532.725 649.421 526.763C658.028 521.022 656.483 507.995 654.276 497.838C631.324 390.309 659.794 273.064 729.094 187.835C750.722 161.339 776.103 137.493 792.214 107.243C802.587 87.8128 808.546 64.8497 805.677 42.5489C802.587 19.8065 786.917 -0.507162 779.413 -22.3664C762.64 -70.7216 757.564 -123.714 767.716 -174.056C780.737 -239.634 819.801 -300.354 876.08 -335.902C919.337 -363.061 970.539 -374.984 1016 -398.168C1078.46 -429.301 1129.44 -482.072 1159.24 -545" stroke="#00FFB1" stroke-width="3" stroke-miterlimit="10" stroke-linecap="round"/>
<path d="M839.002 -545C782.503 -473.24 713.865 -410.974 636.841 -361.957C614.771 -347.826 591.598 -334.578 572.176 -316.693C552.754 -298.808 536.864 -275.624 533.774 -249.57C528.919 -208.942 554.741 -171.186 583.211 -141.598C611.461 -112.011 644.566 -84.632 659.573 -46.6544C675.464 -6.91042 669.063 38.5744 654.718 78.9808C640.372 119.387 618.744 156.702 603.515 196.667C590.936 229.346 582.77 263.349 569.086 295.586C556.948 323.848 539.733 351.227 515.235 369.554C505.966 376.398 502.656 388.984 508.173 399.141V399.362C511.925 405.986 517.442 411.506 522.96 416.805C543.706 435.794 567.1 451.912 592.26 464.498C595.35 466.043 598.66 466.706 601.971 466.043C610.357 464.498 611.461 456.77 611.902 450.146C614.109 423.87 613.226 396.712 617.861 371.099C622.716 345.045 629.779 319.211 638.827 294.261C657.146 244.36 683.63 197.33 717.176 156.04C733.728 135.726 752.267 116.296 761.978 92.2288C770.365 71.6944 772.351 46.5232 765.288 25.1056C758.667 5.01281 746.088 -12.872 739.908 -34.0688C725.783 -81.5408 722.693 -132.546 732.183 -181.122C744.763 -246.478 780.296 -307.64 832.161 -349.813C879.17 -388.011 936.993 -409.429 991.506 -435.925C1044.03 -461.538 1096.56 -494.658 1125.69 -545" stroke="#00FFB1" stroke-width="1.5" stroke-miterlimit="10" stroke-linecap="round"/>
<path d="M-240 64.6289C-173.349 16.7153 -90.8068 -8.67676 -8.70639 -5.80636C20.2053 -4.70236 51.5447 -0.948762 76.2631 -15.7424C93.0363 -25.6784 104.071 -42.9008 114.665 -59.24C151.301 -116.648 188.379 -175.822 202.283 -242.283C213.318 -295.275 208.904 -350.254 208.462 -404.35C208.021 -452.264 211.331 -501.502 229.87 -545" stroke="#00FFB1" stroke-width="3" stroke-miterlimit="10" stroke-linecap="round"/>
<path d="M-240 6.33771C-177.983 -23.6911 -110.89 -42.6799 -42.4735 -49.7455C-17.093 -52.3951 9.391 -53.4991 31.6817 -66.0847C55.5173 -79.5535 70.5249 -104.062 84.429 -127.467C111.796 -172.952 139.383 -219.32 151.08 -270.987C163.219 -324.862 157.481 -380.945 157.039 -436.145C156.598 -472.577 158.805 -510.334 169.399 -544.779" stroke="#00FFB1" stroke-width="1.5" stroke-miterlimit="10" stroke-linecap="round"/>
<path d="M1624.69 -545C1603.07 -528.882 1575.48 -520.491 1548.55 -515.413C1513.46 -508.789 1476.83 -506.139 1444.38 -491.125C1385.68 -464.187 1349.04 -395.518 1359.41 -331.928C1367.14 -283.573 1398.04 -241.842 1409.73 -194.37C1420.77 -149.989 1414.15 -102.738 1400.24 -59.0191C1392.52 -34.9519 1383.03 -7.35196 1396.27 14.0656C1408.19 33.496 1434.89 39.2369 1456.96 33.7169C1479.03 28.1969 1497.79 13.8448 1516.11 0.376045C1651.62 -99.8672 1805.23 -175.602 1967 -222.19" stroke="#00FFB1" stroke-width="1.5" stroke-miterlimit="10" stroke-linecap="round"/>
<path d="M1508.61 -545C1457.62 -524.245 1397.81 -519.829 1356.32 -483.618C1310.2 -443.432 1300.04 -374.101 1312.62 -314.264C1323 -265.026 1346.17 -218.216 1347.94 -167.874C1349.26 -127.467 1336.68 -88.1648 1326.75 -48.8624C1316.82 -9.56002 1309.31 32.1712 1321.23 70.8112C1333.15 109.451 1369.56 143.454 1409.95 139.259C1447.47 135.285 1473.96 102.606 1499.34 75.0064C1563.78 5.23356 1646.98 -44.888 1734.38 -81.7616C1809.42 -113.336 1888.21 -135.637 1967 -156.613" stroke="#00FFB1" stroke-width="1.5" stroke-miterlimit="10" stroke-linecap="round"/>
<path d="M1364.71 -545C1315.49 -510.334 1281.73 -453.81 1276.21 -393.752C1270.03 -326.85 1296.73 -260.61 1293.86 -193.266C1291.44 -136.299 1268.26 -82.8655 1253.04 -28.1071C1237.59 26.6513 1230.74 88.4752 1258.55 137.934C1285.92 186.731 1346.83 214.11 1401.57 202.187C1441.95 193.355 1475.94 166.197 1504.41 135.947C1532.88 105.918 1557.38 72.1361 1588.28 44.7569C1640.14 -1.39034 1706.57 -27.0032 1771.46 -51.7328C1802.14 -63.4352 1838.77 -74.696 1866.14 -56.3696C1885.34 -43.5632 1893.73 -20.1584 1903 1.03845C1918.67 36.8081 1940.52 69.9281 1967.22 98.6321" stroke="#00FFB1" stroke-width="3" stroke-miterlimit="10" stroke-linecap="round"/>
<path d="M1311.08 -545C1257.67 -494.437 1224.12 -401.922 1225.67 -332.811C1226.99 -274.299 1250.83 -217.774 1250.17 -159.262C1249.28 -94.568 1218.83 -33.848 1208.23 29.9632C1198.52 88.2544 1206.91 151.182 1240.01 200.421C1273.12 249.659 1332.71 282.117 1391.41 274.389C1431.14 269.09 1466.89 246.789 1496.91 220.072C1526.92 193.355 1552.75 162.222 1581.88 134.622C1638.82 80.5264 1709 40.5616 1784.48 18.9232C1802.36 13.8448 1822.66 9.87037 1838.99 18.9232C1856.43 28.6384 1863.27 49.6144 1870.77 68.1616C1890.64 116.958 1924.63 159.794 1967.22 190.485" stroke="#00FFB1" stroke-width="1.5" stroke-miterlimit="10" stroke-linecap="round"/>
<path d="M1261.86 -545C1217.72 -497.086 1200.51 -427.314 1197.86 -361.294C1194.99 -287.326 1206.69 -213.358 1201.61 -139.611C1196.32 -64.9807 1173.8 7.66246 1169.83 82.2929C1165.86 156.923 1185.06 239.282 1245.09 283.883C1311.3 333.122 1406.64 320.536 1478.59 280.35C1550.54 240.386 1606.6 177.678 1669.06 123.803C1695.76 100.84 1726.66 78.3184 1761.97 77.4352C1808.76 76.3312 1847.16 113.205 1876.95 149.195C1903.22 180.77 1930.36 215.656 1967.22 231.554" stroke="#00FFB1" stroke-width="1.5" stroke-miterlimit="10" stroke-linecap="round"/>
</g>
<defs>
<clipPath id="clip0_23_522">
<rect width="2207" height="2208" fill="white" transform="translate(-240 -545)"/>
</clipPath>
</defs>
</svg>
